<?xml version="1.0" encoding="UTF-8"?>
<svg width="32px" height="30px" viewBox="0 0 32 30" version="1.1" xmlns="http://www.w3.org/2000/svg" xmlns:xlink="http://www.w3.org/1999/xlink">
    <!-- Generator: Sketch 48.2 (47327) - http://www.bohemiancoding.com/sketch -->
    <title>Logo</title>
    <desc>Created with Sketch.</desc>
    <defs></defs>
    <g id="UI-HomepageLogin" stroke="none" stroke-width="1" fill="none" fill-rule="evenodd" transform="translate(-851.000000, -890.000000)" opacity="0.8">
        <g id="OurStates" transform="translate(320.000000, 750.000000)" fill="#FFFFFF" fill-rule="nonzero">
            <g id="States" transform="translate(0.000000, 110.000000)">
                <g id="1">
                    <g id="NbrCards" transform="translate(531.000000, 30.000000)">
                        <g id="Logo">
                            <path d="M29.9052632,22.4368421 L29.8315789,22.4368421 L20.4052632,22.4368421 C19.9406366,22.4342904 19.4966542,22.2445544 19.1736842,21.9105263 C18.8376256,21.5889584 18.6475034,21.1440724 18.6473684,20.6789474 L18.6842105,3.15789474 C18.684133,2.69452303 18.8703407,2.2505735 19.20095,1.92590322 C19.5315594,1.60123293 19.9788111,1.42310263 20.4421053,1.43157895 L29.8684211,1.43157895 C30.8264775,1.42864519 31.6071106,2.19987311 31.6157895,3.15789474 L31.6157895,20.7157895 C31.6126444,21.1802927 31.4230025,21.6240548 31.0894737,21.9473684 C30.7733784,22.2582697 30.3486217,22.4338358 29.9052632,22.4368421 Z M20.4315789,3.02631579 C20.3657289,3.02608678 20.3107503,3.07648383 20.3052632,3.14210526 L20.2684211,20.6842105 C20.2684211,20.7526316 20.3526316,20.8052632 20.4052632,20.8052632 L29.8315789,20.8052632 C29.8894737,20.8052632 29.9684211,20.7526316 29.9684211,20.7 L30,3.15789474 C29.9917477,3.09012734 29.9311447,3.04117881 29.8631579,3.04736842 L20.4368421,3.04736842 L20.4315789,3.02631579 Z" id="Shape"></path>
                            <path d="M16.7210526,29.8684211 C16.4088573,29.8659687 16.1032092,29.7786407 15.8368421,29.6157895 L0.826315789,20.5263158 C0.425905588,20.2878834 0.143466454,19.8928503 0.0473684211,19.4368421 C-0.0584482866,18.9910562 0.0172881864,18.5214901 0.257894737,18.1315789 L3.34210526,12.8684211 C3.47449216,12.5934531 3.75010623,12.4161536 4.05521574,12.4096849 C4.36032524,12.4032162 4.64320624,12.5686749 4.78712829,12.8377847 C4.93105035,13.1068945 4.91161495,13.4340344 4.73684211,13.6842105 L1.63684211,18.9473684 C1.60449448,19.0044013 1.61536732,19.076162 1.66315789,19.1210526 L16.6736842,28.2368421 C16.7351499,28.2626693 16.8062825,28.2404404 16.8421053,28.1842105 L18.2473684,25.6157895 C18.3495402,25.4261701 18.5238581,25.2857621 18.7308897,25.2263272 C18.9379213,25.1668923 19.1601727,25.1934526 19.3473684,25.3 C19.7396618,25.5151963 19.8833692,26.0075705 19.6684211,26.4 L18.2421053,28.9947368 C17.9238916,29.5330674 17.3463897,29.8647813 16.7210526,29.8684211 Z" id="Shape"></path>
                            <path d="M14.8473684,23.3315789 C14.5593405,23.3276442 14.2933071,23.1767596 14.1421053,22.9315789 L5.32631579,7.75263158 C5.09315223,7.3514845 5.03239326,6.87300764 5.15789474,6.42631579 C5.28573624,5.98429413 5.57754091,5.60777198 5.97368421,5.37368421 L14.1210526,0.636842105 C14.3051246,0.525010133 14.5267038,0.492676997 14.7350572,0.54724574 C14.9434106,0.601814482 15.1206938,0.738611584 15.2263158,0.926315789 C15.4500428,1.31167302 15.3207432,1.80536241 14.9368421,2.03157895 L6.78421053,6.76842105 C6.72681227,6.8006648 6.70207891,6.87036789 6.72631579,6.93157895 L15.5473684,22.1052632 C15.7671385,22.492392 15.6359818,22.9842296 15.2526316,23.2105263 C15.1283213,23.2807349 14.9898203,23.3221053 14.8473684,23.3315789 Z" id="Shape"></path>
                        </g>
                    </g>
                </g>
            </g>
        </g>
    </g>
</svg>