<?xml version="1.0" encoding="utf-8"?>
<!-- Generator: Adobe Illustrator 21.1.0, SVG Export Plug-In . SVG Version: 6.00 Build 0)  -->
<svg version="1.1" id="Calque_1" xmlns="http://www.w3.org/2000/svg" xmlns:xlink="http://www.w3.org/1999/xlink" x="0px" y="0px"
	 width="17px" height="15.8px" viewBox="0 0 17 15.8" style="enable-background:new 0 0 17 15.8;" xml:space="preserve">
<style type="text/css">
	.st0{opacity:0.8;}
	.st1{fill:#EF5285;}
</style>
<title>Logo</title>
<desc>Created with Sketch.</desc>
<g id="UI-HomepageLogin" transform="translate(-851.000000, -890.000000)" class="st0">
	<g id="OurStates" transform="translate(320.000000, 750.000000)">
		<g id="States" transform="translate(0.000000, 110.000000)">
			<g id="_x31_">
				<g id="NbrCards" transform="translate(531.000000, 30.000000)">
					<g id="Logo">
						<path id="Shape" class="st1" d="M16.1,11.8L16.1,11.8H11c-0.2,0-0.5-0.1-0.7-0.3c-0.2-0.2-0.3-0.4-0.3-0.7l0-9.4
							c0-0.2,0.1-0.5,0.3-0.7c0.2-0.2,0.4-0.3,0.7-0.3h5.1c0.5,0,0.9,0.4,0.9,0.9v9.4c0,0.2-0.1,0.5-0.3,0.7
							C16.5,11.7,16.3,11.8,16.1,11.8z M11,1.3C11,1.3,10.9,1.4,11,1.3l-0.1,9.5c0,0,0,0.1,0.1,0.1H16c0,0,0.1,0,0.1-0.1l0-9.4
							c0,0,0-0.1-0.1-0.1L11,1.3L11,1.3z"/>
						<path id="Shape_1_" class="st1" d="M9,15.8c-0.2,0-0.3,0-0.5-0.1l-8.1-4.9c-0.2-0.1-0.4-0.3-0.4-0.6C0,9.9,0,9.7,0.1,9.5
							l1.7-2.8C1.9,6.5,2,6.4,2.2,6.4c0.2,0,0.3,0.1,0.4,0.2c0.1,0.1,0.1,0.3,0,0.5L0.9,9.9c0,0,0,0.1,0,0.1L9,14.9c0,0,0.1,0,0.1,0
							l0.8-1.4c0.1-0.1,0.1-0.2,0.3-0.2c0.1,0,0.2,0,0.3,0c0.2,0.1,0.3,0.4,0.2,0.6l-0.8,1.4C9.6,15.6,9.3,15.8,9,15.8z"/>
						<path id="Shape_2_" class="st1" d="M8,12.3c-0.2,0-0.3-0.1-0.4-0.2L2.9,3.9C2.7,3.7,2.7,3.4,2.8,3.2C2.8,2.9,3,2.7,3.2,2.6
							l4.4-2.5C7.7,0,7.8,0,7.9,0C8,0,8.1,0.1,8.2,0.2C8.3,0.4,8.2,0.7,8,0.8L3.6,3.4c0,0,0,0.1,0,0.1l4.7,8.2
							c0.1,0.2,0,0.5-0.2,0.6C8.1,12.2,8.1,12.3,8,12.3z"/>
					</g>
				</g>
			</g>
		</g>
	</g>
</g>
</svg>
