<?xml version="1.0" encoding="utf-8"?>
<!-- Generator: Adobe Illustrator 21.1.0, SVG Export Plug-In . SVG Version: 6.00 Build 0)  -->
<svg version="1.1" id="Calque_1" xmlns="http://www.w3.org/2000/svg" xmlns:xlink="http://www.w3.org/1999/xlink" x="0px" y="0px"
	 width="24px" height="24px" viewBox="0 0 24 24" style="enable-background:new 0 0 24 24;" xml:space="preserve">
<style type="text/css">
	.st0{fill:#30b996;}
</style>
<title>Cards</title>
<desc>Created with Sketch.</desc>
<g id="Icon_x2F_HeartYes">
	<g id="Cards" transform="translate(-1.000000, 0.000000)">
		<path id="Combined-Shape" class="st0" d="M18.5,16.7c0-0.2,0-0.5,0-0.7c-0.1-0.4-0.3-0.9-0.6-1.2l1-0.6l0,0c0.5-0.3,0.9-0.8,1-1.3
			c0.2-0.6,0.1-1.2-0.2-1.7L15,3c0-0.2,0.2-0.5,0.4-0.6C15.6,2.1,16,2,16.3,2h6.9c0.7,0,1.3,0.5,1.3,1.2v12.3c0,0.3-0.1,0.6-0.4,0.9
			c-0.2,0.2-0.5,0.3-0.9,0.3h-0.1H18.5z"/>
		<path id="Combined-Shape_1_" class="st0" d="M17,14.1L7.3,7.8C6.8,7.5,6.2,7.4,5.6,7.5l-1-1.8C4.5,5.5,4.4,5.1,4.5,4.8
			c0.1-0.3,0.3-0.6,0.6-0.8l5.9-3.4c0.6-0.4,1.4-0.2,1.7,0.4l6.1,10.6c0.2,0.3,0.2,0.6,0.1,0.9c-0.1,0.3-0.3,0.6-0.6,0.7l0,0
			L17,14.1z"/>
		<path id="Shape-Copy-4" class="st0" d="M17.4,17.1l-3.7,5.7c-0.2,0.3-0.5,0.5-0.8,0.6c-0.3,0.1-0.7,0-0.9-0.1L1.6,16.5
			c-0.3-0.2-0.5-0.5-0.5-0.8c-0.1-0.3,0-0.7,0.2-0.9l3.7-5.7c0.4-0.6,1.1-0.8,1.7-0.4l10.3,6.7c0.3,0.2,0.5,0.5,0.5,0.8
			C17.6,16.5,17.6,16.8,17.4,17.1L17.4,17.1z"/>
	</g>
</g>
</svg>
