<?xml version="1.0" encoding="utf-8"?>
<!-- Generator: Adobe Illustrator 21.1.0, SVG Export Plug-In . SVG Version: 6.00 Build 0)  -->
<svg version="1.1" id="Calque_1" xmlns="http://www.w3.org/2000/svg" xmlns:xlink="http://www.w3.org/1999/xlink" x="0px" y="0px"
	 width="33px" height="36px" viewBox="0 0 33 36" style="enable-background:new 0 0 33 36;" xml:space="preserve">
<style type="text/css">
	.st0{fill:#103558;}
</style>
<title>sante</title>
<desc>Created with Sketch.</desc>
<g id="Boutons" transform="translate(-112.000000, -222.000000)">
	<g id="IconesCats">
		<g id="_x39_" transform="translate(50.000000, 186.000000)">
			<g id="local" transform="translate(62.000000, 36.000000)">
				<path id="Shape" class="st0" d="M33,12.6c0-0.1,0-0.3-0.1-0.4L28,3.4C27.8,3.2,27.6,3,27.3,3H5.7C5.4,3,5.2,3.2,5,3.4l-4.9,8.8
					C0,12.3,0,12.5,0,12.6c0,2,1.2,3.7,2.8,4.4v14.5c0,0.5,0.4,0.8,0.8,0.8h4.5c0,0,2.1,0,6.3,0c0,0,5,0,14.9,0
					c0.4,0,0.8-0.4,0.8-0.8V17.1c0,0,0-0.1,0-0.1C31.8,16.3,33,14.6,33,12.6z M6.2,4.7h20.6l3.8,6.9H2.4L6.2,4.7z M23.5,13.2
					c-0.3,1.5-1.5,2.6-3.1,2.6c-1.5,0-2.8-1.1-3.1-2.6H23.5z M15.6,13.2c-0.3,1.5-1.5,2.6-3.1,2.6s-2.8-1.1-3.1-2.6H15.6z M1.7,13.2
					h6.1c-0.3,1.5-1.5,2.6-3.1,2.6C3.2,15.8,1.9,14.6,1.7,13.2z M4.5,30.7V17.4c0.1,0,0.2,0,0.3,0c1.6,0,3.1-0.8,3.9-2.1
					c0.8,1.3,2.3,2.1,3.9,2.1s3.1-0.8,3.9-2.1c0.8,1.3,2.3,2.1,3.9,2.1c1.6,0,3.1-0.8,3.9-2.1c0.8,1.3,2.3,2.1,3.9,2.1
					c0.1,0,0.2,0,0.3,0v13.3L4.5,30.7z M28.3,15.8c-1.5,0-2.8-1.1-3.1-2.6h6.1C31.1,14.6,29.8,15.8,28.3,15.8z"/>
				<path id="map-marker" class="st0" d="M16.3,17.8c0.7,0,1.4,0.2,2.1,0.6c0.6,0.4,1.1,0.9,1.5,1.5c0.4,0.6,0.6,1.3,0.6,2.1
					c0,0.4-0.1,0.8-0.2,1.1c-0.1,0.3-0.3,0.7-0.6,1.2c-0.2,0.3-0.6,1-1.2,2l-1.3,2c-0.1,0.2-0.3,0.4-0.5,0.4c-0.2,0.1-0.5,0.1-0.7,0
					c-0.2-0.1-0.4-0.2-0.5-0.4l-1.3-2c-0.6-1-1-1.7-1.2-2c-0.3-0.5-0.5-0.9-0.6-1.3s-0.2-0.7-0.2-1.1c0-0.7,0.2-1.4,0.6-2.1
					c0.4-0.6,0.9-1.1,1.5-1.5C14.9,18,15.6,17.8,16.3,17.8z M16.3,27.8l1.4-2.1c0.6-0.9,1-1.5,1.1-1.8c0.2-0.4,0.4-0.8,0.5-1
					c0.1-0.2,0.1-0.5,0.1-0.9c0-0.6-0.1-1.1-0.4-1.5c-0.3-0.5-0.7-0.8-1.1-1.1s-1-0.4-1.5-0.4c-0.6,0-1.1,0.1-1.5,0.4
					s-0.8,0.7-1.1,1.1c-0.3,0.5-0.4,1-0.4,1.5c0,0.3,0,0.6,0.1,0.9c0.1,0.3,0.2,0.6,0.5,1c0.2,0.3,0.5,0.9,1.1,1.8
					C15.5,26.5,16,27.2,16.3,27.8z"/>
			</g>
		</g>
	</g>
</g>
</svg>
