<?xml version="1.0" encoding="utf-8"?>
<!-- Generator: Adobe Illustrator 21.1.0, SVG Export Plug-In . SVG Version: 6.00 Build 0)  -->
<svg version="1.1" id="Calque_1" xmlns="http://www.w3.org/2000/svg" xmlns:xlink="http://www.w3.org/1999/xlink" x="0px" y="0px"
	 width="27px" height="24px" viewBox="0 0 27 24" style="enable-background:new 0 0 27 24;" xml:space="preserve">
<style type="text/css">
	.st0{fill:#FFFFFF;}
</style>
<title>local</title>
<desc>Created with Sketch.</desc>
<g id="Boutons" transform="translate(-112.000000, -222.000000)">
	<g id="IconesCats">
		<g id="_x39_" transform="translate(50.000000, 186.000000)">
			<g id="local" transform="translate(62.000000, 36.000000)">
				<path id="Shape" class="st0" d="M27,7.9c0-0.1,0-0.2-0.1-0.3l-4-7.2C22.8,0.1,22.6,0,22.3,0H4.7C4.4,0,4.2,0.1,4.1,0.3l-4,7.2
					C0,7.6,0,7.7,0,7.9c0,1.6,1,3,2.3,3.6v11.9C2.3,23.7,2.6,24,3,24h3.7c0,0,1.7,0,5.1,0c0,0,4.1,0,12.2,0c0.4,0,0.7-0.3,0.7-0.7
					V11.6c0,0,0-0.1,0-0.1C26,10.9,27,9.5,27,7.9z M5.1,1.4h16.9L25.1,7H1.9L5.1,1.4z M19.2,8.3c-0.2,1.2-1.3,2.1-2.5,2.1
					s-2.3-0.9-2.5-2.1H19.2z M12.8,8.3c-0.2,1.2-1.3,2.1-2.5,2.1S8,9.5,7.8,8.3H12.8z M1.4,8.3h5c-0.2,1.2-1.3,2.1-2.5,2.1
					C2.6,10.5,1.6,9.5,1.4,8.3z M3.6,22.7V11.8c0.1,0,0.2,0,0.2,0c1.3,0,2.5-0.7,3.2-1.7c0.7,1.1,1.9,1.7,3.2,1.7s2.5-0.7,3.2-1.7
					c0.7,1.1,1.9,1.7,3.2,1.7c1.3,0,2.5-0.7,3.2-1.7c0.7,1.1,1.9,1.7,3.2,1.7c0.1,0,0.1,0,0.2,0v10.9L3.6,22.7z M23.1,10.5
					c-1.3,0-2.3-0.9-2.5-2.1h5C25.4,9.5,24.4,10.5,23.1,10.5z"/>
				<path id="map-marker" class="st0" d="M13.4,12.1c0.6,0,1.2,0.2,1.7,0.5c0.5,0.3,0.9,0.7,1.2,1.2c0.3,0.5,0.5,1.1,0.5,1.7
					c0,0.3,0,0.6-0.1,0.9c-0.1,0.3-0.2,0.6-0.5,1c-0.2,0.3-0.5,0.8-1,1.7l-1,1.6c-0.1,0.2-0.3,0.3-0.4,0.4s-0.4,0.1-0.6,0
					s-0.3-0.2-0.4-0.4l-1-1.6c-0.5-0.8-0.9-1.4-1-1.6c-0.2-0.4-0.4-0.8-0.5-1C10,16.1,10,15.8,10,15.5c0-0.6,0.2-1.2,0.5-1.7
					c0.3-0.5,0.7-0.9,1.2-1.2C12.2,12.3,12.8,12.1,13.4,12.1z M13.4,20.3l1.1-1.8c0.5-0.7,0.8-1.2,0.9-1.5c0.2-0.4,0.3-0.6,0.4-0.8
					c0.1-0.2,0.1-0.4,0.1-0.7c0-0.5-0.1-0.9-0.3-1.3c-0.2-0.4-0.5-0.7-0.9-0.9c-0.4-0.2-0.8-0.3-1.3-0.3c-0.5,0-0.9,0.1-1.3,0.3
					c-0.4,0.2-0.7,0.5-0.9,0.9s-0.3,0.8-0.3,1.3c0,0.3,0,0.5,0.1,0.7s0.2,0.5,0.4,0.8c0.1,0.2,0.4,0.7,0.9,1.5
					C12.7,19.2,13.1,19.8,13.4,20.3z"/>
			</g>
		</g>
	</g>
</g>
</svg>
