<?xml version="1.0" encoding="UTF-8"?>
<svg width="27px" height="24px" viewBox="0 0 27 24" version="1.1" xmlns="http://www.w3.org/2000/svg" xmlns:xlink="http://www.w3.org/1999/xlink">
    <!-- Generator: Sketch 48.2 (47327) - http://www.bohemiancoding.com/sketch -->
    <title>local</title>
    <desc>Created with Sketch.</desc>
    <defs></defs>
    <g id="Boutons" stroke="none" stroke-width="1" fill="none" fill-rule="evenodd" transform="translate(-112.000000, -222.000000)">
        <g id="IconesCats" fill="#103558">
            <g id="9" transform="translate(50.000000, 186.000000)">
                <g id="local" transform="translate(62.000000, 36.000000)">
                    <path d="M27,7.86332787 C27,7.74537795 26.9724152,7.6330447 26.9117286,7.53194477 L22.8953821,0.342616429 C22.779526,0.134799906 22.5588476,0 22.3216183,0 L4.67286473,0 C4.43563547,0 4.21495709,0.129183244 4.09910094,0.342616429 L0.0882713527,7.53194477 C0.0331017573,7.6330447 0,7.74537795 0,7.86332787 C0,9.47531009 0.954434001,10.8570091 2.31712301,11.4692254 L2.31712301,23.3260005 C2.31712301,23.6967002 2.61503882,24 2.97915815,24 L6.63690233,24 C6.6405803,24 8.35635472,24 11.7842256,24 C11.7879036,24 15.8649367,24 24.0153249,24 C24.3794442,24 24.67736,23.6967002 24.67736,23.3260005 L24.67736,11.5534753 C24.67736,11.525392 24.67736,11.5029253 24.6718431,11.4804587 C26.040049,10.8682425 27,9.48092675 27,7.86332787 Z M5.0590519,1.35361573 L21.9354311,1.35361573 L25.0745811,6.97589516 L1.92541888,6.97589516 L5.0590519,1.35361573 Z M19.2155701,8.31827756 C19.0059256,9.53147671 17.9632203,10.4526094 16.7108705,10.4526094 C15.4585206,10.4526094 14.4158153,9.53147671 14.2061708,8.31827756 L19.2155701,8.31827756 Z M12.7993461,8.31827756 C12.5897017,9.53147671 11.5469963,10.4526094 10.2946465,10.4526094 C9.04229669,10.4526094 7.99959134,9.53147671 7.78442991,8.31827756 L12.7993461,8.31827756 Z M1.36820597,8.31827756 L6.38312219,8.31827756 C6.17347773,9.53147671 5.12525541,10.4526094 3.8729056,10.4526094 C2.62055578,10.4582261 1.57785043,9.53147671 1.36820597,8.31827756 Z M3.6411933,22.6576176 L3.6411933,11.8006085 C3.71843073,11.8062251 3.79566817,11.8062251 3.8729056,11.8062251 C5.20800981,11.8062251 6.38863915,11.1153756 7.08377605,10.0650597 C7.77891295,11.1153756 8.9595423,11.8062251 10.2946465,11.8062251 C11.6297507,11.8062251 12.8048631,11.1153756 13.505517,10.0650597 C14.2006539,11.1153756 15.3812832,11.8062251 16.7108705,11.8062251 C18.0459747,11.8062251 19.221087,11.1153756 19.9162239,10.0650597 C20.6113609,11.1153756 21.7919902,11.8062251 23.1270944,11.8062251 C23.2043318,11.8062251 23.2760523,11.8006085 23.3532897,11.8006085 L23.3532897,22.6520009 L3.6411933,22.6576176 Z M23.1270944,10.4582261 C21.8747446,10.4582261 20.8320392,9.53709338 20.6223948,8.32389422 L25.637311,8.32389422 C25.4221496,9.53147671 24.3794442,10.4582261 23.1270944,10.4582261 Z" id="Shape" fill-rule="nonzero"></path>
                    <path d="M13.375,12.1250188 C13.9843751,12.1250188 14.5468751,12.2773623 15.0625,12.5820489 C15.5781249,12.8867356 15.9882813,13.2968911 16.2929688,13.8125148 C16.5976562,14.3281384 16.75,14.8906371 16.75,15.5000107 C16.75,15.8398536 16.7089845,16.1445405 16.6269531,16.414071 C16.5449218,16.6836016 16.3867187,17.0234447 16.1523438,17.4335999 C15.9882813,17.7148492 15.6484374,18.265629 15.1328125,19.0859397 L14.0957031,20.7207014 C13.9902344,20.8964822 13.8437501,21.016599 13.65625,21.0810521 C13.4687499,21.1455052 13.2812501,21.1455052 13.09375,21.0810521 C12.9062499,21.016599 12.7597656,20.8964822 12.6542969,20.7207014 L11.6171875,19.0859397 C11.1015626,18.265629 10.7617187,17.7207085 10.5976562,17.451178 C10.3632813,17.029304 10.2050782,16.6836016 10.1230469,16.414071 C10.0410155,16.1445405 10,15.8398536 10,15.5000107 C10,14.8906371 10.1523438,14.3281384 10.4570312,13.8125148 C10.7617187,13.2968911 11.1718751,12.8867356 11.6875,12.5820489 C12.2031249,12.2773623 12.7656249,12.1250188 13.375,12.1250188 Z M13.374992,20.2812493 L14.4824112,18.523441 C14.9511602,17.7734427 15.2617061,17.2753971 15.4140496,17.029304 C15.6132678,16.6777423 15.7451034,16.4023522 15.8095565,16.2031341 C15.8740095,16.0039159 15.9062359,15.7695412 15.9062359,15.5000107 C15.9062359,15.0429806 15.7919784,14.6211066 15.5634633,14.2343887 C15.3349482,13.8476709 15.0273318,13.5400545 14.6406139,13.3115394 C14.2538961,13.0830243 13.8320221,12.9687668 13.374992,12.9687668 C12.9179618,12.9687668 12.4960878,13.0830243 12.10937,13.3115394 C11.7226521,13.5400545 11.4150357,13.8476709 11.1865206,14.2343887 C10.9580055,14.6211066 10.843748,15.0429806 10.843748,15.5000107 C10.843748,15.7695412 10.8759744,16.0068454 10.9404274,16.2119231 C11.0048805,16.4170008 11.1425754,16.6953204 11.3535124,17.046882 C11.4941371,17.2929752 11.7988237,17.7910208 12.2675727,18.5410191 C12.7128841,19.2324236 13.0820238,19.8125004 13.374992,20.2812493 Z" id="map-marker"></path>
                </g>
            </g>
        </g>
    </g>
</svg>