<svg id="Calque_1" data-name="Calque 1" xmlns="http://www.w3.org/2000/svg" viewBox="0 0 360 200"><defs><style>.cls-1{fill:none;}.cls-2{fill:#103558;}</style></defs><title>Pix.city.Logo.BMarine</title><path class="cls-1" d="M-.28.05V200H360.28V.05Z"/><path class="cls-2" d="M123.32,70.24c-.07-3.77-2.08-7.24-5.93-7.24-3.59,0-4.61,3.55-4.47,7.42C113.15,77,123.44,76.87,123.32,70.24Z"/><path class="cls-2" d="M97.18,63.47q-7-4.68-18.09-3.6A26.71,26.71,0,0,0,68.3,63.16a20.75,20.75,0,0,0-6.93,5.65c-1.32,2.06-1.9,3.51-1.76,4.35q.14.81,1.47.69a6.19,6.19,0,0,0,2.8-1.08c1-.63,2.07-1.33,3.3-2.09A25.48,25.48,0,0,1,78.37,67q6.19-.56,9.93,1.72a9.81,9.81,0,0,1,4.55,7.15q1.26,7.61-2,11.18a8.1,8.1,0,0,1-3.24,2.24,33.61,33.61,0,0,1-3.44,1.1c-1,.25-1.75.49-2.41.73-1.63.37-3.06.58-4.29.75,0-.42,0-.84.06-1.29q.36-7.14.21-11.62a39.59,39.59,0,0,0-.55-5.12c-.32-1.91-.77-2.84-1.37-2.79a3,3,0,0,0-1.56.59q-5,3.6-6.9,21.44a68.16,68.16,0,0,0,.06,18,32.91,32.91,0,0,0,1.21,5.24,2.23,2.23,0,0,0,2.5,1.68c5.69-.52,8.3-2.22,7.82-5.13L77.41,99c6.79-1.89,14.43-2.39,20.24-6.87h0c.08-.06.14-.13.22-.18a16.36,16.36,0,0,0,3.52-3.7,11.61,11.61,0,0,0,1.47-2.48,17.39,17.39,0,0,0,1.64-11A16.36,16.36,0,0,0,97.18,63.47Z"/><path class="cls-2" d="M144.29,99.44c3.52-4.35,6-7.7,7.4-9.6,1.56-2.17,1.23-5.4-.45-6.55,0,0-3.79-3.52-11.66,9.47l0,0c-2.42-3.46-4.66-6.55-6.36-8.62s-3.25-2.7-5-2.59c-6.62.45-1,10.92.86,14a58.48,58.48,0,0,1,3.74,6.08c-6.13,8.33-12.06,8.81-13.45,8.38-1.61-.51-2.83-2.36-1.89-10.12,0-.25.09-.5.14-.77.25-1.52.45-2.89.6-4.13,0,0,0,0,0-.08h0a35.49,35.49,0,0,0,.38-6.29,10.07,10.07,0,0,0-1.3-4.4q-1.49-2.9-3.65-2.9c-1.31,0-2.48.93-3.51,2.77h0l-.19.35c-3.91,6.87-4.36,19-4.28,24.61,0,3.57,1.64,8.49,7.46,9.44a20.28,20.28,0,0,0,7.87-.26,19.23,19.23,0,0,0,5.75-2.1h0c2.83-1.44,6.39-4.55,9.94-8.19,3.76,6,8.55,11.1,13.54,9.52.48-.16.9-.32,1.3-.49a7.2,7.2,0,0,0,2.68-1.77c1.89-2.12.87-5-.95-6.7C150.84,106.12,148,104,144.29,99.44Z"/><path class="cls-2" d="M229,70.24c-.07-3.77-2.08-7.24-5.93-7.24-3.59,0-4.61,3.55-4.47,7.42C218.81,77,229.1,76.87,229,70.24Z"/><path class="cls-2" d="M164.8,92.81c-2.62,0-3.86,1.89-4.29,4.4a14.09,14.09,0,0,0-.19,3,5,5,0,0,0,.11.8,4.69,4.69,0,0,0,1,2.24,4.82,4.82,0,0,0,1.73,1.31c3.11,1.43,7.66-.1,7.58-4.52C170.65,96.29,168.64,92.81,164.8,92.81Z"/><path class="cls-2" d="M287.61,120.58c.15-.62.28-1.23.38-1.84,1.22-6.89,2.62-23.43,3-26.24s.46-6.16-1.86-8.43-4.95-4.64-6.86-1.08c-2.7,5-.05,13.54-4.24,20.05-8.76,13.64-10,4.1-9.79,1.35.38-4.59,1.77-11.25,2.31-15.26.87-6.42-3-7.53-4.82-7s-3.25,3.28-4.3,6.35a89.46,89.46,0,0,0-2.56,12.22c-.25.35-.51.71-.75,1.1-4.13,6.56-12.11,12.71-12.85,3.8q0-.82-.06-1.56a78.4,78.4,0,0,1,1-13.61,28.15,28.15,0,0,0,7.9-1.09c2.09-.76,2.5-3,2.5-5,0-2.42-3.38-3-8.46-2.76.44-1.59.92-3.22,1.5-4.88,1-3-2.37-5.86-5.48-5.36a2.67,2.67,0,0,0-.59.19c-1.05.13-2,1-3,2.48h0a31.87,31.87,0,0,0-3.1,8.64l-1.71.31A6.25,6.25,0,0,0,231.42,87c-.47,2.1.81,3.19,4.55,3.24H236a74.66,74.66,0,0,0-1,11.81c-1.8,3.08-7.6,7.89-10,7.89a3.17,3.17,0,0,1-1.91-.6,2.75,2.75,0,0,1-.94-2.16,45.66,45.66,0,0,1,1.1-8.13,52.22,52.22,0,0,0,1-10.51,10.07,10.07,0,0,0-1.3-4.4c-1-1.93-2.2-2.9-3.65-2.9q-3.65,0-5.84,9.54c-.56,3.35-2,9.18-1.9,14.7-10.54,8.93-18.65,2.76-18.5-11,.16-15.07,7.57-21.94,11.49-24.33S212,68,212,66.81s-.6-5.86-8.7-5.08-21.2,11.36-22.64,31.08,9.81,25.63,17.9,25.91a18.47,18.47,0,0,0,14.47-5.86,10.14,10.14,0,0,0,5.31,5.11,6.59,6.59,0,0,0,2.76.58A16.87,16.87,0,0,0,233,113.67a41.33,41.33,0,0,0,2.84-3.47c.6,5.17,7,14.93,21.6,1.93.33-.33.66-.65,1-1,1.23,4.89,8.52,11.45,20.92,1.74l-.39,3.58c-.16,1.38-.36,2.66-.59,3.84-1.51,0-3.06.09-4.66.19-15.24,1-20.34,8.26-18.61,13.87s8.87,8.62,17.83,5.49c6-2.11,10.12-7.2,12.59-12.83,9.25.07,15.22,1.08,15.2-.47C300.64,123.32,295.5,121.3,287.61,120.58Zm-8.05-7.89ZM264.3,133.56c-1-.51-3.7-4.94,11.07-6.17l.92-.07C272.05,137.15,265.08,134,264.3,133.56Z"/></svg>