<?xml version="1.0" encoding="utf-8"?>
<!-- Generator: Adobe Illustrator 21.1.0, SVG Export Plug-In . SVG Version: 6.00 Build 0)  -->
<svg version="1.1" id="Calque_1" xmlns="http://www.w3.org/2000/svg" xmlns:xlink="http://www.w3.org/1999/xlink" x="0px" y="0px"
	 width="46.3px" height="43.2px" viewBox="0 0 46.3 43.2" style="enable-background:new 0 0 46.3 43.2;" xml:space="preserve">
<style type="text/css">
	.st0{fill:#103558;}
</style>
<title>logo</title>
<desc>Created with Sketch.</desc>
<g id="Cards">
	<path id="Shape" class="st0" d="M43.9,32.1L43.9,32.1h-14c-0.7,0-1.3-0.3-1.8-0.8s-0.8-1.1-0.8-1.8l0.1-25.7c0-0.7,0.3-1.3,0.8-1.8
		s1.1-0.7,1.8-0.7h13.8c1.4,0,2.6,1.1,2.6,2.5v25.8c0,0.7-0.3,1.3-0.8,1.8C45.1,31.9,44.5,32.1,43.9,32.1z M30,3.7
		c-0.1,0-0.2,0.1-0.2,0.2v25.7c0,0.1,0.1,0.2,0.2,0.2h13.8c0.1,0,0.2-0.1,0.2-0.2V3.9c0-0.1-0.1-0.2-0.2-0.2L30,3.7L30,3.7z"/>
	<path id="Shape_1_" class="st0" d="M24.5,43c-0.5,0-0.9-0.1-1.3-0.4l-22-13.3c-0.6-0.3-1-0.9-1.1-1.6c-0.2-0.7,0-1.3,0.3-1.9
		l4.5-7.7c0.2-0.4,0.6-0.7,1-0.7S6.8,17.6,7,18s0.2,0.9-0.1,1.2L2.4,27c0,0.1,0,0.2,0,0.3l22,13.4c0.1,0,0.2,0,0.2-0.1l2.1-3.8
		c0.3-0.6,1-0.8,1.6-0.5s0.8,1,0.5,1.6l-2.1,3.8C26.3,42.6,25.4,43,24.5,43z"/>
	<path id="Shape_2_" class="st0" d="M21.8,33.5c-0.4,0-0.8-0.2-1-0.6l-13-22.3C7.5,10,7.4,9.3,7.6,8.7C7.8,8,8.2,7.5,8.8,7.1
		l11.9-6.9C21,0,21.3,0,21.6,0c0.3,0.1,0.6,0.3,0.7,0.6c0.2,0.3,0.2,0.6,0.1,0.9s-0.3,0.6-0.5,0.7L10,9.2c-0.1,0-0.1,0.1-0.1,0.2
		l12.9,22.3c0.3,0.6,0.1,1.3-0.4,1.6C22.2,33.4,22,33.4,21.8,33.5z"/>
</g>
</svg>
