<?xml version="1.0" encoding="UTF-8"?>
<svg width="22px" height="24px" viewBox="0 0 22 24" version="1.1" xmlns="http://www.w3.org/2000/svg" xmlns:xlink="http://www.w3.org/1999/xlink">
    <!-- Generator: Sketch 48.2 (47327) - http://www.bohemiancoding.com/sketch -->
    <title>sante</title>
    <desc>Created with Sketch.</desc>
    <defs></defs>
    <g id="Boutons" stroke="none" stroke-width="1" fill="none" fill-rule="evenodd" transform="translate(-632.000000, -222.000000)">
        <g id="IconesCats" stroke="#103558" stroke-width="1.4">
            <g id="13" transform="translate(570.000000, 187.000000)">
                <g id="sante" transform="translate(63.000000, 35.000000)">
                    <circle id="Oval" cx="10.0049628" cy="3.57320099" r="2.87320099"></circle>
                    <path d="M7.50372208,23.0769231 C5.71712159,23.0769231 2.30769231,23.5384615 2.76923077,21.6923077 C3.23076923,19.8461538 8.78701041,13.1030137 7.14640199,13.7866005 C5.50579356,14.4701873 4.28784119,16.3325062 2.85856079,17.0024814 C1.4292804,17.6724566 -0.357320099,17.0024814 0.357320099,15.573201 C1.0719603,14.1439206 3.61302968,13.1783897 5.00248139,11.6426799 C5.09455301,11.5409165 5.17599143,11.4369498 5.24821745,11.3314147 C6.26595337,9.84432022 5.45451235,8.04580119 6.78908189,7.71215881 C7.44956422,7.54703823 7.14640199,9.14143921 10.0049628,9.14143921 C12.8635236,9.14143921 12.8364446,7.51995929 13.2208437,7.71215881 C13.9354839,8.06947891 13.4343927,9.40751286 15.3647643,11.6426799 C17.2951358,13.8778469 19.6526055,14.5012407 20.0099256,15.573201 C20.3672457,16.6451613 19.2952854,17.7171216 17.866005,17.3598015 C16.4367246,17.0024814 13.5781638,13.4292804 12.8635236,13.7866005 C12.1488834,14.1439206 15.7220844,19.146402 16.6153846,20.7692308 C17.5086849,22.3920596 18.4615385,23.0769231 15.7220844,23.0769231 C13.8957816,23.0769231 11.1563275,23.0769231 7.50372208,23.0769231 C6.55086849,22.6004963 6.07444169,21.8858561 6.07444169,20.9330025 C6.07444169,19.9801489 6.55086849,19.3846154 7.50372208,19.146402 L11.4342432,19.146402" id="Path-2"></path>
                </g>
            </g>
        </g>
    </g>
</svg>