<?xml version="1.0" encoding="utf-8"?>
<!-- Generator: Adobe Illustrator 21.1.0, SVG Export Plug-In . SVG Version: 6.00 Build 0)  -->
<svg version="1.1" id="Calque_1" xmlns="http://www.w3.org/2000/svg" xmlns:xlink="http://www.w3.org/1999/xlink" x="0px" y="0px"
	 width="33px" height="36px" viewBox="0 0 33 36" style="enable-background:new 0 0 33 36;" xml:space="preserve">
<style type="text/css">
	.st0{fill:#103558;}
</style>
<title>sante</title>
<desc>Created with Sketch.</desc>
<g id="Boutons" transform="translate(-632.000000, -222.000000)">
	<g id="IconesCats">
		<g id="_x31_3" transform="translate(570.000000, 187.000000)">
			<g id="sante" transform="translate(63.000000, 35.000000)">
				<path class="st0" d="M15.4,10.8c-3,0-5.4-2.4-5.4-5.4S12.4,0,15.4,0c3,0,5.4,2.4,5.4,5.4S18.3,10.8,15.4,10.8z M15.4,2.1
					c-1.8,0-3.3,1.5-3.3,3.3s1.5,3.3,3.3,3.3s3.3-1.5,3.3-3.3S17.2,2.1,15.4,2.1z"/>
				<path class="st0" d="M8.4,36c-1.9,0-3.7-0.2-4.6-1.3c-0.3-0.4-0.7-1.1-0.4-2.2c0.3-1.3,1.8-3.6,4.1-6.9c0.4-0.6,0.8-1.2,1.3-1.9
					c-0.2,0.2-0.4,0.3-0.6,0.5c-1,0.9-2,1.9-3.2,2.4c-1.7,0.8-3.8,0.6-4.8-0.5c-0.8-0.8-0.9-2-0.3-3.1c0.7-1.5,2.3-2.5,4-3.6
					C5,18.6,6.2,17.8,7,16.9c0.1-0.1,0.2-0.2,0.3-0.4c0.5-0.8,0.7-1.7,0.8-2.6c0.2-1.2,0.4-2.9,2.2-3.3c1-0.3,1.6,0.5,1.9,0.9
					c0.4,0.5,0.9,1.3,3.2,1.3c2.5,0,3.1-0.9,3.5-1.4c0.6-0.8,1.2-1,1.8-0.7c0.9,0.4,1.1,1.2,1.3,2c0.3,1,0.7,2.3,2.2,4.1
					c1.4,1.6,3,2.7,4.3,3.5c1.4,0.9,2.5,1.6,2.9,2.8c0.4,1.1,0.1,2.2-0.7,3.1c-0.9,1-2.4,1.4-3.8,1c-1.3-0.3-2.9-1.8-4.6-3.3
					c-0.3-0.2-0.6-0.5-0.9-0.8c0.8,1.5,2,3.4,2.8,4.6c0.8,1.3,1.5,2.4,1.9,3.1c0.2,0.4,0.4,0.7,0.6,1c0.7,1.1,1.2,2,0.7,2.9
					c-0.5,0.9-1.7,1.1-3.6,1.1H11.6c-0.4,0-0.9,0-1.4,0C9.6,36,9,36,8.4,36z M11.3,19.7c0.5,0,0.8,0.3,0.9,0.4c0.8,1,0.1,2.1-3,6.6
					C7.7,29.1,5.7,32,5.5,33c0,0.1-0.1,0.3,0,0.3c0.4,0.5,2.1,0.5,3.5,0.5c-0.4-0.7-0.6-1.4-0.6-2.3c0-1.9,1.1-3.2,3-3.7l0.3,0h5.9
					V30h-5.8c-0.9,0.3-1.2,0.7-1.2,1.6c0,1,0.4,1.7,1.4,2.2H24c0.8,0,1.2,0,1.5-0.1c-0.1-0.2-0.3-0.5-0.4-0.7
					c-0.2-0.3-0.4-0.7-0.7-1.1c-0.4-0.7-1.1-1.8-1.8-3c-3.3-5.2-4.4-7.1-4.1-8.2c0.1-0.4,0.3-0.7,0.7-0.8c1.2-0.6,2.5,0.6,4.6,2.5
					c1.2,1.1,2.9,2.6,3.7,2.8c0.7,0.2,1.4,0,1.8-0.4c0.1-0.2,0.4-0.5,0.2-1c-0.1-0.4-1.1-1.1-2-1.7c-1.4-0.9-3.2-2.1-4.8-3.9
					c-1.9-2.2-2.4-3.8-2.7-4.9c0,0,0,0,0,0c-0.7,0.7-2,1.5-4.6,1.5c-3.3,0-4.3-1.3-4.9-2c-0.1,0.2-0.2,0.5-0.3,1.4
					c-0.1,1-0.3,2.3-1.1,3.5c-0.1,0.2-0.3,0.4-0.5,0.6c-1,1.1-2.3,2-3.6,2.9c-1.4,1-2.8,1.9-3.2,2.8c-0.2,0.5-0.1,0.6,0,0.7
					c0.3,0.3,1.4,0.5,2.4,0c0.9-0.4,1.7-1.2,2.7-2.1c1.2-1.1,2.4-2.2,3.9-2.8C10.9,19.7,11.1,19.7,11.3,19.7z"/>
			</g>
		</g>
	</g>
</g>
</svg>
