<?xml version="1.0" encoding="utf-8"?>
<!-- Generator: Adobe Illustrator 21.1.0, SVG Export Plug-In . SVG Version: 6.00 Build 0)  -->
<svg version="1.1" id="Calque_1" xmlns="http://www.w3.org/2000/svg" xmlns:xlink="http://www.w3.org/1999/xlink" x="0px" y="0px"
	 width="22px" height="24px" viewBox="0 0 22 24" style="enable-background:new 0 0 22 24;" xml:space="preserve">
<style type="text/css">
	.st0{fill:#FFFFFF;}
</style>
<title>sante</title>
<desc>Created with Sketch.</desc>
<g id="Boutons" transform="translate(-632.000000, -222.000000)">
	<g id="IconesCats">
		<g id="_x31_3" transform="translate(570.000000, 187.000000)">
			<g id="sante" transform="translate(63.000000, 35.000000)">
				<path class="st0" d="M10,7.1c-2,0-3.6-1.6-3.6-3.6S8,0,10,0c2,0,3.6,1.6,3.6,3.6S12,7.1,10,7.1z M10,1.4c-1.2,0-2.2,1-2.2,2.2
					s1,2.2,2.2,2.2s2.2-1,2.2-2.2S11.2,1.4,10,1.4z"/>
				<path class="st0" d="M5.4,23.8c-1.2,0-2.4-0.1-3-0.9c-0.2-0.3-0.4-0.7-0.3-1.5c0.2-0.9,1.2-2.4,2.7-4.6c0.3-0.4,0.6-0.8,0.8-1.2
					c-0.1,0.1-0.2,0.2-0.4,0.3c-0.7,0.6-1.3,1.2-2.1,1.6C2,18.2,0.7,18,0,17.3c-0.5-0.5-0.6-1.3-0.2-2.1c0.5-1,1.5-1.7,2.6-2.4
					c0.8-0.5,1.6-1.1,2.1-1.7c0.1-0.1,0.1-0.2,0.2-0.2C5,10.4,5.1,9.8,5.2,9.2C5.3,8.4,5.4,7.3,6.6,7c0.7-0.2,1.1,0.3,1.2,0.6
					C8.1,8,8.5,8.4,10,8.4c1.6,0,2.1-0.6,2.3-0.9c0.4-0.5,0.8-0.6,1.2-0.4c0.6,0.3,0.7,0.8,0.9,1.4c0.2,0.6,0.4,1.5,1.5,2.7
					c0.9,1.1,2,1.8,2.9,2.3c0.9,0.6,1.7,1.1,1.9,1.8c0.2,0.7,0.1,1.5-0.4,2c-0.6,0.7-1.6,0.9-2.5,0.7c-0.9-0.2-1.9-1.2-3-2.2
					c-0.2-0.2-0.4-0.3-0.6-0.5c0.6,1,1.4,2.2,1.9,3.1c0.5,0.8,1,1.6,1.3,2c0.1,0.3,0.3,0.5,0.4,0.7c0.4,0.7,0.8,1.3,0.5,1.9
					c-0.3,0.6-1.1,0.7-2.4,0.7H7.5c-0.3,0-0.6,0-0.9,0C6.2,23.8,5.8,23.8,5.4,23.8z M7.3,13c0.3,0,0.5,0.2,0.6,0.3
					c0.5,0.6,0,1.4-2,4.4c-1,1.5-2.3,3.4-2.5,4.1c0,0.1,0,0.2,0,0.2c0.2,0.3,1.4,0.3,2.3,0.3c-0.3-0.4-0.4-0.9-0.4-1.5
					c0-1.3,0.7-2.1,2-2.5l0.2,0h3.9v1.4H7.6C7,20,6.8,20.3,6.8,20.9c0,0.6,0.3,1.1,0.9,1.4h8c0.5,0,0.8,0,1-0.1
					c-0.1-0.1-0.2-0.3-0.3-0.5c-0.1-0.2-0.3-0.5-0.4-0.7c-0.2-0.4-0.7-1.2-1.2-2c-2.2-3.4-2.9-4.7-2.7-5.4c0.1-0.2,0.2-0.4,0.4-0.5
					c0.8-0.4,1.6,0.4,3.1,1.7c0.8,0.7,1.9,1.7,2.4,1.8c0.5,0.1,0.9,0,1.2-0.3c0.1-0.1,0.2-0.3,0.1-0.6c-0.1-0.3-0.7-0.7-1.3-1.1
					c-0.9-0.6-2.1-1.4-3.2-2.6c-1.2-1.4-1.6-2.5-1.8-3.3c0,0,0,0,0,0c-0.5,0.5-1.3,1-3.1,1C7.9,9.8,7.1,9,6.8,8.5
					C6.7,8.6,6.6,8.9,6.6,9.4c-0.1,0.7-0.2,1.5-0.7,2.3c-0.1,0.1-0.2,0.3-0.3,0.4C4.8,12.9,4,13.4,3.1,14c-0.9,0.6-1.8,1.2-2.1,1.9
					c-0.2,0.3-0.1,0.4,0,0.5c0.2,0.2,0.9,0.4,1.6,0c0.6-0.3,1.1-0.8,1.8-1.4c0.8-0.7,1.6-1.5,2.6-1.9C7.1,13.1,7.2,13,7.3,13z"/>
			</g>
		</g>
	</g>
</g>
</svg>
