<svg xmlns="http://www.w3.org/2000/svg" width="394.517" height="229.271" viewBox="0 0 394.517 229.271">
  <g id="ILLUSTRATION" transform="translate(12.124 1)">
    <g id="Group_747" data-name="Group 747" transform="translate(-11 -1)">
      <path id="Path_1110" data-name="Path 1110" d="M909.848,1827.858l1.9,46.94,204.157,71.248v-48.877Z" transform="translate(-909.848 -1718.271)" fill="none" stroke="#000" stroke-miterlimit="10" stroke-width="2.125"/>
      <path id="Path_1111" data-name="Path 1111" d="M909.848,1796.383v37.425l14.339,3.69v-37.459Z" transform="translate(-909.848 -1724.221)" fill="none" stroke="#000" stroke-miterlimit="10" stroke-width="2.125"/>
      <path id="Path_1112" data-name="Path 1112" d="M1038.78,1773.515v37.459l-12.436-3.69-.664-28.636" transform="translate(-887.953 -1728.544)" fill="none" stroke="#000" stroke-miterlimit="10" stroke-width="2.125"/>
      <path id="Path_1113" data-name="Path 1113" d="M1083.149,1945.786l138.79-30.765v-85.788L1083.149,1860Z" transform="translate(-877.089 -1718.012)" fill="none" stroke="#000" stroke-miterlimit="10" stroke-width="2.125"/>
      <path id="Path_1114" data-name="Path 1114" d="M1062.578,1774.1l-14.339-3.655-138.391,30.845" transform="translate(-909.848 -1729.125)" fill="none" stroke="#000" stroke-miterlimit="10" stroke-width="2.125"/>
      <path id="Path_1115" data-name="Path 1115" d="M921.908,1799.486" transform="translate(-907.568 -1723.635)" fill="none" stroke="#000" stroke-miterlimit="10" stroke-width="2.125"/>
      <line id="Line_6" data-name="Line 6" x1="136.09" y2="28.756" transform="translate(14.339 47.096)" fill="none" stroke="#000" stroke-miterlimit="10" stroke-width="2.125"/>
      <path id="Path_1116" data-name="Path 1116" d="M1072.69,1851.572V1889l12.436,3.689v-37.459Z" transform="translate(-879.067 -1713.789)" fill="none" stroke="#000" stroke-miterlimit="10" stroke-width="2.125"/>
      <line id="Line_7" data-name="Line 7" x1="110.996" y2="25.541" transform="translate(191.721 112.242)" fill="none" stroke="#000" stroke-miterlimit="10" stroke-width="2.125"/>
      <path id="Path_1117" data-name="Path 1117" d="M1171.91,1857.5l-48.859,11.418v-4.2a8.987,8.987,0,0,1,6.943-8.751l30.885-7.217a8.986,8.986,0,0,1,11.032,8.751Z" transform="translate(-869.547 -1714.368)" fill="none" stroke="#000" stroke-miterlimit="10" stroke-width="2.125"/>
      <path id="Path_1118" data-name="Path 1118" d="M1007.057,1804.684,958.2,1816.1v-4.2a8.986,8.986,0,0,1,6.942-8.751l30.885-7.217a8.988,8.988,0,0,1,11.033,8.751Z" transform="translate(-900.709 -1724.351)" fill="none" stroke="#000" stroke-miterlimit="10" stroke-width="2.125"/>
      <path id="Path_1119" data-name="Path 1119" d="M966.05,1824.609a53.932,53.932,0,0,1-8.017,19.754" transform="translate(-900.74 -1718.886)" fill="none" stroke="#000" stroke-miterlimit="10" stroke-width="2.125"/>
      <path id="Path_1120" data-name="Path 1120" d="M975.558,1821.648a300.507,300.507,0,0,1-6.965,33.162" transform="translate(-898.743 -1719.446)" fill="none" stroke="#000" stroke-miterlimit="10" stroke-width="2.125"/>
      <path id="Path_1121" data-name="Path 1121" d="M952.728,1830.615q16.646-.4,33.3.189" transform="translate(-901.742 -1717.781)" fill="none" stroke="#000" stroke-miterlimit="10" stroke-width="2.125"/>
      <path id="Path_1122" data-name="Path 1122" d="M983.869,1839.158a126.119,126.119,0,0,0-31.18.9" transform="translate(-901.75 -1716.243)" fill="none" stroke="#000" stroke-miterlimit="10" stroke-width="2.125"/>
      <path id="Path_1123" data-name="Path 1123" d="M998.787,1816.246a189.7,189.7,0,0,1-1.364,31.868" transform="translate(-893.294 -1720.467)" fill="none" stroke="#000" stroke-miterlimit="10" stroke-width="2.125"/>
      <path id="Path_1124" data-name="Path 1124" d="M1006.266,1816.258a237.668,237.668,0,0,0,6.952,24.836" transform="translate(-891.622 -1720.464)" fill="none" stroke="#000" stroke-miterlimit="10" stroke-width="2.125"/>
      <path id="Path_1125" data-name="Path 1125" d="M987.268,1828.094c9.913-1.435,20.535-7.1,31.156-7.1" transform="translate(-895.214 -1719.569)" fill="none" stroke="#000" stroke-miterlimit="10" stroke-width="2.125"/>
      <path id="Path_1126" data-name="Path 1126" d="M1019.206,1829.871c-5.043-.7-8.736.263-13.794.839s-11.56.92-14.858,4.8" transform="translate(-894.592 -1717.937)" fill="none" stroke="#000" stroke-miterlimit="10" stroke-width="2.125"/>
      <path id="Path_1127" data-name="Path 1127" d="M1004.131,1842.45a74.923,74.923,0,0,1-1.322,17.715" transform="translate(-892.276 -1715.513)" fill="none" stroke="#000" stroke-miterlimit="10" stroke-width="2.125"/>
      <path id="Path_1128" data-name="Path 1128" d="M1011.813,1841.861a69.964,69.964,0,0,0,1.866,24.11" transform="translate(-890.635 -1715.625)" fill="none" stroke="#000" stroke-miterlimit="10" stroke-width="2.125"/>
      <path id="Path_1129" data-name="Path 1129" d="M995.009,1850.658a111.273,111.273,0,0,1,28.363,3.546" transform="translate(-893.75 -1713.962)" fill="none" stroke="#000" stroke-miterlimit="10" stroke-width="2.125"/>
      <path id="Path_1130" data-name="Path 1130" d="M1029.672,1818.032c0,7.553-3.1,25.728-3.1,33.281" transform="translate(-887.784 -1720.129)" fill="none" stroke="#000" stroke-miterlimit="10" stroke-width="2.125"/>
      <path id="Path_1131" data-name="Path 1131" d="M1036.7,1818.627v33.282" transform="translate(-885.87 -1720.016)" fill="none" stroke="#000" stroke-miterlimit="10" stroke-width="2.125"/>
      <path id="Path_1132" data-name="Path 1132" d="M1019.427,1828.83a111.035,111.035,0,0,0,33.277-4.259" transform="translate(-889.135 -1718.893)" fill="none" stroke="#000" stroke-miterlimit="10" stroke-width="2.125"/>
      <path id="Path_1133" data-name="Path 1133" d="M1019.426,1837.246l36.831-1.126" transform="translate(-889.135 -1716.71)" fill="none" stroke="#000" stroke-miterlimit="10" stroke-width="2.125"/>
      <path id="Path_1134" data-name="Path 1134" d="M1047.1,1844.838a133.925,133.925,0,0,1-5.058,26.188" transform="translate(-884.859 -1715.062)" fill="none" stroke="#000" stroke-miterlimit="10" stroke-width="2.125"/>
      <path id="Path_1135" data-name="Path 1135" d="M1055.147,1846.62q.485,13.459-.284,26.925" transform="translate(-882.436 -1714.725)" fill="none" stroke="#000" stroke-miterlimit="10" stroke-width="2.125"/>
      <path id="Path_1136" data-name="Path 1136" d="M1035.506,1854.36h30.449" transform="translate(-886.095 -1713.262)" fill="none" stroke="#000" stroke-miterlimit="10" stroke-width="2.125"/>
      <path id="Path_1137" data-name="Path 1137" d="M1033.735,1863.916a121.682,121.682,0,0,0,31.844-1.231" transform="translate(-886.43 -1711.688)" fill="none" stroke="#000" stroke-miterlimit="10" stroke-width="2.125"/>
      <path id="Path_1138" data-name="Path 1138" d="M1065.216,1819.089a71.7,71.7,0,0,0-8.9,21.109" transform="translate(-882.161 -1719.929)" fill="none" stroke="#000" stroke-miterlimit="10" stroke-width="2.125"/>
      <path id="Path_1139" data-name="Path 1139" d="M1073.522,1819.2q-3.048,16.473-7.506,32.64" transform="translate(-880.328 -1719.907)" fill="none" stroke="#000" stroke-miterlimit="10" stroke-width="2.125"/>
      <path id="Path_1140" data-name="Path 1140" d="M1051.167,1820.241c4.243,4.34,27.033,14.581,35.2,14.428" transform="translate(-883.135 -1719.711)" fill="none" stroke="#000" stroke-miterlimit="10" stroke-width="2.125"/>
      <path id="Path_1141" data-name="Path 1141" d="M1051.018,1829.248a76.8,76.8,0,0,1,27.155,13.929" transform="translate(-883.163 -1718.009)" fill="none" stroke="#000" stroke-miterlimit="10" stroke-width="2.125"/>
      <path id="Path_1142" data-name="Path 1142" d="M1090.872,1822.795a74.772,74.772,0,0,0,3.812,26.83" transform="translate(-875.642 -1719.228)" fill="none" stroke="#000" stroke-miterlimit="10" stroke-width="2.125"/>
      <path id="Path_1143" data-name="Path 1143" d="M1099.492,1827a45.716,45.716,0,0,0,6.641,19.425" transform="translate(-874 -1718.434)" fill="none" stroke="#000" stroke-miterlimit="10" stroke-width="2.125"/>
      <path id="Path_1144" data-name="Path 1144" d="M1082.495,1844.1c7.7-2.34,21.105-4.68,28.8-7.02" transform="translate(-877.213 -1716.528)" fill="none" stroke="#000" stroke-miterlimit="10" stroke-width="2.125"/>
      <path id="Path_1145" data-name="Path 1145" d="M1086.722,1833.911c6.426.079,16.668-.7,22.89-2.3" transform="translate(-876.414 -1717.561)" fill="none" stroke="#000" stroke-miterlimit="10" stroke-width="2.125"/>
      <path id="Path_1146" data-name="Path 1146" d="M1014.849,1798.491v21.243" transform="translate(-890 -1723.823)" fill="none" stroke="#000" stroke-miterlimit="10" stroke-width="2.125"/>
      <path id="Path_1147" data-name="Path 1147" d="M1026.863,1796.714c-1.088,9.3-1.739,16.123-3.863,26.745" transform="translate(-888.459 -1724.159)" fill="none" stroke="#000" stroke-miterlimit="10" stroke-width="2.125"/>
      <path id="Path_1148" data-name="Path 1148" d="M1009.47,1803.639q12.039.578,24.1.195" transform="translate(-891.017 -1722.849)" fill="none" stroke="#000" stroke-miterlimit="10" stroke-width="2.125"/>
      <path id="Path_1149" data-name="Path 1149" d="M1034.839,1810.417a92.656,92.656,0,0,1-28.324,2.056" transform="translate(-891.575 -1721.568)" fill="none" stroke="#000" stroke-miterlimit="10" stroke-width="2.125"/>
      <path id="Path_1150" data-name="Path 1150" d="M1023.092,1853.175a37.483,37.483,0,0,0,1.979,17.018" transform="translate(-888.489 -1713.486)" fill="none" stroke="#000" stroke-miterlimit="10" stroke-width="2.125"/>
      <path id="Path_1151" data-name="Path 1151" d="M1032.564,1847.8a32.175,32.175,0,0,0,3.976,14.925c2.982,5.408,7.609,10.166,8.582,16.263" transform="translate(-886.652 -1714.501)" fill="none" stroke="#000" stroke-miterlimit="10" stroke-width="2.125"/>
      <path id="Path_1152" data-name="Path 1152" d="M1042.689,1850.767c-4.2,4.088-10.284,5.406-15.477,8.12a30.967,30.967,0,0,0-11.1,9.823" transform="translate(-889.761 -1713.941)" fill="none" stroke="#000" stroke-miterlimit="10" stroke-width="2.125"/>
      <path id="Path_1153" data-name="Path 1153" d="M1042.762,1859.739l-15.585,10.612" transform="translate(-887.67 -1712.245)" fill="none" stroke="#000" stroke-miterlimit="10" stroke-width="2.125"/>
      <path id="Path_1154" data-name="Path 1154" d="M980.121,1844.236v25.492" transform="translate(-896.565 -1715.176)" fill="none" stroke="#000" stroke-miterlimit="10" stroke-width="2.125"/>
      <path id="Path_1155" data-name="Path 1155" d="M988.97,1842.459a46.512,46.512,0,0,0,4.4,14.833" transform="translate(-894.892 -1715.512)" fill="none" stroke="#000" stroke-miterlimit="10" stroke-width="2.125"/>
      <path id="Path_1156" data-name="Path 1156" d="M970.008,1855.279a89.535,89.535,0,0,0,31.075-8.78" transform="translate(-898.476 -1714.748)" fill="none" stroke="#000" stroke-miterlimit="10" stroke-width="2.125"/>
      <path id="Path_1157" data-name="Path 1157" d="M976.638,1863.2a75.732,75.732,0,0,1,24.607-9.726" transform="translate(-897.223 -1713.43)" fill="none" stroke="#000" stroke-miterlimit="10" stroke-width="2.125"/>
      <line id="Line_8" data-name="Line 8" x1="137.86" y1="39.918" transform="translate(138.391 78.741)" fill="none" stroke="#000" stroke-miterlimit="10" stroke-width="2.125"/>
      <g id="Group_746" data-name="Group 746" transform="translate(236.862)">
        <g id="Group_739" data-name="Group 739" transform="translate(50.53 29.817)">
          <path id="Path_1158" data-name="Path 1158" d="M1191.466,1768.382a24.448,24.448,0,0,1,4.464.386,14.658,14.658,0,0,1,10.089,6.958,20.039,20.039,0,0,1,2.83,6.8c.634,2.975,1.134,5.975,1.665,9.151l.223,1.333q.114.686.226,1.382h-.01l1.162,7.6q.344,2.249.7,4.5c.527,3.392,1.073,6.9,1.559,10.332a37.222,37.222,0,0,1,.376,9.305c-.593,5.58-3.257,9.514-8.382,12.378a24.963,24.963,0,0,1-8.24,2.729c-3.326.549-4.688.79-5.713.971-1.113.2-1.817.322-4.537.744-.152-.008-.3-.013-.459-.013h0a18.2,18.2,0,0,0-1.916.132,31.209,31.209,0,0,1-3.232.18,18.808,18.808,0,0,1-6.649-1.093,15.141,15.141,0,0,1-8.65-8.17,24.244,24.244,0,0,1-2.119-6.463c-1.06-6.128-2.079-12.33-3.028-18.432-.774-4.967-1.526-10.157-2.3-15.869a28.682,28.682,0,0,1-.006-9.035c.925-5.15,3.643-8.736,8.554-11.285a23.669,23.669,0,0,1,6.967-2.326c3.4-.572,4.46-.776,5.314-.941.787-.151,1.34-.258,4.114-.7a18.71,18.71,0,0,0,2.161-.212,37.152,37.152,0,0,1,4.843-.342m0-7.612a44.829,44.829,0,0,0-5.827.407c-.83.108-1.2.147-1.3.147-.276,0,1.616-.316,1.566-.316-.02,0-.366.054-1.317.2-7.374,1.157-3.457.617-10.818,1.857a31.169,31.169,0,0,0-9.208,3.076c-6.849,3.555-11.163,9.032-12.54,16.7a36.488,36.488,0,0,0-.045,11.4q1.084,8.021,2.318,16.02,1.447,9.292,3.049,18.558a31.787,31.787,0,0,0,2.774,8.495,22.813,22.813,0,0,0,12.843,11.977,26.446,26.446,0,0,0,9.3,1.57,38.837,38.837,0,0,0,4.025-.22c.621-.065.967-.092,1.123-.092.634,0-1.843.428-1.721.428.04,0,.372-.048,1.209-.176,7.923-1.213,4.553-.75,12.462-2.057a32.6,32.6,0,0,0,10.714-3.595c7.151-4,11.362-9.987,12.237-18.216a45.23,45.23,0,0,0-.408-11.18c-.706-4.979-1.507-9.943-2.266-14.913h0c-.464-3.031-.892-6.068-1.4-9.09-.605-3.612-1.187-7.233-1.95-10.812a27.6,27.6,0,0,0-3.9-9.371,22.268,22.268,0,0,0-15.082-10.284,32.14,32.14,0,0,0-5.846-.512Z" transform="translate(-1151.552 -1760.77)"/>
        </g>
        <path id="Path_1159" data-name="Path 1159" d="M1163.933,1797.114c-22.181,28.443-54.878,5.222-54.878,5.222" transform="translate(-1109.055 -1724.083)" fill="none" stroke="#000" stroke-miterlimit="10" stroke-width="9.074"/>
        <path id="Path_1160" data-name="Path 1160" d="M1199.075,1779.3l7.843.726c2.589,16.931,16.26,28.317,22.766,33.1l-3.982,6.727A58.435,58.435,0,0,1,1199.075,1779.3Z" transform="translate(-1092.039 -1727.45)"/>
        <g id="Group_740" data-name="Group 740" transform="translate(111.718 108.816)">
          <path id="Path_1161" data-name="Path 1161" d="M1203.013,1827.21c.509,3.766,19.99,13.075,44.42,10.95" transform="translate(-1203.013 -1827.21)" fill="none" stroke="#000" stroke-miterlimit="10" stroke-width="9.074"/>
        </g>
        <g id="Group_745" data-name="Group 745" transform="translate(41.477)">
          <g id="Group_742" data-name="Group 742">
            <path id="Path_1162" data-name="Path 1162" d="M1168.982,1809.4a18.2,18.2,0,0,1-6.442-1.071,15.259,15.259,0,0,1-8.629-8.1,22.782,22.782,0,0,1-1.988-6.078c-.88-5.088-1.734-10.28-2.537-15.436-.643-4.133-1.273-8.484-1.925-13.3a26.371,26.371,0,0,1,.013-8.338,15.062,15.062,0,0,1,8.479-11.238,22.251,22.251,0,0,1,6.569-2.193c5.569-.939,11.593-1.917,18.417-2.986,3.161-.5,6.5-.971,10.205-1.455a33.587,33.587,0,0,1,4.376-.308,22.93,22.93,0,0,1,4.19.365,14.825,14.825,0,0,1,10.1,6.926,19.3,19.3,0,0,1,2.721,6.537c.541,2.539.983,5.188,1.41,7.749l.188,1.118c.291,1.732.549,3.47.808,5.207l.351,2.329.567,3.68c.452,2.908.9,5.819,1.318,8.733a33.641,33.641,0,0,1,.326,8.4,15.177,15.177,0,0,1-8.293,12.293,23.366,23.366,0,0,1-7.71,2.568c-6.735,1.112-13.392,2.172-19.791,3.152-3.632.555-6.823.975-9.755,1.283A28.719,28.719,0,0,1,1168.982,1809.4Z" transform="translate(-1143.333 -1735.088)" fill="#fefefe"/>
            <path id="Path_1163" data-name="Path 1163" d="M1196.123,1743.305h0a19.112,19.112,0,0,1,3.5.3,11.056,11.056,0,0,1,7.6,5.263,15.49,15.49,0,0,1,2.188,5.252c.523,2.458.939,4.95,1.379,7.587l.187,1.114c.018.111.037.22.055.329l1.094,7.153q.287,1.88.58,3.757c.44,2.83.894,5.757,1.3,8.616a29.942,29.942,0,0,1,.309,7.462c-.456,4.276-2.419,7.167-6.365,9.374a19.618,19.618,0,0,1-6.473,2.134c-6.694,1.106-13.337,2.164-19.746,3.146-3.573.547-6.705.958-9.577,1.259a24.712,24.712,0,0,1-2.568.143,14.47,14.47,0,0,1-5.116-.834,11.46,11.46,0,0,1-6.532-6.195,18.983,18.983,0,0,1-1.661-5.063c-.884-5.106-1.733-10.277-2.526-15.372-.645-4.139-1.271-8.466-1.914-13.228a22.764,22.764,0,0,1-.014-7.156,11.2,11.2,0,0,1,6.487-8.532,18.465,18.465,0,0,1,5.448-1.818c5.547-.934,11.557-1.91,18.374-2.979,3.115-.489,6.422-.961,10.109-1.442a29.943,29.943,0,0,1,3.881-.275m0-7.612a37.581,37.581,0,0,0-4.867.339c-3.44.449-6.876.932-10.3,1.469q-9.237,1.45-18.46,2.993a26.025,26.025,0,0,0-7.69,2.568,18.809,18.809,0,0,0-10.472,13.943,30.483,30.483,0,0,0-.038,9.522q.906,6.7,1.937,13.379,1.207,7.759,2.546,15.5a26.577,26.577,0,0,0,2.316,7.094,19.058,19.058,0,0,0,10.726,10,22.078,22.078,0,0,0,7.769,1.31,32.275,32.275,0,0,0,3.361-.183c3.321-.349,6.634-.8,9.935-1.307q9.926-1.519,19.834-3.159a27.255,27.255,0,0,0,8.947-3c5.971-3.339,9.489-8.341,10.22-15.214a37.81,37.81,0,0,0-.341-9.336c-.59-4.158-1.258-8.3-1.893-12.454h0c-.386-2.531-.744-5.068-1.167-7.592-.506-3.017-.992-6.039-1.629-9.03a23.069,23.069,0,0,0-3.257-7.825,18.6,18.6,0,0,0-12.6-8.589,26.865,26.865,0,0,0-4.882-.428Z" transform="translate(-1143.938 -1735.693)"/>
          </g>
          <g id="Group_743" data-name="Group 743" transform="translate(19.77 19.924)">
            <path id="Path_1164" data-name="Path 1164" d="M1179.779,1760.062a11.679,11.679,0,0,1,11.3,9.8,11.992,11.992,0,0,1-2.278,8.753,10.813,10.813,0,0,1-7.3,4.324l-.111.016-.109.019a10.1,10.1,0,0,1-1.7.143,11.529,11.529,0,0,1,.2-23.055m0-7.612a18.929,18.929,0,0,0-2.949.232,19.131,19.131,0,0,0,2.746,38.047,17.718,17.718,0,0,0,2.98-.251c11.089-1.555,17.494-12.107,16.047-21.746a19.311,19.311,0,0,0-18.825-16.283Z" transform="translate(-1160.565 -1752.45)"/>
          </g>
          <g id="Group_744" data-name="Group 744" transform="translate(51.094 11.841)">
            <path id="Path_1165" data-name="Path 1165" d="M1191.31,1745.652a4.16,4.16,0,0,0-.663.054,4.5,4.5,0,0,0,.885,8.937,3.97,3.97,0,0,0,.658-.054,4.5,4.5,0,0,0-.879-8.937Z" transform="translate(-1186.91 -1745.652)"/>
          </g>
        </g>
      </g>
      <path id="Path_1166" data-name="Path 1166" d="M1172.48,1834.111c.509,3.767,22.3,28.679,50.984,33.99" transform="translate(-860.204 -1717.089)" fill="none" stroke="#000" stroke-miterlimit="10" stroke-width="9.074"/>
      <line id="Line_9" data-name="Line 9" x2="0.797" y2="43.903" transform="translate(233.322 34.173)" fill="none" stroke="#000" stroke-miterlimit="10" stroke-width="2.125"/>
      <line id="Line_10" data-name="Line 10" x2="2.808" y2="34.062" transform="translate(218.83 39.765)" fill="none" stroke="#000" stroke-miterlimit="10" stroke-width="2.125"/>
      <line id="Line_11" data-name="Line 11" y1="6.019" x2="36.822" transform="translate(208.892 47.627)" fill="none" stroke="#000" stroke-miterlimit="10" stroke-width="2.125"/>
      <line id="Line_12" data-name="Line 12" y1="2.478" x2="37.932" transform="translate(209.906 61.081)" fill="none" stroke="#000" stroke-miterlimit="10" stroke-width="2.125"/>
      <line id="Line_13" data-name="Line 13" x1="19.827" y2="21.951" transform="translate(42.221 183.899)" fill="none" stroke="#000" stroke-miterlimit="10" stroke-width="2.125"/>
      <line id="Line_14" data-name="Line 14" x1="12.038" y2="22.659" transform="translate(57.8 190.98)" fill="none" stroke="#000" stroke-miterlimit="10" stroke-width="2.125"/>
      <line id="Line_15" data-name="Line 15" x2="26.2" y2="12.746" transform="translate(41.513 196.645)" fill="none" stroke="#000" stroke-miterlimit="10" stroke-width="2.125"/>
      <line id="Line_16" data-name="Line 16" x1="25.492" y1="14.87" transform="translate(47.886 186.731)" fill="none" stroke="#000" stroke-miterlimit="10" stroke-width="2.125"/>
    </g>
  </g>
</svg>
