<svg xmlns="http://www.w3.org/2000/svg" width="73.68" height="24.899" viewBox="0 0 73.68 24.899">
  <g id="Group_808" data-name="Group 808" transform="translate(-802.82 -1088.667)">
    <path id="Path_16" data-name="Path 16" d="M218.831,65.163c-.021-1.152-.636-2.213-1.809-2.213-1.1,0-1.409,1.088-1.369,2.268A1.591,1.591,0,0,0,218.831,65.163Z" transform="translate(603.468 1026.736)" fill="#4a4b4d"/>
    <path id="Path_17" data-name="Path 17" d="M173.822,60.78a8.283,8.283,0,0,0-5.529-1.1,8.105,8.105,0,0,0-3.3,1.009,6.325,6.325,0,0,0-2.121,1.724,2.423,2.423,0,0,0-.538,1.33q.041.248.449.211a1.891,1.891,0,0,0,.856-.33c.3-.2.636-.41,1.012-.642a7.734,7.734,0,0,1,3.42-1.11,4.911,4.911,0,0,1,3.035.526,3,3,0,0,1,1.391,2.185A3.97,3.97,0,0,1,171.894,68a2.508,2.508,0,0,1-.99.685,10.233,10.233,0,0,1-1.048.336c-.3.076-.538.15-.737.223-.5.113-.935.177-1.311.229.006-.128.012-.254.018-.394q.105-2.182.064-3.552a12.1,12.1,0,0,0-.168-1.565c-.1-.587-.238-.871-.419-.853a.9.9,0,0,0-.477.18q-1.522,1.1-2.109,6.55a20.835,20.835,0,0,0,.018,5.489,10.321,10.321,0,0,0,.37,1.6.682.682,0,0,0,.764.513q2.609-.238,2.387-1.565l-.477-4.236c2.078-.578,4.411-.727,6.186-2.1h0c.024-.018.046-.037.067-.055a4.985,4.985,0,0,0,1.076-1.128,3.626,3.626,0,0,0,.449-.758,5.314,5.314,0,0,0,.5-3.353A5,5,0,0,0,173.822,60.78Z" transform="translate(640.49 1029.05)" fill="#4a4b4d"/>
    <path id="Path_18" data-name="Path 18" d="M220.2,86.781c1.076-1.33,1.846-2.354,2.265-2.934a1.515,1.515,0,0,0-.138-2s-1.161-1.076-3.564,2.895c0,0,0,.006-.006.006-.74-1.058-1.424-2-1.947-2.635a1.7,1.7,0,0,0-1.531-.789c-2.023.134-.315,3.335.263,4.261a18.774,18.774,0,0,1,1.143,1.858C214.819,89.987,213,90.134,212.579,90c-.492-.153-.865-.721-.578-3.09.015-.079.028-.153.043-.235.076-.465.138-.883.183-1.262,0-.009,0-.015,0-.024v0a10.284,10.284,0,0,0,.116-1.923,3.077,3.077,0,0,0-.4-1.345q-.454-.889-1.116-.889-.6,0-1.073.85h0c-.018.034-.04.07-.058.107-1.2,2.1-1.333,5.8-1.308,7.522a2.734,2.734,0,0,0,2.28,2.885,6.2,6.2,0,0,0,2.405-.079,5.876,5.876,0,0,0,1.757-.642s0,0,.006,0a13.592,13.592,0,0,0,3.038-2.5c1.149,1.846,2.613,3.39,4.139,2.907a4.261,4.261,0,0,0,.4-.15,2.246,2.246,0,0,0,.816-.538,1.47,1.47,0,0,0-.29-2.051A25.3,25.3,0,0,1,220.2,86.781Z" transform="translate(608.507 1014.043)" fill="#4a4b4d"/>
    <path id="Path_19" data-name="Path 19" d="M324.5,65.163c-.021-1.152-.636-2.213-1.809-2.213-1.1,0-1.409,1.088-1.369,2.268A1.591,1.591,0,0,0,324.5,65.163Z" transform="translate(530.096 1026.736)" fill="#4a4b4d"/>
    <path id="Path_20" data-name="Path 20" d="M264.424,92.76c-.8,0-1.177.578-1.311,1.345a4.755,4.755,0,0,0-.058.923,1.527,1.527,0,0,0,.034.245,1.386,1.386,0,0,0,.828,1.082,1.572,1.572,0,0,0,2.317-1.382C266.215,93.824,265.6,92.76,264.424,92.76Z" transform="translate(570.553 1006.038)" fill="#4a4b4d"/>
    <path id="Path_21" data-name="Path 21" d="M316.013,79.607c.043-.19.083-.376.116-.562.373-2.106.8-7.161.911-8.02a2.919,2.919,0,0,0-.568-2.574c-.709-.694-1.513-1.418-2.1-.33-.825,1.537-.015,4.139-1.3,6.128-2.681,4.169-3.063,1.253-2.992.413.116-1.4.541-3.439.706-4.664.266-1.962-.9-2.3-1.476-2.152s-.993,1.006-1.314,1.941a27.308,27.308,0,0,0-.782,3.738c-.079.107-.156.217-.232.336-1.262,2.005-3.7,3.885-3.928,1.161,0-.168-.006-.327-.018-.474a23.661,23.661,0,0,1,.312-4.163,8.527,8.527,0,0,0,2.415-.333c.639-.232.767-.92.767-1.54,0-.74-1.036-.9-2.586-.844.134-.486.281-.981.458-1.492.315-.908-.724-1.791-1.675-1.635a.816.816,0,0,0-.18.058,1.361,1.361,0,0,0-.908.758h0A9.727,9.727,0,0,0,300.694,68c-.189.034-.37.064-.523.095a1.9,1.9,0,0,0-1.339,1.268c-.144.642.248.975,1.391.987h.018a23.164,23.164,0,0,0-.312,3.61c-.55.941-2.32,2.409-3.063,2.409a.969.969,0,0,1-.584-.183.852.852,0,0,1-.29-.66,14.04,14.04,0,0,1,.339-2.482,15.961,15.961,0,0,0,.306-3.212,3.077,3.077,0,0,0-.4-1.345q-.454-.889-1.116-.889-1.119,0-1.785,2.916A23.331,23.331,0,0,0,292.759,75c-3.222,2.729-5.7.844-5.655-3.344.049-4.606,2.314-6.709,3.512-7.44s2.262-.675,2.286-1.048-.183-1.791-2.659-1.553-6.48,3.472-6.92,9.5,3,7.831,5.471,7.919a5.659,5.659,0,0,0,4.423-1.791,3.083,3.083,0,0,0,1.623,1.559,2,2,0,0,0,.844.177,5.145,5.145,0,0,0,3.622-1.492,12.519,12.519,0,0,0,.868-1.058c.183,1.577,2.146,4.563,6.6.59.1-.1.2-.2.3-.3.376,1.495,2.6,3.5,6.391.529l-.116,1.1c-.052.422-.113.813-.18,1.174-.462.009-.935.031-1.424.061-4.658.29-6.217,2.525-5.688,4.236s2.711,2.638,5.45,1.681a6.857,6.857,0,0,0,3.845-3.921c2.827.021,4.652.33,4.646-.144C320,80.444,318.425,79.827,316.013,79.607Zm-2.46-2.412c.024-.018.018-.012,0,0Zm-4.664,6.379c-.3-.156-1.134-1.51,3.384-1.886.095-.009.19-.015.281-.021C311.257,84.671,309.127,83.7,308.888,83.574Z" transform="translate(556.504 1027.679)" fill="#4a4b4d"/>
  </g>
</svg>
