<svg xmlns="http://www.w3.org/2000/svg" xmlns:xlink="http://www.w3.org/1999/xlink" width="216" height="165" viewBox="0 0 216 165"><defs><path id="siira" d="M427.853 456.134l-.714.703-1.183.236-.151 1.012-.522.644.182.493-.672.443-.214.35-.218 1.21-.295-.275-2.436-.703-1.357.291.053-.59-.356-.704.55-.776-.68-.445-.401.018.98-1.2.016-.186.577-.411.196-.826-.067-.422.35-.768 1.131-.435.27-.31.307.016.473-.612.19.024.185.35.382.03.737.698.526-.26-.043.538-.177.103.215.782.592.103.622.534.976-.068zm88.517-62.644l-.754-.384-.596-.603-1.541-.678.055-.414-.582-.854-.056-.202.092-.617-.984-.29-1.205.037-.14-.394.414-.698-.213-.342-1.231-.038-.91-.48.202-.836-.535-.912.129-.635-.19-1.059.184-.39v-.217l-.048-.21-.625-.84.265-1.916.508-.683.075-.412-.938-.487-.42-.466-1.404.44-.77-.312.005-.557-.538-.172.176-.386-.039-.423-.17-.125-1.227-.072-1.087-.625-.122-.4-.658-.485-.759-1.261.273-.793-.363-.516-.198-1.883.057-.62.327-.538.013-.64-.207-.355-.1-.178.708-1.233.778-.185.574.175.317.28.186.377.174-.124.154-.854.246-.337 1.213.32 1.226-.292.72-.792 1.59-.615.153-.151.27-.59.25-1.252.52-.69.869-.606-.25-1.69-.977-.803.006-.414.302-.531-.465-.963-.932-.484-.236-.83-.766-.716-.493-1.162-.551-.28-.074-.609-.592.09-.526.656-.904.492-.642-.494.332-1.009.397-.483-.207-1.23.338-.544.167-1.049-1.863-.225-.752-.337-.819.178-.238-.33-.515-.214-.286-.975.13-.605.58-.826.193-.333-.204-.768-.148-.436.735-1.288.046-.424.495-.388.268-.576.598-.564.38-1.422-.008-.212-.344-.522-.187.098-.81-.62-.372-.744-.903-.508-.198-.593-.398-.107-.513-.896-.142-.782.46-.395.403-.035.378-.482.22-.298-.182-.503.141-.35-.636.056-1.362-.574-1.692-.318-.22.013-3.068.133-.8.118-.234.012-1.918.307-1.01.207-1.302-.605-1.134.619-.193.826-.272.335-1.341.702-.58.252-.634.033-.402.49-.215.09-.354.532-.212.02-.97-.432-.564-1.194-.233-.138-.703-.122-.453.175-.566.159-.463.438-.59.6-.334.756-.47.726-.333 1.018-.37.21.293.23.147.553-.033.21-.522.36.007.424.944 1.39.133.164.197.075.376-.188.7-.79.001.414.57.169.027.761-.615 1.068-.759.589-1.147.555-.635.007-.156.147-.665.595-1.179.947.093.614-.546.6-.945.385-.24.317-.487.326-.369.053-1.207-.299-.258-.328-1.45-.02-.335.202-.053.417-.522.29-.73-.372-1.024-.094-.401.096-.15.389-.966.48-.052-.25.438-.38-.075-.384.362-.7.37-.976.34-.163.124-.604-1.239-.738.022-.064.3-.259.128-.757.767-.148.046-.198.382-.13.576-.562.748-.33.33.253.19.07.63-.787.357.191.74-.322.642.51.52-.351.28-.541-.102-.626-.17-.123-.573-1.168.716-.634-.015-.756.22-.58.559-.964.108-.412.374-.193.35-.534.385-.747.072-.201-.075-.2-.239-.353-.58-.199-1.12-.98-.582-.237-.376-.513-1.404-.483-.145-.078-.325.37-.913 1.418-.738.736-1.227.811-.376.752-1.408 2.494-.655-.274-.293.272-.126 1.002-.282.54-.61-.163-.581.897-.485.418-.19-.359-.587.558h-1.022l-.334-.07-2.19-.333-1.356.278-.356.187-.387-1.196.127-.846-.186-.838-1.256-.174-.053-.3-.622-.488-.972-.054.19-.572-.156-.524-.361.387-.247.35-.799.25-.287.786-.043.255-.283.702-.446.328-.946-.016-.13.376-.933 1.074-1.17.277-.368-.356-.127.122-1.015.181-.17-.12-.57-.586.055-.833.316-.165.367-1.346-.423-.496-.45.337-.726.174-.57-1.982-.277.295-.28 2.053-.26-.344v-.055l-.1-1.042-.028-.395-.739-.34-.415-.447.096-.377-.015-.39-.5-.314.067-.186.537-.562-.452-.388-.795-.652-.587-.018-1.046-.641-.385-.123-.048-.197.567-.03-.19-.069.078-.393.505-.325-.468-1.083-1.546-.11-.73-.2-.347-.456-.492.097-.484-.643h-.404l-.085-.802-.266-.281.116-.361-.382-.636.135-.136-.098-.184-1.008-.219-.475-.38-.07.787-.969-.234-.195.047-.098.387-.883.505-.744-.266-.996.71-.7.094-1.698-.983-.152-.646-.177.083-1.096-.334-.409.06-.322.454-.38.16-.29-.182.023-.402-.492-.031-.084.108-.167.51-.11.293-.491.67-.032.417v.077l-.003 1.09-.839 1.022-.064.17-.046.243-.012.672-.119.612-.02.88-.599 1.093-.345.56-.3.472-.313.953.067.58-.052 1.016-.427.868-.347.752-.27 1.405-.42.664-.237.66-.11.996-.313.517-.12.311-.098.268-.116.768-.017.398-.47.665-.039.812-.197-.025-.515.084-.529.135-.902-.362-.195-.296-.122-.761.182-.55.413-.354-.592-.67-.064-.351.544.06.133-.346-.65-.673-.494-.263-.153-.139-.618.032-.301-.283-.142-.783.356.085.214-.31.301.249.293-.132-.009-.915-.177-.01-.393-.588-.018-.474-.572-.133-.64.48-.472-.396-.609.103-.124.578-.786.687.205.576-.14.387-1.344-.237-.57-.534-.055-.79-.072-.175-.506-.073-.402.672-.073.583-.354.222-1.425.19-.651-1.269-.547.223-.723-.706-.785.175-.159-.386-.361-.208-.106.392-.783.02.054.201-.35.512-.1.594.03.47-.368 1.15-.115.106.253.526-.225.72.077.358.015.407-.573.218-.478.666.425.688-.113.177-.516.1-.497-.278-.492.335-.347-.192-.428.826-.193.008-.375-.19-.527.303-.329.76-1.225-.061-.19-.565.198-.014.357-.476-.158-.57-.536-.224-.787.6-.066.045-.228-.454-.558-.571-.712.356-.18-.09-.004.623.08.197-.361.179-1.46-.141-.397-.08h-.019l-.032-.203-1.206-1.081-.85.442-.67.269-.319-.104-.425.458-.783.544-.154.145-.395-.148-1.238.132-.713-1.205.045-.611-.31-.191-1.214-.203-.8.141-.322-.245-.81-.399.31-.753-.005-.623.42-.411.056-1.018-.208-.813-.178-.116-.29-.544.392-.505 1.244-.186.68-.453v-.118l.048-.834.842-.082.612.165.874-.577-.428-.012-.365-.063.073-1.342.174-1.195-.406-.896-.18-.773.437-.594-.14-.537-.022-.193.469-.331-.253-.723.562-.213.067-.195-.283-.538.168-.377-.119-.373-.822-.552-.199-.34-.385.095-.54-.048.245-.717-1-.02-.745-.315-.568.266-.173.384-.262.275-1.143-.532-.204-.36.143-1.04-.364-.161-.391.144-.033-.009-.205-.326.258-.338-.389-.462-1.059.67-.376.057-.35-.468-.576-.062-.122-.385-.315-.259-.606.17-.584-.206-.384-.499.066-.402.283-.356-.024-.956-.06-.481-.187-1.211-.627-.101-.258-.321.41-.733.02-.213-.314-.285-.3-.28-.186-.585-.21-.408-.01-.181-.144-.397-1.08-.667.109-.6-.725-.335-.181-1.002-.566-.197.001-1.016-.623-1.015.277-.521-.31-.269-.828.116-.401-.676-.614.818.747 1.465-.63.516-.161-.356-.34.425-.887-.396.05 1.025.459.947-.235.327-.27.314-.21-.001-.354-.49-.582.138-1.41 1.501-.007.41-.148.132-1.166-.045-.177-.389-.377-.195.19-.087-.006-.404.294-.289v-.616l-.178-.354-.735-.308-.078-.4.184-.595-.822.067-1.029-.23-.391.156-.149.61-.45.706-.398.138-.37.218-1.26-.22-.567-.875-.27-.793-.615.045-.016.01-.605-.057-.368.502-1.07.626-.197.055-.108.393-.45.417-.494.267-1.551-.742-.761-1.05-.095-.12-.751-1.051-1.022-.346-.888-.279-1.416-1.219-.509-.913-.23-1.342-.188.093-.479-.392-.819.174-.7-.394-.837-.027-.311.68-.528-.031-.368-.123-.589.19-.325.257.068.397-.501.345-.777.343-.214.571-1.286 1.112.045.958-.38-.091-.384-.44-1.428.11-.447.674-.335.213-.342-.132-.339.21-.142-.38-.475-.402-.388-.953-.164-.109-1.081.546-.073 1.02-.608.068-.516.628.064.376-.906.441-.34.51-.832-.082-.198.061-.078.61.428.43-.012.207-.321.74-.707-.365-.037-.405-1.493.61-.148.412 1.093.359.136.6-.492.63.17.571-.85.46.377.162.273.738.61-.043.414 1.36-.111.587.319.53-.094.185-1.445.79-1.673 1.143-.482-.593-.4.036-.245.33-.398.08-.154-.138-.001-.41-.57-.094-.527.375-1.015.333-.344-.257-.425-.043-.552.313-1.28.155-.66-.01-.714.41-.715.738-.389.718.197.36-.095.508-.435.302-.483-.421-.872 1.463-.26 1.468.109.414-.098.189.14.395-.152.13.267 1.36.09.182.587.088.484.353.793-.143.212.57.029.2-.582-.002-.573.559-.074.542-.24.322.399.085.124.385.824.576.992.11.347.741.185-.094.648-1.17.087.025 1.362 1.303-.211.742.241.765.194.05.314-.537.4-.1 1.139.526.423.457-.03.21-.076.4.47 1.14 1.147.643-.046.055.274 2.175.274.522.009.562.559.526.726.115.26 1.907-.112.272-.146-.011-.121.924-.243.279.018 1.176.07.377-.085.423.174.626.779 1.778 1.23.854-.185 1.071-.216 1.167.153.573.528.644-.107.586-1.598.52-.118.167.102.409-.7.433.007.403-.32.27-.083.625.071.199.585.223-.195.096-1.731 1.485-.416.048-.016.63-.392.716-.39-.027-.362-.406-.378-.012-.172.264-.743.016v.592l.262.291-.077.39-.546.044-.09.37-.266.286-1.015-.172-.59.593 1.795 2.357.137 1.14.483.666.381-.137.514.329.178.382.586.158.289.558 1.231 1.602-.066.795.29.204-.094.399.171.373-.437.285-.156.327.001.387.49.616-.306.52.083.322-.291.142-1.16-.084-.18.341-.15 1.66-.543.417-.084.387.453.953.584.608.338.74.821.18.095.627-.133.157.123.603-.127.375.146.365-.37.736-.023.399.205.449-.23.872.038.371-.235.652-.167.075.079.542-.197.265-.193 1.407-.2.356 1.256.98.199-.034.21.72-.162.56-.314-.164-.313.25-.772.005-.317.231-.094.399-.495-.798-1.125-.104-.155-.2-.617-.556-.797-.064-.321-.253-.12-.385-.527-.305-.809-.088-.275-.004-.205.33.778 1.435-.223.347.048.342-.008 1.03-.542.613.295.527-.215.56-.568.241-.997.23-.416.73-.663 1.31-.595.017-.27-.103-.333.405-.184.826-.574.244-.11.184-.078.199.029.64-.56.273-.346.536-.656.536.02.213-.359.141-.14-.134.18.375-.173.821.295.295.17 1.04.804.652.403.008.075.198-.11.328-.798.089-.04.808-.542.61-.783.05.383 1.19-.38.728.022.631-.277.797-.493-.236-.738-.07-.221.295-.201-.022-1.308 1.194-.08.01-.042.331-.169.032.633 1.06.28 1.012 1.004 1.007-.319 1.195-1.135.258-.53-.256-.186.077-1.098.483.745 1.515-.182 1.021 1.09.904.241.567-.879.519-.07.2.004.84.333.764.994 1.467.322.132.115.332.509 1.021 1.11.715-.01.793.234.532-.131.507-.162.568-.573.156-.077.02.182 1.008-.227 1.84-.62.82-.135.611.345.39.686-.394 1.027 1.515-.552.801.324.489-.176.337-.005.59.299.153.631.442.664.77.55-.395-.26-.325-.25-1 .785-.625.98.122.615-.531.203.015.185-.039.494-.318.911.186.677-.35.338.277.185.354-.066.604.668.462.6-.038.654-.475.494.288.187-.076.32-.061 1.295.452.606-.506.751.315.165-.554.389.118.144-.154.203-.372-.015-.64.475-1.19.77-.62.126-.36.608-.427.832-.624.02-.192-.307-.199.115-.17.088-.468-.023-1.111.293-.22.16-1.037.395-.424.53.065.57-.588-.072-1.649.541-.597-.3-.76.581-.6.463-1.173 1.004.151.134-.16.1-.814.974-1.31.319.218.708-.202.436-1.322.326.089.121-.383.429-.407.024-.052.16.562.58-.01.845 1.368-.161.585.266.76-.3.547-.106.828.12.4.4.039.32-.513.662-.467.347.202 1.607-.09.148-.142.2-.01-.173 1.412.337.236-.095.574.356.505.403 1.611.427.899.345.195.38-.02.555-.54.57.832.01.82-.134.16-.605-.025-.08.195.074.198.544.282.173.379-.084.62-.34.532.32.95.14 1.02.302.548-.087.587.578.53.09.405.31.262-.034.207.351.378.479.218.137-.347-.094-.192.688-1.324.712-2.234.56-.273.404.094-.177-.732-.316-.19.061-.18.109-1 .456-.593.252-.3-.176-.56.248-.507-.168-.968.097-.393.667-.976.536-.242-.201-.729.908.192.223.012.042-.67-.223-.703.425-.654-.079-1.117.687-.42.372-.732.606.078.362.508.369.576.184.565.367.15.344.487.363.132.239-.582.793-.173.451-.435.39-.406-.294-.512-.065-.777.976-.38-.215-.941.236-.296-.075-.178.325-.127.401-.001-.136.393.198.343.772.195.642-.797.56-.022.177-.369.812-.612.695.066.285-1.009.477-.262.07 1.012.488.375.72-.24.403.73.121.932-.223.714.372.568v.634l.689 1.08.255 1.582.662.784-.06.614.58.564.345.746.366.195.168-.122.119-.388.568-.57 1.412-.233.598.145.563-.518.573.49.305-.198-.119-.405.459-1.377-.117-1.039.555-.216.25.274.471-.272.295.12.493.012.664.403.277.757.29.239-.165.781-.517.314.376.447 1.186-.177.299-.279.938.252.391-.1.078-.385.355.14.297.902.372.42.18.954.127-.17.2.052 1.066.963.403 1.149.153.104.366-.406.582-.166.36.192-.032.396-.468.667.398.457.968.198.55.267.063.2-.585 1.04-.002.42.285.3-.012.626.582.014.043.2-.542.857.576 1.33.394.456.041.466-.068 1.642.525.263.06.198-.064.932.5.305-.069.404.283.537 1.056-.061.509 1.16.2.98.571 1.08-.103.178.18.098.24.803.014 1.675.46.902.708.384.369.436.553.021.349.758-.32.764.712.372.573.592-.377.678-.55-.119-.166.11.057.578.387.356-.038.375.21.509-.142.325-.102 1.343-.652.417.518.663.142.099.365-.173.574-.538 1.257-.297.233.186.351.056.376-.474.625.837.05.645.789.072.682-.34.36 1.095 1.25.65.74.85.464.425.578.222.623-.446.638-1.24-.026-1.39.576.011.67-.421.467-.646-.146-.362 1.861-.111.707-.42.358.166.283.567-.038.415-.413 1.424.072.618.43.39 1.19-.091.152.386.202-.006.536-.878-.187.07.097-2.272.18-.376.394-.085.76.21.972-.124.248.295.114.382.396.021.292.284.754-.025-.058.1-.089.193.484.944.537.293.18-.085 1.035.547.272.043.467.794.673-.426.694.89.131-1.271.035-.216-.108-2.127 1.227.553 1.388.003.009-.204.353-.157 1.733.09.375.459.376.006.628.75.363.075-.004 1.598-.02.51.357.68-.015.971.055.586.498.242 1.33-1.066.97-.96.883-.152-.178.356 1.503-.227.416-.42 1.21-.63.75-.386.54-.02.615-.373.517-.344 1.302-.623.668 1.462.418.01.967.206 1.676-1.224.156-.578.552-.284.1.044.167.36-.114.576-.191.556-.641.456-.117.785.548.216.042 1.218-.408.443-.075.186.75.604.323.27 1.39.391 1.23.073.097-1.07.339-.018.334.065 1.013.625.948.874.014-.206h.602l.743.272.84-.564.876.514.329.24-.056.13-.08.406.225.797-.143 1.458.575.18.791-.142.492.335.343-.189.11.817.386.125.08.77.219.296 1.847.213.37-.124.145-.377 1.302-.565.384-.972v-.025l.801.063.451-.398-.018-.208-.687-.749.48-.93.163-.13.61.051.326-.244.305.048.32.735.537.275.378.475-.32.954.588.12 1.4.153.173-1.058-1.546-.24-.082-.188.323-1.158.905.032.119-.145.385-.137.03-.213-.386-.987.185-1.05-.356-.912.067-.62.52-.62-.462-.597-1.209.535-.05-.414-.544-.596.016-.41.303-.198-.27-.437-.355-.106-.388-.41-.324.198.205-.587.712-.734.042-.205-.311-.243-.337.17-1.156.014-.053.008-.654-.087-.379-.066-.55.242-.384-.112-.129-.587-.666-.434-.743.3-.433.435-.603-.846-.407-.018-.254-.966-.79-.031-.376-.084-.152-.377.473-.361-.039-.633-.371-1.215-.605-.797.846-.534 1.43.767.368-.117.19-.371.319.045.177-.499-.099-.145-1.13-.461-.196-.344-.152-1.005.277-.3-.27-.767-.062-.145-.044-.586.545-.112.17.349.345.185 1.169-.018 1.621.706.45.34.177-.057.185-.082 1.448.674.59-.555.36-1.407.288-.263.757.169.556-.157-.761-1.105-.783-.868-.531.096-.744-.639.388-1.42.027-.104.283-.21.19-.74.331-.161.048-.508.4-.866.38-.043.141-.575-.277-.296-.124-.608.077-1.023.412-.251.325.254 1.014.064 1.76.602.99-.668.194-.575.727.38.818.06.435-1.31.514-.308.699-.69-.188-.591-.536-.245-.47-.107.413-.44.316-1.013.44-.716-.095-1.049.584.202.292.295 1.57.258.322-.504.38-.147.728.317.759-.648.563.232.086-.71 1.136-.6-.105-.598-.703-.33-.48-.493 1.242-.855 1.015-.107.536-.908.587-.17 1.102 1.354 1.71-1.363.664-.444.725-1.033 1.15.258.493.358.796-.133.324-.268 1.37.424.83-.034.764-1.006 1.15-.297.41.073.632 1.073.708.412.798-.393-.205-1.235.064-.42.275-.321-.163-.595.138-.62-.159-1.034.167-1.05-1.177-.376-.26-.323.182-.807-.512-.902.01-.427.27-.573-.188-.379-.81.01-1.788.455-1.752-.576-.472-.411-.009-.638.242-.327.037-.85.44-1.402.973-.278-.587-2.241 1.312-1.22.684.725.689.383.992-.2.664-.468.058-.201 1.293 1.273.398 1.198-.407.736 1.342.498.387-.137.596.184.608-.108.765.646 1.423-.245.07-.838-.295-1.233 1.203-1.127.645.515.393.095.969-.342.235-.561.528-.564.562.237.989-.107.69.707.216-.364.623-.024.88-.554.322-.779 1.366-.434 1.15.443.356-.202.935-1.127 1.144.388 1.982 1.126.216.365.209-.011 1.723-.698-.386-.984.285-.57 2.031-.305.156-.144-.094-.191.355-.217.107-.606.457-.424.06-.595.998-.262.472-.404 1.01.036.674-.472.405-.045.638.851.398-.048.321-.763 1.167-1.213.617-.09.376-.513-.174-1.054.18-.602-.554-.91-.179-.839-.253-.342-.042-.629.921-.249.125-1.047 1.014-.714.023-.843.255-.588.465-.424.277-.811z"/></defs><g><g transform="translate(-301 -308)"><use fill="#ed5485" xlink:href="#siira"/><use fill="#fff" fill-opacity="0" stroke="#bcbcbc" stroke-miterlimit="50" stroke-width=".75" xlink:href="#siira"/></g></g></svg>