<svg xmlns="http://www.w3.org/2000/svg" xmlns:xlink="http://www.w3.org/1999/xlink" width="182" height="138" viewBox="0 0 182 138"><defs><path id="j19ea" d="M514.5 264.364l-.214-.547-.05-.039-.537-.444-.526-.227.055-.44-.102-.568-.45-.34-.228-.621-.104-.11-.044-.458-.293-.231-.169-.122-.014-.001-1.295-.066-.742.442-.032.211-.214.043-.09-.51-.343-.151.034-.325-.208-.904.067-.415.162-.226.133.035.12-.94.136-.343.815.017-.169-.563.421-.651-.151-.124-.168-.167.339-.498-.298-.28-.095-.26.096-.022-.465-.777.413-.984-.224-.281-.48-.502-.203-.549-.171.111-.556-.255-1.009-.351-1.505-1.19-.628.068-.046-.124-.62-.341-.229.077-.436-.116-1.12-.38-.665-1.013-.01-.415-.246-.337.134-.567-.183-.111-.185.108-.582.604-1.323-1.04-.124-.283.135-.38-.305-.517-1.96-.758-.037-.208-.085.033-1.054-.663-.27-.34-.517-.268-.188-.147-1.745-.963-.223-.363.041-.423-.485-.679-.703-.478-.274-.512-.198.006-1.364.6-.438.702-.68 1.241-1.617.383-1.055.657-.128-.403-.687-.807.003-.821-.383-.212-.747-1.306-.985.038-.164-.586-.677-.437-.405.082-.574-.237-1.782.76-.656-.043-.586-.297-.65.112-.603.467-.51.429-.383.034-.152.345-.771-.171-.217.32-.386-.1.122-.626-.045-.207-1.047-.68-.462.26-.41-.343-.076-.347-.176-.026-.238-.266.55-.234-.147-1.142-.265-.285.134-.658-1.034-1.043-.716.366-.213.34-.992-.06-.558-.126-1.482.857-.61.841.029.586-.57.616-.027.392-.272.322-1.32-.067-.078.596-.892.682-.628-.106.207-.773.927-.968-.51-.8-.844.324-.254.204-.137 1.44-.44.042-.593.535.144.378-.508.34.245.98-.17.444-.14.145-.593-.05-.741-.296-.132.152-.13.387-.973 1.7.117.59.162.454-.96.28-.38.035.097-.544-1.21-.046-.369-.175-.327.468-.385.17.18 1.16-.103.374-.244.284-.369.08-.143-.05-.602-.19-.644-.108-.532.641-.376 2.046.237.229-.096.33.98.023.165.113.021.376-.061.634.13.375-.83.671-.035.213.297.318-.447.15-.043.634.378.505.025.836-.21.33-.763.116-.124-.158-.332.058-.27.448-.994.026-.593.206-.39-.113-.389.217-.484-1.151-.067-.627-.53-.36-.152-.02-1.542 2.014-.85-.014-.155-.147-1-.486-.562.596-.833.199-.639.019-.542-.315-.62.17-.315 1.25.278.301-.746.725-.54.902-.035 1.023-.348.106-.422.675-.56-.303.059-.417-.249-.334-.19-.098-.418-.082-.305.29-.406-.003-1.08.97-.112.606-.388-.005-.52.297-.7-1.281.799-1.496-.659.245-.248.087-.331-.736-.74-.778-.964-.483-.628-.239.206-1.666-.76.17-.082.401-.614.87-.671.533-.427-.061-.022-.154-.396.041-.211-.365-.628-.048-.453-.416-.61-.134-.396-.162-.242-.348.396-1.17-1.048.041.078-.826-.165-.134-1.054.58-.08.416-.343.258-1.063.12.117-.177-.705-.77.1-.374.306-.266.01-.57.297-.504-.297-.227-.166.122.192-.57-.255-1.197-.53-.248-.303.237-.601.087.019-.196-.353-.18.264-.386-.215-.24 1.052-.523.515-.244 1.288-.843.337-.982-.387-.336-.026.04-.104-.318-.358-.083-.205-.064-.288-.505.034-.829-.344-.763-.595-.026-.522-.266.029-.937-.36-.446-.57-1.348-.472-.373-.842.188-.746 1.452-.954-.678-.19-.333.14-.365.545-.282.812-1.134-.381-.712-.464-.435-1.062-.124-.367.158-.39-.162-.58-.165-.088-.378.41-.736.538-.317-.62-.568-.172-.592-1.672.216-1.24-.28-.658-.69-.356-.16-.954.479-1.064-.589-1.074.022-.216-.427-.375.18-.4-.127-.827.13-1 .978-.184.37-.61-.024.301.982.523.344.19.811-.318.222-.877-.13-.63.217-.878-.103-2.033.72-.37-.193-.91-.537-2.677.704-1.665-.358-.3.508-.266.338.117.627-.364.767-1.01.115-.968-.403-.935-1.1.086-1.425-1.005-.039-.279.293.002.21.386.196.062.834-.237.337-.626.101-.05-.832-.71-.374-1.07.977.002.414-.387-.032-.44.364-.352.213-.8-.01-.08-.788-.122-.163-1.21-.106-.253.95-.373.193-.529-.328-.342.223-.411-.103-.414-.733-.834.722-.186.02-.757-.32-.574.206-.963-.153-.334.399-.186-.097-.371.19-.397-.126-.07-.045.35-.548.137-1.266.356-1-.437-.977-.335-.498-.415-.027-.157.14-.068 1.005-.782.304.113-.388-.606-.05-.428-1.23.964-.146.335.207-.024-.817-.932-.795-.193-.363-.472-.053-.426-.467.28-.253-.097-.938-1.162-1.378.058-.575.237-.298-.168-.377-1.37-1.588-.67.42-.516-.367-.036-.408.618-.815-.38-.939-1.213-.404-.09.192.272.574-.015.412-.62.584-.215-.026-.259-.572-.14.585-.972.377-.345-1.238-.377-.523-.425-.999-.71-.45-1.24.81-.787-.611 1.436-1.326.508-.916-.385-.37-.323.11-.198-.35.073-.19.96-1.048-.035-.2-.36-.805-1.37-.627-.111-.184.322-.766-1.02-.75.036-.624-.845.078.05-.897-.531-.37-1.173-1.51-.364-.236-.874.006-.171-.316-.014-.013-.853.11-.777.73-.209-.051-.527-.903.033-.835-.61-.052-.631-.47-.41.01-.38.439-.1.982-.318.21.008-.4-.204-.01-.225.326-.41.004-.269.065-.562-.229-.203-.008-.05.189-1.152-.515-.066.196-.395-.01-.887.803-1.028-.312-.502.161-.422.206-.447-.316-.37.077-.166-.39-.384-.19-.185.345-.945.285-.209-.322-.73.242-.325.257-.472.905-.16-.127-.034-.373-.417.02-.345-.208-.583.19-.723-.141-.5 1.145.128.745-1.043 1.315.494.406-.311.258.406.667-.209.594.794.231.162 1.347-.623.058-.833 1.62-.286.77-.372.188-.342-.163-.725.34-.03.561-.65.102-.867.833.066.938.656-.058.488.697.61.14.395-.103.409.716.274-.265.39.084.415.474.186.098-.011.205-.478.91.805.006.327 1.353.188-.01.105.321.025.969.411.464 1.47.652-.203.35.298.526 1.116.512-.926.528-.042.208.226.356.6.231.01.817.069.31.164-.026-.155.369.231.345-.015.426-.616.557-.342.998-.382-.013-.313.241-.199.046-.217.557-.567.167-.592.548-.12.619-.737.212-.789.184.151.384-.344.194.18 1.229-.696.47 1.19.385.441 1.043-.133.389-.703.343.005.414.226.34-.164.36.371.027.137.809-.16.814-1.462.015-.354.219-1.087.503-.307.515-.406-.031-.08.185-.95-.373-.555.27-1.81.194-.109.187.19.607-.246 1.25-.164.142.015.545.51.358.694-.48.243.328-.161.588.184.103.379.195 1.301.996-.252.771.422.69.56.056.53.72-.757.563-.16.571.472 1.172-.136.581.224.362.572.288.231.794.417.106.072.2-.552.347-.197.385-1.859-.522-.206.387-.5.32-.59.1-.21.002-.41.405-.501-.328-.48.393.274.588.96.902.626.77.12.534.199.84.624.747.3.746.026.114.491 1.098v.4l-.436.649-.058.787-1.224 2.704-.452.697-.399.741.144.805.366.674.714.32.566.27.434.454.765.954 1.34.924.412.628-.066.371-.117 1.487.621 1.361.164.355.763 2.538.14.171-.089 1.004.326.527.14.162.072 1.224.01.076.047.862-.37.773-.159.61.147.394 1.33.936.403.127.469.984-.047 1.07-.35.924-.056 1.23.318.758.326.258-.045.414-.514.913-.061.163-.6 1.616.457.715.103.453.243 2.292-.62.82.163.436-.036.392-.778.944-.293.894.23 1.342.508.913 1.416 1.219.888.28 1.022.344.751 1.052.095.12.762 1.05 1.55.742.495-.267.45-.417.107-.393.197-.055 1.071-.625.368-.502.605.057.016-.01.615-.045.27.793.568.875 1.26.22.37-.219.398-.137.45-.707.148-.61.392-.155 1.029.23.822-.068-.185.595.079.4.735.308.178.355v.616l-.294.289.005.404-.189.087.378.195.177.388 1.165.046.149-.131.007-.411 1.41-1.5.582-.14.354.49.21.003.27-.314.234-.328-.459-.946-.05-1.025.887.396.34-.426.162.356.63-.517-.748-1.464.614-.818.401.676.829-.116.31.268-.278.521.623 1.015v1.017l.565.197.181 1.002.725.334-.109.6 1.08.668.144.396.01.18.21.41.186.584.3.28.313.285-.019.213-.41.733.257.321.627.101.187 1.212.06.481.024.956-.283.356-.066.402.384.499.584.206.606-.17.315.258.122.385.576.063.35.467.377-.057 1.058-.67.389.462-.258.338.205.326.033.01.391-.146.364.162-.143 1.04.203.36 1.144.532.262-.275.173-.384.568-.266.744.314 1.001.02-.246.718.54.048.385-.094.2.339.822.552.118.373-.168.378.284.538-.067.194-.562.213.252.724-.47.33.022.194.141.536-.436.595.18.772.405.897-.174 1.196-.072 1.34.364.064.428.01-.874.578-.611-.165-.843.082-.049.835v.118l-.68.453-1.243.186-.391.505.289.544.178.116.209.814-.056 1.017-.42.412.005.623-.31.752.81.399.321.246.8-.14 1.214.202.31.19-.045.612.714 1.205 1.237-.132.395.149.154-.146.783-.544.425-.458.318.104.671-.268.85-.443 1.206 1.082.032.202h.02l.396.08 1.458.141.362-.18-.08-.196.004-.624.18.091.712-.356.559.57.228.455.066-.045.788-.599.535.224.158.57-.356.476-.2.014.19.565 1.226.06.329-.76.527-.303.376.19.192-.007.429-.826.346.191.492-.335.497.279.516-.101.112-.177-.425-.688.478-.666.573-.217-.015-.408-.077-.358.225-.72-.253-.525.114-.107.368-1.149-.03-.47.1-.595.35-.51-.053-.203.783-.02.106-.391.361.208.16.386.784-.175.723.705.547-.223.65 1.269 1.425-.19.354-.222.073-.583.403-.672.505.073.073.176.054.789.571.534 1.343.237.14-.387-.204-.575.786-.688.123-.577.61-.103.472.395.639-.48.572.133.019.473.393.59.176.009.01.915-.294.131-.3-.25-.215.312-.356-.085.143.782.301.283.618-.032.153.14.495.262.649.673-.134.346-.544-.06.064.35.593.67-.414.354-.182.55.122.762.196.297.902.361.529-.134.515-.085.197.025.039-.811.47-.666.017-.397.116-.768.098-.268.121-.31.313-.517.109-.997.238-.66.42-.665.269-1.404.347-.753.428-.867.052-1.016-.067-.58.313-.953.3-.472.344-.56.6-1.095.02-.879.119-.613.011-.67.046-.245.065-.17.838-1.02.004-1.092v-.077l.031-.417.491-.67.11-.293.167-.509.084-.108.493.031-.024.402.29.182.38-.16.323-.454.408-.06 1.096.334.177-.083.152.646 1.698.983.7-.093.997-.712.743.266.883-.505.098-.387.196-.047.969.233.07-.786.475.38 1.008.22.097.183-.134.136.383.635-.117.361.266.282.084.801.405.001.484.642.492-.096.346.456.73.2 1.545.11.468 1.083-.505.325-.077.393.19.069-.568.03.049.196.385.124 1.045.64.587.02.796.652.452.386-.537.563-.067.186.5.314.015.39-.096.376.415.448.739.34.028.394.1 1.042v.055l.259.344.28-2.053.277-.296.57 1.983.727-.175.449-.337.423.496-.367 1.346-.316.165-.055.833.571.585.17.121 1.016-.18.126-.124.368.357 1.17-.277.933-1.074.13-.377.946.016.446-.328.283-.701.043-.256.287-.785.799-.251.247-.35.361-.387.156.523-.19.572.973.054.621.489.054.3 1.255.174.186.838-.127.846.386 1.196.357-.186 1.357-.279 2.188.332.335.071 1.022.001.588-.559.188.359.485-.417.582-.898.61.162.282-.539.126-1.002.293-.272.654.274 1.408-2.494.377-.751 1.227-.812.738-.736.914-1.417.325-.37.144.077.932-1.636-.476-.677-.047-.616.987-1.097.985-2.097.686-.777.397-.036.37-.927-.728-.735-1.055-1.062.015-.214 1.023-1.079.987-.81.581-.26 1.578-1.62 1.865-1.773.44-.423.113-.392 1.163-.686 1.861-.991.62-.551.118-.197.208.05.38-.495.572-.253.305-.785 1.21-.428.505-.392.616-.866.27-.812-.652-.559-.303-.281-.146-.605.37-.224.087-.853.749-1.31.065-.644.134-1.685-.716-1.289-.605-1.016.493-.34 1.163-1.426.789-.838.224-.216.389.49 2.367-.8.913-.505.498-.3.632.094.952-.46.85-1.448.995-.78.838-.193.756-.77-.823-.94.61-1.126 1.37-.528-.127-.81.15-.157.842-.62 1.59-.587.642-.49.377-.404 1.11-.958.085-.191-.486-.343.04-.205.714-.442.443-.38.427-.933.46-.416 1.205-.804.333-.522.404-.092.13-.386.526-.346-.331-.515.158-.987-.422-1.141.156-.136.104-.123 1.047-.072.351-.241.641-.047.53-.36.296-.783-.241-.532 1.019-.225.414.066.455-.411-.078-.192.309-.302-.36-.516-.055-.425-.093-.194-.706-.488-.837-.182-.504.405-.41.086-2.275.358-.619.123-.816-.195-.89.385.168-1.15.467-.627.72-.302-.108-.581.262-.218.063-.346.847-.074.105-.184-.036-1.46.981-.097.324-.714.82-.063.35-.216.076-.773-.347-.125.012-.327-.148-.076.003-.763-.238-.527 1.739-.605.496.317 1.784.605.751-.37.582.014.827-.494.263-.318.233-1.02z"/></defs><g><g transform="translate(-334 -211)"><use fill="#ed5485" xlink:href="#j19ea"/><use fill="#fff" fill-opacity="0" stroke="#bcbcbc" stroke-miterlimit="50" stroke-width=".75" xlink:href="#j19ea"/></g></g></svg>