<?xml version="1.0" encoding="UTF-8"?>
<svg width="24px" height="24px" viewBox="0 0 24 24" version="1.1" xmlns="http://www.w3.org/2000/svg" xmlns:xlink="http://www.w3.org/1999/xlink">
    <!-- Generator: Sketch 48.2 (47327) - http://www.bohemiancoding.com/sketch -->
    <title>Cards</title>
    <desc>Created with Sketch.</desc>
    <defs></defs>
    <g id="Icon/HeartYes" stroke="none" stroke-width="1" fill="none" fill-rule="evenodd">
        <g id="Cards" transform="translate(-1.000000, 0.000000)" fill="#FFFFFF" fill-rule="nonzero">
            <path d="M18.5375245,16.6666667 C18.5720526,16.4277966 18.5683754,16.183361 18.524368,15.9428226 C18.4461295,15.4968188 18.2315026,15.0875946 17.9137512,14.7714954 L18.8753491,14.2163192 L18.9217433,14.1895335 C19.4226768,13.8959781 19.7913168,13.430023 19.9546444,12.8832736 C20.1298631,12.3119549 20.0643516,11.6898707 19.7674372,11.1671231 L15.0468327,2.99075803 C15.0927194,2.74720208 15.2160063,2.52121631 15.4024764,2.34535304 C15.6428429,2.11865913 15.9680132,1.99428355 16.3048469,2.00020195 L23.1581633,2.00020195 C23.8547094,1.99815352 24.4222616,2.53664652 24.4285714,3.20556413 L24.4285714,15.4649794 C24.4262848,15.7893086 24.2884074,16.0991558 24.0459184,16.3249024 C23.8161042,16.5419824 23.5072888,16.6645676 23.184949,16.6666667 L23.1313776,16.6666667 L18.5375245,16.6666667 Z" id="Combined-Shape"></path>
            <path d="M17.0173461,14.1343254 L7.29093923,7.81789489 C6.78141529,7.49377213 6.19356319,7.40637948 5.64720782,7.52273991 L4.62597917,5.74494202 C4.46416078,5.46477708 4.42641478,5.12863795 4.52123133,4.81213201 C4.61604787,4.49562608 4.83546576,4.22532855 5.13013157,4.06203714 L11.0652776,0.63537898 C11.6674801,0.285331916 12.4282411,0.467904451 12.7681644,1.04404916 L18.8978721,11.6610142 C19.0580564,11.9430348 19.0935747,12.2803091 18.9964463,12.5970559 C18.9059614,12.8999598 18.699812,13.1605294 18.4217071,13.3235171 L18.3753129,13.3503029 L17.0173461,14.1343254 Z" id="Combined-Shape"></path>
            <path d="M12.766159,23.3074286 L5.91180405,23.3074286 C5.57395035,23.3056429 5.25110815,23.1728628 5.01626019,22.939105 C4.77189486,22.7140669 4.63364727,22.402729 4.63354913,22.0772276 L4.66033891,9.81573284 C4.66028253,9.49145838 4.79568361,9.18077586 5.03608655,8.95356674 C5.27648948,8.72635762 5.60170899,8.60169937 5.93859382,8.60763122 L12.7929487,8.60763122 C13.4896005,8.60557814 14.0572386,9.14529497 14.0635494,9.81573284 L14.0635494,22.1030102 C14.0612625,22.4280765 13.9233642,22.7386279 13.6808384,22.9648876 C13.4509894,23.182461 13.1421272,23.3053248 12.8197385,23.3074286 L12.766159,23.3074286 Z" id="Shape-Copy-4" transform="translate(9.348549, 15.957429) rotate(303.000000) translate(-9.348549, -15.957429) "></path>
        </g>
    </g>
</svg>