<?xml version="1.0" encoding="utf-8"?>
<!-- Generator: Adobe Illustrator 21.1.0, SVG Export Plug-In . SVG Version: 6.00 Build 0)  -->
<svg version="1.1" id="Calque_1" xmlns="http://www.w3.org/2000/svg" xmlns:xlink="http://www.w3.org/1999/xlink" x="0px" y="0px"
	 width="32px" height="30px" viewBox="0 0 32 30" style="enable-background:new 0 0 32 30;" xml:space="preserve">
<style type="text/css">
	.st0{opacity:0.8;}
	.st1{fill:#F0F0F0;}
</style>
<title>Logo</title>
<desc>Created with Sketch.</desc>
<g id="UI-HomepageLogin" transform="translate(-851.000000, -890.000000)" class="st0">
	<g>
		<g id="OurStates_8_" transform="translate(320.000000, 750.000000)">
			<g id="States_8_" transform="translate(0.000000, 110.000000)">
				<g id="_x31__8_">
					<g id="NbrCards_8_" transform="translate(531.000000, 30.000000)">
						<g id="Logo_8_">
							<path id="Shape_26_" class="st1" d="M29.9,22.4L29.9,22.4h-9.5c-0.5,0-0.9-0.2-1.2-0.5c-0.3-0.3-0.5-0.8-0.5-1.2l0-17.5
								c0-0.5,0.2-0.9,0.5-1.2c0.3-0.3,0.8-0.5,1.2-0.5h9.4c1,0,1.7,0.8,1.7,1.7v17.6c0,0.5-0.2,0.9-0.5,1.2
								C30.8,22.3,30.3,22.4,29.9,22.4z M20.4,3c-0.1,0-0.1,0.1-0.1,0.1l0,17.5c0,0.1,0.1,0.1,0.1,0.1h9.4c0.1,0,0.1-0.1,0.1-0.1
								l0-17.5C30,3.1,29.9,3,29.9,3L20.4,3L20.4,3z"/>
							<path id="Shape_25_" class="st1" d="M16.7,29.9c-0.3,0-0.6-0.1-0.9-0.3l-15-9.1c-0.4-0.2-0.7-0.6-0.8-1.1
								c-0.1-0.4,0-0.9,0.2-1.3l3.1-5.3c0.1-0.3,0.4-0.5,0.7-0.5s0.6,0.2,0.7,0.4c0.1,0.3,0.1,0.6-0.1,0.8l-3.1,5.3
								c0,0.1,0,0.1,0,0.2l15,9.1c0.1,0,0.1,0,0.2-0.1l1.4-2.6c0.1-0.2,0.3-0.3,0.5-0.4s0.4,0,0.6,0.1c0.4,0.2,0.5,0.7,0.3,1.1
								L18.2,29C17.9,29.5,17.3,29.9,16.7,29.9z"/>
							<path id="Shape_24_" class="st1" d="M14.8,23.3c-0.3,0-0.6-0.2-0.7-0.4L5.3,7.8C5.1,7.4,5,6.9,5.2,6.4C5.3,6,5.6,5.6,6,5.4
								l8.1-4.7c0.2-0.1,0.4-0.1,0.6-0.1c0.2,0.1,0.4,0.2,0.5,0.4c0.2,0.4,0.1,0.9-0.3,1.1L6.8,6.8c-0.1,0-0.1,0.1-0.1,0.2l8.8,15.2
								c0.2,0.4,0.1,0.9-0.3,1.1C15.1,23.3,15,23.3,14.8,23.3z"/>
						</g>
					</g>
				</g>
			</g>
		</g>
	</g>
</g>
</svg>
