<svg xmlns="http://www.w3.org/2000/svg" width="21.249" height="20.281" viewBox="0 0 21.249 20.281">
  <g id="Line_Icons" transform="translate(-1.376 -1.719)">
    <g id="Group_716" data-name="Group 716">
      <g id="Group_707" data-name="Group 707">
        <g id="Group_706" data-name="Group 706">
          <path id="Path_969" data-name="Path 969" d="M18,13a1.5,1.5,0,1,1-1.5,1.5A1.505,1.505,0,0,1,18,13Z" fill="#4a4b4d"/>
        </g>
      </g>
      <g id="Group_708" data-name="Group 708">
        <path id="Path_970" data-name="Path 970" d="M20,22H16V19a2,2,0,0,1,4,0Z" fill="#4a4b4d"/>
      </g>
      <g id="Group_710" data-name="Group 710">
        <g id="Group_709" data-name="Group 709">
          <path id="Path_971" data-name="Path 971" d="M12,13a1.5,1.5,0,1,1-1.5,1.5A1.505,1.505,0,0,1,12,13Z" fill="#4a4b4d"/>
        </g>
      </g>
      <g id="Group_711" data-name="Group 711">
        <path id="Path_972" data-name="Path 972" d="M14,22H10V19a2,2,0,0,1,4,0Z" fill="#4a4b4d"/>
      </g>
      <g id="Group_713" data-name="Group 713">
        <g id="Group_712" data-name="Group 712">
          <path id="Path_973" data-name="Path 973" d="M6,13a1.5,1.5,0,1,1-1.5,1.5A1.505,1.505,0,0,1,6,13Z" fill="#4a4b4d"/>
        </g>
      </g>
      <g id="Group_714" data-name="Group 714">
        <path id="Path_974" data-name="Path 974" d="M8,22H4V19a2,2,0,0,1,4,0Z" fill="#4a4b4d"/>
      </g>
      <g id="Group_715" data-name="Group 715">
        <path id="Path_975" data-name="Path 975" d="M21.376,11.781,12,4.281l-9.376,7.5L1.376,10.219,12,1.719l10.624,8.5Z" fill="#4a4b4d"/>
      </g>
    </g>
  </g>
</svg>
