<svg xmlns="http://www.w3.org/2000/svg" xmlns:xlink="http://www.w3.org/1999/xlink" width="45" height="102" viewBox="0 0 45 102"><defs><path id="cz17a" d="M552.029 615.702l-.376-.954-.734-.173.143-.149-.122-.09-.578-.029-.462-.405-1.156.26-.191-.053-.174-.38.242-.792.386-.443.021-.412.478-.646-.06-.196-.747-.151-.164-.37-.61.466-.355-.133-.209-.343.05-.804.477-.881-.375.093-.799.901-.484.246-.098-.777-.553.53-.383-.557.045-.482-.45.244-.302-.27-.169-.418-.53.556-.812-.854-.934.022-.237-.295-.574.325-.322-1.126-1.19.094.2-.52-.63-.575-.787.353-.437.046-.177-.334.453-.686-.016-.416-.51-.255-.77-.039-.387-.448-.17-.174-.507.047-.44-.277.187-.317.396-.451-.378-.725-.352-.16-.113-.169.423-.915.144-1.437.307-.23.188-.338.56.45 1.441-.975.592-.075.13.137.278-.282.296-1.204 1.366-.67-.144-.572-.964.082-.47-.337-1.506-.149-.703-.717-.529-.252-.54.224-.407.438-.167-.044-.542-.81.45-1.135-.261-.302-.377-.02-2.467 1.118-.184-.075.015-.833-.141-.147-1.35-.188-.378.106-.08-.194.038-.208.296-.264.717.247 1.159-.743.77-1.192-.836-1.12.088-.19.918.194.635-.75.179-.078.141.143.586-.117.113-.626.317-.528-.73-.666-.38-.103.012-.139 1.165-.177.27-.302-.045-.925-.27-.285-.068-.566.68-.332.247-.298-.206-.775-.791-1.21-.377-.09-.362.148-.37-.497-.196-.03-.285.262-.043.64-.845.548-.19.054-.984-.021-.765.2-1.157-.257-.376.095-1.155.751.152-.384-.078-.617.5-1.357-.187-.346-.38.015-.65-1.442.835-.47.379.048.531.173.552-.079.825-.802.027-.488-.07-.176-.349.032-.186-.53.08-.168.073-.4.6-.555.68-.425 1.046-.14.5-.383v-.358l.585.11.329-.511-.173-.572.022-.136-.242-.313-.738.027-.14-.805-.287-.52-.182-.053.137-.59-.338-.89-.508-.163-.386.43-.72.179-.174-.08-.317-.72-.276-.256-.37.068-.043-.238-.678.025-.152-.575-1.501.333.561-.918-.296-.5-.374-.105-.675.41.11-.378.703-.338.598-.502-.25-.353-.818.168-.364-.232.258-.326.68-.037.182-.154-.17-.122-.197-.699.06-.763-.504.115.077-.468.279-.08-.346-.36.264-.39-.15-.23-.384-.036-.356.252-.527-.63.44-.198.346.31.39-.198 1.634-.697.082-.193 1.135.03.317-.245 1.906-.395.068-.697-.141-.43-.379-.008-.241-.74-.5-.287v-.202l-.7.124-.291-.202-.39-.43-.768.16-.292-.236-.069-.41.98-.7.117-.4-.465-.65-.722-.33-.377.085-.991 1-.371-.003-.14-.815.07-.825-.28-.283-.179-.074.103-.723.213.086.055.433.714-.001.296-.256-.16-.357.504-.172.335.09.684-.28-.321-.71.432-.23-.436-.347.205-.214.001-.288.556-.028.1-.241.596.17.429.35.397-.303.297-.573-.131-.438-.492-.568.927-.05-.341-.693.7-.696-.128-.54-.95.057-.26.028.729-1.277-.044-1.14.482-.22.424.239.514-.729.958.139-.132-.304-.266-.522.522-1.022-.411-.61.138-.307-.404-.018.154-.513.606-.313.036 1.246.474-.206.925-.176-.136.404.438.405.823-.137.416-.429.278-.296-.064-.818.326-.525-.153-.601.745-.215.347.198.655-.428.14-.126.695.176.327-.407.309-.748.979-.056.768-.59.471-.161.207.308.333.125 1.337-.351.836-.148.12-.135.284.215.323-.129.517-.618.75-.198.461-.374-.143-1.018.114-.822.171-.093.387.035.13-.161.346-.525.144-.605.595-.062.31-.53.384-.054.268-.308.583.017 1.104-.378 1.422.65.638-.427.375-.1.513.869h.59l.328.24.028.633.588.523.686 1.281.378-.016 1.055-1.21.042-1.165.287-.22.587-.857.035-.411-.167-1.276.111-2.04-.192-.59-.487-.507-.294-.778-.388-.453 1.083-1.946.185-.07-.504-.63-.007-.639-.269-.564.197-.327 1.387-1.318-.37-.477.303-.78-.451-.679.116-.375-.118-.158.124-.379-.27-.526v-1.18l.589-.513.575.06.525-.242.87.216.704-.308 1.64 1.512-.363 1.385.138.4.587 1.217-.128.167.185.603-.039 1.067.203.374-.024.763.153.348-.13.377.269.547-.036.393.17.386-.098 1.056.222.581.186 1.785-.906 1.888-.06.83-.298.77-.213 1.372-.073.575.015.405-.33.95.093 1.436.572 1.397.961 1.573 1.264 1.824.487 1.12.285 2.533-.2 1.685.077.742.194.785.234.758-.031.996.104.83-.216.97-.125 1.096-.109.91.104 1.226.222 1.312.088.525.467 1.788.259 1.004-.195 1.86-.082.65-.005 1.297.236 1.48-.182 2.368.077.86-.292 2.36-2.191 3.368-1.669 2.811-.66.765-.065.119-1.103 1.976-.024 1.04.131.574-.298 1.338-.277.538-.219 1.417.215.958.14 2.321-.428 1.414.152.617-.1.815.353.163.087.406-.168 2.059.09.406-.163.369.116.377-.194 1.033-.68.37-.415.697.452.62-.032 1.035-.642.78-.33-.208-.376.048-.182.368.258.557-.104.352-1.148.052-.412-.45.01-.212-.351.166.003.63-.787.599-.109.628.139.39.3.274.178-.09.89-1.108.576.119.402.452.563-.077.385-.024.083.188-.691.991-.14.803-.477.288-.553.154-.937.802-.502.672-.551.201-.055.177.322.722-.432.725.189.355.342-.203.108.971-.176.377-.46.392-.021.387-.365.138-.827.901-.723.313-.053.593.134.394-.139.613-.351.128.105.4.18.08.165-.107.843-.87.505-.312.183.06-.216.798-.314.243-.261.556-.897 1.35-.146.603-1.542.125zm3.513.278l-.109-.17-.26-.134-.008-.1.232-.174.288.02.092.182.19.005.04.094-.11.163-.172-.032-.09.166z"/></defs><g><g transform="translate(-524 -515)"><use fill="#ed5485" xlink:href="#cz17a"/><use fill="#fff" fill-opacity="0" stroke="#bcbcbc" stroke-miterlimit="50" stroke-width=".75" xlink:href="#cz17a"/></g></g></svg>