<svg xmlns="http://www.w3.org/2000/svg" xmlns:xlink="http://www.w3.org/1999/xlink" width="123" height="139" viewBox="0 0 123 139"><defs><path id="ifwda" d="M392.927 120.083l-.138-.324-.482-.08-.183-.354.102-1.054.5-1.36.04-.114-1.498.203-.08-.788-.902-.522-.828.055-.556-.22.645-.514.257-.568-.059-.198-.578-.258-.494-.677.082-.4.98-1.566.432.031.82-.147.435-.454.976-.456.245-.331-.11-.598-.928-1.114-.031-.398-.293-.298.24-.357-.34-1.172-1.347-.029-.711.371-.806-.362.575-1.142.526-.405.078-.412-.21-.575.274-.575-.014-.412.18-.326-.406-.925.653-.102.71-1.037.657-.505.23-.008.683-.834-.623-1.107-.9-.165-.207-.094-.373-.537-.429-.018-.35.543.618.601-.133.596-1.203-.11.143-.15-.191-.759-.41.077.044-1.016-.281-.778-.416-.098-.381-.502-.846.15-.012-.03-.075-.629-1.044-1.103-.61-.258-.52-.911-.483.398-.858.22-.265.32-.62-.245-.198.36-.01-.419-.223-.037-1.76.966-.795.287-.62.025.119-.38-.13-.376-.632.048-.55-.56-.73-.362-.633.108-.137.373-.424.065.107-.392-.356-.2-.384.197-.65-.115-.652.123-.081.192h-.871l-.324.537-.022.42-.197.333.08.91-.216.066-.512-.363.102.542-.266.285-.099-.102-.723-.81-.247-.57-.472-.448.09-.398-.443-.46.051-.808-.363-.499.315-.569.32-.558.02-1.25-.193-1.63-.354-.49.025-.796-.295-.304-.431-.035-.596-1.108-.901-.92-1.032.335-.616-.553-.418.103-1.558.232-.588.32-.213.083-.144-.167-.055-.424.054-.208.768-1.028.038-.21-.095-.196-.397-.218-1.32-.297-.205.099-.584.656-.25.822h-.446l-.16-.115-1.26.63-.647.122-.54.35-.71-.772-1.072-.255-.246-.014-.331-.555-1.442-.628-.285-.748.08-.787-.238-.347.358-.206-.27-.3.15-.571-.23-.33.09-.761-.308-.688-.062-.393-.56-.607.109-.378-.338-.484-.262-.288.183-.334-.155-.308-.124-.927.075-.187.752-.378-.341-.922.224-.04.036-.422-.502-.688-1.55-.165-.784-.736.285-.556-.112-.184-.344-.193-.162-.537-.951-1.411-.607-1.073-.894.13-.569-.32-.399.735-.523.399-.4.093-.918-.478-.757.313-.227.33-.84-.212-.223.338-1.116.662-.474.42-.621-.154-.713.452-.104.17.248.534-.268.227-.29.29-.008.823-.324.544-.427-.042-.093.555-.398.066-.677-.767-.591.18-.906-1.145-1.479.293-.924-.643-.385-1.226-.944-.902.06-.41-.278-.324-.66-.364-.568-.92-.06-.838-.156-.156-1.58-.113-.501-.432-.33.288-.345.185-.8.03-.426-1.417-.329-.294-.098-.412-.65-.13.002-.211.514-.627-.174-.547.068-1.441-.175-.612.08-.385-.61-.198-.087-.192.796-.725.883-.898-.015-.215-.974-2.406-1.18-.675-.245-.795.127-.172-.394-1.831-.289-1.46-.553-1.176-2.175.984-.873.337-.266.074-1.45.541-2.03.519-.683-.15-.72-.533-2.012.561-1.6.4-1.007.356-1.322.363-.63-.475-.388-.004-.583-.249.514.335.38.003.092.679-.77.297.59.32-.407.131.014.53-.395-.393.173-.136-.299-.441-.57.167-.17-.734-.327.562-.782.51-.542.614.405.758-.705-.806-.842-.195-.665.114-.689.147-.515.406-2.77.473-1.28.096-1.255.332-.953.6-.411-.12-1.19.2.602.18-.772.038.305.265-.598.273.313-.27-.178-.234-.259.222-.377.074-2.472.66-1.658.805-1.007.882-.552.512-1.078 1.409-1.289.922-.975.264-1.152.075-.172.143-.118.847.426 1.44.224.837.245.716.39.098-.214.07.042 2.286-.436.956.043.212-.09.78-.073.18.283.17.162.387-.234-.372-.422.167-.21.08.362-.334-.192-.178-.306.278-.14.434.07.14-.06.058-.168-.164.093-.515-.138.205-.35-.03.465.587-.489.986.05.43.4 1.713.272 1.51-.014 1.984.02 1.58-.087.403.174.603 1.19 1.486.482.423.56 1.11 1.201.484-.929-.14-.241-.154-1.014-.878-.617-.292-.216-.377-.22.045-.31 1.022-.08 1.925-.086.996-.221 1.899-.543 2.503.652.51.23.551.306.356.012-.142.312-.054.197.322.186-.265.103.182.341.306.252-.152.435.118.218.367-.086.227.428.507-.075.019-.574-.508.017-.354-.55.355-.456.023-1.32.057.14-.264-.74.005-.412 2.139-.202 1.396-.151 1.506.493 1.2.621.27 1.143-.025.121.808.918 1.448.326.287.621-.156.915.205.358.515.13.79.448.567-.369.462-.379-.135-1.61-.696-.68-.076-.63.254-.21-.085-.713-.514-.624-.909.179-.132-.086-.194-.663.134-1.685 1.068-.94 1.453-.632 2.042-.599 1.77-1.357 1.27-.157.09-1.048.738-.54.635 1.238.483.54-.748.411-.133.639.116.257.32.243.115-.288 1.206.254.33.624.216.55.65.283.276.196-.06.7.413.451.833.072.144 1.438 1.109.55.285.15.595.343.251.414.714.52.375.675.459.972.347 1.287.634.009.298.18.07.364.811.226.33.384.114.247.306-.012.744.29.515.055.245-.036.809.295.512.32 1.608.442.604.349.694.273.714.605.246.304.543.164.579-.89.039-.575-.295-.3.563-.104.158.218.71-.107.001-.738.425-.409-.08-.125.167.107 1.009-.03.385-.386.113-.694.708.803.75.39-.194.664-.85.426-.109.144.168.158.106.08.904-1.177.556-.056.617-.616.943-.394.11.24.28.538.41.186.588-.24.57-.932.783.484.347.247.495.377-.148.06.051-.092.397-1.039.106.129.506.533-.306.419.465.396.505-.145 1.15.775.174.026.022-.281 1.13-.791.71-.155.268.126.095.261.19.63.11.183.38.185-.113.257-.782.532-.339.815.353.046.979-.427.031-.126.168.014.816-.436.457-.752.393.18.337-.495.28-.274.492-.217.005-.089.186-.17 1.008-.339.746.153.336.557-.195.398.075-.852.632.953.882.299.566.395.196-.071.68.686 1.298-.141.616-.13.382.289.766-.086.792.242.203.262-.176.496.396-.084.608.352.199-.518 1.2.011.433-.991-.332.008-.416-.519-.677-.175.12-.645-.08-.337.259-.648.035-.428.773.008.578-.026.507.141.107.27-.315 1.242.847-.195.091-.076.606-.77.349v.206l.389.143.043.394.547.111.157.753.563.3.848-.622.023-.008.698.302.176-.297.806.565.597-.068.226.33-.108.391.628-.327 1.066-.23.095-.062.244.778 2.152-.659.147.157.444-.006.614-.228.478-.53 1.062.471.936-.797.69-.21.006-.016.507-.387.813-.278.462-.432-.005.197.397.107.235.936.84.125.602-.167.398.463.146-.147.41.098.434.383-.237.312.26.39.182.081.464-.36-.116-.357.452.202.83-.099.549-.264.55.806-.714.703 1.057.17.58-.127.285-.281.18.113.834-.212.098-.595.45-.453.071-.41.394-.06.469.027 1.572 2.256.581-.73.903.581.658-.14 1.278.382-.083.262-.148.459.88-.375.197.025.01.189.682.336-.025.188.932.347.072.362-.462.605 1.724.411.118-1.186.367-.18-.022.196.4-.11.12.137.207 1.264.719.315.268.716.315.061.67-.54.16-.39.378.03.583-.846.31.526.432-.032 1.145.883.582.556-.044.362-.047.186.547.172.892-.956.447 1.216 1.082-.155 1.024-.756-.71-.475.833.023-.177-.35.324-.091.735-.45.688.753.4.13.407-.114.468.903.664-.078.761-.44.204.09.274-.505.95.43.406-.103.169.122.196-.052.137-.561.378.129.523-.286.172.102.133.86.566.15.174-.72.49-.275.371-.125.743.242.162-.11 1.326.207-.39-.642-.018-.374.652-.95.312.293 1.475.339.285-.106.1.118.625.03.49.366.625.048-.394.86.12.31.386.214.579.895-.036.366.411.375-.002.199-.4.145-.182.79-.554.31-.021.382.36.453 1.148.408.362.384.07.346.587.202.065.19.181-.066.086.71.767.153.238.74.323.798-.115.251.21.349.18.098.6-.165.879-.523.312.812.036.863.718.806 1.32-.705.24-.563.324 1.218-.204.82.446.471.059.846.188.114.797-.25-.29.575.402.165.61-.236.228.359.994.326-.288.795.695.29.346-.735.628-.082.067-.329-.23-.557.35-.08.56-.225.24-1.183.52-.867.312-.422.789-.174.807.093.241-.312.084-1.24.794-.343.33-.123-.046-.377-.364-.448.48-.316.767-.036.192-1.199.587-1.11 1.062-.098.527-.632-.594-1.295-.562-.245-.373.204-.41-.103-.613.194-.09.179-1.005-.03-.23-.293.105-1.245.11-.04.509-.228.205-.493 1.037-.033.29-.541-.285-.292-.51-1.29-.279-.522-.373.05-.189-.341.436-.414-.014-.393.406-.431.002-.394.054-.136.14-.096 1.27.156 1.22-.347.36.08.233.272.222.335.574-.234.946-.599.382-.1.103-1.165-.44-.058-.621.221-.81-.322-.376-.705.299-.532-.302-.363-.65.48-.221-.518-.592-.104-.325-.242-.14-.524.61-.094.462-.85-.084-.182-.2-.04-.629-1.344.414-.4-.564-.559.307-.495-.128-.263-.531-.292-.207-.332.177-.115.211-.773.638-.194.266-.34.764-.137.237-.098.809-.332 1-.09.243-.207-.039-.525.226-.034.476.033.826-.5.1.17.556-.234.415-.117.866.11.378.41.776.323.145-.149.132-.382-.437-.664.36-.228.158-.801 1.505-.684.61-.156.608-.753.415.567 1.114 1.28 1.062-.096.904.7.19.553.953-.096.068-1.473.13-.795.325-.514.08-.412-.25-.326-.027-.414-.238-.82.402-.43.597-.096.198.079-1.007-1.537-.03-.61.005-.2-.031-.698-.003-.791.634-.024.203-.742.58.155.024-.199.023-1.04-.34-.254-.654-.117-.063-.397.388-.176.716-.987-.584-.229-.107-.818.174-.375-.16-.137-.547-.26-.672-.819-.22-.353.513-.328.16-.78.217.02.128.175.877-.061 1.026.411.826-.248.065-.503.319-.547-.091-.624.182-1.041.825.004-.1-.535.283-.243.577-.197.856-.303-.037-.143.293-.877.578-.43.848-.277.093-.231.122-.97.685-.53-.203-.591-.734-.454-.43.107-.332-.514.151-.147.539-.316.178-.362-.315-.718-.2-.067.367-1.566.279-.257.146-.765.643-.504.046-.382.236-2.476z"/></defs><g><g transform="translate(-272 -47)"><use fill="#ed5485" xlink:href="#ifwda"/><use fill="#fff" fill-opacity="0" stroke="#bcbcbc" stroke-miterlimit="50" stroke-width=".75" xlink:href="#ifwda"/></g></g></svg>