<svg xmlns="http://www.w3.org/2000/svg" width="91.31" height="30.856" viewBox="0 0 91.31 30.856">
  <g id="Pix.city.Logo.Noir" transform="translate(-59.58 -59.668)">
    <g id="Group_722" data-name="Group 722" transform="translate(59.58 59.668)">
      <path id="Path_983" data-name="Path 983" d="M116.853,65.742c-.027-1.428-.788-2.742-2.242-2.742-1.364,0-1.746,1.348-1.7,2.811C113,68.318,116.9,68.254,116.853,65.742Z" transform="translate(-92.709 -61.738)" fill="#1a3655"/>
      <path id="Path_984" data-name="Path 984" d="M73.822,61.108a10.264,10.264,0,0,0-6.852-1.364,10.045,10.045,0,0,0-4.087,1.25,7.838,7.838,0,0,0-2.629,2.136,3,3,0,0,0-.667,1.648q.051.307.557.261a2.344,2.344,0,0,0,1.061-.409c.367-.242.788-.508,1.254-.8A9.584,9.584,0,0,1,66.7,62.46a6.086,6.086,0,0,1,3.761.652,3.713,3.713,0,0,1,1.723,2.708q.477,2.875-.75,4.235A3.108,3.108,0,0,1,70.2,70.9a12.681,12.681,0,0,1-1.3.417c-.367.095-.667.186-.913.277-.617.14-1.159.22-1.625.284.008-.159.015-.314.023-.489q.131-2.7.08-4.4a15,15,0,0,0-.208-1.939c-.121-.727-.3-1.08-.519-1.057a1.118,1.118,0,0,0-.591.223q-1.886,1.364-2.614,8.117a25.82,25.82,0,0,0,.023,6.8,12.792,12.792,0,0,0,.458,1.985.845.845,0,0,0,.947.636q3.233-.3,2.958-1.939l-.591-5.25c2.576-.716,5.466-.9,7.667-2.6h0c.03-.023.057-.045.083-.068a6.178,6.178,0,0,0,1.333-1.4,4.493,4.493,0,0,0,.557-.939,6.586,6.586,0,0,0,.621-4.155A6.2,6.2,0,0,0,73.822,61.108Z" transform="translate(-59.58 -59.668)" fill="#1a3655"/>
      <path id="Path_985" data-name="Path 985" d="M120.281,88.159c1.333-1.648,2.288-2.917,2.807-3.636a1.877,1.877,0,0,0-.17-2.481s-1.439-1.333-4.417,3.587c0,0,0,.008-.008.008-.917-1.311-1.765-2.481-2.413-3.265a2.11,2.11,0,0,0-1.9-.977c-2.508.167-.39,4.133.326,5.28a23.269,23.269,0,0,1,1.417,2.3c-2.318,3.155-4.568,3.337-5.095,3.174-.61-.189-1.072-.894-.716-3.829.019-.1.034-.189.053-.292.095-.576.17-1.095.227-1.564,0-.011,0-.019,0-.03v0a12.743,12.743,0,0,0,.144-2.383,3.813,3.813,0,0,0-.492-1.667q-.562-1.1-1.383-1.1-.744,0-1.33,1.053h0c-.023.042-.049.087-.072.133-1.481,2.6-1.651,7.193-1.621,9.322a3.388,3.388,0,0,0,2.826,3.576,7.682,7.682,0,0,0,2.981-.1,7.283,7.283,0,0,0,2.178-.8s0,0,.008,0a16.845,16.845,0,0,0,3.765-3.1c1.424,2.288,3.239,4.2,5.129,3.6a5.278,5.278,0,0,0,.5-.186,2.784,2.784,0,0,0,1.011-.667,1.821,1.821,0,0,0-.36-2.542A31.357,31.357,0,0,1,120.281,88.159Z" transform="translate(-88.194 -73.094)" fill="#1a3655"/>
      <path id="Path_986" data-name="Path 986" d="M222.513,65.742c-.026-1.428-.788-2.742-2.242-2.742-1.364,0-1.746,1.348-1.7,2.811C218.66,68.318,222.558,68.254,222.513,65.742Z" transform="translate(-158.346 -61.738)" fill="#1a3655"/>
      <path id="Path_987" data-name="Path 987" d="M162.012,92.81c-.989,0-1.458.716-1.625,1.667a5.894,5.894,0,0,0-.072,1.144,1.888,1.888,0,0,0,.042.3,1.717,1.717,0,0,0,1.027,1.341,1.948,1.948,0,0,0,2.871-1.712C164.228,94.128,163.467,92.81,162.012,92.81Z" transform="translate(-122.157 -80.256)" fill="#1a3655"/>
      <path id="Path_988" data-name="Path 988" d="M221.094,83.967c.053-.235.1-.466.144-.7.462-2.61.989-8.875,1.129-9.939a3.617,3.617,0,0,0-.7-3.189c-.879-.86-1.875-1.758-2.6-.409-1.023,1.905-.019,5.129-1.606,7.595-3.322,5.167-3.8,1.553-3.708.511.144-1.739.67-4.261.875-5.78.33-2.432-1.121-2.852-1.83-2.667s-1.231,1.246-1.629,2.405a33.843,33.843,0,0,0-.97,4.633c-.1.133-.193.269-.288.417-1.564,2.485-4.587,4.814-4.867,1.439,0-.208-.008-.405-.023-.587a29.322,29.322,0,0,1,.386-5.159,10.567,10.567,0,0,0,2.992-.413c.792-.288.951-1.14.951-1.909,0-.917-1.284-1.121-3.2-1.045.167-.6.348-1.216.568-1.848.39-1.125-.9-2.22-2.076-2.026a1.012,1.012,0,0,0-.223.072,1.687,1.687,0,0,0-1.125.939h0a12.055,12.055,0,0,0-1.178,3.273c-.235.042-.458.08-.648.117A2.359,2.359,0,0,0,199.8,71.27c-.178.8.307,1.208,1.723,1.223h.023a28.7,28.7,0,0,0-.386,4.473c-.682,1.167-2.875,2.985-3.8,2.985a1.2,1.2,0,0,1-.723-.227,1.056,1.056,0,0,1-.36-.818,17.4,17.4,0,0,1,.42-3.076,19.782,19.782,0,0,0,.379-3.981,3.813,3.813,0,0,0-.492-1.667q-.563-1.1-1.383-1.1-1.386,0-2.212,3.614a28.915,28.915,0,0,0-.72,5.568c-3.992,3.383-7.064,1.045-7.007-4.144.061-5.708,2.867-8.314,4.352-9.22s2.8-.837,2.833-1.3-.227-2.22-3.3-1.924-8.03,4.3-8.576,11.773,3.716,9.7,6.78,9.814a7.014,7.014,0,0,0,5.481-2.22,3.821,3.821,0,0,0,2.011,1.932,2.484,2.484,0,0,0,1.045.22,6.376,6.376,0,0,0,4.489-1.848,15.51,15.51,0,0,0,1.076-1.311c.227,1.955,2.659,5.655,8.182.731.125-.125.25-.246.367-.371.466,1.852,3.227,4.337,7.92.655l-.144,1.36c-.064.523-.14,1.008-.223,1.455-.572.011-1.159.038-1.765.076-5.773.36-7.7,3.129-7.049,5.25s3.36,3.269,6.754,2.083a8.5,8.5,0,0,0,4.765-4.86c3.5.027,5.765.409,5.758-.178C226.03,85,224.083,84.24,221.094,83.967Zm-3.049-2.989c.03-.023.023-.015,0,0Zm-5.78,7.905c-.371-.193-1.405-1.871,4.193-2.337.117-.011.235-.019.348-.027C215.2,90.243,212.56,89.035,212.264,88.883Z" transform="translate(-134.72 -60.894)" fill="#1a3655"/>
    </g>
  </g>
</svg>
