<svg xmlns="http://www.w3.org/2000/svg" xmlns:xlink="http://www.w3.org/1999/xlink" width="91" height="69" viewBox="0 0 91 69"><defs><path id="87x0a" d="M362.4 199.015l1.977-.696-.003-.202-.605-.599-.834-.214-.105-.185.606-.596-.642.162-1.08-.19-.645.574-1.075.175.323-1.011-.68-.796.152-.154-.147-.34.583-.63.597-.268.072-.618.218-.03-.45-.46.005-1.056-.017-.36.028-.6-1.034.05-.248-.327-.01-.607-.348-.242-.809.26-.414-.129-.083-.389.54-1.357.415-.022.361.193.571-.24.019-.2-.074-.81-.826-.057-.57-.276-.057-.2.438-.461.555.292.613.074 1.078-.542.195.082.254.436.263-.182-.082-.627.254-.586-.256-1.02-.628.083-.346.734-.695-.29.288-.794-.994-.326-.229-.359-.61.236-.402-.165.29-.576-.796.252-.188-.115-.059-.846-.446-.471.204-.82-.324-1.218-.24.563-1.32.705-.718-.806-.036-.863-.312-.812-.88.523-.599.165-.18-.098-.21-.349.115-.251-.323-.798-.238-.74-.767-.154-.086-.709-.182.066-.064-.19-.587-.202-.07-.346-.362-.384-1.149-.408-.36-.453.022-.382.554-.31.182-.79.4-.145.002-.199-.41-.375.034-.366-.579-.895-.385-.214-.12-.31.394-.86-.626-.048-.49-.366-.624-.03-.1-.118-.285.106-1.475-.339-.312-.293-.652.95.017.374.391.642-1.326-.206-.162.109-.743-.242-.371.125-.49.275-.174.72-.566-.15-.133-.86-.172-.102-.523.286-.379-.13-.136.562-.196.052-.169-.122-.407.103-.949-.43-.275.505-.203-.089-.761.44-.664.077-.468-.903-.407.115-.4-.131-.688-.753-.735.45-.324.09.177.351-.833-.023.71.475-1.024.756-1.082.155-.447-1.216-.892.956-.547-.172.047-.186.044-.362-.582-.556-1.146-.883-.43.033-.311-.527-.583.846-.379-.03-.16.39-.67.54-.314-.06-.268-.717-.72-.315-.206-1.264-.12-.136-.4.11.022-.196-.368.18-.117 1.185-1.724-.41.462-.606-.072-.362-.932-.347.025-.188-.683-.336-.01-.189-.195-.024-.88.374.146-.459.084-.262-1.279-.382-.657.14-.903-.58-.581.729-1.572-2.255-.47-.028-.393.06-.07.41-.452.453-.098.595-.832.212-.181-.113-.286.281-.58.128-1.056-.17.715-.704-.552-.806-.548.264-.83.099-.452-.202.115.356-.463.361-.183-.082-.259-.39.237-.31-.434-.384-.41-.098-.146.147-.398-.463-.602.167-.84-.125-.235-.936-.397-.107.005-.197-.462.432-.813.278-.508.387-.005.016-.69.21-.936.798-1.062-.471-.478.529-.615.228-.444.006-.146-.157-2.153.66-.243-.78-.095.062-1.066.231-.628.327.107-.39-.226-.331-.597.068-.805-.565-.176.297-.698-.302-.023.008-.848.621-.563-.299-.158-.753-.547-.11-.043-.395-.389-.143.001-.206.77-.35.076-.605.195-.091-1.242-.847-.27.315-.201.37-.976.846-.129.4.115.373-.226.582.053.548-.23.314.125.395-.33.755.12.174-.067.088-.395.64.114.704-.33.326-.884 1.21-.289.496-.03.548.163.114-.608.498-.197-.358-.408.063-.927.36-.482.393-.596-.123-1.055.245-.2-.705-.264-.263.106.39-.398 1.141-.703.447-.422-.12-.629-.584-.594.596.167.131-.13.392.338.525.064.607.59.466.22.233-.127.31.266.252-.394.878-.39.137.386.854.309-.27.653-.006.589-.269.234.321.205.008-.97.767.245.78.415-.04-.397.761h.011l.408.462-.143.378.244.33.378-.186.642.194.094.195.049.166.112.301-.244.25 1.057.976-.734 1.107.528.497.03-.183.525.203.457.39-.24.8.393.07.346.247-.017.21-.532.356.365.76-.011.181-.452.331-.101 1.438.442.707-.195.369.083.259.851.165.827.703-.094.54-.103.251-.219.043-1.048 1.363-.087.131.29.086-.518.305-.013.5 1.22.463-.214.567-.146.975.204.212.636.565.856-.06-.098.39.45.41-.084.357.307.254.022.397.374.478.661-.314.364.099-.317.13.246.216.099-.174.992.077.125.363-.677 1.349.348.226-.043.197 1.237.305.394-.163.556.243.146.575.556.584.38-.068-.46 1.638.023.847.532.908-.121.393.406.442-.109.33.29.274.062.376.351.119 1.009-.067.191.559.338.69.582.135.345.241.424-.01.196.04.855-.016.238-.341.406-.125.095-.587.355.235.147.672.368.102-.235.338.071.807-.55.573.163.068.028.466.762-.144.57.121.63.315-.442 1.139.432.075.434.935-.492.422-.21 1.026.492.71-.283.296.04.557-.727.34.113.355.723.89.626.099.636.077.827-.201.596.15.345-.246.053-.32 1.46.059.68-.75.416-.025-.13.626 2.136-.09.014-.255-.336-.352.035-.372.6.112.075-.143.446.076.055-.613 1.018-1.281.318.503.719.42.607-.012-.347.827.427.057-.128 1.035.406-.184.597-.828.948.356.356-.125.512-1.148.199-.087.508-.077.085.39 1.026.972.158.098.34-.15.094.158 1.216-.4.155-.332.759 1.305-.027 1.98.067.17.377.495.395.155.183-.079.306.247.724-.295.322.27.035.408.275.314.923.026.049.582.335.125-.052.762h.138l.235.95-.114.295-.205.054-.275.735.254.978-.36.511-.967-.491-.478.603.011.367-.461.63-.705.409-.066.364.552.128.13-.135.779-.214 1.871.238-.02-.196.661-.736 1.385-.018.306.55 1.109-.002 1.481-.434 1.052 1.12.118-.008.332-.274 1.302.021.666-.766 1.373-.5-.04-.38-.748-.876.766.299.368-.168.41.048.324-.243.388.125.365-.166.502.24-.021.198-.42.439-.04.986.124.36.774.11 1.244-.78.681-.824.175-.026 1.218-.18 1.52-.241-.066-.938.866-.833.652-.102.029-.56.725-.34.342.162.372-.188.286-.77.833-1.62.623-.058-.162-1.347-.794-.23.21-.595-.407-.667.31-.258-.493-.406 1.043-1.315-.129-.745.5-1.145.724.14.583-.19.345.208.417-.02.033.373.16.128.473-.906.326-.256.73-.242.208.322.945-.286.185-.344.384.19.166.39.37-.077.447.316.422-.206.502-.161 1.028.312.887-.804.395.01.066-.195 1.153.515.05-.19.202.01.562.228.27-.065.409-.004.225-.327.204.011-.008.4.318-.21.1-.982.38-.438.41-.012.63.471.61.052.255-1.14-.008-.39-.66-.002.29-.356-.793-.237.16-.587.31-.287.066-.832-.373-.497.02-.407-.553-.6.824-.485.703-.288.59.03.013-.402-.423-.944-.814-.95.371-.332.932.3.596-.008.92-.691.38-.087.027-.507-.706-1.257.146-.157.683-.45.288-.509.965-.131-.405-.717z"/></defs><g><g transform="translate(-275 -160)"><use fill="#ed5485" xlink:href="#87x0a"/><use fill="#fff" fill-opacity="0" stroke="#bcbcbc" stroke-miterlimit="50" stroke-width=".75" xlink:href="#87x0a"/></g></g></svg>