<svg xmlns="http://www.w3.org/2000/svg" width="14.426" height="15.527" viewBox="0 0 14.426 15.527">
  <g id="Group_367" data-name="Group 367" transform="translate(-327.289 -2336.873)">
    <path id="Path_235" data-name="Path 235" d="M335.742,2346.5a2.994,2.994,0,0,1-2.528-.846l-.282-.282a3,3,0,0,1,0-4.236l2.894-2.9a3,3,0,0,1,4.236,0l.283.283a3,3,0,0,1,0,4.236l-1.864,1.863" fill="none" stroke="#038090" stroke-miterlimit="10" stroke-width="0.992"/>
    <path id="Path_236" data-name="Path 236" d="M333.867,2342.744a2.987,2.987,0,0,1,2.137.873l.283.283a3,3,0,0,1,0,4.236l-2.895,2.894a3,3,0,0,1-4.236,0l-.282-.282a3,3,0,0,1,0-4.236l1.765-1.765" fill="none" stroke="#038090" stroke-miterlimit="10" stroke-width="0.992"/>
  </g>
</svg>
