<svg id="location-map" xmlns="http://www.w3.org/2000/svg" width="24" height="24.001" viewBox="0 0 24 24.001">
  <g id="Frame_-_24px">
    <rect id="Rectangle_1627" data-name="Rectangle 1627" width="24" height="24.001" fill="none"/>
  </g>
  <g id="Line_Icons">
    <path id="Path_1196" data-name="Path 1196" d="M20.555,17.832A1,1,0,0,0,21,17V3a1,1,0,0,0-1.554-.832l-5.392,3.6L9.625,2.219a1.033,1.033,0,0,0-1.18-.051l-6,4A1,1,0,0,0,2,7V21a1,1,0,0,0,.528.882,1,1,0,0,0,1.027-.05l5.392-3.594,4.429,3.543A.993.993,0,0,0,14,22a.855.855,0,0,0,.549-.176ZM4,7.535,8,4.869v11.6L4,19.132ZM13,18.92l-3-2.4V5.082l3,2.4Zm6-2.455-4,2.667V7.535l4-2.666Z" fill="#fff"/>
  </g>
</svg>
