<svg xmlns="http://www.w3.org/2000/svg" width="20.643" height="20.5" viewBox="0 0 20.643 20.5">
  <path id="menu" d="M9.032,22.929H27.611c.57,0,1.032-.656,1.032-1.464S28.181,20,27.611,20H9.032C8.462,20,8,20.656,8,21.464S8.462,22.929,9.032,22.929Zm18.579,5.857H14.157c-.57,0-1.032.656-1.032,1.464s.462,1.464,1.032,1.464H27.611c.57,0,1.032-.656,1.032-1.464S28.181,28.786,27.611,28.786Zm0,8.786H9.032c-.57,0-1.032.656-1.032,1.464S8.462,40.5,9.032,40.5H27.611c.57,0,1.032-.656,1.032-1.464S28.181,37.571,27.611,37.571Z" transform="translate(-8 -20)" fill="#4a4b4d"/>
</svg>
