<svg xmlns="http://www.w3.org/2000/svg" xmlns:xlink="http://www.w3.org/1999/xlink" width="159" height="117" viewBox="0 0 159 117"><defs><path id="6r7xa" d="M151.983 197.218l-.037-.08.112-.043.052.09-.063.035zm95.036 27.539l-.699-.43-.272-.547-.356.002-.142-.281-.174-.603-.464-.447-.302-.786-.437-.476-.145-.802-.415-.057-.903-.516-.408.115-.454.41.275 1.165-.275.06-.071-.375-.326-.251-.39.133-.813-.11-.61.008-1.357-.35-.397.057-.032-.64-.262-.35-.743-.125-.761-.967.142-.385.335-.234-.597-.82-.653.432-.532-.319-.859.04-.537-.246-.098-.376-.507-.402-.292.314-.554-.304-.48-.705-.137-.617.287-.259-.29-1.335-.08-.849-.201-.228-.05-1.407.288-.29.092-.602-.239-.335-.345-.451-.193-.841-.43-.495-.119.064-.38-.142-.692-.665-.41-.076-.705-.404-.601-.1-.4.061-.302-.25-.171.104-.045.215-.513.295-1.004.098-.314-.058-.964.613-.126.084-.822-.09-.086.403.14.384-.395.03-.49-.38-.36.103.46.586.143.137-.21.311-1.153.23-.166-.11-.429.221-.345 1.156-.164.143-.66-.003.004.054-.689.248-.54.886.338.514-.098.188-.86-.028-.695.01-.749-.573-.078-.387-.986.126-.081.374-1.229.585.074.184-.204-.418-.118-.37.154-.33-.164-2.16.099-.093.19-1.216-.496-.36-.393.027-.151.356-.203.031-1.17.102-1.24-.292-.465-.362.035-.78-.226-.325.14-.122-.222-.68-.078-.374-.424-.405-.195.05.228-.764.892-.392.032-.4-1.452-.846-.522-.61-.174-.256-.481-.403-.565.141-.611-.184-.303-.29-.28.725-.34.25-.132.172.734.732-.325.548-.736.451-.132.803-.576-.072-.026-.397-.175-.104-.792-.088-.472-.28-.617.842-.078.403-.71.361.025.774-.53-.228-.095-.338-.32-.182-.74-.302.058-.353-.238-.221-.327.245-.838-.054.042-.05-.94-.411-.16.13-.645.017-.506.665-.606-.032-.698-.41-.39.686-.683.365-.765 1.13-.202.05-.263-.286-.31.482-.903-.117-.046-.1-.81.723-1.701.978.012-.572-.178-1.273-.447-.703-.011.191-.198-.022-.413.408.003.38-.184.077-.405.078-.236-.289-.573.156-.348-.191-.317.27-.102.403.81.7-1.699.848-.357-.023-.375-.328-.223-.35.059-1.03-.653.009-.809.629-.246-.822.109-.167-.25-.299-.615-.57-.384-.75-.61-.22-1.495.4-.923-.358-.243-.753-.845-.092-.414-.131-.35.244-.068.614-.414.477-1.224.351-.372-.239-2.05-1.36-.09.305-.304.112-1.3-.266-.675-.533-.622-.005-.568.247-.682-.4-.2-.354-.907.084-.348-.169-.427-.653-.058.189-1.016.09-.692-.368-.02-.002-.982.607.142.57-.398.922-.36-.021-.519.585-.786.158-.128-.152-.28.256-.08.585-.275-.282-.186.086-.297.565.083.413-1.192.843-.335.145-.69-.262-1.188-.072-.528-.596.193-.35-.244-.306-.525-.29-.147.138-.357-.154-.357.127-.47-.295-.172.083-.242-1.152-.82-1.335-.104.025-.083-.595-.56-.595.249-.758.26-.312-.284-.733-.597-.108.131-1.009-.276-.524-.386-.19-.477-.34-.21-.707.907-.226.289-.06.933.214.193.57.142.033.015.273.048-.34.658-.094.232.28-.026-.17.295-.116.15.134.149-.05.852-.373.292.104.957-.854-.126-.249.145-.17.19.315.257-.006.064-.16.403-.071.243.121.092-.188.283.019.249.236.303-.145.316.105.041.31.23.094.383.179.217-.02.078-.078-.128.046-.118-.031-.271-.182-.278-.697-.357.041-.166-.289-.43-.041-.234.065-.333-.412.105-.475.477-.429.058-.302.2-.35.173-.11.105-.197-.067-.139.115-.056.026-.154-.078.129-.24.09.128.157-.744.587-1.254.656-.375.056-.207.622-.333.083-.117-.895-.348-.26-1.22-.77-.4.152-.455-.41-.493-1.587-.61-.895-.97-.2-.664-.754-.102-.402.182-1.016.04-1.085-.142-1.685-.118-.392-.643-.63-.487-.178-.328.196-.179-.132.819-.457.137-.185.305-.254.277-.77.244-1.39.042-.347.316-2.119.434-.584-.297 1.117.247 1.393.163.005-.035-.918.137-.99.195-.383-.094-.398-.393-.234-.144.206-.146-.153.006-.626.016-1.038-.022-.793.083-.6-.034-.765.227.286.137.794.182-.186-.158-.555-.227-.796.039-.825.89-.557.876.638.335.254.05-.048-.16-.381-1.427-.908-.526.282-.2-.095-.411.464-.4.923.168.658-.172.237-.604-1.245-.537-2.824.248.88.107-.429.115-.389-.214-.209.126-.248-.46-.445-.06.46-.011-.589-.016-1.232.213-.487.543-1.294.137.17.373-.068-.327-.517-.196.323-.14-.575-.393-2.904-.003-.816-.35-.823.553.091 1.03-.35.27.135h.103l-.016-.02-.76-.73-.951.088-.276-.482-.024.47-.444.45.144.851-.147.06-.668-.78-.355-.818-.418-1.396-.29-.602-.484-.708.101-.368.166.442.316-.16.26.169.137-.09-.352-.327-.074-.095-.21.19-.184-.204-.42-.015-.319-.596-.293-.655-.472-1.027.177-.094.298.161.55-.298.527-.021-.034-.134-.328.059-.44.05-.277-.221-.848.496-1.07-1.375-.285-.308-.324-.417-.646-.617-.47-.264.043-.092.34.144.167-.059.713.418-.06-.39-.22.068-.286-.208-.043-.266-.694.292-.079.405-.304-.181-.498.01-.07-.316-.52-1.314-.005-1.002-.016-1.412-.546-1.8-.402-.398.016-1.194-.25-.925-.372-.152-.439-.072-.478-.433-.176-1.026.236-.342.965-.514.142-.3.56-.931-.028-.68-.018-.874-.081-.999-.409-1.646-.456-.707-.365-.326-.584-.12-.452-.373-.887-.044-.992-.479-.1-.19.401-.751-.453-.943.118-1.036.329-.223 1.082.208.521.402.313.537.608.028.798-.578.293.193.421.117.53 1.12.53.24.818.078 1.353.538 1.793-.059.647.538.405.032.365-.185.289.266-.185.088.163.352.373.24.897.057.579-.242.29.062-.09.359.294.61.158-.002.115-.312.109.284.028-.27.09-.026.123.27.248-.106-.046-.622.351.139.164.137.991-.282.606.167.206-.03.742-.044 1.21-.567.443-.328.152.109.19-.593.33-.273.118-.79.844.218.649-.529.426-.078 1.485-.259 1.093.018.782.27.598-.077.324.234 1.047.323 1.311-.07-.092.796.37.505.228.391.662.779-.107.354.547 1.38.093.597-.038.633-.816-.427h-.301l.044.12-.504 1.19.201.089.072.2-.247.147-.273.505-.005.292-.167-.17.073-.28.081-.026.187-.293-.41-.185-.313-.056-.619.514-.31 1.13v.87l.216.646.543 1.028.472.619.203.274.818 1.315.976 1.174.32.427.451.503.653.726.31.359.773 1.053.372 1.233-.125.407-.593.6.07.629.571-.1 1.12.564.046.196.69-.09.177.245-.064-.584 1.134-1.218.67-.505 1.698.003.582-.236.627-.185.815.028.985-.034 1.517.239.526.464 1.306.807.866.38 1.412.45 1.605.271 1.418.355.394-.092 1.114.131 2.163.063.938.041.838.284.576.027.751-.041.875-.157.812-.163 1.986.138 1.645.39 1.381.146 1.515.12.909.354.683.307.831.53 1.276.776.911.375.35.105 1.06.172 1.18.495.815-.267 1.533-.002 1.275-.204 1.96-.523.222.02.881-.556 1.058-.429 1.149-.424 1.166-.7.716-.559.918-.675.209-.195.574-.72.143.127 1.256-1.462 1.13-.832.689-.233 1.504-.484 1.599-.722 2.21-.087.42-.022.488-.051.526-.056 1.29-.215-.066-.4-1.824.19-.54-.43.154-.295 1.177.018-.464-.068-.845-.096-.14.345-.41-.073-.677-.115-.672-.157-.882-.066-.212-.243-.297.273-.4-.131-.352-.113-.233.193-.095-.366-.745-.068-.138.346-.33-.606-1.501-.34-1.064-.812.2-.652-.202-.355-.22-.103-.57-.254-.12-.75.465-1.295 1.4-2.98.727-1.276.608-1.23.42-.997-.066-.634.336-.784.202-1.015.622-.579.116-.185.964-.84.845-.282 1.656-.676.225-.12.988-.54.238-.026.879-.086.773-.39.704-.469.477-.719.84-.271 1.732-.876 2.308-1.337.811-.627.407-.064.488-.35.444-.5 1.153-.724.8-.396 1.072-.255 1.614-.48.43-.084.534-.107 1.727-.344.38.209 1.325-.115.564-.023 1.556-.398 1.18-.618.436-.053 2.468-.668 1.313-.39 1.11-.732.67-.028 2.24.164.59-.225 1.258-.397.673-.535.646-.019.584-.285 1.358-.675.884-.485 1.082-.51.593-.716 1.107-.595 1.03-.896.464-.43 2.85-2.343.152-.11 1.122-.728.442-.078 1.24.482.539-.747.411-.132.638.115.257.32.244.116-.288 1.204.253.33.626.217.549.65.284.275.194-.059.702.412.45.834.072.144 1.439 1.109.549.285.151.596.342.25.415.715.52.375.675.458.971.348 1.288.633.008.298.178.07.366.813.226.328.383.114.248.306-.012.745.29.513.055.246-.035.81.295.511.32 1.608.441.603.35.695.272.714.605.246.305.543.162.579-.888.04-.576-.296-.3.563-.104.159.219.71h-.109l-.737.425-.408-.08-.126.167.108 1.01-.032.386-.384.111-.696.709.804.75.391-.195.664-.85.426-.11.143.168.158.107.08.903-1.177.557-.056.618-.616.943-.394.11.24.279.539.411.185.587-.24.57-.931.783.483.348.247.495.377-.149.06.051-.092.398-1.039.105.13.506.532-.305.418.464.396.506-.144 1.15.776.174.025.021-.28 1.13-.792.71-.155.267.126.096.26.19.632.11.182.381.185-.114.257-.782.531-.339.816.353.046.978-.428.032-.124.168.013.817-.436.456-.751.394.178.337-.494.279-.275.493-.215.003-.09.188-.17 1.007-.338.746.151.335.559-.194.397.075-.852.632.952.882.299.566.396.195-.07.683.685 1.297-.142.614-.129.383.289.767-.086.792.242.202.262-.177.496.396-.085.608.353.2-.519 1.199.013.434-.992-.332.008-.416-.519-.677-.175.121-.645-.083-.336.26-.648.036-.43.774.009.577-.026.507.14.107-.2.369-.975.847-.13.4.115.374-.226.58.054.55-.231.314.126.394-.33.756.12.174-.068.088-.394.64.113.703-.33.327-.884 1.21-.288.495-.03.548.162.114-.608.498-.196-.357-.409.062-.927.36-.481.393-.597-.123-1.055.245-.2-.704-.264-.265.107.392-.399 1.14-.703.448-.421-.12-.63-.585-.594.596.167.131-.13.391.338.525.065.608.589.466.22.233-.126.31.265.253-.394.877-.39.138.385.853.31-.27.654-.006.588-.268.233.32.206.009-.97.766.246.78.415-.039-.398.762-.325.236-.559-.18-.8.156-.163.611-.398.174.529.917.036.605.386.097-.202 1.147-.343.464-.327.118-.353.233-.43-.006-.304.278-.8.033-.285.258-.325.62-1.277.917-.122.95.4.674.065.108.1.12.27.535-.095.58-.415-.017-.344.198-.026.022-1.19 1.133-.576-.223-.096-.048-.605-.19-.775.295-.442.354-.397-.043-.188-.498-.33-.21-.982.145.243.278-.225.288-1.454-.895-1.064.206-.495-.391.04-.608-.767.005-.52-.214-.113.379.226.992-.2.067-.234 1.17-1.085-.419.015-.2-.653.428-.402-.579-1.166 1.158.062.59-.172.106-.445-.375-.253.338-1.27.197-.307-.311-.6.28-.536.66-1.257.384-.07-.192-.811.03-.412-.462-.571.233-.39.705-.202.969-.512.31-.348.208-.603-.072-.539.641-.204.36.57.826-.031.933.375.117-.538.906.145.586.986-.009.142 1.403.753.73 1.076.128.727.468.646.272.479.672-.542.641.32.238 1.505.624-.55 1.168-.548.364.58.366-.098.76-.728.282.107.382.102.616.624.839.796.204.078.194-1.304 1.256.129 1-.79.674-.126.392-.803.852-.316-.18-.143.132-.531.862-.616-.03-.635.492-.58-.231.012.372-.522.273-.397-.431-1.273.491-.109.055-.17.47-.497.66-.025.407-.506.892.152.143.759-.243.793.648.4.105-.545.34-.337.786.231.364-.175.23 1.457 2.304.308.74-.956.434.005.411-.382.182-1.611.875z"/></defs><g><g transform="translate(-133 -109)"><use fill="#ed5485" xlink:href="#6r7xa"/><use fill="#fff" fill-opacity="0" stroke="#bcbcbc" stroke-miterlimit="50" stroke-width=".75" xlink:href="#6r7xa"/></g></g></svg>