<svg xmlns="http://www.w3.org/2000/svg" xmlns:xlink="http://www.w3.org/1999/xlink" width="186" height="269" viewBox="0 0 186 269"><defs><path id="z6wxa" d="M160.55 348.73l1.026-.134.197.067.887-1.139-.792.074-.305-.736-.5-.88-.397-.125-.59.19-.956-.79-.967-.428-1.481.232-1.016-.115-.823-.538.98-.33.18-.565-1.713.014-.194.08-.227.518-.68.481-.14.364-.372-.187-.635-.762-.16-.626.005-.252.316.56.207.045.236-.761.196-.005.065.402.192.084.352-.203-.007-.213-.224-.604-.575-.622-.63-.08-.49.4-.69.445-.798-.073-.153.138.178.588.615.819.396.985 1.147.539 1.356-.49.61.069 2.024 1.063 1.08.567.945.765.418.463 1.305.565zm5.55 8.209l.225-.356-.01-.302.615.006-.068-.189-.375-.195-.31.058-.197.708.03.211zm-2.388 12.597l1.465-1.805-.424-1.208.785-2.169-.61-.862-.501-.394-.752-1.252.183-.36-.014-.605-.444-.682.013-.406.28-.294-.104-.177-.066-.814-.417-.455-2.074.027-.78-.29-.334-.503-1.415-1.3-.521-.36-.145-.597-1.596-.432.382 1.653.612 1.346-.313 1.236.325.795.015.638.437.463 1.424 1.568 1.713 1.211.388.076.956 1.126.37.765.31 1.352.302 2.135.183.388zm8.49 70.014l.23-.196.28.113.138-.113-.484-.537-.089.05-.135.505zm39.12 81.238l-.562.012-.207-.56.011-.632.255-.327.888.241-.124-1.553-.548.048-.165-.74.594-.191.47.25.13.282.04.004.559.697.058.372-.087.394-.12.776-.061.552-.008.406-.226.326-.033.013zm-.53.244l.833.482-.232 1.02.422.431.215.337-.064.607-.37.466-.18-.076-.4.381.032.375-.078-.006-.564.092-.24-.3-.692-1.54.14-.596-.005-.26.32-.243.316-.71.183-.36zm-18.63 32.22l.39-.699.733-.238.116-1.017.596-.841.363-.169.267.565 2.241 1.32 1.284-.594.919.372 1.001-1.024.662-1.082.581-.123.379.14.539-.882.257-1.192-.36-.963-.004-.62-.35-.504-.106-.823.58-.103.639-.756.539.048.237-.74-.191-.816-.243-.323-.11-1.887.192-.816.962-.27.327-.722-.15-.997 1.01-.05.522.33 1.004-.6.388-.468.385-.08-.705-.663.013-.417.447-.932-.07-.408-.356-.463.235-.288-.08-.627.718.246.422-.64.852-.408.323-1.271.159-.16.356-.404.043-.549.38-.721.189.055.407.689.451-.603.98-.011-.257-2.752.166-.1.346.153.52.253.11-.388.076-.612.806-1.189.302-.974-.003-.21-.31-.26.084-.19-.715-.211-.124-.367-.016-.803.424-.404.274-.852.098-.367.933-.132.486.347.18-.088.479-.674.057-.099.13-.389-.977-.998-.026-.532-.18.087-.214-.324.25-.563-.105-.15.16-.327-.29-.033.163-.175-.143-.111.564-1.467-.605-.574.097-.819-.589.07-.348.846-.302-.22-.256.899-.203.526-1.017-.013.585-.733-.682-.712.116-.585.203-.596-.159-.6 1.41-.155.36.025.193-.27-.313-.292-.342-.045-.066-.8-.544-.191.099-.388.11-.504.168-.367-.18-.288.03-.343-.232-.412-.29-.199-.57-.834-.728.265-.184-.01-.141-.343.214-.716-.159-.227.067-.387-.202-.75-1.065-.183-.281.255-.4.006-.525-.264-.286.245-.18-.013-.606-.924-1.193.781-.234-.561-.763.217-.424.403-.164-.118-.278-.71-.19-.004.285-1.17-1.138-.004-.3-.469-.026-1.175.636.372.151-.108.065-.56.11-.317.54-.108.126-.549.15-.443-.595-.104-.118-.174.09-.413.56-.612-.259-1.008 1.054-.585 1.178-1.103-.107-.595-.93-.214.207-.324.199-.04.06-.204-.332-.774.037-.623-.307-.27.146-.577-.348-.674.46-.295.14.196.751.005-.068-1.211.272-.278-.15-.385-.648-1.073.195-.165.361-.48.281.175.134-.09-.347-.899-.303-.23-.342.006-.264-.238-.334-.193-.36.085-.339-.42.313-.221.202-.566.184-.063.28.26.304-.248.38-.178.985-1.278.461.394.364-.14.362-.472.571.18.408-.438.957.987.296-.213-.129-.716.256-.329.526.272.193-.068.586-.841.718-.318.337-1.22 1.476 1.406.274.305-.004.636-1.084.963 1.522 1.03.722.752.34-.215.727.312.438-.423.251-.569-.214-1.256-.609-1.325.502-.619.005-.42.356-.541 1.313-.137.84-.802-.025-.204.593.504-.098 1.037.562.204.377-.068.178-.37.032-.843.625-.51.37-.748.154.079.347-.034.543-.52.167.101.305.085.285-.162.01.79.738.312.767.013.193.365.373.005.86.41.104-.167.526-.197-.106-.774.388.132 1.352-.462.663.427.399.008.483-.683.175-.113.406-.043.47-.38.985-.029.33-.949.015-.082.38-.587.925.12.162-.322.666.134.13.354.288-.734 1.126.596.852-.32.345-.146.402-.872.359-.105.316-.158.358.076-.08.187 1.115.797.241.75.862.401.094.604.34.509.712-.29.133-.783.495-.175.56-.8.387.042 1.036-.462-.125-.579.367-.717.014-.413.267-.7.866-.734.288.242.698.171-.226-.508.184-.725-.413-.752.372-.146 1.002.137 1.463.745.1.188.474.063.461-.321.016-.393.151-.115.334.173.057-.374-.213-.326-.13-.757.19-.34.012-.207-.328-.224-.5.303-.268-.28-.43-.073.001-.575.253-.517.054-.014 1.765.178 1.094-2.445-.424-.488.574-.788-.21-.982.549.192.416-.658-1.087-.806-.058-.197-.297-.648-.895.335-.472-.668-.6-.095.211-.51-.052-.361.42-.293.538-1.084-.173-.225.057-.374-.253-.521.278-.515.194-.493.514-.106.376-.088.16.39.571.572.167 1.472.048-.002.072-.596.256-.326 1.378.005.57-.587.924.348.397-.049.784.092.557-.203.02-.615.143-.142-.19-.753-.352-.084.441-.587-.176-1.565-.432-.204-.09-.181-.581.056.003-.391-.4-.43-.029-.586.169-.57-.085-.598-.586-.28.235-.593.068-.845-1.457-2.477.488-.302.562.11.277.697.844-1.106.342-.195.035-.022.09-.186 1.111-.406.175-.588.05.196.548.202.578-.06-.155-.503.166-.058-.306-.738.47-.659.835-.778.988-.98.093-.413-.275-.802.138-.133-.129-.958.601-.132.246-.343.57-.248 1.843-.095.008-.09.221-.33.542-.213.072-.613.707-.331.357-.725.71.464.483-.848.07-.964.664.238.23-1.26-.56-.596-.462-.369.279-.53-.05-.2-.39-.053.33-.48 1.019-.503.573.026.728-.283.317-.081-.151-1.45.208-.58.54.097.43-.402.583.057.014-.108.115-.743.155-.103.09-.484.224.11.807-.127.258-.325-.099-.645-.755-.455-.15-.67-.324-.082.55-.577.752-.03-.354-1.122.113-.159-.097-.377-.204-.016-.404-.729.024-.614-.222-.335.031-1.196-.244-.8 1.007-.247.631-.518.508.324.19-.068.52-.302-.008-.416.118.01 1.084-.775.567-.048.312-.243.569-.024.15.815.34.17.994-.712 1.354.404.037.283.025-.208.198-.05.758.049.818.427.054.386.765.89.542.1.332.613.464.365.227 1.03.094.142.102-.03.375-.021.768.459.338.229.218.97-.145.127.69.348.294.518.026.06.416-.424.048-.388.661.637-.055.373.027-.005.208-.361.783-.11.205-.356.093-.575.18-.054.112.372.178.066.347-.556 1.511-.613.053-.401.814-.931.685.089.128-.123.542.423.067 1.038.388.097.235-.354 1.163-.895 1.003-.153 1.544-.451.388.424.357.011 1.099-.482.186-.076.53.254 1.135-.257.318-1.195-1.003-1.007-.28-1.012-.632-1.06.168-.032.043-.332.08-.008 1.308-1.195.2.022.221-.296.74.07.492.237.277-.796-.023-.633.38-.726-.383-1.19.784-.052.542-.608.04-.81.797-.088.11-.328-.075-.197-.403-.01-.803-.651-.17-1.04-.296-.295.173-.822-.18-.374.14.134.358-.14-.019-.214.655-.536.347-.536.56-.273-.03-.64.08-.2.11-.184.573-.243.183-.826.334-.406.27.105.595-.018.663-1.31.416-.73.997-.23.569-.242.214-.559-.294-.527.54-.614.009-1.028-.047-.343.221-.347-.777-1.435.205-.33.275.004.81.087.527.305.119.387.321.253.796.063.619.555.154.2 1.125.105.495.798.093-.4.318-.23.773-.006.311-.25.315.166.162-.561-.21-.72-.2.033-1.254-.979.199-.356.192-1.407.197-.265-.078-.542.167-.075.235-.651-.038-.372.23-.872-.204-.45.023-.398.37-.736-.147-.364.127-.377-.122-.602.132-.158-.094-.626-.822-.18-.338-.74-.584-.609-.453-.952.085-.388.542-.416.15-1.66.178-.341 1.163.084.29-.142-.082-.322.306-.52-.49-.617-.002-.386.156-.328.438-.284-.171-.373.095-.4-.291-.203.065-.795-1.232-1.602-.287-.557-.587-.16-.178-.381-.513-.33-.382.138-.483-.665-.137-1.141-1.796-2.357.592-.593 1.013.172.268-.285.089-.372.546-.043.077-.39-.262-.29v-.593l.743-.016.172-.264.378.011.361.407.391.028.393-.717.016-.63.414-.048 1.733-1.486.194-.095-.585-.224-.072-.197.083-.626.321-.27-.006-.403.7-.434-.103-.409.118-.166 1.597-.52.109-.587-.531-.645-.153-.572.216-1.167.186-1.071-1.23-.855-.78-1.777-.174-.626.084-.423-.068-.377-.019-1.178.243-.278.121-.924.146.012.113-.272-.26-1.908-.727-.115-.558-.527-.01-.56-.273-.522-.275-2.176.046-.054-1.147-.642-.468-1.143.075-.399.03-.21-.422-.456-1.138-.526-.401.1-.313.536-.194-.05-.242-.766.212-.74-1.362-1.304-.088-.024-.648 1.17-.185.094-.346-.74-.992-.112-.825-.575-.124-.385-.397-.086.238-.32.075-.544.572-.558.582.003-.029-.202-.211-.57-.793.143-.484-.352-.588-.089-.089-.183-.267-1.357.151-.132-.14-.394.097-.19-1.009-.166-.138-.153-1.383.126-.957-.286-.542.313-.717-.057-.779.01-.36.17-1.034-.026-.524.655-.622.042.007-.017-.37-.111-.315-.482-.376-.075-.627.035-.8-.231-.308-.261-1.214-.126-.097-.262-.504-.382-2.205.585-.277-.491-.335-.189-.49.273-.505-.136-.16.497-1.267-.05-.47.405-1.01-.28-.067-.428-.62-.595-.16-.404-2.122.297.213.273.235.34-.126.166.188.59-.46.923.075.408-.797.64-.155.371-.774-.271-1.08-1.504-.92.838-.27.564-.592.578-.577-.233-.54-.847.284-.975-.509-.229-.348.216-.366.714-.608-.067-.132.157-.805.64-.376-.003-.105-1.251-.374-.479-.394-.14-.62.45-.074.385-.364.451-.132.661-.352-.158-.375.198-.667 1.078-.776.27-.346.534-.013.426-.898.534-.343-.936-.498-.368.06-.196-.194.05-.322-.24-.32-.507-.59-.747-.263-.253-.485-.109-1.343.48.384.434-.45.335-.023.406-1.153.132-.144-.26-.81-.136-.401.119-.523.642-.847-.126-.194-.373-.016-.826-.356.049-.485.594-.354.023-.3-.42.759-.978-.083-.593.824-1.418-.407-.044-.331.256-.405.02-.013-.62-.709-.417-.739-.24-.645-1.253.616.038.115-.157-.706-1.254.03-.2.517-.33-1.067-1.225-.82-.675-.588-.252-.418.086-.614-.187-1.89.129.18-.765-.416-1.098-1.027.114-.345-.448-.82.044-.288-.308-.596-.198-.238-.477.087-.347-.919-.135-.454-1.276-.458-.668.06-.194.508-.906.337-.242-.348-.957.163-.584-.377-.099.666-.78.377-.19-.097-.402-.604-1.044.032-.588-.35-.202-.189-.329-.776-.178-.516-.577-.324-.456-.042-.208-.583-.236-.647-.837-.138-.605-.534-.295.095-.81-.229-.56-.012-.103-.078-.804-.558-.23-.326-.507.035-.2.373-.171-.244-.297-.814.08-.212-.3.23-.327-.063-.19-.709.23-.413-.668-.332-.197-.258-.509-1.04-1.198-.037-.393.216-.508-.242-.493.128-.627-.428-1.413-.033-.175.003-.422-.215-.351-1.244-.245-.191-.377-.382-.186-.378.183-.578-.514-.088-.348.073-.182-.216-.31-1.17.047-.578.13-.379-.103-.031.228.313.586-.032.579 1.052.515.123.974-.148.15-1.253.045-.591-.17-.603-.106-1.128.266-.323-.247-.583.278-1.947.862-.256.704-.753-.413-.644.015-.734-.46-.973-.296-.693.742-.412.02-.54.31-.182-.103-.438-.43-.358-.95.183-.524-.343-.445.351-.467-.636-.688.388-.026.421-.403-.108-.16-.318-1.287.393-.421-.167-.584.083-.583-.4-.41-.697.428-.59.174-.145-.144-.028-1.341-.825-.15-.366.11-.141.357-.987.61-.579-.594-.59.216-.193-.076.047-.79.989-1.092-.57-.632-.217-.808-.67.53-.158.398-1.13-.503-.033-.42.275-.568-.361.196-.437-.4-.417-.074-.294.51-.609-.065-.324.246-.183-.36.14-.58-.127-.793-.396.138-.168-.124-.47-1.125-.301-.124-.415.383-.739-.937-1.287 1.186-.924 1.744-.029.423-.203.564.075.194.395.129.042.203-.345.97-.374-.392-.985-.014-.17-.339-.576-.09-.524.551-.11.413-.06 1.203-1.122.642-.325-.221-.05-.395-.31-.243-.385-.108-.485.337-.367-.176-.16-.14.495-.68 1.083-.96-.015-.418-.624.125-1.22-.416-.206.534-.674.393-1.43-.728-.746.295-.197-.316-.302.262-.4.065-.148-.137-.774.237-.461.39-1.153.29-.612-.47-.182.09-.957.303-.2-.035-.015-.2-.375.131-.2 1.184-.33.26-.746-.348-.795.276-.634-.04-.832.894-.14-.787.822-.577.034-.353-1.192-.059-.978.299-1.87.989.152.146.002.83.527.638-.148.387-.608-.045-.22.587-.558.3-.3.535-.277.185-.068.314-1.035.276-.556-.213-.609.138-.966-.387-.391.47.008.339-.766-.42-.674.523-.81-.68-.214-.037-.521.332-.425-.052-.484-.647-.608-.083-.35.503-.525.308.144.143-.195.073-.286-.305-.212.008-.526.34-.57.084-.312.5.038.385-.195.069-.972-.353-.413.028-.43.336.149.153.63-.096.166.572.534.112.067.411-.552-.05-.165.144.06.203 1.223.139-.034.36.924.433.26.574.606.122-.163.348-.274.304.086.389-.593 1.084.712.358.91 1.278.293.36.223.536.346.167.638.55.812.146.375.447h.822l.458.772-.698.434-.204.757-.19.386-.06.86.285.793.503.367.399-.116.116.38-.11.574.394.612.18-.11.473.415.725 1.246-.961.83.88.607.87.812-.453.4-.027.592-.428.402.067.393.586-.234.42.09.801.985-.553.884.439.408-.094.36.23.325-.472.617.283.97.404-.061.218 1.197.04.579-.272.314-.82-.003-.589.207.15.333-.239.51.42.376.369.483-.126 1.023.442.415.075.625.335.525-.318.14-.186.772-.696.42-.108 1.19.38.48-.33.491.727.383.413-1.373.41.025.808.633.402.092.142.372.812.114.496.379-.817 1.364-.097.189-.789.3-1.023-.217-.216.786-.474.425-.746.316.013.596-.283.316-.357.12-.848.076-1.049-.546-.41.437-.388.067-.208.326.124.375-.33.132-1.014-.063-.398-.484-.412-.049-.254-.33-1.13-.417-.181-.37.394-.43-.05-.201-1.11.327-.253-.332-.39.13-.33.53.156.388-.172.382-.588-.05.092-.383-.16-.116-.236.297-.694-.258-.36.6-.699.25-.122-.171-.792.177-1.038-.652.717-1.02.309-1.215.289-.658-1.013.596-.546-.259-.383.774-.198.09-1.646-.11-1.386.59-.124-.382-.824 1.38-.284.274.084.183-.722.318-.786-.175-.14-.38-.181.004-.09.518-.23.268.323.754.434 2.232-1.156.442-.32.776-1.03 1.038-1.198.701-.278.54.169.113.046.663-.223.363-.39.163-.246.804-.575.225-.167.133-.043.208.092.193.32.281.19.092.608.188.21.025.987-.357.629-.09.207.047.043.205-.344.247-.052.416.613.116.321.26.182.366.632.046.148.154.103.63-.707.33.118.167.98.223.472.397.353.987.24 1.462.19.094.411.05.5.355.27.801-.174.592.321.776-.01.424-.368.507-1.24.138-.942-.675-.27.154 1.462 1.375.254 1.03.623.553-.067.198-1.033.06-.314.235.87.52.128.611.004.867-.286.812-.72 1.004.013.207-.334.718-.607.564-1.416-.301.114.735-.861-.298.254.755.526-.08.166.854.42.46.284.951-.267.496-.182.118-.567-.288-1.307.714-.82-.175-1.047.21-.345.241-.064 1.299.29 4.334.248.82.429.58.723-.116-.752-.176-.165-.421-.247-.71.431-.131.417-.01 2.606 1.781 1.44 1.189 1.297.57.185-.092.828.808.165-.104.197.348.37.185.74-.215.54.612-.15.579.104.18.607.022.134.159.13.395-.019.615.07.198.205-.005.526.81.636.526.388.128.332-.248.399.031.42.29.499.774-.143.184.578.44.205-.16.239.09.408.595.887.385 1.551 1.305-.338.271.437.426.356.468.358-.151.378.869.4.584.336.192.286.534.543 1.036.406 1.178.7 2.602.203.016-.167.113.368 1.788.393.06-.017.02-.205-.01-.064.199.658 2.407.369 2.943-2.006.446-.377.135-.847-3.468-.644-1.569-.87-2.085-.29-.277-.534-.817-.854-.836-.883-.83-.596-.548-1.05-.59-1.206-1.918-1.949-1.148-1.586-1.452-.46-.619-.834-.48-.864-.885-.027-.783.524-.067.234.154-.418-.58.45-.05.346.419.151-.239-.222-.68-.487-.192-.42-.594.193-.918-.391.25-.874.341-.393 1.245-.709 1.071-.84.931-.724 1.75-.064.828.202 1.47-.394 2.295.008.924.056 2.138-.234 4.27-.208 2.126-.738 7.393-.303 3.655-.846 8.973-.774 6.8-1.154 9.257-.043 1.518.23.596.188.09.283-.282.126-.857-.13-.4.28-1.916.037-.213.342-1.025.421-.75 1.758-2.12.134-.401-.15-.617.657-.81.486.655.925.772.5-.302-.24.321.182.367.719.345.937 1.047 1.731 1.71-1.128.004.539.6 1.119.422.268.56-.033.203.518.6.067.4-.582.023.092.384-1.023-.584-.136.15-1.688.451-1.18-.223-.263.283-.067-.389-.192-.038-.59.01-.456.349-.164-.113.007-.203.491-.325-.234-.537-.802-.167-.814.075-.326.248-.44 1.182-.03 1.498-.352 1.01-.791 1.743-1.153 1.48.372 2.317-.122 2.356-.874 8.007-.223 1.714-.295 2.247-1.227 8.627-.4 2.39-1.07 5.361-1.35 7.111-.283 1.7-.396 1.222-.5 2.336-.115.773-.547 2.666-.542 3.517-.211 1.55-.13 1.012-.764 1.893-.653 1.447-.453.966-1.322 2.481-1.046 2.15-.838.724-.012.405-.331.728-1.32 2.206-.303.032-.186.243-.97.99-1.13.36.39.513-.312.256-.564-.23.035-.205-.186-.064-1.984.87-.772-.172-.4.483-.729.356.302.418-.588.836.63.47.378-.08.043-.008.334.21.07.418.523.293-.037.84.362.985.767-.15.403-.47.348-.178.35.181.715-.306.577.09.47.364.371-.127h.013l.509.313-.266 1.245.367 1.233.385.5.187.087 1.409.04.585-1.364-.093-.812 1.36-.304.982.01.497.66.396.037.652.491.96.298.732.112.644-.392.35.196.922 1.096.18 1.033-.005.423-.209.36-.052 2.078-.633.498-.119 1.45-.192.044-.263.307.123.575-.218.791-.448.374-.014.213-1.564 1.3-.33.528.037.424.642 1.088.684 1.05 3.094.922.39.111.175-.108.341-1.46.115-1.496-.154-.833.543-.895.507-.304 2.094-.352-.466.551-.67.936-.468 1.405 1.52.962.443.706.591.075.701-.757.77.207 1.203 1.047.36-.014.067-.194 1.17.798.046.634.221.34 1.124-.801.63.516.58.139-.039.415.509.34 2.413.343.18.105.142.156.41.747 1.146.874.935.407.993.036.584-.56.39.098.133.385.61.017.765.278 1.208-.148 1.004.13 1.176-.806.727-.244.573.096.517 1.101.302.165.1.453-.049.616.259.546-.381.48.263 1.011.42.45.876.491.768-.204.702.741.278.701.835.364.607.827.809.582.087 1.438.363.172.755-.232.311.229.026.414-.197.367.106.603z"/></defs><g><g transform="translate(-140 -285)"><use fill="#ed5485" xlink:href="#z6wxa"/><use fill="#fff" fill-opacity="0" stroke="#bcbcbc" stroke-miterlimit="50" stroke-width=".75" xlink:href="#z6wxa"/></g></g></svg>