<svg xmlns="http://www.w3.org/2000/svg" xmlns:xlink="http://www.w3.org/1999/xlink" width="218" height="167" viewBox="0 0 218 167"><defs><path id="hdsla" d="M212.187 521.157l.034-.012.226-.325.006-.407.062-.551.119-.777.087-.395-.058-.37-.559-.697-.041-.004-.129-.284-.47-.248-.594.191.165.74.548-.047.125 1.551-.889-.24-.254.327-.01.63.205.561.563-.012zm-1.782 3.986l.564-.092.077.006-.032-.376.401-.382.18.077.371-.466.062-.606-.215-.339-.42-.43.23-1.021-.831-.48-.365.099-.183.36-.316.71-.318.242.004.26-.14.597.692 1.54zm87.963 45.393l.387.086.358.51-.183.03-.31.714.222.54.457.342.42.335-.143.28-1.196.03-.884-.345-.136-.329.147-.715.11-.388.552-.535zm23.172 9.81l.194-.011.18-.092.395-.452.15-.61.278-.27 1.075.003.09.193 1.118.48 1.968.302.392-.073.116-.176-.006-.645-.542-.62-.136-.836-.262-.29.04-.196.551.083.149-.126.142-.993.732-.09 1.364-1.005.143.007 1.026-.168.199.034.168.389.481.373.923-.364.176-.1.659-1.053.687-.362.394-.961.193.06.55.23.182-.084.193-.597.177-.093.66.4 1.426.177.171-.092.345-.935.597-.452.818.9.574-.084.271-.286.593.006.447.358.834-.451.375.049.636 1.54 1.24 1.341.583.046.376-.488.534-.268.121.164.758.11 1.352-.102.052-.201-.435-.67-.001-.408-.322-.228.158-.346-.31-.72-.91-.317-.112-.395.154-.352.062-.196-.357-.437.449-.66-1.207-.536-.365.09-.372-.102-.579-.516-.759-.18-.294-.526-.259-2.94-.082-.386-.31-2.474-.01-.894.1-2.707-.315-.23.34-.147.077-1.037-.062-1.222-.009-2.202.205-3.56.688-4.854-.204-.372-.641-.482.13-1.71.542-2.305.482-.922-.104-.4.824-2.21 1.39-2.8.567-.563.736-1.694 1.458-1.866 2.39-2.6 1.29-1.253 1.689-1.281 1.338-.962.89-.43 1.494-.604 1.194-.177.615.49 2.69.59.343-.215.997-1.582 1.126-1.468 2.213-2.522 1.4-1.245.54-.294.988.069 1.51-.6-.019-.86 2.917-1.473 1.328-1.608 1.113-1.275 2.312-1.809 2.576-1.399 1.482-.652 1.378-.328 1.231-.06 1.426.18 1.067.635.435.735-.032.41-.52.327-.238.826.524 1.157 1.395.888 2.785.747.055-1.26.325-.78-.06-.203.263-.267 2.057-.784 1.157-.807-.491-1.133.392-.672.148.34-.265.297.066.193.633.482.673-.398.216-.31.777-.126.72-.703.788-.017.268-.526-.32-.25.775-.653.984.083.5-.366.56-.883-.023-.417-.316-.268-.76.3-.396-.066-.42-.475-.067-.403 1.033-2.342 1.094-.514-.05-.847.418-.737.58-.194 1.023-.031.55-.272.912.463.806.15.813.624 1.004-.023.195-.065.004-.215-.528-1.158-.086-.853.665-2.004.99-1.62.113-1.508-.481-1.395.993-.92-.214-.316-.76.026.15-.374-.214-.566.625-.414.188.019.048.191.228-.338 1.078-.538.658-.778-.196.04.034-.125.718-.399.542-.64.149-.459.435-.45 1.166-.41.616-.855.939-.754-.176-.806.118-.613 1.17.123.183-.588-.092-.294-.037-.65-.309-.266-.61-.094-.28-1.035-.246-.347-.5-.496-.353-.426-.026-.573-1.002-.64-.119-.211-.098-.583-.392.053-.86.524-.193-.055-.146-.379-.122-.56-.492-.813.548-1.975.025-.714-.068-.614.008-.21-.044-.614.16-.12.045-.606-.537-.226-.187-.362.27-.557-.074-.405-.362-.16-.756.267-.346-.181-.03-.237.185-.994-1.085-1.472-.095-.68-.693-.89-.672.425-.467-.793-.273-.043-1.035-.547-.18.086-.537-.294-.484-.945.09-.193.057-.1-.753.027-.292-.285-.397-.021-.113-.382-.248-.293-.973.124-.76-.212-.394.086-.18.375-.098 2.272.189-.07-.536.879-.202.004-.152-.386-1.191.093-.429-.391-.073-.619.413-1.424.038-.415-.283-.566-.357-.166-.707.42-1.862.11.147.363-.469.646-.669.421-.576-.012.027 1.39-.64 1.24-.622.446-.578-.222-.463-.424-.742-.85-1.248-.65-.361-1.095-.681.34-.79-.072-.05-.645-.626-.838-.375.475-.35-.055-.233-.187-1.259.297-.572.538-.366.173-.142-.1-.517-.663.652-.416.101-1.343.143-.325-.212-.51.039-.373-.386-.357-.057-.579.164-.109.551.118.377-.678-.573-.591-.712-.372.32-.764-.349-.758-.553-.022-.369-.435-.709-.384-.459-.902-.014-1.675-.24-.802-.18-.1.103-.177-.57-1.08-.201-.981-.509-1.16-1.056.061-.282-.537.069-.404-.501-.303.064-.933-.06-.198-.524-.263.067-1.641-.042-.467-.393-.457-.576-1.329.542-.857-.043-.2-.583-.015.014-.625-.287-.3.004-.419.584-1.04-.062-.2-.552-.268-.967-.198-.398-.456.468-.668.032-.396-.36-.192-.582.166-.365.406-.154-.104-.404-1.149-1.064-.963-.2-.05-.128.167-.18-.953-.372-.42-.296-.902-.357-.14-.076.385-.39.1-.94-.253-.3.28-1.185.176-.375-.447.516-.313.164-.782-.288-.238-.277-.757-.664-.403-.494-.012-.295-.12-.472.272-.25-.274-.554.215.117 1.039-.458 1.378.12.406-.307.197-.572-.49-.564.518-.597-.146-1.413.233-.567.571-.12.388-.168.12-.366-.192-.344-.748-.58-.563.059-.614-.662-.784-.255-1.582-.688-1.08-.001-.635-.372-.568.223-.714-.12-.93-.403-.732-.72.242-.489-.375-.07-1.013-.476.262-.287 1.01-.693-.067-.814.613-.177.367-.559.023-.642.797-.771-.195-.2-.343.137-.393-.401.001-.325.127.075.178-.236.295.215.942-.976.38.065.776.295.513-.39.407-.452.434-.793.174-.24.58-.362-.131-.345-.487-.366-.15-.183-.565-.37-.576-.36-.508-.607-.078-.372.731-.688.42.078 1.118-.424.654.224.703-.043.67-.222-.013-.91-.192.202.73-.535.243-.668.975-.096.394.166.967-.246.507.174.56-.25.3-.457.593-.109.998-.063.181.319.193.178.732-.406-.093-.559.272-.712 2.234-.688 1.325.094.191-.138.348-.478-.219-.35-.377.033-.208-.31-.262-.09-.404-.578-.53.087-.587-.303-.547-.14-1.022-.32-.95.34-.53.085-.623-.173-.377-.544-.282-.073-.198.08-.196.604.026.133-.16-.01-.821-.57-.832-.556.54-.378.02-.346-.196-.426-.898-.404-1.61-.355-.505.095-.574-.337-.236.171-1.413-.197.01-.149.143-1.608.09-.346-.202-.663.465-.32.514-.398-.038-.12-.4.105-.829.3-.545-.266-.763.16-.584-.845-1.368-.579.011-.16-.562-.025.052-.429.406-.12.383-.327-.09-.436 1.324-.708.202-.318-.219-.976 1.31-.1.814-.132.16-1.005-.15-.462 1.172-.582.602.302.758-.543.598.072 1.648-.57.588-.529-.064-.395.424-.16 1.037-.293.22.023 1.11-.09.467-.112.172.306.199-.02.19-.832.626-.607.426-.126.36-.772.621-.474 1.19.015.64-.204.372-.144.155-.389-.12-.164.555-.751-.316-.607.507-1.294-.454-.321.063-.187.076-.493-.288-.654.476-.6.037-.668-.463.065-.603-.184-.356-.339-.275-.676.35-.911-.186-.495.317-.185.04-.202-.016-.614.532-.98-.123-.784.624.25 1 .258.325-.548.397-.665-.772-.63-.442-.3-.152.005-.59.176-.338-.323-.489.552-.8-1.028-1.516-.686.395-.344-.39.134-.611.62-.821.227-1.839-.182-1.01.076-.018.575-.158.16-.567.132-.506-.234-.533.01-.793-1.11-.715-.508-1.021-.116-.332-.322-.132-.994-1.467-.332-.764-.006-.841.072-.199.879-.519-.242-.567-1.09-.903.183-1.021-.745-1.516-.359-.012-.388-.423-1.544.452-1.003.151-1.162.894-.236.356-.389-.098-.066-1.038-.542-.423-.128.124-.685-.09-.814.93-.053.402-1.51.612-.347.557-.18-.065-.11-.374-.18.055-.093.574-.206.357-.782.11-.21.36-.026.006.055-.372-.66-.638-.049.389-.416.423-.025-.06-.294-.518-.69-.348.144-.127-.218-.97-.338-.228-.769-.46-.375.022-.101.03-.093-.142-.227-1.03-.466-.365-.33-.614-.544-.1-.763-.89-.055-.385-.817-.428-.76-.048-.196.05-.026.207-.037-.282-1.353-.404-.994.712-.34-.169-.151-.816-.57.023-.31.243-.567.048-1.085.775-.117-.01.007.415-.52.302-.19.071-.507-.326-.633.519-1.007.246.245.801-.03 1.195.221.335-.023.615.403.728.204.016.096.377-.112.16.354 1.12-.752.032-.55.576.325.082.15.671.755.454.097.645-.256.326-.809.125-.223-.109-.09.484-.155.101-.115.746-.014.107-.583-.056-.429.403-.54-.099-.209.58.152 1.45-.317.082-.729.282-.573-.025-1.02.503-.329.479.39.055.05.197-.279.532.461.369.56.596-.23 1.26-.664-.238-.069.963-.482.849-.71-.464-.357.726-.71.329-.07.614-.542.213-.222.33-.006.089-1.844.095-.57.248-.247.343-.6.132.13.96-.14.132.276.8-.092.415-.99.979-.834.78-.471.657.308.739-.167.056.156.506-.579.058-.55-.202-.049-.196-.173.59-1.111.404-.09.187-.036.02-.341.195-.846 1.107-.275-.696-.562-.11-.489.3 1.458 2.478-.069.844-.236.594.587.28.084.596-.168.571.029.587.4.43-.002.39.579-.055.091.181.432.204.176 1.566-.44.587.352.082.19.754-.144.142-.019.614-.559.205-.782-.093-.398.049-.924-.348-.57.587-1.377-.005-.256.326-.074.596-.047.002-.165-1.472-.573-.572-.16-.39-.376.088-.513.107-.195.493-.278.515.252.522-.056.373.173.224-.536 1.086-.421.29.052.362-.213.51.602.096.473.668.894-.336.297.648.057.198 1.087.805-.416.659-.549-.193.21.983-.574.788.426.487-1.095 2.445-1.766-.178-.055.015-.25.516-.003.576.43.075.267.277.501-.302.328.223-.011.206-.192.34.132.76.212.325-.056.372-.335-.171-.152.116-.015.392-.46.32-.474-.064-.101-.187-1.462-.745-1.003-.137-.37.146.411.753-.184.724.227.509-.698-.172-.29-.242-.865.735-.266.7-.016.412-.366.717.126.578-1.037.463-.387-.041-.56.8-.495.175-.133.784-.712.29-.34-.51-.095-.604-.86-.401-.243-.75-1.113-.798.08-.186-.359-.076-.317.156-.358.106-.403.872-.344.146-.851.32-1.126-.595-.288.733-.13-.354-.668-.133-.16.32-.925-.118-.381.587-.014.08-.33.95-.986.03-.47.38-.405.042-.175.113-.484.683-.4-.008-.661-.427-1.354.462-.387-.131.106.773-.526.198-.104.167-.86-.41-.372-.005-.195-.365-.765-.014-.74-.31-.01-.79-.284.162-.305-.086-.167-.101-.542.52-.347.034-.153-.081-.372.749-.625.511-.03.842-.18.371-.377.069-.563-.207.1-1.036-.593-.504.024.203-.839.803-1.314.137-.356.54-.005.422-.502.619.61 1.326.213 1.256-.25.567-.44.425-.724-.313-.342.215-.723-.752-1.522-1.03 1.084-.964.005-.635-.274-.305-1.476-1.407-.337 1.22-.718.319-.587.84-.191.07-.527-.273-.255.327.128.717-.295.213-.957-.986-.41.438-.57-.181-.362.473-.364.14-.461-.394-.985 1.278-.38.177-.303.25-.281-.262-.182.063-.204.566-.313.222.339.42.361-.085.332.191.26.238.344-.006.303.23.346.9-.133.09-.282-.174-.36.479-.196.165.65 1.074.148.384-.271.279.067 1.21-.75-.005-.14-.198-.46.296.347.673-.145.578.305.27-.036.624.333.775-.06.202-.2.04-.206.324.93.215.105.595-1.176 1.103-1.055.585.26 1.007-.56.611-.09.415.116.175.596.102-.149.443-.125.55-.542.108-.11.316-.065.56-.15.109-.635-.372.024 1.174.3.469 1.138.006-.285 1.17.19.003.279.71.164.118.424-.402.762-.218.235.56 1.192-.78.605.923.18.012.287-.243.527.263.398-.006.28-.254 1.066.182.202.752-.066.386.16.226-.215.717.141.342.184.012.729-.267.568.835.29.199.232.412-.03.343.18.288-.167.366-.11.505-.1.387.544.19.067.8.342.047.314.29-.193.272-.362-.025-1.41.154.16.601-.204.596-.117.585.683.712-.585.733 1.017.012.204-.526.255-.899.304.22.346-.845.59-.069-.097.818.605.573-.564 1.468.142.11-.163.175.29.034-.16.327.104.15-.25.563.216.324.18-.089.025.533.977.999-.13.388-.058.1-.478.674-.179.087-.487-.348-.932.134-.098.367-.274.852-.426.402.017.804.124.368.715.21-.084.192.31.259.002.208-.3.976-.807 1.19-.075.612-.11.386-.52-.251-.347-.155-.164.101.256 2.752-.98.012-.452.6-.407-.687-.189-.057-.38.723-.044.548-.355.406-.158.159-.323 1.272-.853.408-.422.638-.717-.245.08.627-.236.288.357.462.07.409-.449.932-.01.417.703.663-.385.078-.387.47-1.005.6-.522-.33-1.01.05.15.997-.327.72-.961.272-.193.815.11 1.888.244.323.19.818-.238.737-.539-.047-.638.755-.58.102.106.824.35.504.004.622.36.963-.257 1.191.35.492 1.115.334.147.368.803.584.522-.182.191.324.1.611 1.021.653.579.134.644.492.386-.083.631-.462.16.805.303.522-.066.204.496.35.59.875.488.937.089.193.003.432.138.158 1.561.365.227 1.033.24.329 2.144.534.705-.392.21-.577.39-.1 1.14.32.713-.369.444-.693.38-.129.719.372.398-.01.737-.308.162-.39.95-.088.673-.732 1.286.395.745.656 1.515.163.293.79-.04.628 1.242 1.062 1.053-.616.294-1.225.723-.364.634-.79.591.561.773.118.138.82 1.25.537 1.54-.178.639-.381.652.42.962.087.425-.665.135-.005 2.447.452.247-.55.119-.076 1.043.599 2.162.265.306-.99-.228-.584.058-.616-.265-.321-.43-1.187-.755-.161.936-1.214-.824-.504.324-.279.323-.653.418-.32-.218-.7.203-.57-.315-.25-.124-.398.144-.36.676-.433-.033-.417.583-.008.694-.374.923.344.394.455 1.655.735.93-.264 1.413.743.969.155.37.48.748.289 1.04.987.672.435.196.045.703-.734.523-.28 1.006 1.129.914-.227.55.228.79.032.493.296.991-.072.242-.336.46.662.708.346.927 1.043.284 1.66 1.24 1.082.387.032.658-.479 1.168-.273.478-.387.554.224.58.537.54-.17.543.173.548-.237.59.07.692-.376.395.003.2.318.727-.037-.233 1.005.471.383.584.151.458.413.067 1.068.985 1.04.369 1.678.718 1.258.791.034.677-.447-.145-1.44.386-.975.588-.142.341.485.757-.064.091-.176.501-.038.634-.359.15.106.925.36.334.767.83.547 1.362-.173.582.143.469.392.962-.243 1.281.551.957-.148.058.398-.436.703.03.618 1.509.533.593-.078.323.515-.693.554-.788.066-.535.615-.194 1.264-.394.745.236 1.469.118.173.593-.095.882.49 1.575-.116.334.238.767.1.498.361.224.577.315.24.554-.047.486.337.255.549.55-.002.757.202.652-.456.378.591-.046.85.692.395-.095.856.576 2.021.809.948.995.707.196-.017.251-.337 1.527-.206.706-.35.384.039.151-.607 1.013-.484.05-.779.288-.23.112-.566.367-.41.997-.549 1.86.408 1.048-.555.758-.183.53-.59 1.545.943.698-.332.341.21.34.482.755.16.138.398.34.22 1.167.247 1.1.49.964.012.125 1.026.696.38.585.566.393.717.361.464.567-.154z"/></defs><g><g transform="translate(-201 -414)"><use fill="#ed5485" xlink:href="#hdsla"/><use fill="#fff" fill-opacity="0" stroke="#bcbcbc" stroke-miterlimit="50" stroke-width=".75" xlink:href="#hdsla"/></g></g></svg>