<svg xmlns="http://www.w3.org/2000/svg" width="12.392" height="16" viewBox="0 0 12.392 16">
  <path id="Path_17" data-name="Path 17" d="M172.642,60.66a7.432,7.432,0,0,0-4.961-.987,7.273,7.273,0,0,0-2.959.905,5.676,5.676,0,0,0-1.9,1.547,2.175,2.175,0,0,0-.483,1.193q.037.222.4.189a1.7,1.7,0,0,0,.768-.3c.266-.176.57-.368.908-.576a6.94,6.94,0,0,1,3.069-1,4.407,4.407,0,0,1,2.723.472,2.688,2.688,0,0,1,1.248,1.961,3.562,3.562,0,0,1-.543,3.066,2.25,2.25,0,0,1-.889.614,9.183,9.183,0,0,1-.941.3,6.906,6.906,0,0,0-.661.2c-.447.1-.839.159-1.177.206.005-.115.011-.228.016-.354q.095-1.958.058-3.187a10.855,10.855,0,0,0-.151-1.4c-.088-.527-.214-.782-.376-.765a.809.809,0,0,0-.428.162Q165,63.9,164.472,68.79a18.7,18.7,0,0,0,.016,4.926,9.265,9.265,0,0,0,.332,1.437.612.612,0,0,0,.686.461q2.341-.214,2.142-1.4l-.428-3.8c1.865-.518,3.958-.653,5.551-1.884h0c.022-.016.041-.033.06-.049a4.473,4.473,0,0,0,.965-1.012,3.254,3.254,0,0,0,.4-.68,4.769,4.769,0,0,0,.45-3.009A4.488,4.488,0,0,0,172.642,60.66Z" transform="translate(-162.33 -59.617)" fill="#fff"/>
</svg>
