<svg xmlns="http://www.w3.org/2000/svg" xmlns:xlink="http://www.w3.org/1999/xlink" width="148" height="141" viewBox="0 0 148 141"><defs><path id="qzxca" d="M125.176 302.884l.074-.198.022-2.354-.433-.74-1.14-.604-1.475-.82-.42-.026-.182-.352.103-.761-.133-.15-.387.11.4-.173.582.287.161-.14-.082-1.07-1.427-.912-.865-.038-1.061.166.355.94-.37.776.002.425.723.484.726 1.083.514.321.52-.379.864.013 1.001.824.79 1.023.592 1.616.363.536zm-7.567 12.866l.66-.342.186-.25.936.19.256.188.052-.095-.134-.292-.463-.588-.326-.269-.253-.177-.338-.42-.848-.045-.377-.505-1.045-.275-.324.022-.325.278-.39.182-.04.097-.001.108.057.318.042.1.154.286.437.314.063.308.398-.067.37.376.216.02.28.162.31-.065zm47.141 25.442l.172-.11-.344-.736.18-.118.488-1.077-.254-.943 1.356-.211.246-.292.66.472.781.384.23-.267.088-.52.183-.003.139.38.787.176.724-.317-.086-.185.285-.273.822-1.38.125.384 1.386-.594 1.648.11.196-.088.382-.775.548.259 1.012-.595-.29.658-.307 1.214-.718 1.022 1.038.651.791-.176.123.169.698-.25.36-.6.695.26.235-.299.161.115-.091.385.587.05.172-.383-.156-.388.33-.529.39-.131.252.333 1.11-.328.05.202-.393.43.18.37 1.13.415.255.332.414.049.394.483 1.015.063.33-.131-.121-.376.207-.325.386-.068.41-.436 1.05.545.847-.076.358-.122.283-.315-.013-.595.747-.316.472-.425.216-.786 1.023.218.79-.302.098-.189.816-1.362-.496-.381-.813-.112-.14-.374-.403-.092-.807-.633-.41-.025-.414 1.375-.725-.384.329-.49-.38-.482.108-1.189.697-.42.184-.773.319-.14-.336-.523-.074-.626-.442-.413.126-1.025-.37-.483-.42-.376.239-.51-.148-.333.587-.207.82.003.272-.314-.04-.58-.219-1.196-.404.06-.282-.97.473-.616-.232-.327.093-.358-.437-.41.553-.882-.8-.985-.42-.09-.587.234-.067-.392.428-.404.028-.592.453-.398-.87-.813-.88-.608.96-.829-.724-1.245-.474-.417-.178.11-.395-.614.11-.573-.116-.378-.401.116-.5-.366-.286-.794.058-.86.191-.387.204-.755.698-.434-.458-.774h-.821l-.376-.445-.811-.148-.638-.55-.346-.165-.224-.536-.292-.361-.911-1.277-.712-.359.594-1.083-.086-.39.273-.305.165-.348-.607-.12-.262-.575-.923-.431.035-.363-1.224-.138-.058-.203.162-.144.553.051-.066-.414-.536-.109-.167-.573-.629.096-.146-.153.427-.336.416-.029.97.356.197-.07-.04-.385.313-.499.57-.085.525-.341.212-.006.287.306.194-.074-.143-.144.525-.308.35-.502.605.082.487.646.423.052.522-.333.212.038.812.679.674-.521.765.42-.008-.34.392-.47.966.388.61-.139.555.213 1.036-.276.068-.313.276-.188.3-.531.559-.3.218-.589.609.045.148-.386-.527-.638-.003-.83-.15-.147 1.87-.988.976-.3 1.192.06-.031.353-.823.576.14.788.831-.895.633.041.796-.278.748.35.329-.26.199-1.184.375-.13.016.2.199.033.957-.302.183-.09.612.47 1.153-.29.46-.388.774-.239.149.138.4-.066.302-.263.198.316.743-.295 1.432.726.674-.391.206-.534 1.22.415.624-.126.015.42-1.083.958-.495.682.159.138.368.178.485-.338.383.107.311.245.05.393.324.223 1.123-.642.062-1.204.108-.412.525-.552.576.09.169.34.986.013.375.39.344-.967-.041-.204-.395-.13-.076-.194.204-.565.03-.421.922-1.744 1.288-1.187.739.936.413-.383.304.125.408-.716.13-.816-.51-.344-.027-.205.25-.51.549-.442.167-.297-.184-.032.058-.827-.199-.598.305-.522.158-1.202.308-.233.045-.416-.259-.273 1.308-1.942.162-.823.756-.184.495-.608-.29-1 .564-.077 1.186-1.146-.562-.248-.02-.617-.604-.156 1.136-1.086.176-.586-.18-1.642.398-.482.185-.808.172-.118.076-.493.814-1.06.198-1.54-.74.036-.064-.382-.526-.309.293-.311.587-1.558.202-.293.657-.304-.168-.39.128-.396-.153-1.025.114-.152 1.106-.086.684.803 1.956.235.605.563.108.378 1.65.683.61-.53.4-.078-.315-.977-.53-.935-.384-.206-.365-.53.764-1.279.564.138 1.088 1.294.4.076.825-.191.115-.805.294-.554.598-.187.128.164.835-.036.767-.696.376.14.82-.197.6-.547-.034-.282 1.061.113.387-.177.942-.84.12-.401-.178-.119-.414.458-.208-.019-.239-.325-.135-.782-.433-.437.008-.026.569-.621.614-.137.12-.174-.04-.237.305-.28.082-.579.27-.315 1.004-.217.038-.012.996-.83.938.279.222-.333-.487-.642.031-.201.259-.315.199-.056.387.146.038-.199.879-1.045.271-.296.311-.929.474-.349.395.15.243-.571-.016-.616-.616-.522.19-.569-.265-.979.104-.816.344-.2.794-.629.297.263.16.574.644.516.15-.142-.264-.997.07-1.211.173-.373 1.21-.42.133-.167-.118-.607-.889-1.692-.167-.382.426-.488.22-.796.2-.601-.096-.826-1.047.07-.257-.314-.403-.037-.112-.59.153-1.007-.19-.36.402-.131 1.263.096.39-.16.083-1.225-.617.1-.592-.213.074-.185.633-.079.344-.248.577-1.264-.195-.56 2.683-.17.096-.188-.295-.279.077-.208-1.132-.905-.998-.292-.841.068-.167-.126-.365-.33-.696-.71-.575-.21.005-.383-1.612.873-.163-.122-.7-.43-.272-.547-.355.002-.141-.28-.175-.604-.464-.447-.302-.786-.437-.476-.145-.803-.416-.055-.903-.517-.407.114-.455.412.277 1.164-.277.06-.07-.375-.326-.252-.39.134-.813-.11-.61.008-1.357-.35-.396.058-.033-.641-.262-.35-.744-.125-.76-.967.143-.384.334-.235-.596-.82-.654.432-.532-.319-.859.04-.538-.247-.096-.375-.509-.403-.292.314-.552-.303-.48-.704-.138-.619.287-.257-.29-1.336-.079-.85-.2-.227-.05-1.406.285-.292.093-.6-.24-.337-.344-.451-.193-.84-.43-.496-.12.065-.38-.142-.69-.665-.41-.077-.706-.403-.601-.099-.4.062-.303-.253-.17.106-.046.214-.513.295-1.003.099-.314-.059-.964.613-.125.085-.823-.092-.086.404.14.384-.395.032-.489-.38-.362.1.461.587.143.136-.209.313-1.154.229-.166-.11-.429.222-.344 1.156-.166.143-.66-.005.005.056-.689.246-.54.887.337.513-.097.19-.86-.03-.694.012-.749-.574-.077-.386-.988.125-.081.374-1.228.586.072.183-.203-.418-.117-.37.155-.33-.166-2.16.1-.092.189-1.216-.498-.361-.391.027-.152.356-.202.032-1.17.1-1.239-.291-.466-.362.035-.78-.226-.325.141-.122-.223-.68-.077-.374-.426-.406-.193.05.227-.763.89-.392.034-.4-1.451-.846-.522-.61-.174-.258-.482-.401-.565.14-.61-.183-.304-.29-.28.724-.342.251-.13.171.735.734-.326.547-.737.45-.132.805-.575-.073-.025-.396-.177-.105-.791-.088-.472-.28-.617.842-.078.404-.71.36.027.774-.532-.229-.095-.338-.322-.182-.737-.303.056-.35-.236-.223-.329.247-.837-.056.042-.05-.94-.41-.16.129-.645.017-.507.666-.606-.033-.696-.408-.392.686-.683.365-.764 1.13-.203.049-.262-.286-.31.482-.904-.115-.045-.103-.81.723-1.7.977.012-.57-.178-1.272-.449-.706-.01.193-.198-.022-.412.408.002.38-.184.077-.404.077-.237-.287-.573.154-.347-.19-.317.27-.103.402.812.701-1.7.848-.358-.024-.375-.328-.223-.349.058-1.03-.652.008-.81.63-.244-.822.107-.167-.25-.299-.613-.57-.386-.751-.609-.221-1.495.4-.924-.354-.243-.755-.844-.091-.412-.132-.351.243-.068.615-.415.476-1.224.352-.372-.24-2.05-1.36-.09.306-.304.112.114.175-.313.273-.104.61.16.985.374.486-.105.4.076.552-.624.568-.099.405.183.805-.01.213-.053.068 1.129 2.216-.158.106-.346.726.362.177-.149.808.166.602.417.7-.56 1.06-.073.067-.935.902-.319.567-.117.854-.263.273.052 1.04.758 1.933-.273.575.22.296.315.287-.163 1.245.18 1.257.41.048.204 2.009.266 1.18.159 1.002.37.698.621.502.168.086-.283.45-.207.588.213.783-.229.356.509.922.134.968-.147.373-.364.177-.834.478-.777.102-.413-.09-.599-.188-.61-.083-.618.143-.319.93-.788.184-.314.229-.213.699.074.833-.32.309.169.369-.23.767-.298.275-.019.805-.669.406-.208.331-.014.4.347.686-.581.662-.422-.024-.379.418.333.477-.08.387-.295 1.042-.408-.036-.225.584-.16.112.08.357.12.37-.36 1.183-3.824-1.088-.12-.036-1.01-.333-1.149-1.678-.582.2-.158-.147-.238-.004-.32-.251-1.428-.008-.358-.19-.61.005-.093.183.516 1.017.046.557-.505.311-.608.136-.377-.153-.341.234-.766.756-1.09.063-.793.335-.417-.04-.37.174-.167.577-.325.219-.576-.038-.314.227-.405 1.099-.057 1.188-.262.007-.697.726-1.06-.152-.827.219-.188.104-.03.421-.773.065-.12-.152-.74-.298-.896.49-.614-.073-1.416-.347-.35-.242-.392.172-.66-.077-.39.042-.179.341-.65.401-.098-.054-2.11.56-.882.948-.418-.019-.125-.166.01-.823-.167-.38-.016-.008-1.63 1.685-.966-.123-.325.169-.18.116-.193.812-1.26.062-.628 1.097.513.665-.02.844-.049.2-.673.484.086 1-.193.08.349.298-.298 1.43.28.54-.07.412-1.89.516-.396.18-.076 1.47-.458.425-.846-.144-.142-.163.172-.801-.108-.185-.43.06-.771.246-1.15.818-.72-.422.233-.543-.15-.143-.834.055-.74-.298-.044.024-.1 1.052-.543.916-.114 1.25-1.667.398-.473-.439-.434.027-.744.374-.632-.137-.405-.49-.124-.621-.73.68-.392.145-.365.938.477.657-.317.735.906.536-.04.205-1.225.014-.314-.253-1.152.796-1.451 1.222-.947.245-.087.34.282.313.982.356.83 1.263.263 1.054v.433l-.5.837.067.13-.091.22-.387-.182-.423.069-.41.13-.152.376 1.79.668.507.34 1.44.433.319.282 1.195.273.13-.165-.29-.549.054-.2.543-.326.841-.126 1.39.53.473.442.392.743 1.424.98.35.154 1.027-.295.892-.888.841-.173.292-.54.982-.402.234-.582.486-.097-.017-.904.342.516.213-.014 1.128-.605 1.664-.387 1.288.06 1.17-.515.33-.091.044.88.426-.39.193-.506.38.068-.002 1.042-.006.79-.742-.323-.593-.11-.144.142-.467.391-3.006.498-1.656.406-.097.189.024 1.473-.508.355.934 1.45.063.85-.35 1.805-.215.35-.273.32-.837-.132-.997.292-.288.54-.626.589.093.177 1.195.459 1.5.166 1.122.575 1.276.142.628-.115.148.347 2.005.737.86 1.224.552.33.69.512.969 1.906-.644.556-1.356.62-.692 1.773-.025.823-.53.931-.622.59.064.406-.353-.145-1.178 1.222-.467.933.378.16-.437.442-1.438.247.34 1.855.189 2.351.758.733 2.751 1.947 3.156 3.323.216 1.046.372.539.385.012.6-.003.953 1.367 1.018 1.841.95.83.21.597.612.57.352 1.441 1.225 4.052.248 1.44.529.323.312-.264.408-.055.535.325.376.506.214.34 1.331.959.412.016.32.547 2.424 1.252-.106.401 1.14.53 2.51.441.57.084.316-.207 1.04.235.551.342.987 1.68.422 1.44.258.322 1.055.105.766-.34 1 .35 1.054-.138.977.28-.965-.41-.137-.182.87.147.573.293.736.778 1.032 2.292.802.226.178-.24-.81-.384-.342-1.431.388-.063.507.702 2.09 2.089.722.284z"/></defs><g><g transform="translate(-107 -201)"><use fill="#ed5485" xlink:href="#qzxca"/><use fill="#fff" fill-opacity="0" stroke="#bcbcbc" stroke-miterlimit="50" stroke-width=".75" xlink:href="#qzxca"/></g></g></svg>