<svg xmlns="http://www.w3.org/2000/svg" width="20" height="20" viewBox="0 0 20 20">
  <g id="calendar-1" transform="translate(0 0)">
    <g id="Frame_-_24px">
      <rect id="Rectangle_1555" data-name="Rectangle 1555" width="20" height="20" fill="none"/>
    </g>
    <g id="Line_Icons" transform="translate(0 0.035)">
      <g id="Group_696" data-name="Group 696">
        <path id="Path_962" data-name="Path 962" d="M19.182,2.824H16.455V1H14.636V6.472h1.818V4.648h2.727v13.68H2.818V4.648H4.636V2.824H2.818A1.821,1.821,0,0,0,1,4.648v13.68a1.822,1.822,0,0,0,1.818,1.824H19.182A1.822,1.822,0,0,0,21,18.328V4.648A1.821,1.821,0,0,0,19.182,2.824Z" transform="translate(-1 -1)" fill="#b4aeb0"/>
        <path id="Path_963" data-name="Path 963" d="M7.7,4.392h5.935V2.7H7.7V1H6V6.087H7.7Z" transform="translate(-1.243 -1)" fill="#b4aeb0"/>
        <rect id="Rectangle_1556" data-name="Rectangle 1556" width="3.392" height="3.392" transform="translate(3.691 7.417)" fill="#b4aeb0"/>
        <rect id="Rectangle_1557" data-name="Rectangle 1557" width="3.392" height="3.392" transform="translate(8.304 7.417)" fill="#b4aeb0"/>
        <rect id="Rectangle_1558" data-name="Rectangle 1558" width="3.392" height="3.392" transform="translate(12.918 7.417)" fill="#b4aeb0"/>
        <rect id="Rectangle_1559" data-name="Rectangle 1559" width="3.392" height="3.392" transform="translate(3.691 12.052)" fill="#b4aeb0"/>
        <rect id="Rectangle_1560" data-name="Rectangle 1560" width="3.392" height="3.392" transform="translate(8.304 12.052)" fill="#b4aeb0"/>
      </g>
    </g>
  </g>
</svg>
