<svg id="network-global" xmlns="http://www.w3.org/2000/svg" width="20" height="20" viewBox="0 0 20 20">
  <g id="Frame_-_24px">
    <rect id="Rectangle_1553" data-name="Rectangle 1553" width="20" height="20" fill="none"/>
  </g>
  <g id="Line_Icons">
    <path id="Path_959" data-name="Path 959" d="M10,0A10,10,0,1,0,20,10,10.012,10.012,0,0,0,10,0Zm8.3,10.678L16.622,10.4a2.484,2.484,0,0,0-.569-1.188l1.521-2.663A8.249,8.249,0,0,1,18.333,10C18.333,10.229,18.317,10.454,18.3,10.678ZM16.588,4.917,14.61,8.378a2.507,2.507,0,0,0-.443-.045,2.46,2.46,0,0,0-1.072.251L11.417,6.906a2.422,2.422,0,0,0,0-2.143l2.239-2.24A8.381,8.381,0,0,1,16.588,4.917ZM11.922,1.9,10.238,3.583a2.466,2.466,0,0,0-3.1.8L4.6,3.663A8.237,8.237,0,0,1,11.922,1.9Zm-8.6,3.133,3.357.958a2.477,2.477,0,0,0,3.556,2.094l1.678,1.678a2.473,2.473,0,0,0-.245,1.024L8.629,11.8a2.454,2.454,0,0,0-2.859-.8L2.3,6.958l-.073.062A8.359,8.359,0,0,1,3.326,5.032ZM1.667,10a8.166,8.166,0,0,1,.085-1.121l2.756,3.215A2.454,2.454,0,0,0,5.021,15.2l-.444,1.112A8.309,8.309,0,0,1,1.667,10ZM5.98,17.3l.588-1.472c.033,0,.064.01.1.01a2.5,2.5,0,0,0,2.5-2.453L12.2,12.367a2.5,2.5,0,0,0,.875.708l-.54,4.859A8.291,8.291,0,0,1,5.98,17.3Zm8.327-.173.428-3.858a2.493,2.493,0,0,0,1.608-1.222L18,12.318A8.362,8.362,0,0,1,14.307,17.122Z" fill="#b4aeb0"/>
  </g>
</svg>
