<svg xmlns="http://www.w3.org/2000/svg" width="30" height="27.5" viewBox="0 0 30 27.5">
  <g id="Category_Icon_-_Touristic_Sites_" data-name="Category Icon - Touristic Sites " transform="translate(-32 -57.534)">
    <path id="Category_Icon_-_Touristic_Sites_2" data-name="Category Icon - Touristic Sites " d="M46,37.893v.982a.5.5,0,0,1-.5.491H44V40.1a.743.743,0,0,1-.75.737H18.75A.743.743,0,0,1,18,40.1v-.737H16.5a.5.5,0,0,1-.5-.491v-.982a.491.491,0,0,1,.309-.454l14.5-5.4a.508.508,0,0,1,.382,0l14.5,5.4A.491.491,0,0,1,46,37.893ZM44.5,56.553h-27A1.487,1.487,0,0,0,16,58.027v.982a.5.5,0,0,0,.5.491h29a.5.5,0,0,0,.5-.491v-.982A1.487,1.487,0,0,0,44.5,56.553ZM21,41.821V53.607H18.75a.743.743,0,0,0-.75.737v1.228H44V54.343a.743.743,0,0,0-.75-.737H41V41.821H37V53.607H33V41.821H29V53.607H25V41.821Z" transform="translate(16 25.534)" fill="#fff"/>
  </g>
</svg>
