<svg xmlns="http://www.w3.org/2000/svg" width="32" height="32" viewBox="0 0 32 32">
  <g id="Category_Icon_-_Sports" data-name="Category Icon - Sports" transform="translate(-304 -56)">
    <path id="Category_Icon_-_Sports-2" data-name="Category Icon - Sports" d="M40,24A16,16,0,1,1,24,8,16,16,0,0,1,40,24Zm-3.1,0v-.018l-1.682,1.467-4.044-3.774,1.062-5.442,2.213.2a12.93,12.93,0,0,0-6.5-4.719l.881,2.061L24,16.452l-4.836-2.679.881-2.061a12.932,12.932,0,0,0-6.5,4.719l2.23-.2,1.045,5.442-4.044,3.774L11.1,23.982V24a12.807,12.807,0,0,0,2.482,7.612l.5-2.187,5.493.674,2.342,5.021-1.929,1.147a13.021,13.021,0,0,0,8.037,0L26.089,35.12,28.431,30.1l5.493-.674.5,2.187A12.807,12.807,0,0,0,36.9,24ZM20.9,28.488,18.968,22.6,24,18.95,29.032,22.6l-1.911,5.891Z" transform="translate(296 48)" fill="#fff"/>
  </g>
</svg>
