<svg xmlns="http://www.w3.org/2000/svg" width="32" height="32" viewBox="0 0 32 32">
  <g id="Category_Icon_-_Mobility" data-name="Category Icon - Mobility" transform="translate(-224 -56)">
    <path id="Category_Icon_-_Mobility-2" data-name="Category Icon - Mobility" d="M31.006,24.1,31.9,25.9a1,1,0,0,1-.451,1.34l-4.092,2.055a2,2,0,0,1-2.7-.941L20.73,20H12a2,2,0,0,1-1.98-1.717C7.9,3.457,8.024,4.378,8,4a4,4,0,1,1,4.586,3.957L12.877,10H21a1,1,0,0,1,1,1v2a1,1,0,0,1-1,1H13.449l.286,2H22a2,2,0,0,1,1.81,1.149L27.4,24.8l2.261-1.147a1,1,0,0,1,1.34.451ZM19.46,22H17.928A7,7,0,1,1,7.52,14.928l-.593-4.146A11,11,0,1,0,21.069,25.426Z" transform="translate(224 56)" fill="#fff"/>
  </g>
</svg>
