<svg xmlns="http://www.w3.org/2000/svg" width="560.243" height="368.307" viewBox="0 0 560.243 368.307">
  <path id="Path_1170" data-name="Path 1170" d="M544.92,374.478q-2.623,2.306-5.363,4.48c-.307.249-.624.487-.936.741a188.314,188.314,0,0,1-20.476,13.831l-1.331.775c-.322.2-.639.375-.975.556-7.439,4.3-15.157,8.249-22.967,11.993l-.083.044-.59.278q-9.448,4.529-19.179,8.668l-.156.059q-4.388,1.848-8.775,3.6c-1.194.487-2.394.941-3.593,1.4-2.257.863-4.519,1.711-6.8,2.525l-.283.107-.488.171-.609.224q-8.926,3.188-18.092,5.889l-.107.029q-6.391,1.862-12.866,3.447l-.59.146c-6.338,1.531-12.778,2.847-19.257,3.9l-1.492.239q-7.108,1.116-14.313,1.823c-27,2.608-54.329.488-81.166-3.149C250.242,428.9,196.766,415.123,148,393.521q-14.04-6.216-27.535-13.309c-.073-.039-.137-.078-.21-.112q-8.078-4.246-15.937-8.848c-1.536-.887-3.062-1.794-4.578-2.706q-2.8-1.687-5.572-3.413-3.656-2.282-7.313-4.675l-1.141-.76-.439-.3c-.619-.414-1.229-.829-1.843-1.248-22.913-15.6-43.345-34.506-53-58.165-11.154-27.3-4.017-61.914,23.61-78.051,9.5-5.558,20.534-8.575,31.688-11.067l1.141-.254c1.887-.414,3.773-.814,5.65-1.214,6.577-1.394,13.187-2.779,19.735-4.324h0c3.413-.8,6.791-1.648,10.15-2.559l1.375-.38a164.341,164.341,0,0,0,23.7-8.346h.049q1.236-.548,2.438-1.136c.517-.244,1.034-.488,1.55-.756,8.288-4.124,17.063-9.843,23.815-16.658.541-.546,1.068-1.1,1.58-1.658.395-.434.785-.873,1.16-1.311,4.734-5.519,8.01-11.647,8.634-18.15h0a23.4,23.4,0,0,0-.293-6.547c-.765-4.09-1.506-8.093-2.052-12-1.019-7.337-1.365-14.352.049-21.114h0A39.744,39.744,0,0,1,195.333,94.5q1.409-1.463,3.037-2.925a64,64,0,0,1,16.883-10.667q1.141-.488,2.3-.975c17.1-6.923,37.651-8.366,56.849-7.41a310.124,310.124,0,0,1,53.266,7.41c1.389.312,2.779.639,4.159.975A369.229,369.229,0,0,1,375.7,94.474c37.236,14.006,72.381,33.453,105.215,54.914l.975.634q2.057,1.341,4.09,2.691,3.934,2.608,7.8,5.251l1.74,1.185q1.287.878,2.559,1.76l2.613,1.809h0a2.869,2.869,0,0,1,.351.249l2.223,1.541c1.287.9,2.564,1.8,3.846,2.706h0l2.75,1.95c.57.409,1.146.814,1.716,1.229l2.925,2.135.653.488c.137.1.273.2.4.3l.083.054c7.927,5.816,15.664,11.847,22.913,18.238l.936.829.1.088c.79.7,1.58,1.414,2.355,2.13a158.719,158.719,0,0,1,24.883,28.12C598.673,270.063,589.221,335.541,544.92,374.478Z" transform="translate(-25.39 -72.257)" fill="#ed5485" opacity="0.1"/>
</svg>
