<svg xmlns="http://www.w3.org/2000/svg" xmlns:xlink="http://www.w3.org/1999/xlink" width="175" height="100" viewBox="0 0 175 100"><defs><path id="ke3ea" d="M89.46 184.736l-.123.237-.16-.053-.145-.885.592.156.034-.236-.558-.187.044-.195.473-.02.222-.295.425.005-.055.324-.326-.07-.052.513.05.211-.125.18.033.434-.244.127zm-24.374 2.62l.03-.419.424-.05.19-.112.215.023.082.192-.09.192-.275.183-.322-.077-.169.26zm-17.18 3.452l-.447-.022-.17-.14-.207.038-.153.158-.217.005-.415-.146-.096-.057-.052-.094.031-.1.672-.378.554.028.31.31.399.164.088.308-.126.174zm-46.904 18.41l.285-.312.56-.345.045-.198-.154-.156-.207-.064-.11.022-1.064.354-.225.01-.105-.029-.027-.087.3-.456.902-.439.226-.36.53-.179.44.067.207-.081.16-.153.036-.103-.111-.172.096-.057.313.098.193.262.326.01-.12.604.297.145.44.018.094.057.014.105-.143.158-.436.044-.445.477-.865.045-.378.522-.424.112-.128.177zm6.354 2.83l-.117-.395.2-.23.331.395-.234.336zm4.748 21.843l-.263-.406-.32-.097-.102.141-.162-.17.123-.21.206.137.192.006.165.132.146-.06.058.449.321.055-.188.042zm59.626 24.814l-.217-.038-.248-.206-.356.253-.534.142h-.112l-.45-.313-.426-.123-.117-.176-.305-.12-.528-.394-.282-.335-.01-.307.52-.167.332-.001 1.882.574.655.046.656.577-.225.815zm25.794 2.712l-.064-.307.255-.165-.104-.274.522-.401.083-.48.096.175.211.25.011.21-.414.355-.5.69zm-2.08.634l.257-1.386.181-.283-.129-.324.313.17.327-.512-.07.787.481.15.186.213-.847-.068-.099.046-.075.08-.05.095-.163.737.183.416-.338.012.01.33-.084.071zm15.412 7.255l-.152-.622.324-.784-.449-1.07.405-.363 1.11.664.88-.562.85.114.106-.164-.766-.075-.118-.157-1.06-.782-1.386-.378-.66-.47h-.825l-.373.194-.32.545-.215.041-.843-.24h-.876l-1.061.724-.22-.001-.208-.36-.263-.304-.977-.198-.67 1.504-1.368-.607-.64-.09-.966.451-1.276.208-.62.588-.391-.184-.422.094-1.357-.688-.219-1.238-.218-.022-.498-.697-.957-.499-.343.268-.206-.227.613-.33-.888.122-.296-.434.434-.017-.244-.538.643-.304.147.388.676-.447.09.604.295-.291-.102.761.587-.313-.118.702.34.135.159-.121-.032-.469.41.227.559-.362-.013.693.48-.214-.304-.9.645.054.1.801.292.261-.07-.597.531-.218.374.28-.083.457 1.096.177.543-.412.104.148.451-.252-.083-.343.107-.703.502-.854-.152-.785.095-.501-.186-.384-.612-.162.195.357-1.931-1.207.069-.286 1.63.639-.27-.793-.2.454-.503-1.31-.188.642-.688-.116.155.38-.187.381-.4.153-.826-.216-.794.296-1.22-.359-.31.269.353-.031.05.292-.492.42.417.316-.182.359-1.054-.496.01 1.411-.122.095-.516-.312-.313-.497-.346.537-.32-.389.438-.344-.113-.533-.4.67-.107-.834-.206 1.283-.66-1.418.137-.72.187-.344.344.084-.32-.235-.564.134-.185-.546.138-.141-.382-.125.05-.396-.332-.507-.157-.31-.189.27.463.604-.047.715.376-.027.34 1.213-.715.49.733.506-.595.57.916.782.878 1.235-.96-.044-.33-.53-.431.615-.279-1.05-.688-.482.034-.21-.269-.27.109 1.026-.368.198-.31-.26-.574-1.168-.043.008-.185.068.267 1.388-.821-1.22-.002.527-.429.05-.12.533-.426-.253-1.367.516-.297-.83.53.102-.465-.36-1.062-.977.014 1.451.57-.129-.575.95-.171 1.866.256 1.013.329.25-.052.415.115.41.918.897.309.567-.194.034-1.022-.327-.639.046-.445-.47-.39-1.2-.074-1.028-.23-.349.56-.285.224-.347.23-.578-.15-.813-.091-1.29-.74-1.563-1.612-1.052-.56-1.15.236-.351-.135-.815.076-.203-.07-.194.568-.587.334-.24.838.03.253-.33.373-.13-.006-.206-.733-.151-.338.053-.798.33-.838-.358.678.752-.604.744.108 1.044-.094.45-2.655-2.188-1.394-.625-1.505-.198-.426.483-.194-.242.342-.51.397.147.48-.102.263-.164.746.501.748.344.395-.05-.304-.762-.79-.17-.245-.247-1.189-.055-.54.275-.248-.298.713-.416-.219-.55.106-.593.578.332-.053-.395.535.042.212-.591.365-.233.45-1.337.352.206.198-.736-.427-.377.06-.403.67-.195-.801.113-.114.555.44.394-.087.35-.44-.138-.122.48-.742.627-.308-.698.177 1.195-.912.315-.407-1.22-.309-.042.077-.404-.336-.26-.919-1.913.198-.614-.12-.425-.034-.333-.15.376.193.363-.115.368-.562.109.417.086.574 1.098-.162.32.348.114.217.463-.06.232.362.677.296.055.264.912-.274.754-.45.363-.092.616-.543.637-.38.182-.85-.05-.176.12-.562-.192-.731.41-.41-.062-1.797-2.026-.083-.41-.23-.606-.804-1.015-.132-1.036.186-.385.357.078-.46-.255.433-.84-.3-.025.127-.302-.522-.306.028-.36-.217-.137.007-.73.615-.631.015-.216-.297-.478-.41-.024-.084-.563-.113.55.498.295.213.524-.537.47-.105.867.217.043.074.46.456.3-.21.265.33.116-.37.729.109.232-.229.667.125.345-.279.423-1.228-.321-1.843-.1-.222.028-1.312-.381.326-.946-.524.756-.66-.11-.38.316-1.864-1.333-.027-.305.625-.615.303.225-.001-.527 1.21-.355.646.132.255.013.423-.474-.547.335-.86-.166-.607.235-.275.101-.008-.59-.418.882-1.194.869-.396-.956-.058-.658-.306-.402.199-.495-.162-.108.099-.203-.293.233.2.094-.352.394.494.564.05.481-.46.087.449.12.325 1.048-.951.536-1.065-.128-.563.219-.327-.065-.151-.315-1.06-.133-.604.186-.21-.604-1.793-1.894-.06-.41.3-.298.081-.423.503-.41-.913.55-.41-.103-.13-.17.33-.251-.039-.206-.277-.32-.607-.207-.269-.57-.343-.258-.253-.551.088-.63-.355.554-.779.025-.176-.805-.17.857-.415-.185.234.45.499-.059-.678.486.335 1.29.308.415-2.77.463-1.898-.895 1.603.536-1.043-.8.226-.314-.341.255-.247-.45.135.595-.359-.019-.256.23-.355-.048-.057-.53-.387-.015-.286-.417.17-.293.373.114-.707-.392-.112-.266.386-.317-.502.236-.566-.414-.085-.762.192-.753.304.008.054-.296.528-.013.36-.38.044-.28.423-.022.775.337.272.152.156-.01-1.059-.503.458-.668-.533.59-.53-.011-.006-.437.473-.172.126-.602-.083-.527-.65-.362-.197-.416-.047.443.62.54-.294.26-.365-.093.248.112.043.464-.423.125.413.138v.892l-.278.33-.577.052.006.275-.352-.033-.302.953.082.809-.834.102-.415-.689.247.766.657.162.568-.206.742.69-.008.378.387.315.024.654-.456-.201-1.122.622-.467.32-.201.566-.13.033.13-1.036-.235-1.116-.49-.352-.622 1.187-.611-.459.843.958.43.887.952.258-.192 1.236-.346.045.065.372-.832.702-.683-.363-.341-.679-.142.12.305.889-.597.163-1.646.187-.572-.132.335-.308-.022-.196-.621.504-.568-.492-1.06.175-1.905-.017-.082-.825-.293-.284.016-.214 1.265-.658.088-1.117-.21-.85-.297-.977.1-.59.75-.664-1.133.417-.305-.752-1.057-1.96-.5-.665-.41-.74-1.748-1.535-.423.016-1.136-.974-1.525-.582.215-1.46 1.7-.164-.025-.091-1.338-.048-.195.08-.252.147-.315-.036.255.092-.091 1.174-.238.325-.273-.077-.705.71-.974-.4-.355-.51-.212.015-.806-.186-.453-.68-.86.413-.49-.21-1.338-.043-1.244-.497-.596-.326 1.31-.225.153-.154-.326-.738-.019-.21.05-.183 1.77.26.154-.644 1.471.19.142-.198.303.19 1.608-.695.618-.117.829.224.58-.62 1.277-.068.644.129.898-.603.426.043 1.077-.109.713-.481.876.08.628-.187.667-.151.896.687.495 1.139-.143-1.04.26-.038.846.522.408-.16-.04-.187.57-.766.006-1.015.609-.536-.101-.813-.036-.356-.098-.179-.8-.182-.085-.397.187-.555-.181-.579-.338-.704-.368-.156-.14-.362-.2-.01-.165.106-.299-.242-1.477.033-.379-.683-1.172-.344-.791-.328-.436.029-.302-.307-.841-.256-1.31.133-.194.106-.182.374.176.39-.582.63-.49 1.195-.633.597-.16.622-.414.123-.36-.49.319-.301.052-1.083-.497-1.92-.389-.22 1.225-.4-.007-.527-.573-.561-1.008.391-.639-.116-.676-.426-.497.331.278-1.196-.635-.31.863-.052.464-.373.305.698.707-.15.43-.46-.04-.34-.464-1.85.944-.909.629-.2.328-.09-.1.36-.32.564-.224 1.046-.339.273.156.624.703.638.492-.515.652-1.172.435.088-.764.912.596.885 1.258-.361.53-.369 1.53.092.548.895 1.084.091.725-.157.614-.52.608.042 1.332-.708 1.838.215-.206.618-.328-.327-.423.036-.012.63-.13.239.307-.07 1.054.718-.547.277.646-.016.433.376.003.247.55-.14.461-.425.265.86.267.298-.159-.48 2.218.12.812.51 1.074-.463-.214 1.576.36-1.35.054-.445.484-.483-1.595.867-.748-.29.058-.203-.228.104-2.09-.157-.443-.645-.93.423-.482-.74-.886-.504-.406-.221.13-.196.558.134 1.42-.838.22.294.947-.412.291.201.613-.281-.537-.09-1.682-.04-.193-.547.744-.396-.963.18-.156.684-.452-.587-.54.063-.49-.342 1.273-.591.312-.247-.414.025-.728.439-.428.05-.436.52-.698-.366-1.144.218.716-.834.72-.165-.615-.272 1.666-.64-.574-.271.862-.234.413-.293-.317.005-1.02.25-.385-.128-.173.398.31.3-1.351.207.532-1.303-.222.254-.97.892-.307-.02.527-.802-1.095.711.052.617-.287.552-1.832.096.626-.841.45-.225-.415-.02-1.89 1.026-.316-.069.793-2.155.735-.48.568-.744 1.532-.778.275-.367.195-.107.327.033 1.447-.824 1.828-1.67-.164-.044-.189.255-1.476 1.16-.612.156-.802.572-.818.1-.166.373-.207.039-.194.152-.368.005-.71.436-.7-.412-.443.052-.157.817-.832-.179-.591.27-.444-.02-1.025.406-1.15.985-.839-.154-.715.666-1.523.71-.607.031-.206.044-.472-.406-.605-.116-1.11-.568-.82.268-.054.818-.533.385-1.096-.023-1.086.209-.357-.218.065-.206-.205-.039.288-.72-.522-.634.45-.203.64.113.222-.034-.123-.153.305-.253-.388.18-1.355.16.06-.44.469.26.576-.424.023-.452-.514-.566-.13-1.16-.377-.032-.34-.511.369-1.188.365-.513-.19-.087.04-.197.606-1.042.166-.182.173.04-.105.503.326-.597 1.406-.292-.274-.152-.223.144-1.131.222-.63-.455.224-.11-.253-.324-.192-.794.234-.946.22-.148.123-.166.136-.62.37-.228.117-.621.788-.74.4-.15.564.275.115.214.104-1.267.635-.081.227.256.494-.389.256.33.112-.147.56-.046.76-.361 1.209.372.327.737-.133.391.38-.198.283.083-.215-.297.302.006.873.074.627.176.466.436.049-.308.714.287.26.144-.03-.372-.207.063-1.775-.62-1.285-.045-.394-.727-.667-.141.219-.555-.03-1.116.39-.171.474.355-.405.479 1.384-.305.213.272.456-.257.71.335.242.02.141.4.63-.012.702.739.402.12-.97-1.025-.754.027-.043-.366-.791-.329-.903-.242.359-.41-.618.042.111-.886 1 .049-.084-.754.55.463.702-.25.141.614 1.955-.276.932-.88.256.427.108-.352 1.444.237-1.326-.682-.18-.354 1.516-.169 2.012-1.231.873.066-.035.417.288.138.266-.395.239.3.66.262-.36.716-.627.34.394.165-.34.166.024.18.19.155.406.13.332-.197-.281-.236.973-.265.095-.272 1.261-.052.867-.385-.304.39.508.052 1.053-.187-.249-.258-.907-.106.402-.564 1.057-1.065 1.04-.304 1.231-.333.86.028.652.032.102.407.09-.198.437-.047.895.945.145.392.058-.169-.418-.764.198-.134.936.036.12-.065-.853-.07.099-.82.602-.177.172-.386.843-.116.347-.76.156-.03.12.874.567-.994.928.412-.376 1.079.016.416.398.505-.234.571.68.463.032.847-.204.604.276.554-.135 1.244.79 1.193-.286-.792.122-.173-.203-.077-.288-.558.172-1.032-.174-.574.355-.24.57-.196.306-.943 1.266.155.063.28-.667.241.076.39.258.6.358.276.348.18.805.443.137.19.003.647-.182.327.126.193-.467.34.564-.206.318.219-.403-.643.477-.716 1.53-.17-1.515-.06-.646-2.56.318-.096.085.69.294.126-.272-1.679.822-1.511.651.722-.26-1.161.647.516.362-.095.309.617.528.062.697-.44.638.074 1.09.133.86.956.517-.116.424.284.965-.505.578.089-.535.755.67.465-.624.464-.226.428.311-.371.664-.389-.072-.641.943-.14.24.948 1.234-.107.28-.244.24-.47-.168-.286-.22-.027-.239-.327.013-1.691.698-.486.414.082.083-.106.178-1.002-.666-.832-.655.066-.184-.8.278-1.016.439-.453.563.252.948-.822-.635-.384.33-.778.214-.005.552.32-.162-.685.89-.527.125.07-.368.292.056.486.55-.343.221.299.028-.477.416-.246.92 1.318 1.203-.266-.55 1.126.048.205 2.16-.317.033-.598.928-.33.1-.167.395.07.584-.51.207.02.64-.53 1.037.256.651-.51.431.453.22-.024.839-1.431.593-.568.414.061.42.98-.356.983.492-.256.216.731-.312.913-1.138 1.291.372-.143.287.494-.068-.806 1.074-1.283-.102-.376.393-.754.464-.37.214.073.224-.598.654-.064 1.123-.723 1.112-.211 1.114-.95-1.054 1.046.547-.041.394.632-.41-.333-.366.198.2.107.22.57-.653 1.036 1.177-.073-1.145 1.543-.1 1.304-.636.582-.38.21.186.787.214-.311.561-.107.117-.178-.118-.62.329-.265.383-1.626.814-.674.795.266 1.058-.242.393.146-.022.603.262.341-.088.193-1.543.755.09.255 1.389.12-.735.267.483.576 1.086.273 1.322-.015.342-.573-.015.394.309.517.585.087-.546.885.373.307-.587.575.14.394.593.245.3.563 1.377.621.404 1.397.585.115.368-.165.324.475.67.722.206-.024.15.755.318 1.551.105.376-.35.76.218.349.423.082.708.448.426-.031.395.905 2.365.965-.313.531.219.588-.12.175.491.046-.365.354.33.378.92 1.477.352.265.172.04-.396-.422.419-.713-.293-1.458.511-.15.507.648.701.093.456-.14-.061-.696.15-.13 1.004-.754 1.205-1.435 1.115-1.29.88-.09 1.212-.539 1.182-1.01.157-.7-.75-.149-.132-.389 2.08-.48.708.374.18.795.311-.232-.263-.266.807-.09.342-.506 1.617-.618.802-.694.135-.6.447-.363.262.466-.114.47.525.315.678-.044-1.07 1.527.156.217-.777.755-.52.475.56.07.158.301.371.09.456-.669.414-.127.176-.093-.026-.212 1.085-.901.698.048-.489.507.506.697-.058.561.686.284.22 1.052.478.075-.036 1.106.327-.096-.007-.203.54-.845-.021-.865.333.121-.055 1.433.264.266.559-.014.435-.639-.544-.575.815-1.175.206-.06.357.51.549.284-1.068-1.497.04-.205.588-.216.424.044.46-.375.9.44.392-.099.324-.23.837.117.184.106-.033.597.63.031.18.11-.04.204.136.322-.206.247.164.431.451-.063-.21.176.46.887.283-.051.153.303.305-.083.042.438-.8.376.299.32.198-.18.18.508.304.36-.218.216.366.055-.067.339.626-.018.072.636-.499.506-.607.193.584.008-.082.339.362.12-.294.23.006.763-.332-.069.049.115-.126.054-.033.24-.242-.053-.015.168.321-.014.071-.268.272-.009.192-.112.192-.014-.164-.14-.003-.686.568-.006-.152-.645.338-.255.4.593.544-.13-.302-.003-.348-.236.307-.946-.9.16.355-.8-.086-.401-.617-.049.247-.52-.696-1.166.281-.108.889.622.221-.023-.034-.169-.433-.407.235-.142-.052-.269-.47.202-.516-.324-.507.258-.171-.245.203-.563-.617.333.01-.406.375-.579-.462.057-.165-.387.18-.389-.325-.441-.407-.024-.011-.263.423-.118-.34-.413.049-.273.5-.031.948-.535.5-.834-.324-.547.587.035.478-.27.092.397.957-.244-.852-.254.124-.229.724-.043.127-.548.16.51.372.162.242-.263.18.274.372.027.483-.332.168-.14.648.1 1.208-.9-.133 1.062.45.875-1.057.76-.114.625-.255.814.567 1.16.494.498.999.396 1.283.236.934.159.035.061 4.184-.488 1.27-.26 2.786-.713.21.706.48.34.384.19.276.525-.13 1.009.597.108.283.733-.26.313-.248.757.558.596.084.594.104-.027.82 1.338.243 1.151.171-.083.469.295.359-.127.357.154.146-.138.525.289.244.307-.193.35.528.595 1.19.073.686.26.337-.144 1.19-.843-.081-.412.297-.566.187-.085.273.283.081-.587.28-.255.128.153.788-.16.517-.584.36.022.397-.924-.14-.569.981-.607.02.001.693.367 1.014-.088.059-.189.427.653.348.168.908-.083.2.354.68.401.568-.249.623.005.675.533 1.3.268.114.174-.313.274-.104.609.16.986.375.484-.105.401.075.551-.623.567-.099.407.182.805-.01.214-.054.067 1.13 2.216-.158.106-.346.727.362.176-.148.808.165.603.417.697-.562 1.063-.072.066-.933.903-.32.566-.117.854-.264.274.053 1.038.758 1.933-.273.576.218.297.317.285-.163 1.247.18 1.255.409.05.204 2.007.267 1.181.16 1 .368.7.622.503.167.086-.281.448-.208.589.214.783-.23.355.508.924.136.967-.147.371-.365.18-.835.476-.775.102-.414-.09-.598-.187-.61-.083-.62.143-.317.93-.788.182-.313.23-.214.7.074.834-.321.306.17.37-.232.767-.297.276-.019.803-.67.408-.207.33-.015.4.348.687-.58.66-.422-.021-.38.416.334.477-.08.387-.297 1.043-.406-.036-.226.583-.16.114.078.355.122.371-.36 1.183-3.825-1.088-.12-.037-1.008-.333-1.15-1.678-.583.2-.156-.145-.239-.005-.32-.252-1.429-.006-.357-.19-.609.003-.094.184.516 1.016.047.558-.505.312-.609.135-.377-.153-.341.233-.765.757-1.09.064-.794.334-.417-.041-.37.174-.166.578-.326.218-.577-.037-.313.226-.406 1.1-.055 1.187-.263.008-.696.727-1.06-.153-.828.219-.189.104-.03.421-.772.066-.12-.152-.74-.3-.895.491-.615-.074-1.416-.347-.35-.243-.394.174-.657-.079-.39.043-.18.342-.65.4-.098-.053-2.111.56-.88.948-.42-.02-.124-.164.01-.826-.169-.377-.014-.008-1.63 1.682-.965-.122-.326.17-.18.116-.192.812-1.26.061-.628 1.098.513.665-.022.844-.049.2-.673.484.088 1-.193.08.349.298-.3 1.43.281.54-.07.412-1.89.516-.396.178-.076 1.472-.458.425-.847-.145-.14-.161.17-.803-.107-.185-.43.06-.77.248-1.152.818-.72-.423.234-.543-.15-.143-.833.054-.742-.298-.043.024-.1 1.053-.543.916-.113 1.25-1.668.398-.473-.439-.434.027-.744.375-.632-.137-.405-.491-.124-.621-.731.68-.39.145-.365.938-.428-.057-.538.364zM91.5 273.645l-.11-.3-.634-.168-.463-.462-.303-.102-.044-.211.018-.102.087-.033.877.429.644.124.522-.099-.494.516.216.69zm2.895 2.654l-.092-.192-.045-.515.258.176.427-.013.286-.315.173.085-.035.52-.717.442zm-8.748 3.206l-.777-.388-.862.02-.57-.311-.42.026-.65-.508-.78.344-1.22-.056-1.057-1.014.464-.679-.686-.79-.366-1.007.053-.854.317-.272.13-.845.206-.07.415.48.6.163.031.42.14-.155.418-.003.477.376 1.018.257.42-.098.602 1.757 1.01.667.217-.022.693.484 1.09-.06.559.283-.728 1.525-.332.273-.197.092z"/></defs><g><g transform="translate(1 -181)"><use fill="#ed5485" xlink:href="#ke3ea"/><use fill="#fff" fill-opacity="0" stroke="#bcbcbc" stroke-miterlimit="50" stroke-width=".75" xlink:href="#ke3ea"/></g></g></svg>