<svg xmlns="http://www.w3.org/2000/svg" width="22.737" height="21.104" viewBox="0 0 22.737 21.104">
  <g id="PIX_CARDS_ICON" data-name="PIX CARDS ICON" transform="translate(-129 -550)">
    <path id="Path_950" data-name="Path 950" d="M119.914,59.76l-6.78-.01a1.245,1.245,0,0,0-1.263,1.243l-.021,12.615a1.258,1.258,0,0,0,1.255,1.253l6.78.01h.054a1.25,1.25,0,0,0,1.212-1.237l.021-12.626A1.253,1.253,0,0,0,119.914,59.76Zm.072,13.868c0,.041-.059.08-.1.074l-6.78-.01a.1.1,0,0,1-.095-.085l.023-12.615a.1.1,0,0,1,.095-.085h.005l6.78.018a.088.088,0,0,1,.1.08Z" transform="translate(30.565 490.892)" fill="#ffffff"/>
    <path id="Path_951" data-name="Path 951" d="M73.507,99.953a.573.573,0,0,0-.788.226l-1.009,1.848a.1.1,0,0,1-.123.036L60.794,95.522a.1.1,0,0,1-.018-.123L63,91.61a.581.581,0,0,0-.994-.6L59.782,94.8a1.234,1.234,0,0,0-.151.94,1.2,1.2,0,0,0,.56.778l10.793,6.541a1.23,1.23,0,0,0,.634.18,1.289,1.289,0,0,0,1.1-.626l1.024-1.866A.581.581,0,0,0,73.507,99.953Z" transform="translate(69.403 467.866)" fill="#ffffff"/>
    <path id="Path_952" data-name="Path 952" d="M80.366,73.361a.6.6,0,0,0,.506.288.616.616,0,0,0,.29-.08.586.586,0,0,0,.213-.8L75.034,61.86a.09.09,0,0,1,.041-.118l5.861-3.409a.577.577,0,0,0,.208-.793.571.571,0,0,0-.793-.208l-5.859,3.4a1.283,1.283,0,0,0-.585.762,1.238,1.238,0,0,0,.118.95Z" transform="translate(58.801 492.751)" fill="#ffffff"/>
  </g>
</svg>
