<svg xmlns="http://www.w3.org/2000/svg" width="46.155" height="42.894" viewBox="0 0 46.155 42.894">
  <g id="Group_363" data-name="Group 363" transform="translate(-1242.215 -756.641)">
    <path id="Path_232" data-name="Path 232" d="M1286.9,786.564a.2.2,0,0,1-.206.16l-14.39-.022c-.081,0-.2-.079-.2-.181l.05-26.769a.2.2,0,0,1,.2-.181h.009l14.387.037a.187.187,0,0,1,.206.167Z" fill="none" stroke="#103558" stroke-linecap="round" stroke-miterlimit="10" stroke-width="2.84"/>
    <path id="Path_233" data-name="Path 233" d="M1269.013,794.046l-2.144,3.92a.216.216,0,0,1-.26.076l-22.9-13.88a.2.2,0,0,1-.04-.26l4.711-8.041" fill="none" stroke="#103558" stroke-linecap="round" stroke-miterlimit="10" stroke-width="2.84"/>
    <path id="Path_234" data-name="Path 234" d="M1264.887,788.7l-13.454-23.16a.2.2,0,0,1,.088-.25l12.438-7.231" fill="none" stroke="#103558" stroke-linecap="round" stroke-miterlimit="10" stroke-width="2.84"/>
  </g>
</svg>
