<svg xmlns="http://www.w3.org/2000/svg" width="48.607" height="16.422" viewBox="0 0 48.607 16.422">
  <g id="Group_452" data-name="Group 452" transform="translate(-2266.331 -2519.644)">
    <path id="Path_337" data-name="Path 337" d="M2279.179,2521.776c-.014-.759-.418-1.46-1.194-1.46-.725,0-.93.717-.9,1.5A1.049,1.049,0,0,0,2279.179,2521.776Z" fill="#103558"/>
    <path id="Path_338" data-name="Path 338" d="M2273.91,2520.41a5.473,5.473,0,0,0-3.646-.726,5.412,5.412,0,0,0-2.176.665,4.167,4.167,0,0,0-1.4,1.138,1.589,1.589,0,0,0-.355.877c.019.11.117.155.3.139a1.235,1.235,0,0,0,.564-.217q.294-.192.666-.422a5.127,5.127,0,0,1,2.256-.733,3.234,3.234,0,0,1,2,.347,1.975,1.975,0,0,1,.916,1.441,2.618,2.618,0,0,1-.4,2.255,1.648,1.648,0,0,1-.654.451,6.6,6.6,0,0,1-.692.221c-.2.05-.354.1-.486.147-.328.074-.617.118-.865.151,0-.084.008-.168.013-.259q.07-1.44.042-2.343a8.053,8.053,0,0,0-.111-1.032q-.1-.579-.277-.563a.6.6,0,0,0-.314.119q-1,.725-1.392,4.321a13.8,13.8,0,0,0,.012,3.621,6.73,6.73,0,0,0,.244,1.057.45.45,0,0,0,.505.339q1.72-.156,1.575-1.033l-.314-2.794c1.37-.381,2.91-.48,4.08-1.384h0c.015-.011.029-.025.044-.036a3.262,3.262,0,0,0,.71-.745,2.349,2.349,0,0,0,.3-.5,3.51,3.51,0,0,0,.331-2.212A3.3,3.3,0,0,0,2273.91,2520.41Z" fill="#103558"/>
    <path id="Path_339" data-name="Path 339" d="M2284.9,2525.727c-.275.383-.783,1.058-1.493,1.936a16.849,16.849,0,0,0,1.812,1.818.966.966,0,0,1,.191,1.351,1.483,1.483,0,0,1-.54.356,2.65,2.65,0,0,1-.264.1c-1,.318-1.97-.7-2.729-1.918a8.892,8.892,0,0,1-2,1.65l0,0a3.887,3.887,0,0,1-1.16.424,4.118,4.118,0,0,1-1.586.052,1.8,1.8,0,0,1-1.5-1.9,11.375,11.375,0,0,1,.863-4.961l.038-.071h0c.207-.372.443-.56.707-.56q.437,0,.736.586a2.03,2.03,0,0,1,.262.886,7.07,7.07,0,0,1-.078,1.269v0l0,.015c-.032.251-.072.527-.122.834-.01.054-.019.1-.028.155-.19,1.563.056,1.937.38,2.039.28.087,1.477-.011,2.712-1.69a12.169,12.169,0,0,0-.753-1.226c-.382-.61-1.509-2.721-.174-2.81a1.121,1.121,0,0,1,1.009.521c.343.417.8,1.041,1.284,1.738l0-.005c1.586-2.617,2.352-1.909,2.352-1.909A1,1,0,0,1,2284.9,2525.727Z" fill="#103558"/>
    <path id="Path_340" data-name="Path 340" d="M2300.481,2521.776c-.014-.759-.419-1.46-1.2-1.46-.724,0-.929.717-.9,1.5A1.05,1.05,0,0,0,2300.481,2521.776Z" fill="#103558"/>
    <path id="Path_341" data-name="Path 341" d="M2287.542,2526.326c-.527,0-.777.381-.865.886a2.969,2.969,0,0,0-.037.61,1.263,1.263,0,0,0,.021.162.919.919,0,0,0,.547.714,1.036,1.036,0,0,0,1.528-.911C2288.722,2527.027,2288.318,2526.326,2287.542,2526.326Z" fill="#103558"/>
    <path id="Path_342" data-name="Path 342" d="M2297.619,2530a3.916,3.916,0,0,1-3.264,1.549c-1.631-.058-3.9-1.247-3.608-5.224s2.931-6.109,4.564-6.266,1.768.778,1.753,1.023-.719.21-1.508.692-2.284,1.868-2.317,4.906,1.948,4.241,4.38,1.576l.647-1.491-.2,2.307A2.577,2.577,0,0,1,2297.619,2530Z" fill="#103558"/>
    <path id="Path_343" data-name="Path 343" d="M2302.184,2524.331a6.558,6.558,0,0,1,.643-1.809h0a.9.9,0,0,1,.6-.5.552.552,0,0,1,.12-.038c.625-.1,1.311.48,1.1,1.079-.15.433-.274.855-.378,1.261l-.269,1.238a15.629,15.629,0,0,0-.251,3.022c.007.1.01.2.011.314.149,1.8,1.758.557,2.59-.766,1.089-1.731,2.931-1.5,1.4.294a13.709,13.709,0,0,1-1.532,1.795c-2.94,2.622-4.234.652-4.355-.388a8.461,8.461,0,0,1-.574.7,3.393,3.393,0,0,1-2.389.984,1.317,1.317,0,0,1-.557-.117c-2.126-.911-1.212-4.153-.99-5.474q.441-1.923,1.178-1.923.437,0,.735.586a2.03,2.03,0,0,1,.262.886,10.64,10.64,0,0,1-.2,2.12,9.268,9.268,0,0,0-.223,1.638.561.561,0,0,0,.19.436.645.645,0,0,0,.385.12,3.967,3.967,0,0,0,2.019-1.59,15.163,15.163,0,0,1,.237-2.573Z" fill="#103558"/>
    <path id="Path_344" data-name="Path 344" d="M2310.629,2530.373c-2.638,2.07-4.131.477-4.246-.512a16.279,16.279,0,0,1,.636-4.415c.212-.618.491-1.18.867-1.28s1.148.124.973,1.418c-.109.809-.389,2.152-.466,3.077-.047.555.206,2.478,1.974-.272.843-1.313.309-3.029.854-4.043.385-.717.916-.24,1.384.218a1.932,1.932,0,0,1,.375,1.7c-.074.567-.355,3.9-.6,5.29-.3,1.672-1.236,3.628-3.042,4.259s-3.246.022-3.595-1.108.679-2.6,3.752-2.8,5.429.233,5.444,1.222c.006.415-2.125-.081-5.1.167s-2.428,1.141-2.231,1.243,2.4,1.109,2.95-3.445l.076-.723Z" fill="#103558"/>
    <path id="Path_345" data-name="Path 345" d="M2303.156,2524.133c1.65-.154,2.9-.189,2.9.472,0,.408-.083.861-.5,1.015a13.463,13.463,0,0,1-3.656.195c-.755-.009-1.013-.229-.918-.652a1.255,1.255,0,0,1,.883-.836C2302.2,2524.258,2302.742,2524.171,2303.156,2524.133Z" fill="#103558"/>
  </g>
</svg>
