<svg xmlns="http://www.w3.org/2000/svg" width="14" height="18" viewBox="0 0 14 18">
  <g id="Group_717" data-name="Group 717" transform="translate(-6 -3)">
    <path id="Path_976" data-name="Path 976" d="M13,3H7A1,1,0,0,0,6,4V20a1,1,0,0,0,1,1h4a1,1,0,0,0,1-1V17h1A7,7,0,0,0,13,3Zm0,12H11a1,1,0,0,0-1,1v3H8V5h5a5,5,0,0,1,0,10Z" fill="#4a4b4d"/>
    <path id="Path_977" data-name="Path 977" d="M13,7H11a1,1,0,0,0-1,1v4a1,1,0,0,0,1,1h2a3,3,0,0,0,0-6Zm0,4H12V9h1a1,1,0,0,1,0,2Z" fill="#4a4b4d"/>
  </g>
</svg>
