<svg xmlns="http://www.w3.org/2000/svg" width="22.628" height="19" viewBox="0 0 22.628 19">
  <g id="Line_Icons" transform="translate(-0.686 -3.001)">
    <g id="Group_704" data-name="Group 704">
      <g id="Group_700" data-name="Group 700">
        <path id="Path_965" data-name="Path 965" d="M12,22a3,3,0,1,1,3-3A3,3,0,0,1,12,22Zm0-4a1,1,0,1,0,1,1A1,1,0,0,0,12,18Z" fill="#4a4b4d"/>
      </g>
      <g id="Group_701" data-name="Group 701">
        <path id="Path_966" data-name="Path 966" d="M16.242,14.759a6,6,0,0,0-8.484,0L6.344,13.345a8,8,0,0,1,11.312,0Z" fill="#4a4b4d"/>
      </g>
      <g id="Group_702" data-name="Group 702">
        <path id="Path_967" data-name="Path 967" d="M21.9,9.1a14,14,0,0,0-19.8,0L.686,7.687a16,16,0,0,1,22.628,0Z" fill="#4a4b4d"/>
      </g>
      <g id="Group_703" data-name="Group 703">
        <path id="Path_968" data-name="Path 968" d="M19.07,11.93a10.011,10.011,0,0,0-14.14,0L3.516,10.515a12.01,12.01,0,0,1,16.969,0Z" fill="#4a4b4d"/>
      </g>
    </g>
  </g>
</svg>
