<svg xmlns="http://www.w3.org/2000/svg" width="175.232" height="85.407"><g data-name="Group 2505"><g data-name="VECTOR PICTO"><g data-name="Path 3033" fill="none" stroke-miterlimit="10"><path d="M24.225 0C11.749-.033-.056 10.2 0 24.15a24.391 24.391 0 0 0 24.189 24.232 24.01 24.01 0 0 0 17.077-7.078l.015.015 17.051-17.052L42.697 8.63A24.737 24.737 0 0 0 24.225 0z"/><path d="M24.164 4c-5.273 0-10.51 2.22-14.366 6.093a19.92 19.92 0 0 0-4.24 6.258A19.516 19.516 0 0 0 4 24.134c.022 5.517 2.22 10.664 6.19 14.492a20.686 20.686 0 0 0 6.464 4.24 19.55 19.55 0 0 0 7.52 1.516h.012a20.047 20.047 0 0 0 14.252-5.907l2.827-2.826.014.015 11.397-11.397-12.808-12.809-.108-.108-.1-.116C35.79 6.72 30.016 4.016 24.215 4H24.164m0-4h.061c6.99.019 13.862 3.253 18.472 8.63l15.636 15.637-17.052 17.052-.015-.015c-4.293 4.292-10.25 7.073-17.077 7.078h-.02C11.659 48.382.056 38.122 0 24.15-.056 10.22 11.71 0 24.165 0z" fill="#fff"/></g><g data-name="Path 3034" fill="none" stroke-miterlimit="10"><path d="M98.603 56.05c0 1.531.021 3.062-.007 4.592a8.367 8.367 0 0 1-.676 3.384c-1.109 2.436-3.772 4.045-7.8 4.919a28.591 28.591 0 0 1-5.851.589c-4.212.03-2.425.045-6.637.046-2.1 0 1.794-.019-.3-.076a24.515 24.515 0 0 1-6.816-1.019c-2.9-.936-4.744-2.372-5.72-4.2a6.1 6.1 0 0 1-.766-2.684q-.1-2.863-.111-5.726a144.57 144.57 0 0 1 .068-4.928 6.976 6.976 0 0 1 .929-3.429c1.324-2.243 4-3.693 7.84-4.448a27.291 27.291 0 0 1 5.027-.5c3.922-.035 1.844-.052 5.767-.061 2.182 0-1.634.01.548.038a32.837 32.837 0 0 1 6.055.57c3.3.664 5.586 1.963 7.017 3.789a5.782 5.782 0 0 1 1.282 3c.112 1.112.126 2.229.154 3.344.024.933.005 1.867.005 2.8z"/><path d="M78.534 65.579c1.655-.001 2.03-.007 2.685-.016.535-.007 1.268-.017 3.02-.03 1.901-.012 3.547-.175 5.03-.497 2.716-.589 4.495-1.536 5.01-2.666.204-.45.302-1.006.318-1.801.018-1.027.014-2.046.01-3.125-.002-.465-.004-.93-.004-1.394v-2.553a328.286 328.286 0 0 1-.014-.573c-.02-.925-.041-1.798-.124-2.616-.027-.275-.178-.588-.45-.934-.863-1.102-2.43-1.887-4.658-2.335-1.513-.305-3.252-.466-5.317-.492a8.283 8.283 0 0 1-.699-.037c-1.93.005-2.253.012-2.733.023-.448.01-1.005.022-2.797.038a23.34 23.34 0 0 0-4.29.427c-2.669.524-4.504 1.432-5.167 2.555-.24.408-.357.876-.376 1.516-.05 1.71-.072 3.278-.066 4.79.009 1.86.045 3.747.109 5.613.009.267.108.58.295.93.503.94 1.654 1.705 3.42 2.275 1.533.493 3.397.764 5.698.827.269.008.462.015.609.023.169.01.333.027.491.052m-.99 4c-1.91 0 1.85-.02-.219-.076-2.385-.066-4.703-.338-6.816-1.02-2.905-.936-4.744-2.37-5.72-4.195-.468-.874-.736-1.772-.766-2.684a195.371 195.371 0 0 1-.111-5.726c-.007-1.642.019-3.286.068-4.928.035-1.166.274-2.32.929-3.43 1.324-2.242 4-3.692 7.84-4.447a27.292 27.292 0 0 1 5.027-.502c3.922-.035 1.844-.052 5.767-.062h.547c.805 0-1.919.014.001.039 2.061.026 4.094.175 6.055.57 3.302.663 5.586 1.962 7.017 3.788.748.953 1.177 1.96 1.282 3 .112 1.112.126 2.229.154 3.343.024.934.005 1.867.005 2.8h-.001c0 1.531.021 3.062-.007 4.593-.022 1.14-.171 2.274-.676 3.384-1.109 2.436-3.772 4.045-7.803 4.919-1.883.408-3.852.575-5.851.589-4.212.03-2.425.045-6.637.045h-.085z" fill="#fff"/></g><path data-name="Path 3035" d="M56.832 64.119l-2.6-3.179c3-3 9.2-10 9.2-19l4.016-1a30.709 30.709 0 0 1-10.616 23.179z" fill="#fff"/><path data-name="Path 3036" d="M95.019 40.94l4.016 1c0 9 6.2 16 9.2 19l-2.6 3.179A30.709 30.709 0 0 1 95.019 40.94z" fill="#fff"/><g data-name="Group 2358" fill="#fff"><path data-name="Path 3037" d="M91.932 65.901c-.034 2-.007 17.508-.007 19.506h-4.169c-.008-2.835.019-16.671.068-19.506z"/><path data-name="Path 3038" d="M74.6 65.901c-.035 2-.008 17.508-.008 19.506h-4.169c-.008-2.835.019-16.671.068-19.506z"/></g><g data-name="Group 2359" fill="none"><g data-name="Path 3039" stroke-miterlimit="10"><path d="M100.754 27.195c0 2.206.018 4.413-.006 6.619a19.858 19.858 0 0 1-.564 4.877 9.931 9.931 0 0 1-6.517 7.09 14.311 14.311 0 0 1-4.886.849q-5.275.063-10.553.066c-1.755 0-3.512-.028-5.265-.111a12.736 12.736 0 0 1-5.692-1.469 10.006 10.006 0 0 1-4.777-6.047 13.959 13.959 0 0 1-.64-3.869q-.08-4.125-.092-8.252-.009-3.552.057-7.1a16.013 16.013 0 0 1 .776-4.942 9.883 9.883 0 0 1 6.546-6.411 13.657 13.657 0 0 1 4.2-.723q4.912-.075 9.826-.089c1.823-.007 3.647.015 5.469.055a16.38 16.38 0 0 1 5.057.821 9.773 9.773 0 0 1 5.86 5.461 12.1 12.1 0 0 1 1.07 4.323c.094 1.6.106 3.213.129 4.82.02 1.345 0 2.69 0 4.036z"/><path d="M78.227 42.696c3.401-.001 6.936-.023 10.506-.066 1.35-.016 2.505-.21 3.532-.595 2.226-.833 3.475-2.179 4.051-4.364.281-1.065.414-2.268.432-3.9.017-1.518.013-3.075.01-4.58-.002-.666-.004-1.33-.004-1.996v-3.71c0-.09-.001-.18-.003-.269l-.007-.575c-.02-1.412-.038-2.744-.115-4.07a8.128 8.128 0 0 0-.718-2.9c-.778-1.71-1.9-2.771-3.532-3.337-1.082-.376-2.3-.567-3.832-.601a213.178 213.178 0 0 0-5.365-.054c-3.619.014-6.818.043-9.783.089a9.69 9.69 0 0 0-2.973.51c-2.118.72-3.366 1.928-4.046 3.918-.357 1.045-.536 2.226-.562 3.717a351.322 351.322 0 0 0-.056 7.023c.008 2.697.039 5.452.091 8.185.018.905.173 1.834.462 2.764.542 1.75 1.464 2.936 2.902 3.736 1.048.584 2.298.891 3.935.968 1.514.072 3.174.107 5.075.107m.001 4c-1.755 0-3.512-.028-5.265-.111-1.992-.094-3.928-.487-5.692-1.469-2.426-1.349-3.962-3.418-4.777-6.047a13.959 13.959 0 0 1-.64-3.869c-.053-2.75-.084-5.502-.092-8.252-.006-2.368.016-4.736.057-7.104.029-1.68.229-3.342.776-4.942 1.105-3.233 3.34-5.323 6.546-6.411a13.657 13.657 0 0 1 4.199-.723 869.874 869.874 0 0 1 10.502-.09c1.598 0 3.196.02 4.793.056 1.721.038 3.419.252 5.057.821 2.757.957 4.664 2.83 5.86 5.461a12.1 12.1 0 0 1 1.07 4.323c.094 1.604.106 3.213.129 4.82.02 1.345.004 2.69.004 4.036h-.001c0 2.206.018 4.413-.006 6.619-.018 1.642-.142 3.277-.564 4.877-.926 3.512-3.15 5.83-6.517 7.09-1.572.589-3.217.829-4.886.849-3.517.042-7.036.065-10.553.066z" fill="#fff"/></g><g data-name="Path 3040" stroke-miterlimit="10"><path d="M81.173 37.22a10.035 10.035 0 0 1-10.041-10.036A10.053 10.053 0 1 1 81.176 37.22z"/><path d="M81.018 33.221h.088l.058-.001h.135c2.065 0 3.439-1 4.227-1.84 1.082-1.153 1.705-2.681 1.709-4.193.004-1.571-.662-3.143-1.829-4.313-.792-.795-2.158-1.742-4.164-1.742h-.026a6.027 6.027 0 0 0-4.351 1.859c-1.105 1.146-1.737 2.673-1.736 4.19a6.005 6.005 0 0 0 1.818 4.322c1.117 1.092 2.6 1.718 4.07 1.718m.001 4c-5.133 0-9.884-4.278-9.889-10.037-.004-5.203 4.261-10.029 10.071-10.052h.042c5.776 0 10.007 4.894 9.993 10.066-.014 5.086-4.12 10.023-9.936 10.023l-.126-.001-.155.001z" fill="#fff"/></g><path data-name="Path 3041" d="M94.032 16.693a2.37 2.37 0 1 1-2.416-2.36 2.46 2.46 0 0 1 2.416 2.36z" stroke="#fff"/></g><g data-name="Group 2360" fill="none" stroke="#fff" stroke-linecap="round" stroke-miterlimit="10" stroke-width="4"><path data-name="Line 303" d="M14.232 17.358h23"/><path data-name="Line 304" d="M14.232 24.858h23"/><path data-name="Line 305" d="M14.232 32.358h11"/></g></g><g data-name="Group 2395"><g data-name="Path 3163" fill="none" stroke-miterlimit="10"><path d="M161.343 53.956c0 1.578.021 3.155-.007 4.733a8.835 8.835 0 0 1-.676 3.488c-1.108 2.511-3.771 4.169-7.8 5.07a27.771 27.771 0 0 1-5.851.607c-4.212.03-2.425.047-6.637.047-2.1 0 1.8-.02-.3-.079a23.842 23.842 0 0 1-6.816-1.05c-2.9-.965-4.743-2.444-5.72-4.324a6.442 6.442 0 0 1-.766-2.767q-.1-2.951-.11-5.9c-.008-1.693.018-3.387.068-5.08a7.349 7.349 0 0 1 .929-3.534c1.324-2.312 4-3.806 7.839-4.584a26.507 26.507 0 0 1 5.027-.518c3.922-.036 1.845-.054 5.767-.063 2.183 0-1.634.011.548.039a31.89 31.89 0 0 1 6.055.587c3.3.684 5.586 2.023 7.018 3.9a6.062 6.062 0 0 1 1.281 3.092c.112 1.147.127 2.3.155 3.446.023.962.005 1.924.005 2.886z"/><path d="M141.284 63.9c1.646-.001 2.02-.007 2.673-.016.536-.008 1.269-.018 3.02-.03 1.894-.014 3.532-.181 5.008-.511 1.917-.428 4.344-1.258 5.016-2.782.217-.492.32-1.091.336-1.943.018-1.06.014-2.112.01-3.226-.002-.479-.004-.957-.004-1.436l.001-2.644-.003-.145-.01-.414c-.022-.966-.043-1.878-.127-2.74-.032-.322-.194-.68-.483-1.059-.868-1.14-2.431-1.951-4.647-2.41-1.506-.313-3.238-.478-5.296-.504a8.28 8.28 0 0 1-.706-.039c-1.92.005-2.242.012-2.721.023-.449.01-1.006.023-2.799.04-1.464.013-2.9.16-4.27.438-1.88.38-4.3 1.15-5.162 2.653-.257.448-.38.96-.4 1.663a143.29 143.29 0 0 0-.067 4.943c.009 1.909.045 3.857.108 5.788.01.313.117.668.317 1.054.514.988 1.669 1.786 3.432 2.372 1.523.506 3.377.784 5.668.848.27.008.464.015.612.024.17.01.335.027.494.053m-1.001 4c-1.907 0 1.851-.02-.218-.078-2.385-.068-4.703-.349-6.816-1.05-2.904-.966-4.743-2.445-5.72-4.325-.468-.901-.735-1.826-.766-2.767a211.097 211.097 0 0 1-.11-5.9c-.008-1.694.018-3.387.068-5.08.035-1.201.273-2.39.929-3.535 1.324-2.311 3.999-3.806 7.839-4.584a26.506 26.506 0 0 1 5.027-.517c3.922-.036 1.845-.054 5.767-.064h.548c.805 0-1.92.015 0 .04 2.061.027 4.094.18 6.055.587 3.302.684 5.586 2.023 7.018 3.905.747.982 1.176 2.02 1.281 3.091.112 1.147.127 2.298.155 3.447.023.962.005 1.924.005 2.886h-.002c0 1.578.021 3.155-.007 4.733-.021 1.175-.171 2.343-.676 3.488-1.108 2.51-3.771 4.17-7.803 5.07-1.883.42-3.852.592-5.851.606-4.212.03-2.425.047-6.637.048h-.086z" fill="#fff"/></g><path data-name="Path 3164" d="M129.232 35.68s-15 8-15-1c0-5.189 12-11 12-11" fill="none" stroke="#fff" stroke-miterlimit="10" stroke-width="4"/><path data-name="Path 3165" d="M161.232 23.68s12 5.811 12 11c0 9-15 1-15 1" fill="none" stroke="#fff" stroke-miterlimit="10" stroke-width="4"/><g data-name="Group 2393" fill="#fff"><path data-name="Path 3166" d="M154.668 64.223c-.035 2-.008 17.508-.008 19.506h-4.169c-.008-2.835.019-16.671.068-19.506z"/><path data-name="Path 3167" d="M137.34 64.223c-.035 2-.008 17.508-.008 19.506h-4.168c-.008-2.835.018-16.671.067-19.506z"/></g><g data-name="Group 2394" fill="none"><g data-name="Path 3168" stroke-miterlimit="10"><path d="M163.494 25.517c0 2.206.018 4.413-.006 6.619a19.809 19.809 0 0 1-.564 4.877 9.929 9.929 0 0 1-6.516 7.09 14.315 14.315 0 0 1-4.886.849q-5.277.063-10.554.066c-1.755 0-3.512-.028-5.265-.111a12.743 12.743 0 0 1-5.692-1.469 10.013 10.013 0 0 1-4.779-6.047 13.92 13.92 0 0 1-.639-3.869q-.081-4.125-.092-8.252-.01-3.552.056-7.1a16.014 16.014 0 0 1 .776-4.942 9.884 9.884 0 0 1 6.547-6.411 13.656 13.656 0 0 1 4.2-.723q4.914-.075 9.827-.089c1.823-.007 3.646.015 5.468.055a16.38 16.38 0 0 1 5.057.821 9.768 9.768 0 0 1 5.86 5.461 12.123 12.123 0 0 1 1.071 4.323c.093 1.6.1 3.213.129 4.82.019 1.345 0 2.69 0 4.036z"/><path d="M140.967 41.018c3.4-.001 6.936-.023 10.507-.066 1.35-.016 2.505-.21 3.532-.595 2.225-.833 3.474-2.179 4.05-4.364.282-1.069.415-2.271.432-3.9.017-1.518.013-3.074.01-4.58a806.35 806.35 0 0 1-.004-1.996l.002-3.701a715.262 715.262 0 0 1-.012-.903c-.02-1.395-.038-2.712-.114-4.017a8.153 8.153 0 0 0-.72-2.904c-.777-1.71-1.898-2.77-3.53-3.336-1.082-.376-2.3-.567-3.833-.601a213.13 213.13 0 0 0-5.364-.054 864.48 864.48 0 0 0-9.784.089 9.687 9.687 0 0 0-2.972.511c-2.118.719-3.366 1.927-4.047 3.917-.357 1.045-.536 2.226-.562 3.717a344.752 344.752 0 0 0-.055 7.025c.007 2.696.038 5.45.091 8.186.017.903.172 1.831.46 2.76.544 1.75 1.466 2.938 2.902 3.737 1.049.583 2.3.891 3.936.968 1.514.072 3.174.107 5.075.107m.001 4c-1.755 0-3.512-.028-5.265-.111-1.991-.094-3.927-.487-5.692-1.469-2.425-1.349-3.961-3.418-4.777-6.047a13.92 13.92 0 0 1-.639-3.869c-.054-2.75-.085-5.502-.092-8.252-.007-2.368.015-4.736.056-7.104.029-1.68.229-3.342.776-4.942 1.106-3.233 3.34-5.323 6.547-6.411a13.656 13.656 0 0 1 4.198-.723A870.136 870.136 0 0 1 146.583 6c1.598 0 3.195.02 4.792.056 1.721.038 3.419.252 5.057.821 2.758.957 4.665 2.83 5.86 5.461a12.123 12.123 0 0 1 1.071 4.323c.093 1.604.105 3.213.129 4.82.019 1.345.004 2.69.004 4.036h-.002c0 2.206.018 4.413-.006 6.619-.017 1.642-.142 3.277-.564 4.877-.926 3.512-3.149 5.83-6.516 7.09-1.573.589-3.217.829-4.886.849a905.64 905.64 0 0 1-10.554.066z" fill="#fff"/></g><g data-name="Path 3169" stroke-miterlimit="10"><path d="M143.913 35.542a10.034 10.034 0 0 1-10.043-10.036 10.053 10.053 0 1 1 10.043 10.036z"/><path d="M143.758 31.543h.088l.058-.001h.135c2.065 0 3.44-1 4.228-1.841 1.082-1.152 1.704-2.68 1.708-4.192.004-1.571-.662-3.144-1.829-4.313-.792-.795-2.158-1.742-4.164-1.742h-.026a6.026 6.026 0 0 0-4.35 1.859c-1.105 1.146-1.737 2.673-1.736 4.19a6.006 6.006 0 0 0 1.818 4.322c1.116 1.092 2.6 1.718 4.07 1.718m0 4c-5.133 0-9.883-4.278-9.888-10.037-.005-5.203 4.261-10.029 10.07-10.052h.042c5.777 0 10.007 4.894 9.993 10.066-.013 5.086-4.12 10.023-9.936 10.023l-.126-.001-.155.001z" fill="#fff"/></g><path data-name="Path 3170" d="M156.776 15.015a2.37 2.37 0 1 1-2.416-2.36 2.461 2.461 0 0 1 2.416 2.36z" stroke="#fff"/></g></g></g></svg>