<svg xmlns="http://www.w3.org/2000/svg" width="223.748" height="85.407"><g data-name="AD TITLE"><g data-name="PIX A VOTRE SERVICE"><text transform="translate(118 69.946)" fill="#fff" font-size="20" font-family="Montserrat-Bold, Montserrat" font-weight="700" letter-spacing=".02em"><tspan x="0" y="0">Premium</tspan></text><g data-name="Group 160"><g data-name="Group 159"><g data-name="Group 158" fill="#fff"><path data-name="Path 129" d="M145.952 13.839c-.03-1.651-.911-3.177-2.6-3.177-1.577 0-2.022 1.561-1.962 3.253.103 2.911 4.616 2.832 4.562-.076z"/><path data-name="Path 130" d="M134.487 10.867a11.886 11.886 0 0 0-7.931-1.578 11.7 11.7 0 0 0-4.735 1.448 9.049 9.049 0 0 0-3.04 2.473 3.439 3.439 0 0 0-.772 1.909c.039.24.252.338.645.3a2.674 2.674 0 0 0 1.227-.47c.427-.28.911-.586 1.449-.921a11.17 11.17 0 0 1 4.909-1.593 7.023 7.023 0 0 1 4.355.756 4.285 4.285 0 0 1 1.994 3.135q.557 3.333-.867 4.905a3.594 3.594 0 0 1-1.424.981 14.364 14.364 0 0 1-1.5.482c-.424.109-.772.216-1.058.32a21.74 21.74 0 0 1-1.88.327c.007-.183.016-.366.025-.563q.156-3.134.093-5.1a16.984 16.984 0 0 0-.243-2.246c-.139-.839-.339-1.25-.6-1.224a1.3 1.3 0 0 0-.684.257q-2.184 1.58-3.026 9.4a30 30 0 0 0 .026 7.878 14.509 14.509 0 0 0 .531 2.3.98.98 0 0 0 1.1.737q3.742-.342 3.425-2.248l-.682-6.077c2.98-.827 6.328-1.045 8.877-3.012.035-.027.065-.057.1-.082a7.176 7.176 0 0 0 1.544-1.619 5.126 5.126 0 0 0 .642-1.09 7.647 7.647 0 0 0 .721-4.812 7.178 7.178 0 0 0-3.221-4.973z"/><path data-name="Path 131" d="M155.149 26.645c1.544-1.908 2.651-3.378 3.249-4.21a2.174 2.174 0 0 0-.2-2.874s-1.665-1.542-5.115 4.153l-.007.01c-1.065-1.517-2.045-2.874-2.792-3.783a2.445 2.445 0 0 0-2.2-1.131c-2.906.2-.455 4.787.378 6.116a25.841 25.841 0 0 1 1.637 2.667c-2.685 3.652-5.289 3.866-5.9 3.675-.705-.221-1.238-1.034-.828-4.437.021-.11.039-.22.063-.339.109-.667.195-1.265.265-1.811l.007-.035a15.412 15.412 0 0 0 .169-2.76 4.413 4.413 0 0 0-.57-1.93q-.651-1.272-1.6-1.274c-.575 0-1.088.411-1.54 1.22-.028.05-.056.1-.083.156-1.716 3.012-1.913 8.328-1.876 10.792a3.922 3.922 0 0 0 3.27 4.143 8.985 8.985 0 0 0 3.453-.112 8.464 8.464 0 0 0 2.523-.922h.009a19.374 19.374 0 0 0 4.357-3.59c1.651 2.648 3.75 4.866 5.937 4.172.213-.068.4-.141.575-.213a3.244 3.244 0 0 0 1.174-.775 2.1 2.1 0 0 0-.415-2.94 36.446 36.446 0 0 1-3.94-3.968z"/><path data-name="Path 132" d="M192.297 13.839c-.03-1.651-.911-3.177-2.6-3.177-1.577 0-2.022 1.561-1.962 3.253.103 2.911 4.616 2.832 4.562-.076z"/><path data-name="Path 133" d="M164.144 23.738c-1.145 0-1.688.828-1.88 1.929a6.506 6.506 0 0 0-.081 1.326 2.771 2.771 0 0 0 .047.351 2 2 0 0 0 1.19 1.556 2.257 2.257 0 0 0 3.325-1.984c-.031-1.652-.912-3.178-2.601-3.178z"/><path data-name="Path 134" d="M218.016 35.918c.06-.271.118-.54.165-.806.536-3.022 1.148-10.276 1.308-11.51a4.192 4.192 0 0 0-.816-3.7c-1.018-1-2.173-2.037-3.01-.473-1.185 2.2-.023 5.937-1.86 8.793-3.845 5.983-4.394 1.8-4.294.59.169-2.012.777-4.932 1.015-6.691.383-2.817-1.3-3.305-2.117-3.086s-1.427 1.441-1.886 2.784a39.249 39.249 0 0 0-1.12 5.364c-.114.152-.225.31-.331.48-1.811 2.88-5.311 5.577-5.635 1.668 0-.242-.009-.473-.025-.683a34.213 34.213 0 0 1 .448-5.974 12.178 12.178 0 0 0 3.462-.475c.918-.333 1.1-1.321 1.1-2.21 0-1.062-1.486-1.3-3.711-1.213.84-2.519.327-.985.327-.985 1.023-3.066-1.2-2.734-2.553-2.474a1.1 1.1 0 0 0-.258.089 1.95 1.95 0 0 0-1.271 1.122 7.865 7.865 0 0 0-.916 2.718c-.271.046-.529.095-.749.137a2.736 2.736 0 0 0-1.92 1.82c-.206.919.355 1.4 2 1.418h.026a32.541 32.541 0 0 0-.446 5.184c-.788 1.35-3.33 3.458-4.394 3.458a1.4 1.4 0 0 1-.835-.262 1.209 1.209 0 0 1-.415-.949 20.106 20.106 0 0 1 .485-3.564 23.161 23.161 0 0 0 .438-4.61 4.4 4.4 0 0 0-.57-1.93q-.65-1.273-1.6-1.274-1.6 0-2.562 4.185a33.541 33.541 0 0 0-.835 6.446c-4.622 3.917-8.179 1.213-8.114-4.8.069-6.609 3.321-9.624 5.039-10.675s3.247-.971 3.282-1.5-.262-2.569-3.815-2.226-9.3 4.983-9.929 13.634 4.3 11.239 7.852 11.365a8.127 8.127 0 0 0 6.347-2.571 4.429 4.429 0 0 0 2.328 2.238 2.826 2.826 0 0 0 1.211.255 7.37 7.37 0 0 0 5.2-2.14 18.076 18.076 0 0 0 1.248-1.519c.262 2.264 3.077 6.549 9.475.845.146-.145.287-.285.427-.431.538 2.146 3.736 5.025 9.171.762l-.167 1.573c-.074.6-.162 1.164-.26 1.683q-.995.02-2.045.085c-6.683.418-8.921 3.623-8.163 6.082s3.894 3.783 7.822 2.411a9.826 9.826 0 0 0 5.519-5.627c4.058.029 6.677.473 6.667-.207-.029-1.421-2.283-2.308-5.74-2.624zm-3.534-3.458c.035-.028.028-.021 0 0zm-6.69 9.151c-.429-.22-1.628-2.164 4.854-2.7.137-.012.269-.021.4-.031-1.86 4.308-4.916 2.908-5.255 2.731z"/></g></g></g><g data-name="Group 161" fill="#fff"><path data-name="Path 135" d="M197.573 13.369a1.938 1.938 0 0 1-.754-.288l.16-.506a1.874 1.874 0 0 0 .67.27 2.387 2.387 0 0 0 .8.03 1.417 1.417 0 0 0 .763-.29.557.557 0 0 0 .195-.513.469.469 0 0 0-.19-.335 1 1 0 0 0-.382-.16 6.726 6.726 0 0 0-.615-.082 6.3 6.3 0 0 1-.8-.123 1.331 1.331 0 0 1-.554-.285.958.958 0 0 1-.3-.62 1.09 1.09 0 0 1 .095-.637 1.253 1.253 0 0 1 .482-.512 2.268 2.268 0 0 1 .881-.29 2.905 2.905 0 0 1 .754 0 1.986 1.986 0 0 1 .666.192l-.135.512a2.184 2.184 0 0 0-.6-.177 2.134 2.134 0 0 0-.608-.006 1.324 1.324 0 0 0-.747.295.582.582 0 0 0-.193.521.479.479 0 0 0 .195.336 1.074 1.074 0 0 0 .392.163c.151.03.352.054.608.079a5.473 5.473 0 0 1 .8.126 1.279 1.279 0 0 1 .55.28.935.935 0 0 1 .3.61 1.114 1.114 0 0 1-.1.636 1.254 1.254 0 0 1-.492.511 2.294 2.294 0 0 1-.888.288 3.005 3.005 0 0 1-.953-.025z"/><path data-name="Path 136" d="M203.676 11.583l-2.637.068a1.031 1.031 0 0 0 .394.679 1.247 1.247 0 0 0 .807.242 1.208 1.208 0 0 0 .927-.417l.334.374a1.439 1.439 0 0 1-.538.406 2.063 2.063 0 0 1-1.649-.038 1.5 1.5 0 0 1-.628-.574 1.676 1.676 0 0 1-.239-.854 1.7 1.7 0 0 1 .19-.855 1.507 1.507 0 0 1 .566-.605 1.664 1.664 0 0 1 .833-.233 1.632 1.632 0 0 1 .835.192 1.473 1.473 0 0 1 .584.578 1.8 1.8 0 0 1 .227.865 1.633 1.633 0 0 1-.006.172zm-2.328-1.038a1.034 1.034 0 0 0-.318.681l2.082-.051a1.035 1.035 0 0 0-.35-.662.994.994 0 0 0-.714-.244 1.018 1.018 0 0 0-.7.276z"/><path data-name="Path 137" d="M205.584 9.992a1.637 1.637 0 0 1 .735-.106l-.03.57a1.144 1.144 0 0 0-.9.23 1.119 1.119 0 0 0-.318.8l-.09 1.613-.586-.03.178-3.244.563.03-.03.545a1.018 1.018 0 0 1 .478-.408z"/><path data-name="Path 138" d="M210.027 10.343l-1.806 3.052-.6-.074-1.016-3.4.608.075.791 2.723 1.449-2.447z"/><path data-name="Path 139" d="M210.622 10.469l.579.1-.563 3.2-.58-.1zm.137-.723a.361.361 0 0 1-.065-.286.387.387 0 0 1 .459-.311.4.4 0 0 1 .262.155.348.348 0 0 1 .065.283.406.406 0 0 1-.721.158z"/><path data-name="Path 140" d="M212.193 13.894a1.586 1.586 0 0 1-.464-.712 1.769 1.769 0 0 1 .378-1.667 1.557 1.557 0 0 1 .726-.441 1.84 1.84 0 0 1 .911-.01 1.721 1.721 0 0 1 .728.349 1.24 1.24 0 0 1 .408.622l-.5.18a1.022 1.022 0 0 0-.294-.424 1.074 1.074 0 0 0-.464-.225 1.171 1.171 0 0 0-.591.01 1.006 1.006 0 0 0-.475.3 1.323 1.323 0 0 0-.267 1.174 1 1 0 0 0 .3.477 1.15 1.15 0 0 0 .529.264 1.057 1.057 0 0 0 .515 0 1 1 0 0 0 .45-.255l.374.374a1.3 1.3 0 0 1-.638.385 1.71 1.71 0 0 1-.809 0 1.825 1.825 0 0 1-.817-.401z"/><path data-name="Path 141" d="M218.129 14.182l-2.528-.747a1.02 1.02 0 0 0 .164.768 1.227 1.227 0 0 0 .693.477 1.207 1.207 0 0 0 1.011-.11l.2.456a1.4 1.4 0 0 1-.638.221 1.879 1.879 0 0 1-.74-.079 1.9 1.9 0 0 1-.816-.461 1.509 1.509 0 0 1-.424-.743 1.69 1.69 0 0 1 .035-.883 1.712 1.712 0 0 1 .445-.759 1.516 1.516 0 0 1 .726-.4 1.655 1.655 0 0 1 .863.035 1.614 1.614 0 0 1 .735.438 1.5 1.5 0 0 1 .381.729 1.821 1.821 0 0 1-.051.893 1.43 1.43 0 0 1-.056.165zm-1.9-1.705a1.047 1.047 0 0 0-.513.553l2 .59a1.05 1.05 0 0 0-.13-.739 1.1 1.1 0 0 0-1.356-.4z"/><path data-name="Path 142" d="M218.556 15.775a1.7 1.7 0 0 1-.448-.451l.392-.355a1.78 1.78 0 0 0 .4.41 2.171 2.171 0 0 0 .55.3c.485.177.777.128.879-.148a.284.284 0 0 0-.019-.254.641.641 0 0 0-.2-.209 5.794 5.794 0 0 0-.387-.237 3.965 3.965 0 0 1-.552-.352.973.973 0 0 1-.309-.4.752.752 0 0 1 .016-.562.833.833 0 0 1 .589-.538 1.634 1.634 0 0 1 1.018.088 2.747 2.747 0 0 1 .582.3 1.768 1.768 0 0 1 .429.385l-.4.352a1.7 1.7 0 0 0-.793-.565 1.067 1.067 0 0 0-.578-.079.366.366 0 0 0-.295.237.3.3 0 0 0 .016.274.689.689 0 0 0 .211.22c.09.064.222.148.394.25a4.9 4.9 0 0 1 .547.353.978.978 0 0 1 .3.387.734.734 0 0 1-.016.542.812.812 0 0 1-.6.53 1.763 1.763 0 0 1-1.053-.109 2.642 2.642 0 0 1-.673-.369z"/></g></g><g data-name="VECTOR PICTO"><g data-name="Path 3033" fill="none" stroke-miterlimit="10"><path d="M24.225 0C11.749-.033-.056 10.2 0 24.15a24.391 24.391 0 0 0 24.189 24.232 24.01 24.01 0 0 0 17.077-7.078l.015.015 17.051-17.052L42.697 8.63A24.737 24.737 0 0 0 24.225 0z"/><path d="M24.164 4c-5.273 0-10.51 2.22-14.366 6.093a19.92 19.92 0 0 0-4.24 6.258A19.516 19.516 0 0 0 4 24.134c.022 5.517 2.22 10.664 6.19 14.492a20.686 20.686 0 0 0 6.464 4.24 19.55 19.55 0 0 0 7.52 1.516h.012a20.047 20.047 0 0 0 14.252-5.907l2.827-2.826.014.015 11.397-11.397-12.808-12.809-.108-.108-.1-.116C35.79 6.72 30.016 4.016 24.215 4H24.164m0-4h.061c6.99.019 13.862 3.253 18.472 8.63l15.636 15.637-17.052 17.052-.015-.015c-4.293 4.292-10.25 7.073-17.077 7.078h-.02C11.659 48.382.056 38.122 0 24.15-.056 10.22 11.71 0 24.165 0z" fill="#fff"/></g><g data-name="Path 3034" fill="none" stroke-miterlimit="10"><path d="M98.603 56.05c0 1.531.021 3.062-.007 4.592a8.367 8.367 0 0 1-.676 3.384c-1.109 2.436-3.772 4.045-7.8 4.919a28.591 28.591 0 0 1-5.851.589c-4.212.03-2.425.045-6.637.046-2.1 0 1.794-.019-.3-.076a24.515 24.515 0 0 1-6.816-1.019c-2.9-.936-4.744-2.372-5.72-4.2a6.1 6.1 0 0 1-.766-2.684q-.1-2.863-.111-5.726a144.57 144.57 0 0 1 .068-4.928 6.976 6.976 0 0 1 .929-3.429c1.324-2.243 4-3.693 7.84-4.448a27.291 27.291 0 0 1 5.027-.5c3.922-.035 1.844-.052 5.767-.061 2.182 0-1.634.01.548.038a32.837 32.837 0 0 1 6.055.57c3.3.664 5.586 1.963 7.017 3.789a5.782 5.782 0 0 1 1.282 3c.112 1.112.126 2.229.154 3.344.024.933.005 1.867.005 2.8z"/><path d="M78.534 65.579c1.655-.001 2.03-.007 2.685-.016.535-.007 1.268-.017 3.02-.03 1.901-.012 3.547-.175 5.03-.497 2.716-.589 4.495-1.536 5.01-2.666.204-.45.302-1.006.318-1.801.018-1.027.014-2.046.01-3.125-.002-.465-.004-.93-.004-1.394v-2.553a328.286 328.286 0 0 1-.014-.573c-.02-.925-.041-1.798-.124-2.616-.027-.275-.178-.588-.45-.934-.863-1.102-2.43-1.887-4.658-2.335-1.513-.305-3.252-.466-5.317-.492a8.283 8.283 0 0 1-.699-.037c-1.93.005-2.253.012-2.733.023-.448.01-1.005.022-2.797.038a23.34 23.34 0 0 0-4.29.427c-2.669.524-4.504 1.432-5.167 2.555-.24.408-.357.876-.376 1.516-.05 1.71-.072 3.278-.066 4.79.009 1.86.045 3.747.109 5.613.009.267.108.58.295.93.503.94 1.654 1.705 3.42 2.275 1.533.493 3.397.764 5.698.827.269.008.462.015.609.023.169.01.333.027.491.052m-.99 4c-1.91 0 1.85-.02-.219-.076-2.385-.066-4.703-.338-6.816-1.02-2.905-.936-4.744-2.37-5.72-4.195-.468-.874-.736-1.772-.766-2.684a195.371 195.371 0 0 1-.111-5.726c-.007-1.642.019-3.286.068-4.928.035-1.166.274-2.32.929-3.43 1.324-2.242 4-3.692 7.84-4.447a27.292 27.292 0 0 1 5.027-.502c3.922-.035 1.844-.052 5.767-.062h.547c.805 0-1.919.014.001.039 2.061.026 4.094.175 6.055.57 3.302.663 5.586 1.962 7.017 3.788.748.953 1.177 1.96 1.282 3 .112 1.112.126 2.229.154 3.343.024.934.005 1.867.005 2.8h-.001c0 1.531.021 3.062-.007 4.593-.022 1.14-.171 2.274-.676 3.384-1.109 2.436-3.772 4.045-7.803 4.919-1.883.408-3.852.575-5.851.589-4.212.03-2.425.045-6.637.045h-.085z" fill="#fff"/></g><path data-name="Path 3035" d="M56.832 64.119l-2.6-3.179c3-3 9.2-10 9.2-19l4.016-1a30.709 30.709 0 0 1-10.616 23.179z" fill="#fff"/><path data-name="Path 3036" d="M95.019 40.94l4.016 1c0 9 6.2 16 9.2 19l-2.6 3.179A30.709 30.709 0 0 1 95.019 40.94z" fill="#fff"/><g data-name="Group 2358" fill="#fff"><path data-name="Path 3037" d="M91.932 65.901c-.034 2-.007 17.508-.007 19.506h-4.169c-.008-2.835.019-16.671.068-19.506z"/><path data-name="Path 3038" d="M74.6 65.901c-.035 2-.008 17.508-.008 19.506h-4.169c-.008-2.835.019-16.671.068-19.506z"/></g><g data-name="Group 2359" fill="none"><g data-name="Path 3039" stroke-miterlimit="10"><path d="M100.754 27.195c0 2.206.018 4.413-.006 6.619a19.858 19.858 0 0 1-.564 4.877 9.931 9.931 0 0 1-6.517 7.09 14.311 14.311 0 0 1-4.886.849q-5.275.063-10.553.066c-1.755 0-3.512-.028-5.265-.111a12.736 12.736 0 0 1-5.692-1.469 10.006 10.006 0 0 1-4.777-6.047 13.959 13.959 0 0 1-.64-3.869q-.08-4.125-.092-8.252-.009-3.552.057-7.1a16.013 16.013 0 0 1 .776-4.942 9.883 9.883 0 0 1 6.546-6.411 13.657 13.657 0 0 1 4.2-.723q4.912-.075 9.826-.089c1.823-.007 3.647.015 5.469.055a16.38 16.38 0 0 1 5.057.821 9.773 9.773 0 0 1 5.86 5.461 12.1 12.1 0 0 1 1.07 4.323c.094 1.6.106 3.213.129 4.82.02 1.345 0 2.69 0 4.036z"/><path d="M78.227 42.696c3.401-.001 6.936-.023 10.506-.066 1.35-.016 2.505-.21 3.532-.595 2.226-.833 3.475-2.179 4.051-4.364.281-1.065.414-2.268.432-3.9.017-1.518.013-3.075.01-4.58-.002-.666-.004-1.33-.004-1.996v-3.71c0-.09-.001-.18-.003-.269l-.007-.575c-.02-1.412-.038-2.744-.115-4.07a8.128 8.128 0 0 0-.718-2.9c-.778-1.71-1.9-2.771-3.532-3.337-1.082-.376-2.3-.567-3.832-.601a213.178 213.178 0 0 0-5.365-.054c-3.619.014-6.818.043-9.783.089a9.69 9.69 0 0 0-2.973.51c-2.118.72-3.366 1.928-4.046 3.918-.357 1.045-.536 2.226-.562 3.717a351.322 351.322 0 0 0-.056 7.023c.008 2.697.039 5.452.091 8.185.018.905.173 1.834.462 2.764.542 1.75 1.464 2.936 2.902 3.736 1.048.584 2.298.891 3.935.968 1.514.072 3.174.107 5.075.107m.001 4c-1.755 0-3.512-.028-5.265-.111-1.992-.094-3.928-.487-5.692-1.469-2.426-1.349-3.962-3.418-4.777-6.047a13.959 13.959 0 0 1-.64-3.869c-.053-2.75-.084-5.502-.092-8.252-.006-2.368.016-4.736.057-7.104.029-1.68.229-3.342.776-4.942 1.105-3.233 3.34-5.323 6.546-6.411a13.657 13.657 0 0 1 4.199-.723 869.874 869.874 0 0 1 10.502-.09c1.598 0 3.196.02 4.793.056 1.721.038 3.419.252 5.057.821 2.757.957 4.664 2.83 5.86 5.461a12.1 12.1 0 0 1 1.07 4.323c.094 1.604.106 3.213.129 4.82.02 1.345.004 2.69.004 4.036h-.001c0 2.206.018 4.413-.006 6.619-.018 1.642-.142 3.277-.564 4.877-.926 3.512-3.15 5.83-6.517 7.09-1.572.589-3.217.829-4.886.849-3.517.042-7.036.065-10.553.066z" fill="#fff"/></g><g data-name="Path 3040" stroke-miterlimit="10"><path d="M81.173 37.22a10.035 10.035 0 0 1-10.041-10.036A10.053 10.053 0 1 1 81.176 37.22z"/><path d="M81.018 33.221h.088l.058-.001h.135c2.065 0 3.439-1 4.227-1.84 1.082-1.153 1.705-2.681 1.709-4.193.004-1.571-.662-3.143-1.829-4.313-.792-.795-2.158-1.742-4.164-1.742h-.026a6.027 6.027 0 0 0-4.351 1.859c-1.105 1.146-1.737 2.673-1.736 4.19a6.005 6.005 0 0 0 1.818 4.322c1.117 1.092 2.6 1.718 4.07 1.718m.001 4c-5.133 0-9.884-4.278-9.889-10.037-.004-5.203 4.261-10.029 10.071-10.052h.042c5.776 0 10.007 4.894 9.993 10.066-.014 5.086-4.12 10.023-9.936 10.023l-.126-.001-.155.001z" fill="#fff"/></g><path data-name="Path 3041" d="M94.032 16.693a2.37 2.37 0 1 1-2.416-2.36 2.46 2.46 0 0 1 2.416 2.36z" stroke="#fff"/></g><g data-name="Group 2360" fill="none" stroke="#fff" stroke-linecap="round" stroke-miterlimit="10" stroke-width="4"><path data-name="Line 303" d="M14.232 17.358h23"/><path data-name="Line 304" d="M14.232 24.858h23"/><path data-name="Line 305" d="M14.232 32.358h11"/></g></g></g></svg>