<svg xmlns="http://www.w3.org/2000/svg" xmlns:xlink="http://www.w3.org/1999/xlink" width="1188.631" height="1233.77"><defs><linearGradient id="a" x1=".141" y1="1.022" x2=".929" y2="-.012" gradientUnits="objectBoundingBox"><stop offset="0" stop-color="gray" stop-opacity=".251"/><stop offset=".54" stop-color="gray" stop-opacity=".122"/><stop offset="1" stop-color="gray" stop-opacity=".102"/></linearGradient><clipPath id="b"><path data-name="Path 992" d="M456.257 103.531a12.684 12.684 0 0 1-12.474 10.812l-54.008.13a12.675 12.675 0 0 1-12.505-10.75l-28.614.067a5.94 5.94 0 0 0-5.926 5.953l.625 256.205a5.935 5.935 0 0 0 5.953 5.922l136.662-.331a5.94 5.94 0 0 0 5.926-5.953l-.625-256.205a5.935 5.935 0 0 0-5.953-5.922z" transform="translate(-342.73 -103.46)" fill="#ed5485" opacity=".3"/></clipPath><linearGradient id="c" x1=".461" y1="1.024" x2=".461" y2=".019" xlink:href="#a"/><linearGradient id="d" x1=".5" y1="1" x2=".5" y2="0" xlink:href="#a"/></defs><g data-name="HERO - DRAWING"><path data-name="Path 1109" d="M347.957 212.09c-26.12 18.343-42.031 48.342-62.752 73.006a215.354 215.354 0 0 1-113.713 70.492c-9.123 2.244-18.575 3.971-26.576 8.59-27.582 15.925-27.749 57.92-23.44 93.502a1262.492 1262.492 0 0 0 62.131 265.147c9.842 28.103 26.054 60.946 53.31 66.588 13.09 2.708 25.45-1.95 38.41-1.896 33.057.129 62.911 29.652 86.591 57.954a1141.859 1141.859 0 0 1 79.441 107.101c24.534 37.466 51.818 80.336 92.058 91.324 25.582 6.98 50.627-1.153 72.07-12.662 70.338-37.772 126.06-113.973 210.386-106.145 35.363 3.278 70.45 21.71 105.813 24.818 51.222 4.474 96.284-24.478 125.179-64.214s44.269-89.445 59.237-138.331c4.943-16.164 9.933-33.248 6.244-51.108-3.836-18.587-16.423-34.906-28.531-50.218-55.04-69.678-112.74-141.67-187.738-183.46-37.245-20.758-77.1-33.04-116.03-48.276-84.086-32.89-170.042-77.607-235.882-147.13-53.496-56.476-134.224-98.72-196.208-55.082z" fill="#b4aeb0" opacity=".1"/><g data-name="LEFT DRAW"><g data-name="undraw_apartment_rent_o0ut (1)" transform="translate(412.632 420.267)" opacity=".7"><path data-name="Rectangle 142" fill="#fff" d="M319.794 150.364h43.835v28.034h-43.835z"/><path data-name="Rectangle 143" fill="#fff" d="M251.494 194.199h43.835v28.034h-43.835z"/><path data-name="Path 575" d="M491.775 159.539V99.9h-33.131V61.165h-22.427V99.9h-33.128v59.636h-18.353V25.485h-37.208V12.743h-49.439V0h-48.935v12.743h-46.383v12.742h-40.267v133.544h-21.408V99.393h-33.131V60.655H85.538v38.738H52.407v59.636H30.999v211.529h48.932v-74.927h33.641v74.927h131.5V283.4h57.087v87.16h79.514v.51h48.932v-74.93h33.641v74.927h48.932V159.539zM48.584 185.024h19.369v15.291H48.584zm.255 42.815h19.369v15.291H48.839zm19.624 58.107H49.089v-15.291h19.369zm50.716-138.131H74.324v-9.175h44.854zm0-13.252H74.324v-9.175h44.854zm0-13.252H74.324v-9.175h44.854zm6.371 63.713h19.369v15.291H125.55zm.255 42.815h19.369v15.291h-19.369zm19.624 58.107H126.06v-15.291h19.369zm79.26-25.485h-35.68v-15.8h35.68zm0-45.364h-35.68V199.3h35.68zm0-45.364h-35.68v-15.8h35.68zm0-45.364h-35.68v-15.8h35.68zm0-45.364h-35.68V63.2h35.68zm66.772 181.456h-35.68v-15.8h35.68zm0-45.364h-35.68V199.3h35.68zm0-45.364h-35.68v-15.8h35.68zm0-45.364h-35.68v-15.8h35.68zm0-45.364h-35.68V63.2h35.68zm66.772 181.456h-35.681v-15.8h35.679zm0-45.364h-35.681V199.3h35.679zm0-45.364h-35.681v-15.8h35.679zm0-45.364h-35.681v-15.8h35.679zm0-45.364h-35.681V63.2h35.679zm41.031 106.529h19.369v15.291h-19.37zm.255 42.815h19.37v15.291h-19.371zm19.624 58.107h-19.37v-15.291h19.369zm50.716-138.131h-44.856v-9.175h44.854zm0-13.252h-44.856V125.9h44.854zm0-13.252h-44.856v-9.175h44.854zm6.371 63.713h19.369v15.291h-19.37zm.255 42.815h19.369v15.291h-19.37zm19.624 58.107h-19.371v-15.291h19.369z" fill="#ed5485" opacity=".25"/><path data-name="Path 576" d="M61.165 318.929a91.024 91.024 0 0 1-.711 6.642l6.232-6.911.034.116a18.161 18.161 0 0 0-1.823-4.756l.04.109z" fill="#ed5485"/><path data-name="Path 577" d="M61.19 318.575l3.654-4.65a9.566 9.566 0 0 0-3.268-3.483c-.067-.04-.134-.077-.2-.115.018.55.114 3.774-.186 8.248z" fill="#ed5485"/><path data-name="Path 578" d="M57.898 336.806q-.241.733-.5 1.44l9.177-5.381.013.135q.288-1.255.479-2.51l-9.169 6.378z" fill="#ed5485"/><path data-name="Path 579" d="M59.17 332.29l8.265-6.816.023.128a28.548 28.548 0 0 0-.709-6.7l-6.35 7.043q-.5 3.327-1.229 6.345z" fill="#ed5485"/><path data-name="Path 580" d="M60.258 325.808l-9.89-11.035.053-.125a23.845 23.845 0 0 0-2.373 4.177l11.286 12.016a73.43 73.43 0 0 0 .924-5.033z" fill="#ed5485"/><path data-name="Path 581" d="M47.941 319.074c.018-.041.033-.086.051-.126z" fill="#ed5485"/><path data-name="Path 582" d="M47.391 320.428l-.051.126c.016-.043.035-.083.051-.126z" fill="#ed5485"/><path data-name="Path 583" d="M59.269 331.135l-11.327-12.056q-.287.658-.55 1.353l11.577 11.982q.153-.645.3-1.279z" fill="#ed5485"/><path data-name="Path 584" d="M67.089 330.329a34.091 34.091 0 0 0 .368-4.581l-8.377 6.911q-.5 2.01-1.1 3.864l9.087-6.324z" fill="#ed5485"/><path data-name="Path 585" d="M45.889 331.189l9.169 11.962a41.014 41.014 0 0 0 1.992-4.492l-11.188-11.75a32.974 32.974 0 0 0-.037 4.415z" fill="#ed5485"/><path data-name="Path 586" d="M61.207 310.317l.082-.037a6.468 6.468 0 0 0-6.265.13l6.005 8.156c.323-4.84.18-8.2.178-8.249z" fill="#ed5485"/><path data-name="Path 587" d="M57.099 339.047a40.728 40.728 0 0 1-1.8 4.05l9.217-4.772.009.133a16.153 16.153 0 0 0 1.617-3.742q.22-.773.4-1.551l-9.287 5.445a9.88 9.88 0 0 1-.156.437z" fill="#ed5485"/><path data-name="Path 588" d="M61.004 318.928l-6.143-8.343.058-.119a13.746 13.746 0 0 0-4.424 4.082l9.809 10.945c.34-2.343.559-4.572.7-6.565z" fill="#ed5485"/><path data-name="Path 589" d="M57.15 338.39a55.329 55.329 0 0 0 1.746-5.695L47.29 320.683q-.414 1.125-.761 2.341a19.824 19.824 0 0 0-.64 3.552l11.252 11.818z" fill="#ed5485"/><path data-name="Path 590" d="M69.068 351.349a92.384 92.384 0 0 1-4.783 4.662l9.207-1.348-.047.111a18.159 18.159 0 0 0 1.63-4.826l-.039.11z" fill="#ed5485"/><path data-name="Path 591" d="M74.8 345.078c-.026-.073-.054-.145-.082-.217-.335.436-2.318 2.98-5.4 6.235l5.78-1.251a9.566 9.566 0 0 0-.298-4.767z" fill="#ed5485"/><path data-name="Path 592" d="M55.149 363.031q-.653.411-1.3.792l10.5 1.709-.076.112q1.022-.783 1.97-1.628l-11.125-.933z" fill="#ed5485"/><path data-name="Path 593" d="M59.013 360.366l10.713.022-.063.113a28.553 28.553 0 0 0 3.728-5.613l-9.383 1.374q-2.509 2.245-4.995 4.104z" fill="#ed5485"/><path data-name="Path 594" d="M55.4 362.871l11.032.925-.07.113a34.1 34.1 0 0 0 3.2-3.293l-10.858-.022q-1.661 1.23-3.304 2.277z" fill="#ed5485"/><path data-name="Path 595" d="M41.888 368.33l.242-.249a28.36 28.36 0 0 0 6.547-1.87l.3-7.951q.133-.3.259-.611l-.319 8.462a40.978 40.978 0 0 0 4.4-2.189l-1.025-14.784.24-.126 1.023 14.762h.01a55.307 55.307 0 0 0 4.977-3.272l-1.116-14.545c.079-.058.158-.114.237-.173l1.116 14.544q.531-.393 1.045-.791l-.92-14.724.236-.2.921 14.735a72.317 72.317 0 0 0 3.922-3.287l-.579-14.807.12-.062c-.411.107-.829.234-1.25.373a20.892 20.892 0 0 0 2.13-2.9l-9.311 4.818a31.315 31.315 0 0 1-2.17 3.534c-.166.157-.333.314-.5.478l.012.177-.228.3-.016-.238c-.118.121-.232.248-.348.372a29.421 29.421 0 0 0 3.09-4.725l-9.1-11.875c.062 1.062.166 2.13.3 3.19a17.962 17.962 0 0 0-3.051-3.728l.072.092-2.1 5.731a90.305 90.305 0 0 1 1.377 6.536l3.738-8.382.053.391-3.729 8.362q.553 3.321.792 6.417l4.476-7.03.077.3-4.524 7.106q.148 2.065.152 4.013l5.471-7.218.086.278-5.529 7.295-.027-.056q0 .772-.028 1.524l6.171-6.948.091.268-6.278 7.069c-.006.155-.012.311-.02.465a40.73 40.73 0 0 1-.461 4.408l.6-.6q-.169.351-.33.692l-.339.343c-.039.223-.083.441-.126.661q-.188.412-.361.8c.112-.5.216-1.005.305-1.514l-12.326-8.48a76.047 76.047 0 0 0 9.659 16.551c.315-.588.6-1.193.863-1.81l.229-.022c-.031.076-.064.15-.1.226l-.116.014.1.027a23.99 23.99 0 0 1-.582 1.265c.269-.242.679-.624 1.169-1.109 2.9.74 10.707 2.322 17.393-.015l-10.244-2.228a28.649 28.649 0 0 1-6.845 1.939zm7.2-12.962l.246-.249-.014.373-.246.249z" fill="#ed5485"/><path data-name="Path 596" d="M74.596 344.743l.087.024a6.469 6.469 0 0 0-4.909-3.9l-.577 10.112c3.336-3.518 5.37-6.198 5.399-6.236z" fill="#ed5485"/><path data-name="Path 597" d="M53.108 364.248a40.748 40.748 0 0 1-3.97 1.971l10.147 2.207-.077.108a16.153 16.153 0 0 0 3.632-1.85q.663-.455 1.3-.939l-10.625-1.73c-.138.08-.273.159-.407.233z" fill="#ed5485"/><path data-name="Path 598" d="M64.222 355.855a90.18 90.18 0 0 0 4.726-4.61l.591-10.344.12-.055a13.749 13.749 0 0 0-6.011.322z" fill="#ed5485"/><path data-name="Path 599" d="M43.003 330.897a9.566 9.566 0 0 0-4.185-2.3c-.076-.017-.152-.032-.227-.047.189.516 1.276 3.553 2.374 7.9z" fill="#ed5485"/><path data-name="Path 600" d="M42.314 343.616l-12.816-7.437.012-.135a23.835 23.835 0 0 0-.966 4.706l14.447 7.939a73.884 73.884 0 0 0-.677-5.073z" fill="#ed5485"/><path data-name="Path 601" d="M28.519 341.019c0-.044.005-.092.01-.136z" fill="#ed5485"/><path data-name="Path 602" d="M28.414 342.476l-.009.136c0-.046.008-.089.01-.135z" fill="#ed5485"/><path data-name="Path 603" d="M43.02 348.986l-14.5-7.968q-.07.715-.105 1.457l14.714 7.817q-.049-.658-.109-1.306z" fill="#ed5485"/><path data-name="Path 604" d="M43.237 356.829l-14.272-7.717a33 33 0 0 0 1.329 4.21l.019-.147 12.417 8.543a41.01 41.01 0 0 0 .507-4.888z" fill="#ed5485"/><path data-name="Path 605" d="M38.428 328.589l.067-.06a6.468 6.468 0 0 0-5.918 2.06l8.232 5.9c-1.189-4.706-2.363-7.854-2.381-7.9z" fill="#ed5485"/><path data-name="Path 606" d="M40.897 336.842l-8.421-6.037.018-.131a13.746 13.746 0 0 0-2.946 5.25l12.712 7.377a87.646 87.646 0 0 0-1.363-6.459z" fill="#ed5485"/><path data-name="Path 607" d="M43.248 356.542a55.332 55.332 0 0 0-.1-5.955l-14.75-7.836q-.046 1.2 0 2.462a19.827 19.827 0 0 0 .49 3.576l14.354 7.761z" fill="#ed5485"/><path data-name="Path 608" d="M497.473 317.4a91.024 91.024 0 0 1-.711 6.642l6.232-6.911.034.116a18.163 18.163 0 0 0-1.823-4.756l.04.109z" fill="#ed5485"/><path data-name="Path 609" d="M497.499 317.046l3.654-4.65a9.563 9.563 0 0 0-3.268-3.483c-.067-.04-.134-.077-.2-.115.018.55.115 3.774-.186 8.248z" fill="#ed5485"/><path data-name="Path 610" d="M494.202 335.277q-.241.733-.5 1.44l9.177-5.381.013.135q.288-1.255.479-2.51l-9.163 6.377z" fill="#ed5485"/><path data-name="Path 611" d="M495.48 330.761l8.265-6.816.024.128a28.545 28.545 0 0 0-.709-6.7l-6.35 7.043q-.501 3.327-1.23 6.345z" fill="#ed5485"/><path data-name="Path 612" d="M496.566 324.279l-9.89-11.035.053-.125a23.844 23.844 0 0 0-2.373 4.177l11.286 12.016c.389-1.753.69-3.45.924-5.033z" fill="#ed5485"/><path data-name="Path 613" d="M484.252 317.545c.018-.041.033-.086.051-.126z" fill="#ed5485"/><path data-name="Path 614" d="M495.577 329.606L484.25 317.55q-.287.658-.551 1.353l11.577 11.982q.156-.645.301-1.279z" fill="#ed5485"/><path data-name="Path 615" d="M483.701 318.899l-.051.126c.016-.043.035-.083.051-.126z" fill="#ed5485"/><path data-name="Path 616" d="M503.401 328.8a34.069 34.069 0 0 0 .368-4.581l-8.377 6.911q-.5 2.01-1.1 3.864l9.087-6.324z" fill="#ed5485"/><path data-name="Path 617" d="M482.193 329.66l9.169 11.962a40.985 40.985 0 0 0 1.992-4.492l-11.188-11.751a32.969 32.969 0 0 0-.037 4.415z" fill="#ed5485"/><path data-name="Path 618" d="M497.514 308.788l.082-.037a6.469 6.469 0 0 0-6.266.13l6.005 8.156a80.887 80.887 0 0 0 .179-8.249z" fill="#ed5485"/><path data-name="Path 619" d="M493.406 337.518a40.746 40.746 0 0 1-1.8 4.05l9.223-4.772.009.133a16.15 16.15 0 0 0 1.617-3.742q.22-.773.4-1.551l-9.287 5.445c-.05.146-.106.293-.162.437z" fill="#ed5485"/><path data-name="Path 620" d="M497.315 317.398l-6.147-8.344.058-.119a13.75 13.75 0 0 0-4.424 4.082l9.809 10.945c.342-2.342.561-4.571.704-6.564z" fill="#ed5485"/><path data-name="Path 621" d="M493.462 336.861a55.327 55.327 0 0 0 1.746-5.695l-11.606-12.012q-.415 1.125-.761 2.341a19.821 19.821 0 0 0-.64 3.552l11.252 11.818z" fill="#ed5485"/><path data-name="Path 622" d="M505.38 349.82a92.384 92.384 0 0 1-4.783 4.662l9.208-1.348-.047.111a18.16 18.16 0 0 0 1.63-4.826l-.039.11z" fill="#ed5485"/><path data-name="Path 623" d="M511.108 343.549c-.026-.073-.054-.145-.082-.217-.335.436-2.318 2.98-5.4 6.235l5.78-1.251a9.566 9.566 0 0 0-.298-4.767z" fill="#ed5485"/><path data-name="Path 624" d="M491.459 361.502q-.653.411-1.3.792l10.5 1.709-.076.112q1.022-.783 1.97-1.628l-11.125-.933z" fill="#ed5485"/><path data-name="Path 625" d="M495.322 358.838l10.713.022-.063.113a28.54 28.54 0 0 0 3.729-5.613l-9.383 1.374q-2.509 2.244-4.996 4.104z" fill="#ed5485"/><path data-name="Path 626" d="M491.709 361.341l11.032.925-.07.113a34.092 34.092 0 0 0 3.2-3.293l-10.858-.022q-1.658 1.23-3.304 2.277z" fill="#ed5485"/><path data-name="Path 627" d="M478.196 366.801l.243-.249a28.358 28.358 0 0 0 6.547-1.87l.3-7.951q.133-.3.259-.611l-.319 8.462a41 41 0 0 0 4.4-2.189l-1.025-14.781.24-.126 1.023 14.762h.01a55.339 55.339 0 0 0 4.977-3.272l-1.116-14.545c.079-.058.158-.114.237-.173l1.115 14.544q.531-.393 1.045-.791l-.92-14.724.236-.2.921 14.735a72.317 72.317 0 0 0 3.922-3.287l-.579-14.807.12-.062a21.13 21.13 0 0 0-1.25.373 20.885 20.885 0 0 0 2.13-2.9l-9.311 4.817a31.34 31.34 0 0 1-2.17 3.534c-.167.157-.333.314-.5.478l.012.177-.229.3-.016-.238c-.117.121-.232.248-.348.372a29.467 29.467 0 0 0 3.09-4.725l-9.1-11.875a47.69 47.69 0 0 0 .3 3.19 17.96 17.96 0 0 0-3.051-3.728l.072.092-2.1 5.732a90.42 90.42 0 0 1 1.377 6.536l3.738-8.382.053.391-3.729 8.362q.553 3.321.792 6.417l4.476-7.03.077.3-4.524 7.106q.147 2.065.152 4.013l5.471-7.218.086.278-5.529 7.295-.027-.056q0 .772-.028 1.523l6.171-6.948.091.267-6.278 7.069c-.006.155-.012.311-.02.465a40.733 40.733 0 0 1-.461 4.409l.6-.6q-.169.351-.33.692l-.339.343c-.039.223-.083.441-.126.661q-.188.412-.361.8c.112-.5.216-1.005.305-1.514l-12.326-8.48a76.043 76.043 0 0 0 9.659 16.551c.315-.588.6-1.193.863-1.81l.229-.022a5.012 5.012 0 0 1-.1.226l-.116.014.1.027a23.99 23.99 0 0 1-.582 1.265c.269-.242.679-.624 1.169-1.109 2.9.74 10.707 2.322 17.393-.015l-10.244-2.228a28.649 28.649 0 0 1-6.847 1.938zm7.2-12.962l.246-.249-.014.373-.246.249z" fill="#ed5485"/><path data-name="Path 628" d="M510.905 343.214l.087.024a6.468 6.468 0 0 0-4.908-3.9l-.577 10.112a80.811 80.811 0 0 0 5.398-6.236z" fill="#ed5485"/><path data-name="Path 629" d="M489.415 362.719a40.742 40.742 0 0 1-3.97 1.971l10.147 2.207-.078.108a16.145 16.145 0 0 0 3.632-1.85q.662-.456 1.3-.939l-10.625-1.729c-.136.079-.267.158-.406.232z" fill="#ed5485"/><path data-name="Path 630" d="M500.532 354.326a90.18 90.18 0 0 0 4.726-4.61l.591-10.344.12-.055a13.747 13.747 0 0 0-6.011.322z" fill="#ed5485"/><path data-name="Path 631" d="M479.312 329.368a9.567 9.567 0 0 0-4.185-2.3 9.147 9.147 0 0 0-.227-.047c.189.516 1.276 3.553 2.374 7.9z" fill="#ed5485"/><path data-name="Path 632" d="M478.624 342.087l-12.816-7.437.012-.135a23.84 23.84 0 0 0-.966 4.706l14.447 7.939a72.666 72.666 0 0 0-.677-5.073z" fill="#ed5485"/><path data-name="Path 633" d="M464.725 340.947l-.009.136c0-.046.008-.089.01-.136z" fill="#ed5485"/><path data-name="Path 634" d="M464.827 339.49c0-.044.005-.092.01-.136z" fill="#ed5485"/><path data-name="Path 635" d="M479.328 347.457l-14.5-7.968q-.07.714-.105 1.457l14.714 7.817q-.05-.658-.109-1.306z" fill="#ed5485"/><path data-name="Path 636" d="M479.547 355.3l-14.272-7.717a33.026 33.026 0 0 0 1.33 4.21l.019-.147 12.417 8.542a41 41 0 0 0 .506-4.888z" fill="#ed5485"/><path data-name="Path 637" d="M474.74 327.06l.067-.06a6.468 6.468 0 0 0-5.918 2.06l8.232 5.9c-1.193-4.706-2.365-7.854-2.381-7.9z" fill="#ed5485"/><path data-name="Path 638" d="M477.208 335.312l-8.421-6.036.018-.131a13.746 13.746 0 0 0-2.946 5.25l12.712 7.377a87.568 87.568 0 0 0-1.363-6.46z" fill="#ed5485"/><path data-name="Path 639" d="M479.558 355.013a55.293 55.293 0 0 0-.1-5.955l-14.75-7.836q-.046 1.2 0 2.462a19.831 19.831 0 0 0 .49 3.576l14.354 7.761z" fill="#ed5485"/><path data-name="Path 641" d="M404.686 33.628l5.538 3.512-3.362-6.113a5.475 5.475 0 0 1 3.349-1.2h.089a6.418 6.418 0 0 0 1.149-.085l1.877 1.19-.8-1.463a6.68 6.68 0 0 0 3.283-2.492l3.359 2.13-2.122-3.858a9.83 9.83 0 0 1 7.526-3.8c3.493 0 6.6 2.077 8.613 5.314a6.438 6.438 0 0 0 5.693 3.07h.188c3.856 0 6.982 4.372 6.982 9.766s-3.13 9.768-6.987 9.768a5.239 5.239 0 0 1-2.432-.609 10.076 10.076 0 0 0-8.451-.165 8.809 8.809 0 0 1-7.185.017 10.083 10.083 0 0 0-8.376.162 5.235 5.235 0 0 1-2.406.6c-3.856 0-6.982-4.372-6.982-9.766a12.4 12.4 0 0 1 1.458-5.969z" fill="#f2f2f2"/><path data-name="Path 642" d="M122.942 62.309l3.523 2.234-2.139-3.889a3.483 3.483 0 0 1 2.13-.76h.057a4.083 4.083 0 0 0 .731-.054l1.194.757-.512-.93a4.249 4.249 0 0 0 2.089-1.585l2.137 1.355-1.35-2.454a6.253 6.253 0 0 1 4.787-2.42 6.562 6.562 0 0 1 5.479 3.38 4.1 4.1 0 0 0 3.622 1.953h.12c2.453 0 4.442 2.781 4.442 6.212s-1.989 6.212-4.442 6.212a3.333 3.333 0 0 1-1.547-.387 6.41 6.41 0 0 0-5.376-.105 5.6 5.6 0 0 1-4.57.011 6.414 6.414 0 0 0-5.328.1 3.33 3.33 0 0 1-1.531.379c-2.453 0-4.442-2.781-4.442-6.212a7.888 7.888 0 0 1 .926-3.797z" fill="#f2f2f2"/><path data-name="Path 643" d="M28.137 74.284l3.523 2.234-2.139-3.889a3.483 3.483 0 0 1 2.13-.76h.057a4.079 4.079 0 0 0 .731-.054l1.194.757-.512-.93a4.249 4.249 0 0 0 2.089-1.585l2.137 1.355-1.35-2.455a6.253 6.253 0 0 1 4.787-2.42 6.562 6.562 0 0 1 5.479 3.38 4.1 4.1 0 0 0 3.622 1.953h.119c2.453 0 4.442 2.781 4.442 6.212s-1.989 6.212-4.442 6.212a3.333 3.333 0 0 1-1.547-.387 6.409 6.409 0 0 0-5.376-.105 5.6 5.6 0 0 1-4.571.011 6.414 6.414 0 0 0-5.328.1 3.33 3.33 0 0 1-1.531.379c-2.453 0-4.442-2.781-4.442-6.212a7.888 7.888 0 0 1 .928-3.796z" fill="#f2f2f2"/><path data-name="Path 670" d="M478.643 310.875a13.5 13.5 0 0 0 1.786-6.845c0-6.186-3.831-11.2-8.556-11.2s-8.556 5.015-8.556 11.2a13.5 13.5 0 0 0 1.786 6.845 14.01 14.01 0 0 0 0 13.69 14.01 14.01 0 0 0 0 13.69 14.01 14.01 0 0 0 0 13.69 13.5 13.5 0 0 0-1.786 6.845c0 6.186 3.831 11.2 8.556 11.2s8.556-5.015 8.556-11.2a13.5 13.5 0 0 0-1.786-6.845 14.011 14.011 0 0 0 0-13.69 14.011 14.011 0 0 0 0-13.69 14.011 14.011 0 0 0 0-13.69z" fill="#3f3d56"/><ellipse data-name="Ellipse 79" cx="8.556" cy="11.201" rx="8.556" ry="11.201" transform="translate(463.315 279.14)" fill="#3f3d56"/><ellipse data-name="Ellipse 80" cx="8.556" cy="11.201" rx="8.556" ry="11.201" transform="translate(463.315 265.45)" fill="#3f3d56"/><path data-name="Path 671" d="M503.901 182.968a41.092 41.092 0 0 0 3.186-4.69l-22.478-3.693 24.315.181a41.056 41.056 0 0 0 .783-32.474l-32.621 16.922L507.17 137.1a40.987 40.987 0 1 0-67.691 45.867 41.006 41.006 0 0 0-4.674 7.474l29.181 15.158-31.117-10.439a41.008 41.008 0 0 0 6.608 38.486 40.983 40.983 0 1 0 64.426 0 40.989 40.989 0 0 0 0-50.678z" fill="#f2f2f2"/><path data-name="Path 672" d="M430.703 208.308a40.808 40.808 0 0 0 8.771 25.339 40.983 40.983 0 1 0 64.426 0c5.495-6.973-73.197-29.939-73.197-25.339z" fill="#f2f2f2"/><path data-name="Path 673" d="M503.901 182.968a41.092 41.092 0 0 0 3.186-4.69l-22.478-3.693 24.315.181a41.056 41.056 0 0 0 .783-32.474l-32.621 16.922L507.17 137.1a40.987 40.987 0 1 0-67.691 45.867 41.006 41.006 0 0 0-4.674 7.474l29.181 15.158-31.117-10.439a41.008 41.008 0 0 0 6.608 38.486 40.983 40.983 0 1 0 64.426 0 40.989 40.989 0 0 0 0-50.678z" fill="#57b894"/><path data-name="Path 674" d="M430.703 208.308a40.808 40.808 0 0 0 8.771 25.339 40.983 40.983 0 1 0 64.426 0c5.495-6.973-73.197-29.939-73.197-25.339z" opacity=".1"/><path data-name="Path 675" d="M47.939 310.875a13.5 13.5 0 0 0 1.786-6.845c0-6.186-3.831-11.2-8.556-11.2s-8.556 5.015-8.556 11.2a13.5 13.5 0 0 0 1.786 6.845 14.011 14.011 0 0 0 0 13.69 14.011 14.011 0 0 0 0 13.69 14.011 14.011 0 0 0 0 13.69 13.5 13.5 0 0 0-1.786 6.845c0 6.186 3.831 11.2 8.556 11.2s8.556-5.015 8.556-11.2a13.5 13.5 0 0 0-1.786-6.845 14.011 14.011 0 0 0 0-13.69 14.011 14.011 0 0 0 0-13.69 14.011 14.011 0 0 0 0-13.69z" fill="#3f3d56"/><ellipse data-name="Ellipse 81" cx="8.556" cy="11.201" rx="8.556" ry="11.201" transform="translate(32.612 279.14)" fill="#3f3d56"/><ellipse data-name="Ellipse 82" cx="8.556" cy="11.201" rx="8.556" ry="11.201" transform="translate(32.612 265.45)" fill="#3f3d56"/><path data-name="Path 676" d="M73.197 182.968a41.076 41.076 0 0 0 3.186-4.69l-22.482-3.692 24.314.181a41.055 41.055 0 0 0 .783-32.474l-32.621 16.922 30.085-22.116a40.986 40.986 0 1 0-67.691 45.867 41.008 41.008 0 0 0-4.674 7.474l29.183 15.159L2.163 195.16a41.008 41.008 0 0 0 6.608 38.486 40.983 40.983 0 1 0 64.426 0 40.989 40.989 0 0 0 0-50.679z" fill="#f2f2f2"/><path data-name="Path 677" d="M.001 208.308a40.808 40.808 0 0 0 8.771 25.339 40.983 40.983 0 1 0 64.426 0C78.69 226.674.001 203.708.001 208.308z" fill="#f2f2f2"/><path data-name="Path 678" d="M73.197 182.968a41.076 41.076 0 0 0 3.186-4.69l-22.482-3.692 24.314.181a41.055 41.055 0 0 0 .783-32.474l-32.621 16.922 30.085-22.116a40.986 40.986 0 1 0-67.691 45.867 41.008 41.008 0 0 0-4.674 7.474l29.183 15.159L2.163 195.16a41.008 41.008 0 0 0 6.608 38.486 40.983 40.983 0 1 0 64.426 0 40.989 40.989 0 0 0 0-50.679z" fill="#57b894"/><path data-name="Path 679" d="M.001 208.308a40.808 40.808 0 0 0 8.771 25.339 40.983 40.983 0 1 0 64.426 0C78.69 226.674.001 203.708.001 208.308z" opacity=".1"/></g><g transform="translate(542.558 558.475)"><g data-name="Group 723"><path data-name="Path 989" d="M483.6 79.1l-148.5.362a6.105 6.105 0 0 0-6.1 6.114l.679 277.741a6.105 6.105 0 0 0 6.121 6.083l148.492-.362a6.105 6.105 0 0 0 6.092-6.118l-.664-277.733a6.105 6.105 0 0 0-6.12-6.087z" transform="translate(-263.528 -79.1)" fill="url(#a)" opacity=".5"/></g><rect data-name="Rectangle 1573" width="156.362" height="282.233" rx="13.64" transform="rotate(-.14 1735.92 -27685.274)" fill="#fff"/><path data-name="Path 990" d="M185.131 10.95a12.684 12.684 0 0 1-12.474 10.812l-54.008.13a12.675 12.675 0 0 1-12.505-10.75l-28.614.067a5.94 5.94 0 0 0-5.926 5.953l.625 256.205a5.935 5.935 0 0 0 5.953 5.922l136.662-.331a5.94 5.94 0 0 0 5.926-5.953L220.145 16.8a5.935 5.935 0 0 0-5.953-5.922z" fill="#ed5485" opacity=".3"/><g data-name="Group 724" transform="translate(71.604 10.879)" clip-path="url(#b)"><path data-name="Path 991" d="M-40.365 17.507l212.648 174.156 2.8-142.53-240.163-8.51 37.926 36.367 240.529 18.485-250.533 63.137 226.876 73.646-.849 27.9-234.111-13.913 7.092 70.372 102.8-9.173 55.134-340.261" fill="none" stroke="#fff" stroke-miterlimit="10" stroke-width="4"/></g><rect data-name="Rectangle 1574" width="34.844" height="2.179" rx="1.09" transform="rotate(-.86 1043.043 -8454.01)" fill="#dbdbdb"/><circle data-name="Ellipse 70" cx="1.309" cy="1.309" r="1.309" transform="translate(167.955 13.626)" fill="#dbdbdb"/><path data-name="Path 993" d="M559.88 241.765c-2.072 14.952-32.835 46.224-32.835 46.224s-23.259-38.761-21.2-53.713a27.278 27.278 0 1 1 54.039 7.49z" transform="translate(-361.319 -151.948)" fill="url(#c)"/><path data-name="Path 994" d="M196.774 90.286c-1.943 14.028-30.816 43.361-30.816 43.361s-21.79-36.332-19.843-50.382a25.574 25.574 0 1 1 50.664 7.021z" fill="#ed5485"/><ellipse data-name="Ellipse 71" cx="12.822" cy="12.786" rx="12.822" ry="12.786" transform="rotate(-82.11 133.582 -42.454)" fill="#fff"/><g data-name="Group 725"><path data-name="Path 995" d="M765.066 469.1c8.124 13.4 10.178 23.8 10.178 23.8 2.412-42.99-10.669-27.667-11.938-26.939l-.027-.054-4.377 2.528a10.053 10.053 0 0 0-7.034-2.961 9.763 9.763 0 0 0-5.265 1.559c-3.126.072-5.6 1.661-5.6 3.613a2.354 2.354 0 0 0 .2.925 11.33 11.33 0 0 0 6.748 18.807l1.152 8.2-1.813 1.429a10.076 10.076 0 0 0-3.89 7.307c-.17 3.033 1.081 6.512 6.757 8.285 0 0-.1 1.05-.286 2.706l-9.651 19.3s-3.859 8.847.281 9.106c5.949-1.032 4.913-3.363 5.69-5.431l.447-1.545h2.278c-1.853 10.107-7.883 44.844-7.28 65.307v5.913l-.384 2.93-11.112 3.336a2.8 2.8 0 0 0 .893 5.471l15.7-.527a2.787 2.787 0 0 0 2.68-2.791v-7.945h2.841v-6.387l2.84-34.072.371-.893.339 4.422 12.777 28.4 2.836 4.966 1.241-.665-.362 4.685-5.181 4.493a2.791 2.791 0 0 0-.715 3.26 2.8 2.8 0 0 0 3.783 1.34l14.1-6.936a2.791 2.791 0 0 0 1.313-3.658l-1.242-2.733a2.8 2.8 0 0 0-1.947-1.572l-2.68-2.68.924-.5-2.1-4.957-12.777-29.811-.523-16.779a11.325 11.325 0 0 0 5.359-11.612h.817s-1.809-10.518-2.747-22c-.031-.371-.062-.741-.089-1.112V514.9s-.1-.54-.268-1.416c-1-11.339-2.55-20.343-11.027-21.361l-.063.049v-3.492a12.8 12.8 0 0 0 5.493-10.785 13.663 13.663 0 0 0-1.63-6.552l3.957-2.282z" transform="translate(-484.414 -291.395)" fill="url(#d)" opacity=".5"/></g><ellipse data-name="Ellipse 72" cx="10.54" cy="12.045" rx="10.54" ry="12.045" transform="translate(257.214 176.41)" fill="#795548"/><path data-name="Path 996" d="M265.389 316.573v6.194h-8.26l.688-5.274z" fill="#fda57d"/><path data-name="Path 997" d="M288.106 311.754l-.67 8.262h.447a13.261 13.261 0 0 0 8.817-3.355l2.424-2.152-6.194-6.194z" fill="#fda57d"/><path data-name="Path 998" d="M270.898 273.212l.688 8.95 12.389 27.529 9.633-4.819-12.389-28.9-.688-22.027h-11.013z" fill="#4d8af0"/><path data-name="Path 999" d="M270.898 273.212l.688 8.95 12.389 27.529 9.633-4.819-12.389-28.9-.688-22.027h-11.013z" opacity=".05"/><path data-name="Path 1000" d="M268.143 222.964l-11.7 23.4s-3.743 8.579.272 8.829c5.77-1 4.77-3.26 5.52-5.27l7.289-24.88z" fill="#fda57d"/><circle data-name="Ellipse 73" cx="11.013" cy="11.013" r="11.013" transform="translate(254.57 178.67)" fill="#fda57d"/><path data-name="Path 1001" d="M272.961 205.761l-7.717 4.024-1.92-13.662h9.638z" fill="#fda57d"/><path data-name="Path 1002" d="M265.392 245.679s-8.258 42.673-7.57 66.075h10.321l2.756-33.049 7.57-17.9s10.308-3.43 6.882-15.131z" fill="#4d8af0"/><path data-name="Rectangle 1575" fill="#4d8af0" d="M257.817 310.794h10.326v7.155h-10.326z"/><path data-name="Rectangle 1576" fill="#fff" opacity=".05" d="M257.817 310.794h10.326v7.155h-10.326z"/><path data-name="Path 1003" d="M283.693 309.055l2.867 5.5 9.115-4.8-2.434-5.654z" fill="#4d8af0"/><path data-name="Path 1004" d="M258.125 320.128l-11.451 3.438a2.711 2.711 0 0 0-1.934 2.6 2.711 2.711 0 0 0 2.8 2.706l15.229-.5a2.715 2.715 0 0 0 2.622-2.711v-2.925a2.711 2.711 0 0 0-2.711-2.711h-3.774a2.728 2.728 0 0 0-.781.103z" fill="#4d8af0"/><path data-name="Path 1005" d="M273.024 202.268l-9.7 7.641a9.754 9.754 0 0 0-3.792 7.1c-.165 2.943 1.045 6.315 6.552 8.039 0 0-2.063 22.022-5.507 23.4h26.158s-1.755-10.2-2.68-21.339c-1.045-12.885-1.809-23.747-11.031-24.841z" fill="#47e6b1"/><path data-name="Path 1006" d="M272.961 216.082l6.195 11.013-.688 24.778s-3.439 5.507-.688 6.195 6.882-1.376 6.194-5.507v-28.222s-2.063-11.7-4.131-14.452z" fill="#fda57d"/><path data-name="Path 1007" d="M291.566 314.903l-9.044 7.842a2.715 2.715 0 0 0-.692 3.162 2.716 2.716 0 0 0 3.667 1.318l13.675-6.73a2.711 2.711 0 0 0 1.273-3.546l-1.206-2.68a2.711 2.711 0 0 0-3.573-1.34l-3.439 1.554a2.563 2.563 0 0 0-.661.42z" fill="#4d8af0"/><path data-name="Path 1008" d="M278.504 181.278l-2.492 1.234-1.76-3.046 2.465-1.317z" fill="#795548"/><path data-name="Path 1009" d="M276.717 178.156s16.524-17.418 13.09 24.858a97.432 97.432 0 0 0-11.3-21.732z" fill="#795548"/><ellipse data-name="Ellipse 74" cx="9.535" cy="10.54" rx="9.535" ry="10.54" transform="translate(259.224 177.915)" fill="#795548"/><ellipse data-name="Ellipse 75" cx="5.645" cy="3.515" rx="5.645" ry="3.515" transform="translate(257.214 177.915)" fill="#795548"/><g data-name="Group 726" opacity=".5" fill="#47e6b1"><path data-name="Rectangle 1577" d="M44.298 36.318h1.34v7.592h-1.34z"/><path data-name="Rectangle 1578" d="M48.764 39.444v1.34h-7.592v-1.34z"/></g><g data-name="Group 727" opacity=".5" fill="#47e6b1"><path data-name="Rectangle 1579" d="M55.017 83.917h1.34v7.592h-1.34z"/><path data-name="Rectangle 1580" d="M59.483 87.043v1.34h-7.592v-1.34z"/></g><g data-name="Group 728" opacity=".5" fill="#47e6b1"><path data-name="Rectangle 1581" d="M260.456 22.027h1.34v7.592h-1.34z"/><path data-name="Rectangle 1582" d="M264.922 25.153v1.34h-7.592v-1.34z"/></g><g data-name="Group 729" opacity=".5" fill="#47e6b1"><path data-name="Rectangle 1583" d="M368.535 49.975h1.34v7.592h-1.34z"/><path data-name="Rectangle 1584" d="M373.001 53.101v1.34h-7.592v-1.34z"/></g><path data-name="Path 1010" d="M5.489 80.483a1.648 1.648 0 0 1-.916-1.987.49.49 0 0 0 .036-.179.822.822 0 0 0-1.478-.545.928.928 0 0 0-.089.161 1.639 1.639 0 0 1-1.983.893.63.63 0 0 0-.183-.031.822.822 0 0 0-.545 1.478 1.126 1.126 0 0 0 .161.089 1.639 1.639 0 0 1 .916 1.983.831.831 0 0 0-.036.183.822.822 0 0 0 1.478.545.81.81 0 0 0 .089-.161 1.644 1.644 0 0 1 1.987-.916.786.786 0 0 0 .179.036.822.822 0 0 0 .545-1.478.706.706 0 0 0-.161-.071z" fill="#4d8af0" opacity=".5"/><path data-name="Path 1011" d="M343.123 165.785a1.648 1.648 0 0 1-.915-1.987.5.5 0 0 0 .035-.179.822.822 0 0 0-1.478-.545.919.919 0 0 0-.089.161 1.639 1.639 0 0 1-1.983.893.629.629 0 0 0-.183-.031.822.822 0 0 0-.545 1.478 1.133 1.133 0 0 0 .161.089 1.639 1.639 0 0 1 .893 1.983.815.815 0 0 0-.036.183.822.822 0 0 0 1.478.545.816.816 0 0 0 .089-.161 1.643 1.643 0 0 1 1.987-.916.79.79 0 0 0 .179.036.822.822 0 0 0 .545-1.478.707.707 0 0 0-.138-.071z" fill="#4d8af0" opacity=".5"/><path data-name="Path 1012" d="M319.452 29.57a1.648 1.648 0 0 1-.915-1.987.5.5 0 0 0 .036-.179.822.822 0 0 0-1.478-.545.933.933 0 0 0-.089.161 1.639 1.639 0 0 1-1.983.893.631.631 0 0 0-.183-.031.822.822 0 0 0-.545 1.478 1.109 1.109 0 0 0 .161.089 1.639 1.639 0 0 1 .893 1.983.828.828 0 0 0-.036.183.822.822 0 0 0 1.478.545.812.812 0 0 0 .089-.161 1.643 1.643 0 0 1 1.987-.893.79.79 0 0 0 .179.036.822.822 0 0 0 .545-1.478.707.707 0 0 0-.139-.094z" fill="#4d8af0" opacity=".5"/><path data-name="Path 1013" d="M330.171 107.279a1.648 1.648 0 0 1-.916-1.987.489.489 0 0 0 .036-.179.822.822 0 0 0-1.478-.545.932.932 0 0 0-.089.161 1.639 1.639 0 0 1-1.983.893.634.634 0 0 0-.183-.031.822.822 0 0 0-.545 1.478 1.146 1.146 0 0 0 .161.089 1.639 1.639 0 0 1 .893 1.983.821.821 0 0 0-.036.183.822.822 0 0 0 1.478.545.812.812 0 0 0 .089-.161 1.644 1.644 0 0 1 1.987-.916.789.789 0 0 0 .179.036.822.822 0 0 0 .545-1.478.7.7 0 0 0-.138-.071z" fill="#4d8af0" opacity=".5"/><circle data-name="Ellipse 76" cx="2.68" cy="2.68" r="2.68" transform="translate(29.56 162.967)" fill="#f55f44" opacity=".5"/><circle data-name="Ellipse 77" cx="2.68" cy="2.68" r="2.68" transform="translate(258.223 74.539)" fill="#4d8af0" opacity=".5"/><circle data-name="Ellipse 78" cx="2.68" cy="2.68" r="2.68" transform="translate(280.107 142.423)" fill="#47e6b1" opacity=".5"/><circle data-name="Ellipse 79" cx="2.68" cy="2.68" r="2.68" transform="translate(3.21 1.295)" fill="#f55f44" opacity=".5"/><path data-name="Rectangle 1585" fill="#b0bec5" d="M56.459 195.734h31.977v3.198H56.459z"/><path data-name="Rectangle 1586" fill="#b0bec5" d="M68.071 234.589h31.977v3.198H68.071z"/><path data-name="Rectangle 1587" fill="#b0bec5" d="M93.653 253.374h16.386v3.595H93.653z"/><path data-name="Rectangle 1588" fill="#b0bec5" d="M102.049 272.962h16.386v2.398h-16.386z"/><path data-name="Path 1014" d="M93.296 189.96s-20.678 2.4-14.425 14.908a141.954 141.954 0 0 1 9.5 25.367l10.937-2.287s-4.328-20.437-8.173-22.839l10.339-1.925z" fill="#fda57d"/><path data-name="Path 1015" d="M91.134 205.109l10.339-1.925-8.177-13.224s-.241.027-.661.094l8.119 13.13-10.339 1.925c3.85 2.4 8.177 22.839 8.177 22.839l-10.272 2.144.04.143 10.937-2.287s-4.318-20.436-8.163-22.839z" opacity=".05"/><path data-name="Path 1016" d="M94.948 225.635a27.748 27.748 0 0 1-16.078 4.216s-5.154 2.345 2.139 4.211 19.061.549 19.986-.893-.384-6.315-2.537-8.311-3.51.777-3.51.777z" fill="#ed5485"/><path data-name="Path 1017" d="M111.812 219.293s-.482 9.379 2.885 16.109l2.4 32.464h7.7s0-15.872 3.609-24.286-1.924-17.793-1.924-17.793l-.482-9.62z" fill="#fda57d"/><circle data-name="Ellipse 80" cx="9.857" cy="9.857" r="9.857" transform="translate(106.761 108.932)" fill="#fda57d"/><path data-name="Rectangle 1589" fill="#fda57d" d="M109.887 123.835h12.023v10.821h-12.023z"/><path data-name="Path 1018" d="M121.91 265.459a27.744 27.744 0 0 1-16.591.723s-5.529 1.2 1.2 4.569 18.516 4.569 19.718 3.363.965-6.253-.719-8.655-3.608 0-3.608 0z" fill="#ed5485"/><path data-name="Path 1019" d="M91.255 154.254L77.088 190.8s-10.821 2.885-5.288 8.177c0 0-.965-5.051 6.73-3.608 0 0 2.166 3.608 2.166 4.81s2.47-4.019 1.474-6.574a58.666 58.666 0 0 1 11.974-20.365s6.011-10.58 5.77-17.793z" fill="#fda57d"/><path data-name="Path 1020" d="M138.863 141.266s7.7 3.609 11.54 2.407c2.724-.853 5.69-6.288 7.19-9.379a4.676 4.676 0 0 1 3.644-2.613c2.858-.344 6.864-.308 5.757 2.863-1.684 4.81-7.213 6.253-7.213 6.253l-7.936 11.049h-13.947z" fill="#fda57d"/><circle data-name="Ellipse 81" cx="10.098" cy="10.098" r="10.098" transform="translate(104.72 107.847)" fill="#3d213c"/><ellipse data-name="Ellipse 82" cx="7.454" cy="4.207" rx="7.454" ry="4.207" transform="translate(112.652 104.72)" fill="#3d213c"/><path data-name="Path 1021" d="M111.852 222.938v1.215l14.45-1.854v-1.38z" opacity=".05"/><path data-name="Path 1022" d="M91.652 190.223l-.974.192 4.672 13.907.585-.107z" opacity=".05"/><path data-name="Path 1023" d="M142.829 142.807l.951.295.308 8.745h-1.259z" opacity=".05"/><path data-name="Path 1024" d="M90.813 155.388l-.322.822 8.544 5.341.241-.933z" opacity=".05"/><path data-name="Path 1025" d="M100.692 184.694l-1.416.563s23.71 11.491 31.526 1.425l-.259-.893s-7.186 9.628-29.851-1.095z" opacity=".05"/><path data-name="Path 1026" d="M89.084 186.704l6.7 19.1q4.815-1.568 9.745-2.778a16.259 16.259 0 0 1 5.051-.563c-1.34.246-1.13 1.125-1.5 2.456a12.59 12.59 0 0 0-.179 4.118 69.837 69.837 0 0 1-.554 13.894 107.162 107.162 0 0 1 21.571-2.4 68.847 68.847 0 0 1-2-11.893 13.9 13.9 0 0 1 0-3.166 19.89 19.89 0 0 1 1.34-4.1 32.672 32.672 0 0 0 2.063-9.656 8.745 8.745 0 0 0-.406-3.774 6.675 6.675 0 0 0-3.615-3.444 17.386 17.386 0 0 0-4.962-1.152c-6.427-.795-12.724-.639-19.173-.576-2.474.022-3.684.79-5.913 1.862-.727.344-7.846 2.997-8.168 2.072z" fill="#ed5485"/><path data-name="Path 1027" d="M101.549 135.51c-3.9 2.112-6.994 5.413-10.017 8.66l-7.534 8.079a112.088 112.088 0 0 1 10.719 5.743 7.511 7.511 0 0 1 3.22 3.023 7.311 7.311 0 0 1 .112 4.368 69.627 69.627 0 0 1-5.408 16.658c6.065 1.317 12.233 2.68 17.641 5.717a10.946 10.946 0 0 0 4.305 1.786 9.352 9.352 0 0 0 2.782-.335l13.72-3.082a2.547 2.547 0 0 0 1.2-.5 2.6 2.6 0 0 0 .558-.893c2.416-5.288 4.89-10.83 4.631-16.641-.125-2.738-.853-5.516-.228-8.182s3.381-5.154 5.935-4.153l1.125-12.849c.13-1.447.156-3.126-.974-4.055a8.511 8.511 0 0 0-2.84-.983c-1.518-.5-2.68-1.715-4.019-2.59-3.658-2.4-8.383-2.112-12.742-1.737-3.707.317-7.382.893-11.067.357-3.992-.548-7.479-.361-11.119 1.609z" fill="#ed5485"/></g></g></g></svg>