<svg xmlns="http://www.w3.org/2000/svg" width="508.107" height="338.082"><g data-name="Group 1203" transform="translate(-.013 .004)"><path data-name="Path 1549" d="M296.176 67.426c-29.892-1.062-58.362-10.711-85.529-21.246s-54.113-22.258-83.289-27.851c-18.766-3.6-40.229-4.106-55.346 5.954-14.554 9.7-19.255 26.4-21.782 41.906-1.9 11.667-3.021 23.943 2.189 34.867 3.621 7.584 10.041 13.958 14.484 21.223 15.459 25.274 4.531 56.441-12.216 81.118-7.852 11.579-16.974 22.632-23.038 34.945s-8.868 26.442-3.561 39.014c5.256 12.471 17.787 21.819 31.361 28.4 27.569 13.367 60.043 17.2 91.732 19.362 70.126 4.8 140.621 2.72 210.932.642 26.022-.771 52.154-1.552 77.751-5.575 14.216-2.235 28.89-5.783 39.213-14.341 13.1-10.868 16.346-29.273 7.565-42.9-14.725-22.857-55.425-28.533-65.725-53.069-5.663-13.5.152-28.544 8.388-41.065 17.658-26.861 47.26-50.435 48.812-81.135 1.071-21.089-13.159-42.21-35.162-52.191-23.061-10.461-55.046-9.145-72.052 8.17-17.538 17.805-48.331 24.664-74.727 23.772z" fill="#ed5485" opacity=".1"/><ellipse data-name="Ellipse 301" cx="33.814" cy="6.503" rx="33.814" ry="6.503" transform="translate(45.293 325.072)" fill="#ed5485"/><ellipse data-name="Ellipse 302" cx="3.935" cy="5.154" rx="3.935" ry="5.154" transform="translate(74.604 323.658)" fill="#3f3d56"/><ellipse data-name="Ellipse 303" cx="3.935" cy="5.154" rx="3.935" ry="5.154" transform="translate(74.604 317.358)" fill="#3f3d56"/><ellipse data-name="Ellipse 304" cx="3.935" cy="5.154" rx="3.935" ry="5.154" transform="translate(74.604 311.059)" fill="#3f3d56"/><ellipse data-name="Ellipse 305" cx="3.935" cy="5.154" rx="3.935" ry="5.154" transform="translate(74.604 304.763)" fill="#3f3d56"/><ellipse data-name="Ellipse 306" cx="3.935" cy="5.154" rx="3.935" ry="5.154" transform="translate(74.604 298.463)" fill="#3f3d56"/><ellipse data-name="Ellipse 307" cx="3.935" cy="5.154" rx="3.935" ry="5.154" transform="translate(74.604 292.163)" fill="#3f3d56"/><ellipse data-name="Ellipse 308" cx="3.935" cy="5.154" rx="3.935" ry="5.154" transform="translate(74.604 285.864)" fill="#3f3d56"/><path data-name="Path 1550" d="M93.277 247.911a18.67 18.67 0 0 0 1.469-2.157l-10.346-1.7 11.187.083a18.877 18.877 0 0 0 .36-14.942l-15.006 7.787 13.856-10.161a18.858 18.858 0 1 0-31.149 21.1 19.027 19.027 0 0 0-2.152 3.441l13.431 6.974-14.318-4.8a18.849 18.849 0 0 0 3.039 17.708 18.858 18.858 0 1 0 29.643 0 18.858 18.858 0 0 0 0-23.32z" fill="#ed5485"/><path data-name="Path 1551" d="M59.616 259.565a18.78 18.78 0 0 0 4.037 11.658 18.858 18.858 0 1 0 29.643 0c2.512-3.201-33.68-13.769-33.68-11.658z" opacity=".1"/><path data-name="Path 1552" d="M242.928 253.098c.286 3.695 1.709 7.519 4.7 9.7s7.755 2.138 10.041-.79a11.234 11.234 0 0 0 1.667-3.626c1.926-6.087 3.293-12.748 1.182-18.775-4.762-.309-10.281-2.549-13.856 1.386a16.415 16.415 0 0 0-3.734 12.105z" fill="#3f3d56"/><path data-name="Path 1553" d="M265.033 215.858c-.633 5.372-1.709 10.72-1.6 16.129.042 2.088.263 4.157.268 6.254a30.825 30.825 0 0 1-4.157 15.505 5.2 5.2 0 0 1-1.136 1.469 3.649 3.649 0 0 1-3.972.134 7.815 7.815 0 0 1-2.822-3.062c-3.441-5.893-3.538-13.057-4.9-19.74-1.044-5.113-2.873-10.069-3.533-15.242-.43-3.33-.365-6.725-1.048-10.013-.208-.993-.79-2.485-1.173-3.949a5.937 5.937 0 0 1-.185-3.473c.734-1.806 3.141-1.1 4.706-.993a108.345 108.345 0 0 0 16.563-.042 1.424 1.424 0 0 1 1.917.993 22.41 22.41 0 0 1 1 3.7 41.052 41.052 0 0 1 .072 12.33z" fill="#fabdbd"/><g data-name="Group 1198" opacity=".1"><path data-name="Path 1554" d="M262.908 198.834a4.063 4.063 0 0 0-.854 0c-2.642.212-5.288.319-7.93.333q4.391.009 8.784-.333z"/><path data-name="Path 1555" d="M255.371 255.348a7.815 7.815 0 0 1-2.822-3.062c-3.441-5.893-3.538-13.057-4.9-19.74-1.044-5.113-2.873-10.069-3.533-15.242-.43-3.33-.365-6.725-1.048-10.013-.208-.993-.79-2.485-1.173-3.949a5.938 5.938 0 0 1-.185-3.473 1.967 1.967 0 0 1 1.847-1.2c-1.169-.078-2.309.06-2.771 1.2a5.937 5.937 0 0 0 .185 3.473c.383 1.464.965 2.956 1.173 3.949.684 3.289.619 6.683 1.048 10.013.661 5.178 2.49 10.133 3.533 15.242 1.363 6.683 1.46 13.856 4.9 19.74a7.815 7.815 0 0 0 2.822 3.062 4.1 4.1 0 0 0 2.42.49 4.26 4.26 0 0 1-1.496-.49z"/></g><path data-name="Path 1556" d="M282.496 244.184c-2.771 5.542-2.309 13.394-2.309 13.394.462 18.475-6.928 57.272-6.928 57.272h-6.466s-.924-42.954 0-46.649-.462-16.627-1.848-34.64a92.467 92.467 0 0 1 3.279-30.858c.517-1.847.878-2.859.878-2.859s10.623-15.7 16.627-8.314c1.386 1.718 2.12 5.187 2.374 9.565.823 14.449-3.482 38.84-5.607 43.089z" fill="#fabdbd"/><path data-name="Path 1557" d="M288.103 201.096c-.254-4.379-.979-7.852-2.374-9.565a4.758 4.758 0 0 0-4.536-1.926 4.923 4.923 0 0 1 3.15 1.926c1.386 1.718 2.12 5.187 2.374 9.565.822 14.447-3.483 38.834-5.607 43.088-2.771 5.542-2.309 13.394-2.309 13.394.462 18.475-6.928 57.272-6.928 57.272h1.386s7.39-38.8 6.928-57.272c0 0-.462-7.852 2.309-13.394 2.125-4.253 6.429-28.64 5.607-43.088z" opacity=".1"/><path data-name="Path 1558" d="M263.43 313.165a6.005 6.005 0 0 0-1.321 1.441c-.827 1.561.346 3.427 1.6 4.669s2.771 2.573 2.771 4.342a4.329 4.329 0 0 1-2.282 3.4c-.647.406-1.46.924-1.326 1.69a1.588 1.588 0 0 0 .245.54 7.149 7.149 0 0 0 4.725 2.864 21.316 21.316 0 0 0 5.663.046 1.141 1.141 0 0 0 .776-.268 1.053 1.053 0 0 0 .208-.637 8.3 8.3 0 0 1 .462-2.9c.6-1.205 1.981-1.82 2.771-2.9 1.108-1.478.956-3.533.536-5.33-.924-3.912-2.979-8.374-6.064-11.085-3.573-3.11-6.376 1.879-8.764 4.128z" fill="#3f3d56"/><path data-name="Path 1559" d="M277.425 80.358c2.577-3.852 1.908-9.237-.725-13.071s-6.863-6.244-11.228-7.8a31.605 31.605 0 0 0-18.419-1.238c-4.813 1.252-9.136 3.87-13.671 5.893a58.791 58.791 0 0 1-25.532 5.081c-9.75-.272-20.433-2.771-28.613 2.559-14.974 9.741-8.314 36.252-22.479 47.111-3.82 2.928-8.628 4.208-12.877 6.466s-8.277 6.189-8.175 11a12.8 12.8 0 0 0 2.309 6.466 29.923 29.923 0 0 0 25.186 13.533 32.071 32.071 0 0 0 25.38-13.524c1.436-2.037 2.7-4.3 4.785-5.663 4.157-2.725 9.635-.818 14.6-.411 11.043.9 22.091-7.39 24.29-18.267.924-4.642.762-10.189 4.5-13.1 3.016-2.351 7.261-1.847 11.085-2.249 6.993-.725 12.512-5.081 16.309-10.771 1.741-2.61 1.944-5.727 4.318-7.783 2.551-2.259 6.509-.592 8.957-4.232z" fill="#3f3d56"/><g data-name="Group 1199" opacity=".1"><path data-name="Path 1560" d="M198.611 70.115a58.553 58.553 0 0 0 12.087-.924c-1.1.032-2.208.032-3.312 0-7.653-.212-15.879-1.792-23.02.111 4.712.046 9.585.684 14.245.813z"/><path data-name="Path 1561" d="M184.118 138.093c-2.083 1.358-3.349 3.626-4.785 5.663a32.446 32.446 0 0 1-18.23 12.568c.54.023 1.081.037 1.626.032a32.057 32.057 0 0 0 25.38-13.524c1.436-2.037 2.7-4.3 4.785-5.663l.36-.222c-3.261-.448-6.462-.605-9.136 1.146z"/><path data-name="Path 1562" d="M276.233 67.274c-2.628-3.815-6.863-6.244-11.228-7.8a31.606 31.606 0 0 0-18.419-1.238c-.139.032-.273.074-.406.111a35.357 35.357 0 0 1 10.05 2.051c4.365 1.557 8.6 3.986 11.228 7.8s3.3 9.237.725 13.071c-2.448 3.653-6.406 1.986-9 4.235-2.374 2.055-2.577 5.173-4.318 7.783-3.265 4.882-7.81 8.776-13.468 10.254 1.944-.231 4-.2 5.935-.406 6.993-.725 12.512-5.081 16.309-10.771 1.741-2.61 1.945-5.727 4.318-7.783 2.591-2.249 6.549-.582 9-4.235 2.581-3.853 1.912-9.257-.726-13.072z"/><path data-name="Path 1563" d="M238.563 104.057c-3.8.4-8.046-.1-11.085 2.249-3.737 2.914-3.556 8.461-4.5 13.1-1.621 8.115-8.207 14.808-16.027 17.3l.55.051c11.043.9 22.091-7.39 24.29-18.267.924-4.642.762-10.189 4.5-13.1a8.341 8.341 0 0 1 2.868-1.386c-.206.003-.397.035-.596.053z"/></g><path data-name="Path 1564" d="M350.16 63.824s-11.085 22.17-14.78 30.483-37.412 20.784-42.03 21.246a5.949 5.949 0 0 0-3.3 1.589 18.166 18.166 0 0 0-4.092 6.263s1.847 12.471-.462 33.255c-.046.4-.088.8-.125 1.192-2.014 19.777 2.2 24.442 2.2 24.442s-44.8 17.089-43.416-5.081a100.473 100.473 0 0 0-.06-16.341 68.622 68.622 0 0 0-2.651-12.868c-1.095-3.829-2.4-8.027-3.755-13.745a60.294 60.294 0 0 0-2.568-8.383c-.032-.083-.065-.166-.092-.245-2.309-5.732-4.619-7.584-5.94-8.184a19.969 19.969 0 0 1-3.547-2 186.567 186.567 0 0 1-21.583-18.142c-11.085-11.085-22.17-37.412-22.17-37.412s-3.233-15.242 4.157-27.712 4.157 24.479 4.157 24.479 13.394 18.013 16.627 26.327a13.892 13.892 0 0 0 6.466 7.6 76.671 76.671 0 0 1 10.226 6.392 59.716 59.716 0 0 0 6.877 4.489c5.164 2.771 11.348 5.9 16.5 6.72a15.56 15.56 0 0 0 2.434.208 2.522 2.522 0 0 0 2.032-.924c1.386-1.63 1.353-5.141 1.035-8.027a40.789 40.789 0 0 0-.758-4.448s15.011-9.468 14.549 2.078a12.907 12.907 0 0 0 .351 3.8 6.582 6.582 0 0 0 4.476 4.9 11.085 11.085 0 0 0 5.542.18 5.418 5.418 0 0 0 1.635-.559c1.386-.924 15.242-5.081 19.4-5.542s24.941-10.623 24.941-10.623l22.632-31.407s-.462-18.475 8.776-25.865-3.684 31.865-3.684 31.865z" fill="#fabdbd"/><g data-name="Group 1200" opacity=".1"><path data-name="Path 1565" d="M285.374 155.081a92.093 92.093 0 0 0-.531 11.177c.046-2.439.208-5.224.531-8.406.037-.388.078-.79.125-1.192a181.133 181.133 0 0 0 1.155-21.426 185.552 185.552 0 0 1-1.155 18.655c-.028.402-.087.804-.125 1.192z"/><path data-name="Path 1566" d="M252.031 94.71c-.309.18-.462.291-.462.291a39.556 39.556 0 0 1 .887 6 28.33 28.33 0 0 0-.425-6.3z"/><path data-name="Path 1567" d="M190.325 54.157c.226-3.233.563-9.03.5-14.184-.079 6.891-.693 13.921-.693 13.921z"/><path data-name="Path 1568" d="M244.194 176.673a3.031 3.031 0 0 1-.032.54c-1.386 22.17 43.416 5.081 43.416 5.081a7.52 7.52 0 0 1-1.169-2.346c-6.748 2.401-40.659 13.569-42.215-3.275z"/><path data-name="Path 1569" d="M350.16 61.053s-11.085 22.17-14.78 30.483-37.411 20.787-42.03 21.247a5.949 5.949 0 0 0-3.3 1.589 18.166 18.166 0 0 0-4.092 6.263s.111.753.245 2.185a17.173 17.173 0 0 1 3.847-5.676 5.949 5.949 0 0 1 3.3-1.589c4.619-.462 38.335-12.932 42.03-21.246s14.78-30.486 14.78-30.486 7.81-23.717 6.951-30.811c-.711 9.091-6.951 28.041-6.951 28.041z"/><path data-name="Path 1570" d="M244.101 158.101a68.621 68.621 0 0 0-2.651-12.868c-1.095-3.829-2.4-8.027-3.755-13.745a60.294 60.294 0 0 0-2.568-8.383c-.032-.083-.065-.166-.092-.245-2.309-5.732-4.619-7.584-5.94-8.184a19.969 19.969 0 0 1-3.547-2 186.567 186.567 0 0 1-21.583-18.142c-11.085-11.085-22.17-37.412-22.17-37.412a41.762 41.762 0 0 1-.684-6.734 44.522 44.522 0 0 0 .684 9.505s11.085 26.327 22.17 37.412a186.564 186.564 0 0 0 21.583 18.142 19.966 19.966 0 0 0 3.575 2c1.316.6 3.621 2.453 5.94 8.184.028.079.06.162.092.245a60.283 60.283 0 0 1 2.554 8.383c1.353 5.718 2.66 9.916 3.755 13.745a68.619 68.619 0 0 1 2.651 12.868c.194 1.931.309 4.032.342 6.4a80.443 80.443 0 0 0-.356-9.171z"/></g><path data-name="Path 1571" d="M289.842 138.038a27.509 27.509 0 0 0-1.847 3.64 21.986 21.986 0 0 0-.831 6.106 49.021 49.021 0 0 1-1.312 8.554 9.457 9.457 0 0 1-.462 1.515 4 4 0 0 1-.54.924 3.939 3.939 0 0 1-.859.781 10.079 10.079 0 0 1-1.566.854c-6.429 3-13.44 5.653-20.456 4.619a29.768 29.768 0 0 1-8.512-2.864c-2.54-1.233-5.413-2.7-8.046-1.672a4.05 4.05 0 0 1-1.289.4 1.224 1.224 0 0 1-.259-.023c-.868-.166-.868-3.095-1.067-3.958-.757-3.316-.873-6-1.326-8.886a29.154 29.154 0 0 0-1.113-4.7 55.466 55.466 0 0 1-2.406-17.4c0-.291-2.078 0-2.771-.028-.176 0-.272-.028-.231-.088a.927.927 0 0 1 .139-.157 2.11 2.11 0 0 1 .827-.411l.545-.162c2.854-.808 6-1.145 8.138-3.155 2.217-2.074 2.771-5.385 2.674-8.415a50.051 50.051 0 0 1-.425-5.3 15.554 15.554 0 0 0 2.434.208 2.522 2.522 0 0 0 2.032-.924 36.49 36.49 0 0 1 2 4.619 31.92 31.92 0 0 0 2.536 5.709 9.667 9.667 0 0 0 8.646 4.429 8.03 8.03 0 0 0 7.15-6.235c.531-2.933-.7-7.154-.674-10.2a11.085 11.085 0 0 0 5.542.18 5.006 5.006 0 0 1 .2.577c1.039 3.566 2.425 7.658 5.912 8.923 2.254.813 4.919.2 7 1.386a4.494 4.494 0 0 1 .462.3 5.114 5.114 0 0 1 1.224 1.3 10.434 10.434 0 0 1 1.483 4.656 25.828 25.828 0 0 1-2.952 14.898z" fill="#ed5485"/><path data-name="Path 1572" d="M266.451 100.875a15.741 15.741 0 0 1-14.142-1.427 40.8 40.8 0 0 0-.758-4.448s15.011-9.468 14.549 2.078a12.909 12.909 0 0 0 .351 3.797z" opacity=".1"/><circle data-name="Ellipse 309" cx="15.704" cy="15.704" r="15.704" transform="translate(245.08 69.597)" fill="#fabdbd"/><path data-name="Path 1573" d="M233.307 124.329s30.483-19.4 125.167 1.386 149.646 4.157 149.646 4.157v21.708s-106.23 11.547-146.875 0-98.5-18.207-118.765-.328z" fill="#f86d70"/><path data-name="Path 1574" d="M233.307 124.329s30.483-19.4 125.167 1.386 149.646 4.157 149.646 4.157v21.708s-106.23 11.547-146.875 0-98.5-18.207-118.765-.328z" opacity=".1"/><path data-name="Path 1575" d="M234.231 125.253s29.56-19.399 124.24 1.383 148.722 4.157 148.722 4.157l.462 19.86s-105.307 11.547-145.951 0-98.041-19.593-118.3-1.714z" fill="#f86d70"/><path data-name="Path 1576" d="M223.118 155.089s-30.483 19.4-125.167-1.386-90.065-4.157-90.065-4.157v-21.707s46.649-11.547 87.294 0 98.5 18.207 118.765.328z" fill="#f86d70"/><path data-name="Path 1577" d="M223.118 155.089s-30.483 19.4-125.167-1.386-90.065-4.157-90.065-4.157v-21.707s46.649-11.547 87.294 0 98.5 18.207 118.765.328z" opacity=".1"/><path data-name="Path 1578" d="M222.194 154.166s-29.56 19.4-124.243-1.386-89.141-4.157-89.141-4.157l-.462-19.86s45.725-11.547 86.37 0 98.041 19.593 118.3 1.714z" fill="#f86d70"/><path data-name="Path 1579" d="M247.278 87.901c-.462-2.882-1.173-6.512 1.238-8.161a5.127 5.127 0 0 1 2.859-.739c4.993-.051 9.764 3.427 14.66 2.411a8.263 8.263 0 0 0 3.233-14.72c-1.926-1.432-4.36-1.949-6.716-2.434-6.194-1.275-12.66-2.545-18.775-.924s-11.7 7.1-11.214 13.394c.231 3.011 1.764 5.746 3.367 8.314 1.219 1.949 5.967 11.085 8.272 11.223 3.252.19 3.395-6.48 3.076-8.364z" fill="#3f3d56"/><path data-name="Path 1580" d="M286.191 174.442s-31.869 7.852-42.492 0c0 0-4.619 18.013-3.233 27.25 0 0 22.632 1.386 24.941 2.771 0 0 .462-3.695 2.771-1.848 0 0 7.852-9.237 22.17-.924 0 .001 2.771-21.707-4.157-27.249z" fill="#ed5485"/><path data-name="Path 1581" d="M269.278 66.692a9.16 9.16 0 0 0-1.03-.647 8.244 8.244 0 0 1-4.522 13.519c-4.9 1.016-9.667-2.462-14.66-2.411a5.127 5.127 0 0 0-2.859.739c-2.411 1.649-1.7 5.279-1.242 8.161.3 1.884.18 8.554-3.062 8.374h-.055c.891 1.085 1.723 1.82 2.365 1.847 3.233.18 3.367-6.466 3.062-8.374-.462-2.882-1.169-6.512 1.242-8.161a5.127 5.127 0 0 1 2.859-.739c4.993-.051 9.764 3.427 14.66 2.411a8.263 8.263 0 0 0 3.233-14.72z" opacity=".1"/><g data-name="Group 1201"><path data-name="Path 1582" d="M39.894 44.753S5.36 30.232.834 56.421c0 0-2.36 4.078.924 7.45 0 0 .707-1.806 4.046.065a17.367 17.367 0 0 0 3.769 1.529 8.48 8.48 0 0 0 5.367-.286s11.357-.614 20.909-15.473c0 0 4.092-2.531 4.3-3.478l-6.845.462s.522 5.011-2.309 8.018c0 0 2.517-7.773 1.307-7.995-.245-.046-3.616.4-3.616.4s.873 8.711-3.695 13.219c0 0 4.24-8.863 2.392-13.062l-5.048.975s1.386 9.164-3.612 14.5c0 0 4.106-9.422 2.522-14.212l-4.84 1.626s1.169 8.97-3.011 13.394c0 0 3.649-11.367 1.931-12.932 0 0-4.351 1.764-5.284 2.771 0 0 .693 6.466-1.968 8.776 0 0 1.635-7.852.827-8.175 0 0-5.057 3.806-6.6 7.09a19.173 19.173 0 0 1 5.958-7.852 10.634 10.634 0 0 0-6 .845s1.75-3.33 7.228-1.75c0 0 4.06-2.808 4.873-2.771 0 0-5.182-2.309-8.928-2.028 0 0 4.014-2.309 10.2 1.552l4.822-1.746s-6.693-3.432-10.05-3.418c0 0 4.462-1.723 11.307 3.081l4.937-1.011s-5.542-3.395-9.279-4.185c0 0 4.485-.707 10.706 3.954l3.381-.286s-4.092-2.406-5.33-2.993-1.182-.97-1.182-.97a16.119 16.119 0 0 1 7.93 3.815s6.987-.138 7.021-.567z" fill="#ed5485" opacity=".1"/></g><g data-name="Group 1202"><path data-name="Path 1583" d="M38.618 18.722S26.363-9.577 8.763 3.402a5.238 5.238 0 0 0-3.695 4.942s1.45-.67 2.365 2.342a14.5 14.5 0 0 0 1.386 3.058 6.928 6.928 0 0 0 3.321 2.877s7.094 6.106 21.246 2.72c0 0 3.875.831 4.54.383l-4.328-3.63s-2.54 3.275-5.949 3.436c0 0 5.926-3.187 5.33-4.009-.12-.166-2.374-1.82-2.374-1.82s-4.448 5.672-9.7 5.76c0 0 7.57-2.854 8.863-6.4l-3.552-2.309s-4.4 6.238-10.4 6.557c0 0 7.806-3.233 9.593-7l-3.8-1.792s-4.415 6-9.408 6.231c0 0 8.642-4.674 8.508-6.582 0 0-3.589-1.432-4.725-1.349 0 0-3.265 4.226-6.18 4.106 0 0 5.445-3.737 5.145-4.388 0 0-5.173-.619-7.958.462a15.761 15.761 0 0 1 8.012-1.267 8.657 8.657 0 0 0-4.04-2.91s2.938-.984 5.293 3.076c0 0 4.009.642 4.476 1.122 0 0-1.755-4.337-4.157-6.291 0 0 3.695.924 5.173 6.729l3.857 1.714s-2.018-5.852-4.046-7.75c0 0 3.635 1.515 4.965 8.267l3.506 2.212s-1.363-5.173-3.127-7.75c0 0 3.067 2.129 4.111 8.443l2.171 1.755s-1.062-3.76-1.464-4.813-.148-1.247-.148-1.247a13.307 13.307 0 0 1 2.536 6.785s4.26 3.89 4.509 3.65z" fill="#ed5485" opacity=".1"/></g></g></svg>