<svg xmlns="http://www.w3.org/2000/svg" width="48.405" height="56" viewBox="0 0 48.405 56">
  <g id="_Map_Marker_-_Sortir_V2_" data-name="ðŸ“Map Marker - Sortir [V2]" transform="translate(-319.595 -232)">
    <g id="_Map_Marker_-_Tourist_V2_" data-name="ðŸ“Map Marker - Tourist [V2]" transform="translate(215.595)">
      <g id="_Map_Marker_-_Nature_V2_" data-name="ðŸ“Map Marker - Nature [V2]" transform="translate(72)">
        <path id="_V1_HEXAGONE" data-name="[V1]HEXAGONE" d="M-28.8,0-53,14V42l24.2,14,24.2-14V14Z" transform="translate(85 232)" fill="#ed5485"/>
        <g id="Category_Icon_-_Sortir" data-name="Category Icon - Sortir" transform="translate(-463.595 124)">
          <path id="Category_Icon_-_Sortir-2" data-name="Category Icon - Sortir" d="M23.536,2.7A1.582,1.582,0,0,0,22.418,0H1.587A1.582,1.582,0,0,0,.469,2.7L10.5,12.733V21.75H7.877A1.875,1.875,0,0,0,6,23.625.375.375,0,0,0,6.377,24h11.25A.375.375,0,0,0,18,23.625a1.875,1.875,0,0,0-1.875-1.875H13.5V12.733Z" transform="translate(507.997 124)" fill="#fff"/>
        </g>
      </g>
    </g>
  </g>
</svg>
