<svg xmlns="http://www.w3.org/2000/svg" width="48.405" height="56" viewBox="0 0 48.405 56">
  <g id="_Map_Marker_-_Mobility_V2_" data-name="ðŸ“Map Marker - Mobility [V2]" transform="translate(-455.595 -232)">
    <path id="_V1_HEXAGONE" data-name="[V1]HEXAGONE" d="M-28.8,0-53,14V42l24.2,14,24.2-14V14Z" transform="translate(508.595 232)" fill="#ed5485"/>
    <g id="Category_Icon_-_Mobility" data-name="Category Icon - Mobility" transform="translate(240 188)">
      <path id="Category_Icon_-_Mobility-2" data-name="Category Icon - Mobility" d="M31.006,24.1,31.9,25.9a1,1,0,0,1-.451,1.34l-4.092,2.055a2,2,0,0,1-2.7-.941L20.73,20H12a2,2,0,0,1-1.98-1.717C7.9,3.457,8.024,4.378,8,4a4,4,0,1,1,4.586,3.957L12.877,10H21a1,1,0,0,1,1,1v2a1,1,0,0,1-1,1H13.449l.286,2H22a2,2,0,0,1,1.81,1.149L27.4,24.8l2.261-1.147a1,1,0,0,1,1.34.451ZM19.46,22H17.928A7,7,0,1,1,7.52,14.928l-.593-4.146A11,11,0,1,0,21.069,25.426Z" transform="translate(224 56)" fill="#fff"/>
    </g>
  </g>
</svg>
