<svg xmlns="http://www.w3.org/2000/svg" width="176" height="59.798" viewBox="0 0 176 59.798"><g data-name="PIX.CITY SERVICES"><g data-name="Group 160"><g data-name="Group 159"><g data-name="Group 158" fill="#103558"><path data-name="Path 129" d="M46.522 8.051c-.05-2.748-1.517-5.287-4.326-5.287-2.625 0-3.366 2.6-3.265 5.414.169 4.837 7.68 4.714 7.591-.127z"/><path data-name="Path 130" d="M27.44 3.108Q22.305-.307 14.24.481a19.478 19.478 0 0 0-7.881 2.408 15.064 15.064 0 0 0-5.06 4.118Q-.142 9.271.014 10.183c.065.4.42.563 1.073.5a4.467 4.467 0 0 0 2.042-.784c.71-.466 1.517-.976 2.412-1.532a18.578 18.578 0 0 1 8.171-2.651 11.687 11.687 0 0 1 7.248 1.258 7.136 7.136 0 0 1 3.319 5.218q.926 5.546-1.443 8.163a5.967 5.967 0 0 1-2.37 1.632 23.577 23.577 0 0 1-2.5.8c-.706.18-1.285.359-1.76.532a35.777 35.777 0 0 1-3.13.545c.011-.305.027-.61.042-.939q.26-5.215.154-8.483a28.157 28.157 0 0 0-.405-3.736c-.232-1.4-.563-2.08-1-2.037a2.161 2.161 0 0 0-1.139.427q-3.635 2.629-5.037 15.651a49.953 49.953 0 0 0 .042 13.111 24.156 24.156 0 0 0 .884 3.824 1.629 1.629 0 0 0 1.829 1.227q6.229-.566 5.7-3.74l-1.135-10.115c4.96-1.378 10.532-1.74 14.774-5.013.058-.043.108-.093.162-.135a11.882 11.882 0 0 0 2.57-2.694 8.539 8.539 0 0 0 1.069-1.814 12.724 12.724 0 0 0 1.2-8.009 11.942 11.942 0 0 0-5.346-8.281z"/><path data-name="Path 131" d="M61.828 29.368c2.57-3.176 4.411-5.623 5.407-7.009 1.135-1.582.9-3.944-.328-4.782 0 0-2.771-2.566-8.514 6.913l-.012.016c-1.772-2.524-3.4-4.782-4.647-6.3-1.277-1.552-2.37-1.972-3.655-1.883-4.836.324-.756 7.966.629 10.177a43.241 43.241 0 0 1 2.725 4.439c-4.469 6.078-8.8 6.434-9.818 6.117-1.173-.367-2.061-1.721-1.378-7.384.035-.185.066-.367.1-.563.181-1.111.324-2.107.44-3.015l.011-.058v-.007a25.661 25.661 0 0 0 .282-4.593 7.335 7.335 0 0 0-.949-3.212c-.722-1.412-1.609-2.122-2.663-2.122-.957 0-1.81.683-2.563 2.03-.046.084-.093.169-.139.259-2.856 5.013-3.184 13.859-3.122 17.961.039 2.609 1.192 6.2 5.442 6.894a14.925 14.925 0 0 0 5.747-.185 14.1 14.1 0 0 0 4.2-1.536l.015-.008a32.237 32.237 0 0 0 7.252-5.975c2.748 4.408 6.241 8.1 9.88 6.944.355-.113.664-.232.957-.355a5.4 5.4 0 0 0 1.953-1.289c1.382-1.552.637-3.616-.691-4.894a60.874 60.874 0 0 1-6.561-6.58z"/><path data-name="Path 132" d="M123.654 8.051c-.05-2.748-1.517-5.287-4.327-5.287-2.624 0-3.365 2.6-3.265 5.414.17 4.837 7.68 4.714 7.592-.127z"/><path data-name="Path 133" d="M76.8 24.528c-1.906 0-2.81 1.377-3.13 3.211a10.751 10.751 0 0 0-.135 2.2 4.53 4.53 0 0 0 .077.585 3.336 3.336 0 0 0 1.98 2.591c2.269 1.046 5.592-.07 5.534-3.3-.051-2.748-1.517-5.287-4.326-5.287z"/><path data-name="Path 134" d="M166.459 44.796c.1-.451.2-.9.274-1.342.892-5.029 1.91-17.1 2.177-19.155s.336-4.492-1.359-6.152-3.616-3.388-5.009-.786c-1.972 3.666-.039 9.88-3.1 14.635-6.4 9.957-7.314 2.994-7.148.983.282-3.35 1.293-8.209 1.69-11.138.637-4.685-2.162-5.5-3.523-5.136s-2.374 2.4-3.138 4.635a65.228 65.228 0 0 0-1.864 8.927 12.34 12.34 0 0 0-.552.8c-3.014 4.794-8.838 9.283-9.379 2.775 0-.4-.016-.784-.043-1.135a56.917 56.917 0 0 1 .745-9.943 20.33 20.33 0 0 0 5.762-.79c1.528-.556 1.829-2.2 1.829-3.678 0-1.768-2.474-2.158-6.175-2.018 1.4-4.191.544-1.641.544-1.641 1.7-5.1-2-4.55-4.25-4.117a1.848 1.848 0 0 0-.428.15 3.242 3.242 0 0 0-2.115 1.869c-.784 1.374-.834 1.67-1.524 4.522-.452.077-.88.158-1.247.228a4.555 4.555 0 0 0-3.2 3.029c-.344 1.532.591 2.327 3.323 2.363h.042a54.09 54.09 0 0 0-.741 8.626c-1.312 2.246-5.542 5.754-7.313 5.754a2.317 2.317 0 0 1-1.389-.437 2.01 2.01 0 0 1-.691-1.578 33.493 33.493 0 0 1 .807-5.932 38.558 38.558 0 0 0 .729-7.673 7.338 7.338 0 0 0-.95-3.211q-1.082-2.118-2.663-2.122-2.663 0-4.265 6.966c-.409 2.443-1.474 6.708-1.389 10.729-7.692 6.519-13.612 2.018-13.5-7.99.116-11 5.527-16.017 8.386-17.765s5.4-1.617 5.462-2.5-.436-4.277-6.349-3.7-15.476 8.293-16.526 22.689 7.159 18.707 13.068 18.916a13.525 13.525 0 0 0 10.564-4.277 7.383 7.383 0 0 0 3.875 3.724 4.723 4.723 0 0 0 2.015.424 12.277 12.277 0 0 0 8.653-3.562 30.429 30.429 0 0 0 2.077-2.528c.436 3.767 5.121 10.9 15.77 1.4.243-.239.478-.475.71-.714.9 3.57 6.218 8.36 15.264 1.267l-.278 2.616a43.222 43.222 0 0 1-.433 2.8q-1.655.035-3.4.143c-11.123.695-14.848 6.029-13.585 10.119s6.48 6.3 13.018 4.014c4.408-1.54 7.383-5.256 9.186-9.367 6.754.05 11.112.787 11.1-.344-.038-2.367-3.79-3.841-9.544-4.372zm-5.882-5.754c.058-.046.046-.035 0 0zm-11.135 15.229c-.714-.366-2.709-3.6 8.078-4.5.227-.019.448-.035.671-.05-3.098 7.175-8.185 4.845-8.749 4.552z"/></g></g></g><g data-name="Group 161" fill="#103558"><path data-name="Path 135" d="M132.43 7.27a3.217 3.217 0 0 1-1.255-.479l.267-.842a3.1 3.1 0 0 0 1.115.448 3.96 3.96 0 0 0 1.331.05 2.364 2.364 0 0 0 1.27-.482.927.927 0 0 0 .324-.853.786.786 0 0 0-.317-.559 1.677 1.677 0 0 0-.637-.265 10.91 10.91 0 0 0-1.023-.136 10.445 10.445 0 0 1-1.339-.2 2.187 2.187 0 0 1-.922-.475 1.6 1.6 0 0 1-.5-1.03 1.817 1.817 0 0 1 .158-1.062 2.08 2.08 0 0 1 .8-.852 3.769 3.769 0 0 1 1.467-.483 4.9 4.9 0 0 1 1.254-.007 3.282 3.282 0 0 1 1.108.32l-.224.853a3.634 3.634 0 0 0-1.007-.3 3.552 3.552 0 0 0-1.011-.009 2.19 2.19 0 0 0-1.243.491.97.97 0 0 0-.32.868.8.8 0 0 0 .324.56 1.793 1.793 0 0 0 .652.271c.251.05.586.092 1.011.131a9.661 9.661 0 0 1 1.335.208 2.139 2.139 0 0 1 .915.467 1.556 1.556 0 0 1 .5 1.015 1.849 1.849 0 0 1-.162 1.058 2.078 2.078 0 0 1-.818.853 3.805 3.805 0 0 1-1.478.478 4.93 4.93 0 0 1-1.575-.037z"/><path data-name="Path 136" d="M142.592 4.301l-4.388.113a1.717 1.717 0 0 0 .656 1.131 2.081 2.081 0 0 0 1.343.4 2.012 2.012 0 0 0 1.544-.694l.556.621a2.365 2.365 0 0 1-.9.675 3.435 3.435 0 0 1-2.744-.062 2.5 2.5 0 0 1-1.046-.957 2.783 2.783 0 0 1-.4-1.42 2.831 2.831 0 0 1 .317-1.423 2.494 2.494 0 0 1 .942-1.007 2.772 2.772 0 0 1 1.386-.39 2.715 2.715 0 0 1 1.389.321 2.449 2.449 0 0 1 .973.961 3 3 0 0 1 .378 1.439 2.78 2.78 0 0 1-.006.292zm-3.875-1.729a1.725 1.725 0 0 0-.529 1.135l3.466-.085a1.734 1.734 0 0 0-.583-1.1 1.675 1.675 0 0 0-1.189-.405 1.693 1.693 0 0 0-1.165.455z"/><path data-name="Path 137" d="M145.768 1.649a2.723 2.723 0 0 1 1.223-.177l-.05.949a1.48 1.48 0 0 0-.224-.023 1.63 1.63 0 0 0-1.274.405 1.863 1.863 0 0 0-.529 1.324l-.151 2.686-.976-.05.3-5.4.938.05-.05.908a1.7 1.7 0 0 1 .793-.672z"/><path data-name="Path 138" d="M153.162 2.233l-3.006 5.079-.992-.124-1.69-5.655 1.011.124 1.316 4.531 2.412-4.071z"/><path data-name="Path 139" d="M154.156 2.445l.965.169-.938 5.326-.965-.17zm.228-1.2a.6.6 0 0 1-.108-.474.621.621 0 0 1 .262-.413.629.629 0 0 1 .5-.105.67.67 0 0 1 .436.26.579.579 0 0 1 .108.47.675.675 0 0 1-1.2.263z"/><path data-name="Path 140" d="M156.768 8.146a2.633 2.633 0 0 1-.772-1.185 2.946 2.946 0 0 1 .629-2.775 2.585 2.585 0 0 1 1.208-.733 3.055 3.055 0 0 1 1.517-.016 2.834 2.834 0 0 1 1.212.58 2.07 2.07 0 0 1 .679 1.034l-.83.3a1.7 1.7 0 0 0-.49-.706 1.782 1.782 0 0 0-.772-.375 1.959 1.959 0 0 0-.984.016 1.69 1.69 0 0 0-.791.5 2.206 2.206 0 0 0-.444 1.954 1.668 1.668 0 0 0 .5.795 1.928 1.928 0 0 0 .88.439 1.78 1.78 0 0 0 .857 0 1.683 1.683 0 0 0 .749-.424l.621.621a2.142 2.142 0 0 1-1.061.641 2.832 2.832 0 0 1-1.347.008 3.025 3.025 0 0 1-1.361-.674z"/><path data-name="Path 141" d="M166.649 8.624l-4.207-1.242a1.7 1.7 0 0 0 .274 1.277 2.054 2.054 0 0 0 1.154.795 2.015 2.015 0 0 0 1.683-.185l.339.76a2.352 2.352 0 0 1-1.061.368 3.461 3.461 0 0 1-2.59-.9 2.5 2.5 0 0 1-.706-1.236 2.813 2.813 0 0 1 .058-1.469 2.844 2.844 0 0 1 .741-1.263 2.522 2.522 0 0 1 1.208-.667 2.762 2.762 0 0 1 1.436.057 2.706 2.706 0 0 1 1.223.729 2.488 2.488 0 0 1 .633 1.213 3.029 3.029 0 0 1-.085 1.486 2.357 2.357 0 0 1-.1.277zm-3.157-2.836a1.735 1.735 0 0 0-.853.919l3.327.983a1.751 1.751 0 0 0-.216-1.23 1.826 1.826 0 0 0-2.258-.672z"/><path data-name="Path 142" d="M167.359 11.275a2.835 2.835 0 0 1-.745-.751l.652-.591a2.955 2.955 0 0 0 .672.683 3.653 3.653 0 0 0 .915.5q1.21.441 1.463-.247a.478.478 0 0 0-.031-.424 1.091 1.091 0 0 0-.336-.348c-.147-.1-.363-.232-.645-.394a6.7 6.7 0 0 1-.918-.586 1.616 1.616 0 0 1-.513-.664 1.249 1.249 0 0 1 .027-.934 1.383 1.383 0 0 1 .981-.9 2.73 2.73 0 0 1 1.694.146 4.5 4.5 0 0 1 .969.5 2.935 2.935 0 0 1 .714.641l-.66.585a2.824 2.824 0 0 0-1.32-.941 1.783 1.783 0 0 0-.961-.132.613.613 0 0 0-.49.394.507.507 0 0 0 .027.456 1.137 1.137 0 0 0 .351.366c.151.108.371.247.656.417a8.216 8.216 0 0 1 .911.587 1.625 1.625 0 0 1 .5.644 1.225 1.225 0 0 1-.027.9 1.351 1.351 0 0 1-.992.88 2.936 2.936 0 0 1-1.752-.181 4.392 4.392 0 0 1-1.142-.606z"/></g></g></svg>