<svg xmlns="http://www.w3.org/2000/svg" width="120.874" height="70.397" viewBox="0 0 120.874 70.397"><g data-name="Group 363" fill="none" stroke="#b3aeb0" stroke-linecap="round" stroke-miterlimit="10" stroke-width="3"><path data-name="Path 232" d="M78.503 67.5a.491.491 0 0 1-.5.391l-35.185-.054c-.2 0-.5-.193-.5-.443l.122-65.453a.494.494 0 0 1 .487-.443h.022l35.177.09a.457.457 0 0 1 .5.409z"/><path data-name="Path 234" d="M32.781 4.765L6.088 17.315a.4.4 0 0 0-.224.495L29.21 67.511l7.884-3.639" stroke-width="2.99937"/><path data-name="Path 1643" d="M88.104 4.777l26.693 12.554a.4.4 0 0 1 .224.495L91.675 67.524l-7.884-3.64" stroke-width="2.99937"/></g></svg>