<svg xmlns="http://www.w3.org/2000/svg" width="120.874" height="70.397" viewBox="0 0 120.874 70.397"><g data-name="Cards Icons"><path data-name="Path 232" d="M78.503 67.5a.491.491 0 0 1-.5.391l-35.185-.054c-.2 0-.5-.193-.5-.443l.122-65.453a.494.494 0 0 1 .487-.443h.022l35.177.09a.457.457 0 0 1 .5.409z" fill="none" stroke="#103558" stroke-linecap="round" stroke-miterlimit="10" stroke-width="3"/><path data-name="Path 234" d="M32.781 4.765L6.088 17.315a.4.4 0 0 0-.224.495L29.21 67.511l7.884-3.639" fill="none" stroke="#103558" stroke-linecap="round" stroke-miterlimit="10" stroke-width="2.99937"/><path data-name="Path 1643" d="M88.104 4.777l26.693 12.554a.4.4 0 0 1 .224.495L91.675 67.524l-7.884-3.64" fill="none" stroke="#103558" stroke-linecap="round" stroke-miterlimit="10" stroke-width="2.99937"/><path data-name="Path 1644" d="M31.627 41.775l-9.491 4.462a.143.143 0 0 0-.08.175l8.301 17.672 2.803-1.293" fill="#103558"/><path data-name="Path 1645" d="M88.919 41.78l9.491 4.462a.143.143 0 0 1 .08.176l-8.3 17.672-2.8-1.294" fill="#103558"/><path data-name="Path 1646" d="M75.017 64.508c0 .074-.241.15-.406.139l-28.375-.019c-.16 0-.4-.069-.4-.158l.1-23.337c0-.081.183-.153.393-.158h.018l28.369.032c.221 0 .406.06.406.146z" fill="#103558"/></g></svg>