<svg xmlns="http://www.w3.org/2000/svg" xmlns:xlink="http://www.w3.org/1999/xlink" width="205" height="168" viewBox="0 0 205 168"><defs><path id="93wpa" d="M560.222 176.816l-.312-.28-.778.358-.214-.053-.178-.38-1.3-.057-1.242-.222-.333-.232-1.405-.266-.974-.61-.713-.819-1.28-.402-.974-.526-.882-.017-.456-.74-1.19-.958-.912.87-1.055-.366-.214.069-.736.81-.5-.117-.343-.504-.602-.244-1.384-1-.22-.008-.248.346-.435.059-.5.666-1.052-.011-.382.152-.068-.614-.417.105-1.04-.217.052.398-1.09.23-1.5-.499-.33-1.169-1.158-.584-1.311.189-.404-.15-1.16-.897-.306-.529-.253-.787-.54-.326-.267-.573-.376-.181.586-.851-.01-.212-.344-.268-.159-.613-.65-.015-.797.281-.316-.299-.5.27.346-1.18-2.686.531-.642.199-.158 1.43.015.202-1.543.105-.514.42-.401.757-.449.543-.408-.147-.182-.347-1.266-.25-.154-.141-1.439.292-.536.592-.094-.42-.47-.46-.871.166-.221.374-1.136-.694-.283-.548-.867.152-.027-.405.304-.302-.113-.18-.42-.064-.626.186-.027.605.313.55-.729.435-.219.58-.393.182-.507-.343-.012-.622.006-.63-.488-.95-.246-1.026.228-1.03-.564-.271-.202.088-.099.16-.209-.31-.39-.033-.93-.873-.798.294-.168-.137-.418-.469-.367-.508-.44-.058-1.258.783-.397-.055-1.106-.64-.754.45-.117.18.567.658-.043.422.452.905-.092.174-.588.173.025.777.1.165-.161.116-.394.252-2.109-1.02-.434.03-.42.153-.664-.047-.416.082-.327-.28-.436-.452-.29-.788.745-1.042-.356-.773-1.041.234-.183-.12-.328-1.593.155-.15-.188-.357-.954-.319.264-1.405-.612-.041-.092-.383-.808-.524-.259-.32-.402-.085-1.136-1.18.187-.34-.052-.362-.562-.088-.558-.863-.016-.414.194-.098.416.076.322.287.507-.905-.56-.287-.082-.814-.36-.242-.442.01-.538-.363-.123-.336-.36-.067-.09-.6.682-.489-.806-.919-.625-.224-.836-.721-.656-.167-.7-.746-.597.051-.566-.169-.36-.473-.396-.095-.805.611-1.492-.035.053.409-.187.02-.551-.459-.173.061-.155-.142-.404.09-.583-.62-1.016-.281.15-.395-.408.075-.373-.437-.185-.57-1.402-.526-.296.25-.781-.116-.011.193-1.555-.015-.187-.102-.772.359.033.588-.541.33-.63-.207-.312 1.011-.613.18-.316.29.035.844-.61-.174-.604-.564-.65-.023-.594 1.07-.626-.154-.064-.195-1.033-.123-.796.274-.115-.181.266-.335-.478-.417-.17-1.448-.623-.188-.415-.384-.387-.02-.412.072-.61-.174-.771.288-1.232-.264-1.173-1.137-.032-.4.374-.19-.336-.737-.795.29-.282-.397.2-.085-.1-.185-.826-.247-.855-.639-.596.21-.058 1.005-.604.2-.53-.316-.352.21-.855.092-.51-.4-.833-.147-.353-.234-.654.162-.515.403-.005.213-.622.56.132.59-.154.382-.27.512-.163-.064-.556-.874-1.033-.363-.637-.032-.482.662-.378.217-.084.054-1.29.349-.664.006-.583.575-.194-.104-.12-.61-.68-.543.706-.505.051-.614-.952-.85-.05-.113.206-.076.318-.765-.609-.233-.433-1.179.083-.194-1.569-1.502-1.956-.836-.283.773-.76.24-.293.13-.422-1.095.656-1.046.505-.38-.564-.618-1.366-1.103-.182-.228-.044-.008-.027-.21-.509-.414-.928.548-.633-.207-.648.072-.294-.32-.377.128-.383-.133-1.019.097-.033-1-.19-.354-.385-.15-.337.508-.862-.487.075-.586-1.185-1.997-.288-.304-.867.192-.93-.517-1.338-.57-.55-.86-.433-.398-1.5-.02-.377.206-.154.393-.31-.04-.175.282-.423-.11-.632.177-.36-.202-.436.053-.515-.313-.555.239-.278-.322.777-1.484-.266-1.222-.363-.212-.147-.393-.15-.832.436-.43.878-1.743.096-.834-.272-.593-.85-.716-.554-.926-1.314-.325-.96-.25-.039-.639.234-.81.435-.12.408-.512.205-1.887.824-.992-.126-.387-.383-.218-.004-.426-.367-.227.064-.28.77-.27.056-.796.202-.06-.213-.556.415-.44.405.116.155.399.198.104.177-.132-.14-1.68.366-.525.747-.478-.013-.211-.45-.087-.408-.741-1.81-.105-.372-.763-.85 1.009-.958.591-.607.24-.386.958-.207.022.013.58-1.513.71-.077.186-.445.082-.876 1.703.208.604.427-.097-.025.982-.243.556-.168.378.08.998-.1.39.354.514-1.114.009-1.458.54-1.562.091-.835.295-.245.455-.363.231-.867.097-.699 1.029-.538.274-1.321-.02-1.424.606-1.115-.564-.84-.12-.448-.027-.32-.295-1.32.09-.594-.639-.667-.1-.362-.254-.843.268-1.354.01-1.053.375-.04.113-.499 1.36-.102 1.055.183.354.482.08.138.324.788-.012-.237 2.476-.045.382-.643.504-.146.765-.279.257-.366 1.566.199.067.315.718-.179.362-.538.316-.151.147.332.514.43-.107.734.454.203.591-.685.53-.122.97-.093.231-.848.278-.578.43-.293.876.037.143-.856.303-.578.197-.282.243.1.535-.825-.004-.182 1.041.09.624-.318.547-.065.503-.826.248-1.026-.411-.877.061-.128-.175-.217-.02-.16.78-.513.328.22.353.672.818.547.26.16.138-.174.375.107.818.584.229-.716.987-.388.176.063.397.654.117.34.254-.023 1.04-.025.199-.58-.155-.202.743-.634.023.003.792.031.697-.004.2.029.61 1.007 1.537-.199-.078-.596.094-.402.432.238.819.026.414.25.326-.079.412-.325.514-.13.795-.068 1.473-.954.096-.189-.553-.904-.7-1.062.096-1.114-1.28-.415-.567-.608.754-.61.155-1.505.684-.159.802-.36.227.438.665-.132.381-.145.149-.776-.323-.378-.41-.866-.11-.415.117-.555.234-.1-.17-.827.5-.476-.033-.226.034.04.526-.245.206-1 .09-.808.333-.237.097-.764.137-.266.34-.638.194-.211.773-.177.115.206.333.532.292.128.262-.307.495.564.559-.414.4.63 1.344.2.04.082.183-.46.85-.61.094.14.523.324.242.592.104.22.518.651-.48.302.363-.299.532.375.705.81.322.621-.221.44.058-.103 1.166-.381.1-.946.598-.574.234-.223-.335-.232-.272-.36-.08-1.22.347-1.27-.156-.14.097-.054.135-.003.394-.405.431.014.394-.436.413.189.34.373-.049.28.522.508 1.29.286.292-.29.54-1.037.034-.205.493-.508.228-.111.04-.105 1.245.23.293 1.004.03.09-.179.614-.194.41.103.373-.204.562.246.594 1.294-.527.632-1.062.099-.587 1.11-.192 1.198-.767.036-.48.316.364.448.045.377-.33.123-.793.342-.084 1.241-.24.312-.808-.093-.79.175-.311.422-.52.866-.24 1.183-.56.224-.35.081.23.557-.067.329.256 1.02-.253.585.081.627-.263.182-.254-.436-.195-.082-1.078.542-.613-.073-.555-.293-.438.461.058.2.569.276.826.057.074.81-.019.2-.57.24-.362-.193-.415.022-.54 1.357.083.39.414.128.809-.26.349.242.009.607.248.328 1.034-.05-.028.599.017.36-.005 1.056.45.46-.218.03-.072.618-.597.268-.583.63.147.34-.152.154.68.796-.322 1.01 1.074-.174.645-.574 1.08.19.642-.162-.606.596.105.185.834.214.605.6.003.201-1.976.696-.125.166.406.717-.966.131-.288.509-.683.45-.146.157.706 1.257-.026.508-.38.086-.921.691-.596.007-.932-.299-.371.331.814.952.423.943-.012.402-.591-.03-.703.289-.824.484.554.6-.021.407.373.497-.065.832-.312.287-.159.587.793.237-.29.357h.66l.008.391-.254 1.14-.033.835.527.903.21.05.776-.729.853-.11.014.013.171.315.874-.005.364.235 1.173 1.511.532.37-.05.897.844-.078-.037.624 1.021.75-.322.766.112.184 1.369.627.36.806.034.2-.959 1.048-.073.19.198.35.323-.11.385.37-.508.915-1.436 1.326.786.61 1.24-.809.711.45.425.999.377.523.345 1.238.972-.377.14-.585.259.572.215.026.62-.584.016-.412-.272-.574.09-.192 1.212.404.38.94-.618.814.036.408.516.366.67-.42 1.37 1.59.168.376-.237.298-.058.575 1.162 1.378.096.938-.279.253.426.467.472.053.193.363.932.796.024.816-.335-.207-.964.146.428 1.23.607.05-.114.388.782-.304.068-1.005.157-.14.416.027.334.498.437.976-.356 1-.136 1.267-.352.548.07.045.398.125.371-.19.186.098.334-.4.963.154.574-.207.757.322.186-.021.834-.722.414.733.411.103.342-.223.53.328.373-.193.253-.95 1.209.106.123.163.08.787.799.01.353-.212.44-.364.386.032-.002-.414 1.07-.977.71.374.05.832.626-.101.237-.337-.062-.834-.386-.196-.002-.21.279-.293 1.005.039-.086 1.425.935 1.1.968.403 1.01-.115.364-.767-.117-.627.266-.338.3-.508 1.666.358 2.675-.704.91.537.371.193 2.034-.72.878.103.629-.216.877.129.318-.222-.19-.81-.523-.345-.301-.982.61.024.184-.37 1-.977.828-.13.399.127.375-.182.216.428 1.074-.022 1.064.589.954-.478.356.16.659.69 1.239.279 1.672-.216.172.592.62.568-.538.317-.41.736.087.377.58.166.391.162.367-.158 1.062.124.464.435.381.712-.811 1.134-.545.282-.142.365.191.333.954.678.746-1.452.842-.188.473.373.57 1.348.359.446-.028.937.521.266.595.026.344.763-.034.829.288.505.205.064.358.083.104.319.026-.04.387.335-.337.982-1.288.843-.515.244-1.052.524.215.24-.264.384.353.18-.02.197.602-.087.303-.237.53.248.255 1.196-.192.571.166-.122.297.227-.296.504-.01.57-.307.266-.1.375.706.77-.118.176 1.063-.12.343-.258.08-.415 1.054-.581.165.134-.078.826 1.048-.042-.396 1.171.242.348.396.162.61.134.453.416.628.048.21.365.397-.041.022.154.427.061.67-.533.615-.87.082-.402.76-.169-.206 1.666.628.239.964.483.74.778.331.736.248-.087.659-.245-.8 1.496.7 1.28.521-.296.388.005.112-.605 1.08-.971.406.004.305-.291.418.082.19.098.249.334-.06.417.561.303.422-.675.348-.106.035-1.023.54-.902.746-.725-.278-.301.315-1.25.62-.17.542.315.639-.02.833-.198.562-.596 1 .486.154.147.851.014 1.542-2.014.153.02.53.36.066.627.484 1.15.39-.216.389.113.593-.206.994-.026.27-.448.332-.058.124.158.762-.115.211-.331-.025-.836-.378-.505.043-.634.447-.15-.297-.318.036-.213.828-.671-.13-.375.062-.634-.02-.376-.166-.113-.98-.024.096-.33-.237-.228.376-2.046.532-.641.644.109.602.189.143.05.37-.08.243-.284.102-.374-.18-1.16.386-.17.327-.469.37.176 1.21.046-.098.544.38-.034.96-.281-.162-.454-.117-.59.973-1.7.13-.387.132-.152.74.295.595.05.138-.144.17-.444-.244-.98.508-.34-.144-.379.593-.534.44-.043.137-1.439.254-.204.844-.324.51.8-.927.968-.207.773.628.106.892-.682.078-.596 1.32.067.272-.322.028-.392.569-.616-.03-.586.61-.84 1.483-.858.558.127.992.06.213-.34.716-.367 1.034 1.043-.134.658.265.285.146 1.142-.549.234.238.266.176.026.075.347.41.343.463-.26 1.047.68.045.207-.122.625.386.101.217-.32.77.171.153-.345.383-.034.51-.43.604-.466.649-.112.586.297.656.042 1.782-.76.574.238.405-.082.677.437.164.586.985-.038.747 1.306.383.212-.003.821.687.807.128.403 1.055-.657 1.617-.383.68-1.241.439-.702 1.363-.6.198-.006.274.512.703.478.486.679-.042.423.223.363 1.745.963.188.147.518.268.27.34 1.053.663.085-.033.037.208 1.96.758.305.518-.135.38.124.283 1.324 1.04.581-.606.185-.107.183.111-.134.567.245.337.011.415.664 1.013 1.121.38.436.116.229-.077.62.34.046.125.628-.067 1.505 1.189 1.01.35.555.256.171-.11.202.548.481.502.224.281-.413.984.465.777-.096.022.095.26.298.28-.34.498.169.167.151.123-.42.652.168.563-.815-.017-.136.342-.12.941-.133-.035-.162.226-.067.415.208.904-.034.325.342.15.091.51.214-.042.032-.21.742-.443 1.295.066.014.001.17.122.292.231.044.457.104.11.228.623.45.34.102.566-.055.44.526.228.537.444.05.04.215.546.18.342-.234 1.02-.263.318.762.314.445.426.409.082 1.226-.248.175.114-.378.166-.234.335-.408.933.011.607-.255.769.108.171 1.319.474.717-.281.527.16.086.396.385.56 2.382-1.04.862-.042.602-.099.513.35 1.473.174.589-.209.93-.752.315-.7.61-.16.372-.71-.936-.479-.417.079.568-1.083.832.52.876.55.422-.09.643-.56.293-.314.092-.626-.516-.894.237.347.63-.041.208-.051.275-.565-.028-.207-.352-.223-.775.277-.144-.388.23-.47.141-.11.398-.061 1.442-1.07.191-.094.195-.566.578-.117.398.027.367-1.527-.784-.91-.292-.97-1.79-1.73-.193-.368-.01-1.044-.322-.77.068-.409.889-.723.374-.479.197-.78-.366-1.151-.272-.71-.131-1.06.454-1.215.2-.56.695-1.724.04-.617-.324-1.178.087-.634.834-.677.205-.375-.064-1.368.07-.555.867-1.135.788-1.526-.569-1.62-1.262-1.494-.413-.696.2-1.417-.17-1.28.28-.803.158-.787-.08-.884.881-.854.026-1.228.6-.854.65-.825.327-.768.197-.493 1.019-1.04.562-2.012.05-.19.553-2.724.466-.457 1.217-.523.315-.303.15-.402-.071-.639-.31-1.353-.216-1.192.108-1.002.833-2.184.535-1.786.03-1.388.192-.342.943-.562.469-.719.013-2.756-.223-1.48.204-.61 1.066-1.632.228-.828.383-.721 1.507-.777.64-.541 1.187-1.418 1.557-1.808.25-.579.106-1.607.534-.296.858.142.588-.243.602-1.544.407-.157.873.094 1.032-.78.589-.84.26-.764.593-2.222.844-1.893 1.129-1.728.781-1.25.43-.732 1.216-.476.162-.144z"/></defs><g><g transform="translate(-356 -104)"><use fill="#ed5485" xlink:href="#93wpa"/><use fill="#fff" fill-opacity="0" stroke="#bcbcbc" stroke-miterlimit="50" stroke-width=".75" xlink:href="#93wpa"/></g></g></svg>