<svg xmlns="http://www.w3.org/2000/svg" width="46.492" height="45.475"><g data-name="PIX.CITY - PERSO"><g data-name="Group 746"><g data-name="Group 739"><path data-name="Path 1158" d="M27.223 10.906a7.139 7.139 0 0 1 1.3.112 4.273 4.273 0 0 1 2.94 2.028 5.838 5.838 0 0 1 .824 1.981c.185.867.33 1.741.485 2.666l.065.388.066.4.339 2.214.2 1.311c.153.988.313 2.01.454 3.01a10.848 10.848 0 0 1 .109 2.711 4.4 4.4 0 0 1-2.442 3.607 7.288 7.288 0 0 1-2.4.8c-.969.16-1.366.23-1.665.283-.324.057-.529.094-1.322.217h-.134a5.248 5.248 0 0 0-.558.039 9.085 9.085 0 0 1-.942.052 5.481 5.481 0 0 1-1.937-.318 4.411 4.411 0 0 1-2.521-2.381 7.064 7.064 0 0 1-.617-1.883 315.834 315.834 0 0 1-.882-5.371 219.76 219.76 0 0 1-.669-4.623 8.355 8.355 0 0 1 0-2.633 4.361 4.361 0 0 1 2.492-3.288 6.889 6.889 0 0 1 2.03-.678c.99-.167 1.3-.226 1.548-.274a27.77 27.77 0 0 1 1.2-.2 5.485 5.485 0 0 0 .629-.062 10.851 10.851 0 0 1 1.411-.1m0-2.218a13.07 13.07 0 0 0-1.7.118c-.242.032-.35.043-.378.043-.08 0 .471-.092.456-.092l-.384.059c-2.149.337-1.007.18-3.152.541a9.077 9.077 0 0 0-2.683.9 6.562 6.562 0 0 0-3.654 4.865 10.62 10.62 0 0 0-.013 3.322q.315 2.337.675 4.668.422 2.708.888 5.408a9.27 9.27 0 0 0 .808 2.475 6.646 6.646 0 0 0 3.742 3.49 7.707 7.707 0 0 0 2.711.457 11.371 11.371 0 0 0 1.173-.064 4.18 4.18 0 0 1 .327-.027c.185 0-.537.125-.5.125.012 0 .108-.014.352-.051 2.309-.354 1.327-.219 3.631-.6a9.5 9.5 0 0 0 3.122-1.047 6.593 6.593 0 0 0 3.566-5.308 13.172 13.172 0 0 0-.119-3.257c-.206-1.451-.439-2.9-.66-4.345-.135-.883-.26-1.768-.408-2.649-.176-1.052-.346-2.107-.568-3.15a8.037 8.037 0 0 0-1.136-2.73 6.488 6.488 0 0 0-4.394-3 9.375 9.375 0 0 0-1.7-.149z" fill="#fff"/></g><path data-name="Path 1159" d="M16.86 21.279C10.397 29.566.87 22.8.87 22.8" fill="none" stroke="#fff" stroke-miterlimit="10" stroke-width="3"/><path data-name="Path 1160" d="M32.057 15.106l2.285.212c.754 4.933 4.738 8.25 6.634 9.643l-1.16 1.96a17.026 17.026 0 0 1-7.759-11.815z" fill="#fff"/><g data-name="Group 740"><path data-name="Path 1161" d="M33.421 31.706c.148 1.1 5.824 3.809 12.943 3.19" fill="none" stroke="#fff" stroke-miterlimit="10" stroke-width="3"/></g><g data-name="Group 745"><path data-name="Path 1162" d="M20.426 21.652a5.3 5.3 0 0 1-1.877-.312 4.447 4.447 0 0 1-2.514-2.36 6.634 6.634 0 0 1-.579-1.771c-.256-1.482-.505-3-.74-4.5-.187-1.2-.371-2.472-.561-3.876a7.677 7.677 0 0 1 0-2.429 4.389 4.389 0 0 1 2.47-3.275 6.483 6.483 0 0 1 1.914-.639c1.623-.274 3.378-.558 5.366-.87.921-.144 1.893-.283 2.974-.424a9.762 9.762 0 0 1 1.275-.09 6.678 6.678 0 0 1 1.221.106 4.319 4.319 0 0 1 2.943 2.018 5.625 5.625 0 0 1 .793 1.9c.158.74.286 1.512.411 2.258l.055.326c.085.5.16 1.011.236 1.517l.1.679.165 1.072c.132.847.263 1.7.384 2.545a9.8 9.8 0 0 1 .1 2.448 4.422 4.422 0 0 1-2.417 3.582 6.81 6.81 0 0 1-2.246.748c-1.962.324-3.9.633-5.767.918a61.002 61.002 0 0 1-2.842.374 8.419 8.419 0 0 1-.864.055z" fill="#fffcfc" stroke="#707070"/><path data-name="Path 1163" d="M28.16 2.218a5.578 5.578 0 0 1 1.02.088 3.222 3.222 0 0 1 2.215 1.533 4.516 4.516 0 0 1 .638 1.53c.152.716.273 1.442.4 2.211l.054.325.016.1.319 2.084.169 1.095c.128.825.261 1.677.379 2.51a8.732 8.732 0 0 1 .09 2.174 3.3 3.3 0 0 1-1.855 2.731 5.717 5.717 0 0 1-1.886.622c-1.951.322-3.886.63-5.753.917-1.041.16-1.954.279-2.79.367a7.162 7.162 0 0 1-.748.042 4.214 4.214 0 0 1-1.491-.243 3.34 3.34 0 0 1-1.9-1.8 5.536 5.536 0 0 1-.484-1.475 339.39 339.39 0 0 1-.736-4.479c-.188-1.206-.37-2.467-.558-3.854a6.638 6.638 0 0 1 0-2.085 3.263 3.263 0 0 1 1.89-2.486 5.382 5.382 0 0 1 1.587-.53 491.78 491.78 0 0 1 5.354-.868c.908-.142 1.871-.28 2.945-.42a8.731 8.731 0 0 1 1.131-.08m0-2.218a10.959 10.959 0 0 0-1.418.1c-1 .131-2 .271-3 .428q-2.691.423-5.379.872a7.582 7.582 0 0 0-2.241.748 5.481 5.481 0 0 0-3.051 4.062 8.874 8.874 0 0 0-.011 2.774q.264 1.952.564 3.9.352 2.261.742 4.516a7.745 7.745 0 0 0 .675 2.067 5.553 5.553 0 0 0 3.125 2.914 6.434 6.434 0 0 0 2.264.382 9.437 9.437 0 0 0 .979-.053c.968-.1 1.933-.234 2.895-.381q2.892-.443 5.779-.92a7.943 7.943 0 0 0 2.607-.874 5.508 5.508 0 0 0 2.978-4.433 11.021 11.021 0 0 0-.1-2.72c-.172-1.212-.367-2.419-.552-3.629-.113-.738-.217-1.476-.34-2.212-.148-.879-.289-1.759-.475-2.631a6.715 6.715 0 0 0-.949-2.28 5.419 5.419 0 0 0-3.67-2.5 7.847 7.847 0 0 0-1.422-.125z" fill="#103558"/><path data-name="Path 1164" d="M24.313 8.023a3.4 3.4 0 0 1 3.292 2.856 3.493 3.493 0 0 1-.664 2.55 3.151 3.151 0 0 1-2.127 1.26h-.032l-.032.006a2.95 2.95 0 0 1-.5.041 3.359 3.359 0 0 1-.457-6.677 3.329 3.329 0 0 1 .516-.041m0-2.218a5.5 5.5 0 0 0-.859.068 5.574 5.574 0 0 0 .8 11.086 5.175 5.175 0 0 0 .868-.073 5.572 5.572 0 0 0-.809-11.08z" fill="#103558"/><path data-name="Path 1165" d="M29.124 3.45a1.217 1.217 0 0 0-.193.016 1.312 1.312 0 0 0 .258 2.6 1.153 1.153 0 0 0 .192-.016 1.312 1.312 0 0 0-.256-2.6z" fill="#103558"/></g></g><path data-name="Path 1166" d="M22.843 34.096c.148 1.1 6.5 8.356 14.855 9.9" fill="none" stroke="#fff" stroke-miterlimit="10" stroke-width="3"/></g></svg>