<svg xmlns="http://www.w3.org/2000/svg" width="153.25" height="127.115"><g transform="translate(-6 -13.682)"><path data-name="Path 383" d="M152.624 83.678a70 70 0 1 0-133.769 28.875h127.54a69.79 69.79 0 0 0 6.229-28.875z" fill="rgba(3,128,144,0.1)"/><path data-name="Line 61" fill="none" stroke="#ed5485" stroke-linecap="round" stroke-linejoin="round" d="M14.375 112.553h136.501"/><path data-name="Line 62" fill="none" stroke="#ed5485" stroke-linecap="round" stroke-linejoin="round" d="M6.5 112.553h4.375"/><path data-name="Line 63" fill="none" stroke="#ed5485" stroke-linecap="round" stroke-linejoin="round" d="M154.376 112.553h4.375"/><path data-name="Path 384" d="M107.353 66.056l6.283 11.515a8.75 8.75 0 0 1 1.067 4.2v21l1.42 1.435a3.5 3.5 0 0 1 1.033 2.468v5.9h-9.8z" fill="rgba(3,128,144,0.1)" stroke="#ed5485" stroke-linecap="round" stroke-linejoin="round"/><path data-name="Line 64" fill="none" stroke="#ed5485" stroke-linecap="round" stroke-linejoin="round" d="M109.803 99.131h6.125"/><path data-name="Path 385" d="M43.653 66.056l-6.282 11.515a8.75 8.75 0 0 0-1.068 4.2v21l-1.435 1.435a3.5 3.5 0 0 0-1.015 2.468v5.9h9.8z" fill="rgba(3,128,144,0.1)" stroke="#ed5485" stroke-linecap="round" stroke-linejoin="round"/><path data-name="Path 386" d="M133.375 28.85a2.678 2.678 0 0 0-1.05.21 4.883 4.883 0 0 0-9.66 0 2.677 2.677 0 0 0-1.05-.21 2.94 2.94 0 0 0 0 5.88h11.76a2.94 2.94 0 0 0 0-5.88z" fill="#fff"/><path data-name="Path 387" d="M133.375 28.85a2.678 2.678 0 0 0-1.05.21 4.883 4.883 0 0 0-9.66 0 2.677 2.677 0 0 0-1.05-.21 2.94 2.94 0 0 0 0 5.88h11.76a2.94 2.94 0 0 0 0-5.88z" fill="none" stroke="#ed5485" stroke-linejoin="round"/><path data-name="Path 388" d="M87.753 19.505V50.13h-24.5V19.505h-22.05V99.13l1.225 1.225v4.9l-1.225 1.225v6.125h68.6v-7.35l-1.225-1.225v-3.675l1.225-1.225V19.505z" fill="#fff"/><path data-name="Path 389" d="M133.375 28.85a2.678 2.678 0 0 0-1.05.21 4.883 4.883 0 0 0-9.66 0 2.677 2.677 0 0 0-1.05-.21 2.94 2.94 0 0 0 0 5.88h11.76a2.94 2.94 0 0 0 0-5.88z" fill="none" stroke="#ed5485" stroke-linejoin="round"/><path data-name="Path 390" d="M87.753 19.505V50.13h-24.5V19.505h-22.05V99.13l1.225 1.225v4.9l-1.225 1.225v6.125h68.6v-7.35l-1.225-1.225v-3.675l1.225-1.225V19.505z" fill="none" stroke="#ed5485" stroke-linecap="round" stroke-linejoin="round"/><path data-name="Rectangle 1754" stroke="#ed5485" stroke-linecap="round" stroke-linejoin="round" fill="rgba(3,128,144,0.1)" d="M41.203 81.981h68.6v7.35h-68.6z"/><path data-name="Path 391" d="M111.115 50.131H39.873a.613.613 0 0 0-.508.945h0a10.885 10.885 0 0 1 1.75 6.02v2.835h68.6v-2.835a10.868 10.868 0 0 1 1.75-6.02h0a.613.613 0 0 0-.35-.945z" fill="rgba(3,128,144,0.1)" stroke="#ed5485" stroke-linecap="round" stroke-linejoin="round"/><path data-name="Path 392" d="M75.503 94.231h0a9.748 9.748 0 0 0-6.125 9.048v9.328h12.25v-9.328a9.783 9.783 0 0 0-6.125-9.048z" fill="rgba(3,128,144,0.1)" stroke="#ed5485" stroke-linecap="round" stroke-linejoin="round"/><path data-name="Path 393" d="M52.227 96.681h0a9.975 9.975 0 0 0-4.9 9.048v6.878h9.8v-6.878a10.01 10.01 0 0 0-4.9-9.048z" fill="rgba(3,128,144,0.1)" stroke="#ed5485" stroke-linecap="round" stroke-linejoin="round"/><path data-name="Path 394" d="M52.227 66.056h0a9.975 9.975 0 0 0-4.9 9.048v6.878h9.8v-6.878a10.01 10.01 0 0 0-4.9-9.048z" fill="rgba(3,128,144,0.1)" stroke="#ed5485" stroke-linecap="round" stroke-linejoin="round"/><path data-name="Path 395" d="M98.777 66.056h0a9.975 9.975 0 0 0-4.9 9.048v6.878h9.748v-6.878a10.01 10.01 0 0 0-4.848-9.048z" fill="rgba(3,128,144,0.1)" stroke="#ed5485" stroke-linecap="round" stroke-linejoin="round"/><path data-name="Path 396" d="M98.777 96.681h0a9.975 9.975 0 0 0-4.9 9.048v6.878h9.748v-6.878a10.01 10.01 0 0 0-4.848-9.048z" fill="rgba(3,128,144,0.1)" stroke="#ed5485" stroke-linecap="round" stroke-linejoin="round"/><path data-name="Line 65" fill="none" stroke="#ed5485" stroke-linecap="round" stroke-linejoin="round" d="M63.253 81.981v15.925"/><path data-name="Line 66" fill="none" stroke="#ed5485" stroke-linecap="round" stroke-linejoin="round" d="M87.753 81.981v15.925"/><path data-name="Line 67" fill="none" stroke="#ed5485" stroke-linecap="round" stroke-linejoin="round" d="M63.253 59.931v6.125"/><path data-name="Line 68" fill="none" stroke="#ed5485" stroke-linecap="round" stroke-linejoin="round" d="M87.753 59.931v6.125"/><path data-name="Path 397" d="M75.503 63.606h0a9.8 9.8 0 0 0-9.8 9.8v8.575h19.6v-8.575a9.8 9.8 0 0 0-9.8-9.8z" fill="rgba(3,128,144,0.1)" stroke="#ed5485" stroke-linecap="round" stroke-linejoin="round"/><ellipse data-name="Ellipse 19" cx="6.125" cy="6.125" rx="6.125" ry="6.125" transform="translate(69.378 67.281)" fill="rgba(3,128,144,0.1)"/><path data-name="Path 398" d="M79.877 69.153a6.037 6.037 0 0 0-4.375-1.873 6.108 6.108 0 0 0-1.75 11.99z" fill="#fff"/><ellipse data-name="Ellipse 20" cx="6.125" cy="6.125" rx="6.125" ry="6.125" transform="translate(69.378 67.281)" fill="none" stroke="#ed5485" stroke-linecap="round" stroke-linejoin="round"/><path data-name="Line 69" fill="none" stroke="#ed5485" stroke-linecap="round" stroke-linejoin="round" d="M63.253 101.581v2.45"/><path data-name="Line 70" fill="none" stroke="#ed5485" stroke-linecap="round" stroke-linejoin="round" d="M87.753 101.581v2.45"/><path data-name="Line 71" fill="none" stroke="#ed5485" stroke-linecap="round" stroke-linejoin="round" d="M52.228 89.331v-7.35"/><path data-name="Line 72" fill="none" stroke="#ed5485" stroke-linecap="round" stroke-linejoin="round" d="M46.103 89.331v-3.675"/><path data-name="Line 73" fill="none" stroke="#ed5485" stroke-linecap="round" stroke-linejoin="round" d="M58.353 89.331v-3.675"/><path data-name="Line 74" fill="none" stroke="#ed5485" stroke-linecap="round" stroke-linejoin="round" d="M75.503 89.331v-7.35"/><path data-name="Line 75" fill="none" stroke="#ed5485" stroke-linecap="round" stroke-linejoin="round" d="M69.378 89.331v-3.675"/><path data-name="Line 76" fill="none" stroke="#ed5485" stroke-linecap="round" stroke-linejoin="round" d="M81.628 89.331v-3.675"/><path data-name="Line 77" fill="none" stroke="#ed5485" stroke-linecap="round" stroke-linejoin="round" d="M98.778 89.331v-7.35"/><path data-name="Line 78" fill="none" stroke="#ed5485" stroke-linecap="round" stroke-linejoin="round" d="M92.653 89.331v-3.675"/><path data-name="Line 79" fill="none" stroke="#ed5485" stroke-linecap="round" stroke-linejoin="round" d="M104.903 89.331v-3.675"/><path data-name="Path 399" d="M50.828 52.406l-1.05-1.05-1.05 1.05a4.76 4.76 0 0 0-1.4 3.4v4.13h4.9v-4.13a4.83 4.83 0 0 0-1.4-3.4z" fill="#fff" stroke="#ed5485" stroke-linecap="round" stroke-linejoin="round"/><path data-name="Path 400" d="M63.69 52.406l-1.05-1.05-1.05 1.05a4.76 4.76 0 0 0-1.4 3.4v4.13h4.935v-4.13a4.83 4.83 0 0 0-1.435-3.4z" fill="#fff" stroke="#ed5485" stroke-linecap="round" stroke-linejoin="round"/><path data-name="Path 401" d="M76.553 52.406l-1.05-1.05-1.05 1.05a4.76 4.76 0 0 0-1.4 3.4v4.13h4.9v-4.13a4.83 4.83 0 0 0-1.4-3.4z" fill="#fff" stroke="#ed5485" stroke-linecap="round" stroke-linejoin="round"/><path data-name="Path 402" d="M89.415 52.406l-1.05-1.05-1.05 1.05a4.76 4.76 0 0 0-1.4 3.4v4.13h4.9v-4.13a4.83 4.83 0 0 0-1.4-3.4z" fill="#fff" stroke="#ed5485" stroke-linecap="round" stroke-linejoin="round"/><path data-name="Path 403" d="M100.125 52.406l1.05-1.05 1.05 1.05a4.83 4.83 0 0 1 1.4 3.4v4.13h-4.9v-4.13a4.76 4.76 0 0 1 1.4-3.4z" fill="#fff" stroke="#ed5485" stroke-linecap="round" stroke-linejoin="round"/><path data-name="Line 80" fill="none" stroke="#ed5485" stroke-linecap="round" stroke-linejoin="round" d="M57.128 50.131v2.45"/><path data-name="Line 81" fill="none" stroke="#ed5485" stroke-linecap="round" stroke-linejoin="round" d="M44.878 50.131v2.45"/><path data-name="Line 82" fill="none" stroke="#ed5485" stroke-linecap="round" stroke-linejoin="round" d="M69.378 50.131v2.45"/><path data-name="Line 83" fill="none" stroke="#ed5485" stroke-linecap="round" stroke-linejoin="round" d="M81.628 50.131v2.45"/><path data-name="Line 84" fill="none" stroke="#ed5485" stroke-linecap="round" stroke-linejoin="round" d="M93.878 50.131v2.45"/><path data-name="Line 85" fill="none" stroke="#ed5485" stroke-linecap="round" stroke-linejoin="round" d="M106.128 50.131v2.45"/><path data-name="Path 404" d="M74.82 104.031h1.4a1.75 1.75 0 0 1 1.75 1.75v6.825h-4.9v-6.825a1.75 1.75 0 0 1 1.75-1.75z" fill="rgba(3,128,144,0.1)"/><path data-name="Path 405" d="M76.22 104.031h-1.4a1.75 1.75 0 0 0-1.75 1.75v6.825h.35l4.445-7.368a1.75 1.75 0 0 0-1.645-1.207z" fill="#fff"/><path data-name="Path 406" d="M74.82 104.031h1.4a1.75 1.75 0 0 1 1.75 1.75v6.825h-4.9v-6.825a1.75 1.75 0 0 1 1.75-1.75z" fill="none" stroke="#ed5485" stroke-linecap="round" stroke-linejoin="round"/><path data-name="Path 407" d="M47.328 29.305a8.365 8.365 0 0 0-2.45 5.933v14.91h4.9v-14.91a8.453 8.453 0 0 0-2.45-5.933z" fill="rgba(3,128,144,0.1)"/><path data-name="Path 408" d="M49.778 37.531v-2.293a8.452 8.452 0 0 0-2.45-5.915 8.365 8.365 0 0 0-2.45 5.915v10.5z" fill="#fff"/><path data-name="Path 409" d="M47.328 29.305h0a8.365 8.365 0 0 0-2.45 5.933v14.91h4.9v-14.91a8.453 8.453 0 0 0-2.45-5.933z" fill="none" stroke="#ed5485" stroke-linecap="round" stroke-linejoin="round"/><path data-name="Path 410" d="M57.125 29.305a8.365 8.365 0 0 0-2.5 5.933v14.91h4.9v-14.91a8.452 8.452 0 0 0-2.4-5.933z" fill="rgba(3,128,144,0.1)"/><path data-name="Path 411" d="M59.578 37.531v-2.293a8.453 8.453 0 0 0-2.453-5.915 8.365 8.365 0 0 0-2.5 5.915v10.5z" fill="#fff"/><path data-name="Path 412" d="M57.125 29.305h0a8.365 8.365 0 0 0-2.5 5.933v14.91h4.9v-14.91a8.452 8.452 0 0 0-2.4-5.933z" fill="none" stroke="#ed5485" stroke-linecap="round" stroke-linejoin="round"/><path data-name="Path 413" d="M93.875 29.305a8.365 8.365 0 0 0-2.5 5.933v14.91h4.9v-14.91a8.452 8.452 0 0 0-2.4-5.933z" fill="rgba(3,128,144,0.1)"/><path data-name="Path 414" d="M96.328 37.531v-2.293a8.453 8.453 0 0 0-2.453-5.915 8.365 8.365 0 0 0-2.5 5.915v10.5z" fill="#fff"/><path data-name="Path 415" d="M93.875 29.305h0a8.365 8.365 0 0 0-2.5 5.933v14.91h4.9v-14.91a8.452 8.452 0 0 0-2.4-5.933z" fill="none" stroke="#ed5485" stroke-linecap="round" stroke-linejoin="round"/><path data-name="Path 416" d="M103.626 29.305a8.365 8.365 0 0 0-2.4 5.933v14.91h4.9v-14.91a8.453 8.453 0 0 0-2.5-5.933z" fill="rgba(3,128,144,0.1)"/><path data-name="Path 417" d="M106.128 37.53v-2.292a8.453 8.453 0 0 0-2.5-5.933 8.365 8.365 0 0 0-2.4 5.933v10.5z" fill="#fff"/><path data-name="Path 418" d="M103.626 29.305h0a8.365 8.365 0 0 0-2.4 5.933v14.91h4.9v-14.91a8.453 8.453 0 0 0-2.5-5.933z" fill="none" stroke="#ed5485" stroke-linecap="round" stroke-linejoin="round"/><path data-name="Line 86" fill="none" stroke="#ed5485" stroke-linecap="round" stroke-linejoin="round" d="M39.978 24.405h24.5"/><path data-name="Line 87" fill="none" stroke="#ed5485" stroke-linecap="round" stroke-linejoin="round" d="M39.978 19.505h24.5"/><path data-name="Line 88" fill="none" stroke="#ed5485" stroke-linecap="round" stroke-linejoin="round" d="M86.528 24.405h24.5"/><path data-name="Line 89" fill="none" stroke="#ed5485" stroke-linecap="round" stroke-linejoin="round" d="M86.528 19.505h24.5"/><path data-name="Line 90" fill="none" stroke="#ed5485" stroke-linecap="round" stroke-linejoin="round" d="M39.978 59.931h71.05"/><path data-name="Line 91" fill="none" stroke="#ed5485" stroke-linecap="round" stroke-linejoin="round" d="M35.078 81.981h80.85"/><path data-name="Line 92" fill="none" stroke="#ed5485" stroke-linecap="round" stroke-linejoin="round" d="M41.203 99.131h-6.125"/><path data-name="Rectangle 1755" stroke="#ed5485" stroke-linecap="round" stroke-linejoin="round" fill="rgba(3,128,144,0.1)" d="M41.203 19.505h22.05v4.9h-22.05z"/><path data-name="Rectangle 1756" stroke="#ed5485" stroke-linecap="round" stroke-linejoin="round" fill="rgba(3,128,144,0.1)" d="M87.753 19.505h22.05v4.9h-22.05z"/><path data-name="Line 93" fill="none" stroke="#ed5485" stroke-linecap="round" stroke-linejoin="round" d="M75.503 67.281v12.25"/><path data-name="Line 94" fill="none" stroke="#ed5485" stroke-linecap="round" stroke-linejoin="round" d="M69.378 73.406h12.25"/><path data-name="Rectangle 1757" fill="rgba(3,128,144,0.1)" d="M47.328 74.631h9.8v7.35h-9.8z"/><path data-name="Path 419" d="M47.328 74.631v7.35h3.675l4.41-7.35z" fill="#fff"/><path data-name="Rectangle 1758" stroke="#ed5485" stroke-linecap="round" stroke-linejoin="round" fill="none" d="M47.328 74.631h9.8v7.35h-9.8z"/><path data-name="Rectangle 1759" fill="rgba(3,128,144,0.1)" d="M93.878 74.631h9.8v7.35h-9.8z"/><path data-name="Path 420" d="M93.878 74.631v7.35h3.675l4.41-7.35z" fill="#fff"/><path data-name="Rectangle 1760" stroke="#ed5485" stroke-linecap="round" stroke-linejoin="round" fill="none" d="M93.878 74.631h9.8v7.35h-9.8z"/><path data-name="Rectangle 1761" fill="rgba(3,128,144,0.1)" d="M47.328 105.256h9.8v7.35h-9.8z"/><path data-name="Path 421" d="M47.328 105.256v7.35h3.675l4.41-7.35z" fill="#fff"/><path data-name="Rectangle 1762" stroke="#ed5485" stroke-linecap="round" stroke-linejoin="round" fill="none" d="M47.328 105.256h9.8v7.35h-9.8z"/><path data-name="Rectangle 1763" fill="rgba(3,128,144,0.1)" d="M93.878 105.256h9.8v7.35h-9.8z"/><path data-name="Path 422" d="M93.878 105.256v7.35h3.675l4.41-7.35z" fill="#fff"/><path data-name="Rectangle 1764" stroke="#ed5485" stroke-linecap="round" stroke-linejoin="round" fill="none" d="M93.878 105.256h9.8v7.35h-9.8z"/><path data-name="Path 423" d="M133.375 98.711c0 4.06-1.453 7.578-3.08 7.578s-3.08-3.5-3.08-7.578 3.08-14.753 3.08-14.753 3.08 10.675 3.08 14.753z" fill="rgba(3,128,144,0.1)" stroke="#ed5485" stroke-linecap="round" stroke-linejoin="round"/><path data-name="Line 95" fill="none" stroke="#ed5485" stroke-linecap="round" stroke-linejoin="round" d="M130.348 106.288v6.318"/><path data-name="Path 424" d="M25.223 87.738a4.8 4.8 0 0 1-9.573 0" fill="none" stroke="#ed5485" stroke-linecap="round" stroke-linejoin="round"/><path data-name="Path 425" d="M17.442 85.988h-3.5a.927.927 0 0 1-.56-.21.735.735 0 0 0 0 .28l.35 2.608a.892.892 0 0 0 .875.752h2.258a.858.858 0 0 0 .858-.753l.35-2.608a.735.735 0 0 0 0-.28.84.84 0 0 1-.63.21z" fill="#fff" stroke="#ed5485" stroke-linecap="round" stroke-linejoin="round"/><path data-name="Path 426" d="M15.653 82.208a2.66 2.66 0 0 0-2.643 2.66c0 .77.385 1.085.875 1.085h3.5c.49 0 .875-.315.875-1.085a2.66 2.66 0 0 0-2.608-2.66z" fill="rgba(3,128,144,0.1)" stroke="#ed5485" stroke-linecap="round" stroke-linejoin="round"/><path data-name="Path 427" d="M27.01 85.988h-3.5a.84.84 0 0 1-.542-.21 1.365 1.365 0 0 0 0 .28l.35 2.607a.893.893 0 0 0 .875.752h2.261a.858.858 0 0 0 .858-.753l.28-2.678a1.366 1.366 0 0 0 0-.28.84.84 0 0 1-.577.28z" fill="#fff" stroke="#ed5485" stroke-linecap="round" stroke-linejoin="round"/><path data-name="Path 428" d="M25.226 82.208a2.66 2.66 0 0 0-2.643 2.66c0 .77.385 1.085.875 1.085h3.5c.49 0 .875-.315.875-1.085a2.66 2.66 0 0 0-2.608-2.66z" fill="rgba(3,128,144,0.1)" stroke="#ed5485" stroke-linecap="round" stroke-linejoin="round"/><path data-name="Line 96" fill="none" stroke="#ed5485" stroke-linecap="round" stroke-linejoin="round" d="M20.448 92.498v20.108"/><ellipse data-name="Ellipse 21" cx="23.625" cy="2.625" rx="23.625" ry="2.625" transform="translate(29.198 135.548)" fill="rgba(3,128,144,0.1)"/><path data-name="Path 429" d="M61.975 109.859v6.16h-29.26a1.75 1.75 0 0 0-1.75 1.75v14.385a1.75 1.75 0 0 0 1.488 1.75l4.183.648h35.349a1.75 1.75 0 0 0 1.75-1.75v-13.563a26.248 26.248 0 0 0-.262-3.71l-.63-4.358a3.5 3.5 0 0 0-3.5-3.01h-5.618a1.75 1.75 0 0 0-1.75 1.698z" fill="#fff" stroke="#ed5485" stroke-linecap="round" stroke-linejoin="round"/><path data-name="Path 430" d="M43.828 134.534a3.2 3.2 0 1 1-3.2-3.2 3.2 3.2 0 0 1 3.2 3.2z" fill="rgba(3,128,144,0.1)" stroke="#ed5485" stroke-linecap="round" stroke-linejoin="round"/><path data-name="Path 431" d="M66.753 134.534a3.2 3.2 0 1 1-3.2-3.2 3.2 3.2 0 0 1 3.2 3.2z" fill="rgba(3,128,144,0.1)" stroke="#ed5485" stroke-linecap="round" stroke-linejoin="round"/><path data-name="Rectangle 1765" stroke="#ed5485" stroke-linecap="round" stroke-linejoin="round" fill="rgba(3,128,144,0.1)" d="M48.08 122.931h6.125v11.603H48.08z"/><path data-name="Rectangle 1766" fill="rgba(3,128,144,0.1)" d="M34.885 122.931h9.66v5.32h-9.66z"/><path data-name="Rectangle 1767" stroke="#ed5485" stroke-linecap="round" stroke-linejoin="round" fill="none" d="M34.885 122.931h9.66v5.32h-9.66z"/><path data-name="Rectangle 1768" fill="rgba(3,128,144,0.1)" d="M57.67 122.931h6.125v5.32H57.67z"/><path data-name="Rectangle 1769" stroke="#ed5485" stroke-linecap="round" stroke-linejoin="round" fill="none" d="M57.67 122.931h6.125v5.32H57.67z"/><path data-name="Rectangle 1770" fill="rgba(3,128,144,0.1)" d="M67.61 122.931h6.125v5.32H67.61z"/><path data-name="Rectangle 1771" stroke="#ed5485" stroke-linecap="round" stroke-linejoin="round" fill="none" d="M67.61 122.931h6.125v5.32H67.61z"/><path data-name="Path 432" d="M67.505 116.141h6.038l-.612-4.34h-5.426a1.75 1.75 0 0 0-1.75 1.75v.875a1.75 1.75 0 0 0 1.75 1.715z" fill="rgba(3,128,144,0.1)"/><path data-name="Path 433" d="M67.505 116.141h6.038l-.612-4.34h-5.426a1.75 1.75 0 0 0-1.75 1.75v.875a1.75 1.75 0 0 0 1.75 1.715z" fill="none" stroke="#ed5485" stroke-linecap="round" stroke-linejoin="round"/><path data-name="Path 434" d="M35.095 112.606h26.88v3.413h-28.63v-1.663a1.75 1.75 0 0 1 1.75-1.75z" fill="none" stroke="#ed5485" stroke-linecap="round" stroke-linejoin="round"/><path data-name="Rectangle 1772" stroke="#ed5485" stroke-linecap="round" stroke-linejoin="round" fill="none" d="M38.228 112.606h4.078v3.413h-4.078z"/><path data-name="Rectangle 1773" stroke="#ed5485" stroke-linecap="round" stroke-linejoin="round" fill="none" d="M46.173 112.606h4.078v3.413h-4.078z"/><path data-name="Rectangle 1774" stroke="#ed5485" stroke-linecap="round" stroke-linejoin="round" fill="none" d="M54.205 112.606h4.078v3.413h-4.078z"/><path data-name="Rectangle 1775" stroke="#ed5485" stroke-linecap="round" stroke-linejoin="round" fill="rgba(3,128,144,0.1)" d="M48.08 122.931h6.125v5.32H48.08z"/><path data-name="Line 97" fill="none" stroke="#ed5485" stroke-linecap="round" stroke-linejoin="round" d="M35.218 119.483h34.913"/></g></svg>