<svg xmlns="http://www.w3.org/2000/svg" width="158" height="122.82"><g transform="translate(-6 -15.981)"><path data-name="Path 435" d="M158.086 88.2a72.184 72.184 0 1 0-137.925 29.775h131.5a71.967 71.967 0 0 0 6.425-29.775z" fill="rgba(3,128,144,0.1)"/><path data-name="Line 98" fill="none" stroke="#ed5485" stroke-linecap="round" stroke-linejoin="round" d="M14.621 117.903h140.758"/><path data-name="Line 99" fill="none" stroke="#ed5485" stroke-linecap="round" stroke-linejoin="round" d="M6.5 117.903h4.511"/><path data-name="Line 100" fill="none" stroke="#ed5485" stroke-linecap="round" stroke-linejoin="round" d="M158.988 117.903h4.511"/><path data-name="Path 436" d="M110.264 76.397a27.971 27.971 0 0 0-27.971 28.04v13.538h55.942v-13.538a27.971 27.971 0 0 0-27.971-28.04z" fill="#fff" stroke="#ed5485" stroke-linecap="round" stroke-linejoin="round"/><path data-name="Path 437" d="M101.241 77.877a27.989 27.989 0 0 0-18.948 26.564v13.534h18.948z" fill="rgba(3,128,144,0.1)"/><path data-name="Line 101" fill="none" stroke="#ed5485" stroke-linecap="round" stroke-linejoin="round" d="M92.218 104.91v12.993"/><path data-name="Path 438" d="M119.287 77.877a27.989 27.989 0 0 1 18.948 26.564v13.534h-18.948z" fill="rgba(3,128,144,0.1)"/><path data-name="Line 102" fill="none" stroke="#ed5485" stroke-linecap="round" stroke-linejoin="round" d="M128.31 104.91v12.993"/><path data-name="Path 439" d="M101.241 77.877a27.989 27.989 0 0 0-18.948 26.564v13.534h18.948z" fill="none" stroke="#ed5485" stroke-linecap="round" stroke-linejoin="round"/><path data-name="Path 440" d="M119.287 77.877a27.989 27.989 0 0 1 18.948 26.564v13.534h-18.948z" fill="none" stroke="#ed5485" stroke-linecap="round" stroke-linejoin="round"/><path data-name="Path 441" d="M110.264 85.424a11.73 11.73 0 0 0 10.7-6.912 27.555 27.555 0 0 0-4.385-1.39v-6.138h-12.631v6.14a27.556 27.556 0 0 0-4.385 1.39 11.73 11.73 0 0 0 10.7 6.912z" fill="#fff"/><path data-name="Path 442" d="M110.264 85.424a11.73 11.73 0 0 0 10.7-6.912 27.555 27.555 0 0 0-4.385-1.39v-6.138h-12.631v6.14a27.556 27.556 0 0 0-4.385 1.39 11.73 11.73 0 0 0 10.7 6.912z" fill="none" stroke="#ed5485" stroke-linecap="round" stroke-linejoin="round"/><rect data-name="Rectangle 1776" width="30.678" height="18.948" rx="1" transform="translate(94.925 94.443)" stroke="#ed5485" stroke-linecap="round" stroke-linejoin="round" fill="#fff"/><path data-name="Rectangle 1777" stroke="#ed5485" stroke-linecap="round" stroke-linejoin="round" fill="rgba(3,128,144,0.1)" d="M94.925 98.053h30.678v11.73H94.925z"/><path data-name="Path 443" d="M116.814 92.025a2.184 2.184 0 0 0-1.931-1.191h-9.24a2.184 2.184 0 0 0-1.931 1.191 9.654 9.654 0 0 0-1.57 5.2v16.239h16.242V97.222a9.655 9.655 0 0 0-1.57-5.197z" fill="#fff" stroke="#ed5485" stroke-linecap="round" stroke-linejoin="round"/><ellipse data-name="Ellipse 22" cx="8.121" cy="8.121" rx="8.121" ry="8.121" transform="translate(102.143 94.443)" fill="#fff" stroke="#ed5485" stroke-linecap="round" stroke-linejoin="round"/><ellipse data-name="Ellipse 23" cx="4.511" cy="4.511" rx="4.511" ry="4.511" transform="translate(105.753 98.053)" fill="rgba(3,128,144,0.1)"/><path data-name="Path 444" d="M110.264 98.053a4.511 4.511 0 0 0-3.207 7.67l6.37-6.37a4.439 4.439 0 0 0-3.158-1.3z" fill="#fff"/><ellipse data-name="Ellipse 24" cx="4.511" cy="4.511" rx="4.511" ry="4.511" transform="translate(105.753 98.053)" fill="none" stroke="#ed5485" stroke-linecap="round" stroke-linejoin="round"/><path data-name="Path 445" d="M122.896 85.781v8.662h-4.516v-8.662a9.312 9.312 0 0 0-1.8-6.027v-5.757a14.31 14.31 0 0 1 6.316 11.784z" fill="rgba(3,128,144,0.1)" stroke="#ed5485" stroke-linecap="round" stroke-linejoin="round"/><path data-name="Path 446" d="M97.632 85.781v8.662h4.511v-8.662a9.311 9.311 0 0 1 1.8-6.027v-5.757a14.31 14.31 0 0 0-6.311 11.784z" fill="rgba(3,128,144,0.1)" stroke="#ed5485" stroke-linecap="round" stroke-linejoin="round"/><path data-name="Path 447" d="M128.309 52.107v-4.511a18.046 18.046 0 0 0-36.092 0v4.511a3.609 3.609 0 1 0 0 7.218h.217a18.046 18.046 0 0 0 35.659 0h.216a3.609 3.609 0 0 0 0-7.218z" fill="#fff" stroke="#ed5485" stroke-linecap="round" stroke-linejoin="round"/><ellipse data-name="Ellipse 25" cx="2.256" cy="2.256" rx="2.256" ry="2.256" transform="translate(97.632 57.449)" fill="rgba(3,128,144,0.1)"/><ellipse data-name="Ellipse 26" cx="2.256" cy="2.256" rx="2.256" ry="2.256" transform="translate(118.385 57.449)" fill="rgba(3,128,144,0.1)"/><path data-name="Path 448" d="M115.678 64.289a7.8 7.8 0 0 1-10.828 0" fill="none" stroke="#ed5485" stroke-linecap="round" stroke-linejoin="round"/><path data-name="Path 449" d="M105.753 53.914a2.941 2.941 0 0 0-5.414 0" fill="none" stroke="#ed5485" stroke-linecap="round" stroke-linejoin="round"/><path data-name="Path 450" d="M120.19 53.914a2.941 2.941 0 0 0-5.414 0" fill="none" stroke="#ed5485" stroke-linecap="round" stroke-linejoin="round"/><path data-name="Path 451" d="M134.391 44.637a15.627 15.627 0 0 0-3.212-2.256c3.357.144 6.009-.776 6.226-2.292s-2.887-3.7-7.038-4.295a17.216 17.216 0 0 0-5.414.162s2.075-.343 3.176-.487c4.151-.523 7.327-2.4 7.11-4.169s-3.771-2.796-7.922-2.278a14.13 14.13 0 0 0-5.071 1.552c.325-.253.65-.505.956-.794 3.1-2.8 4.656-6.136 3.465-7.471s-4.692-.144-7.814 2.653a12.921 12.921 0 0 0-3.609 4.818c-.487-.126-.956-.253-1.444-.343a16.242 16.242 0 0 0 1.8-2.761c1.931-3.717 2.2-7.4.614-8.229s-4.042 1.3-5.955 4.782c-1.913-3.393-4.566-5.414-6.081-4.692s-1.317 4.511.614 8.229a16.24 16.24 0 0 0 1.8 2.761 5.993 5.993 0 0 0-1.444.343 12.921 12.921 0 0 0-3.609-4.818c-3.1-2.8-6.6-3.988-7.814-2.653s.361 4.674 3.465 7.471c.307.289.632.541.956.794a14.148 14.148 0 0 0-5.044-1.542c-4.151-.523-7.706.487-7.94 2.274s2.96 3.609 7.11 4.169c1.263.162 3.176.487 3.176.487a24.109 24.109 0 0 0-5.414-.162c-4.133.6-7.218 2.508-7.038 4.295s2.869 2.436 6.226 2.292a15.628 15.628 0 0 0-3.212 2.245c-3.1 2.815-4.638 6.172-3.429 7.507.956 1.047 3.357.487 5.847-1.173a15.631 15.631 0 0 0-.92 1.642c-1.8 3.772-1.985 7.453-.361 8.229.993.487 2.436-.253 3.808-1.8a3.609 3.609 0 0 1 1.263-7.02c1.8 0 2.671 1.227 2.671 3.068a18.479 18.479 0 0 0 .4-7.67c1.8.632 5.017-2.075 5.017-2.075V41.1a50.168 50.168 0 0 0 9.961 1.985 49.862 49.862 0 0 0 9.958-1.963v4.331s3.122 2.703 5.012 2.069a18.479 18.479 0 0 0 .4 7.67c0-1.8.866-3.068 2.671-3.068a3.609 3.609 0 0 1 1.137 7.038c1.39 1.516 2.815 2.256 3.808 1.8 1.624-.776 1.462-4.457-.361-8.229a15.628 15.628 0 0 0-.92-1.642c2.508 1.66 4.89 2.22 5.847 1.173 1.21-1.456-.324-4.812-3.428-7.627z" fill="#fff"/><path data-name="Path 452" d="M134.391 44.637a15.627 15.627 0 0 0-3.212-2.256c3.357.144 6.009-.776 6.226-2.292s-2.887-3.7-7.038-4.295a17.216 17.216 0 0 0-5.414.162s2.075-.343 3.176-.487c4.151-.523 7.327-2.4 7.11-4.169s-3.771-2.796-7.922-2.278a14.13 14.13 0 0 0-5.071 1.552c.325-.253.65-.505.956-.794 3.1-2.8 4.656-6.136 3.465-7.471s-4.692-.144-7.814 2.653a12.921 12.921 0 0 0-3.609 4.818c-.487-.126-.956-.253-1.444-.343a16.242 16.242 0 0 0 1.8-2.761c1.931-3.717 2.2-7.4.614-8.229s-4.042 1.3-5.955 4.782c-1.913-3.393-4.566-5.414-6.081-4.692s-1.317 4.511.614 8.229a16.24 16.24 0 0 0 1.8 2.761 5.993 5.993 0 0 0-1.444.343 12.921 12.921 0 0 0-3.609-4.818c-3.1-2.8-6.6-3.988-7.814-2.653s.361 4.674 3.465 7.471c.307.289.632.541.956.794a14.148 14.148 0 0 0-5.044-1.542c-4.151-.523-7.706.487-7.94 2.274s2.96 3.609 7.11 4.169c1.263.162 3.176.487 3.176.487a24.109 24.109 0 0 0-5.414-.162c-4.133.6-7.218 2.508-7.038 4.295s2.869 2.436 6.226 2.292a15.628 15.628 0 0 0-3.212 2.245c-3.1 2.815-4.638 6.172-3.429 7.507.956 1.047 3.357.487 5.847-1.173a15.631 15.631 0 0 0-.92 1.642c-1.8 3.772-1.985 7.453-.361 8.229.993.487 2.436-.253 3.808-1.8a3.609 3.609 0 0 1 1.263-7.02c1.8 0 2.671 1.227 2.671 3.068a18.479 18.479 0 0 0 .4-7.67c1.8.632 5.017-2.075 5.017-2.075V41.1a50.168 50.168 0 0 0 9.961 1.985 49.862 49.862 0 0 0 9.958-1.963v4.331s3.122 2.703 5.012 2.069a18.479 18.479 0 0 0 .4 7.67c0-1.8.866-3.068 2.671-3.068a3.609 3.609 0 0 1 1.137 7.038c1.39 1.516 2.815 2.256 3.808 1.8 1.624-.776 1.462-4.457-.361-8.229a15.628 15.628 0 0 0-.92-1.642c2.508 1.66 4.89 2.22 5.847 1.173 1.21-1.456-.324-4.812-3.428-7.627z" fill="none" stroke="#ed5485" stroke-linecap="round" stroke-linejoin="round"/><path data-name="Path 453" d="M37.178 136.093c0 1.5 12.524 2.707 27.971 2.707s27.971-1.209 27.971-2.707-12.523-2.779-27.971-2.779-27.971 1.281-27.971 2.779z" fill="rgba(3,128,144,0.1)"/><path data-name="Rectangle 1778" fill="rgba(3,128,144,0.1)" d="M57.931 73.691h16.241v14.437H57.931z"/><path data-name="Rectangle 1779" stroke="#ed5485" stroke-linecap="round" stroke-linejoin="round" fill="none" d="M57.931 73.691h16.241v14.437H57.931z"/><rect data-name="Rectangle 1780" width="25.264" height="16.241" rx="1" transform="translate(53.419 63.765)" stroke="#ed5485" stroke-linecap="round" stroke-linejoin="round" fill="#fff"/><rect data-name="Rectangle 1781" width="21.655" height="14.437" rx="1" transform="translate(55.224 88.127)" stroke="#ed5485" stroke-linecap="round" stroke-linejoin="round" fill="#fff"/><rect data-name="Rectangle 1782" width="18.046" height="9.023" rx=".5" transform="translate(57.029 67.375)" fill="rgba(3,128,144,0.1)"/><path data-name="Path 454" d="M62.443 76.398h-4.514a.9.9 0 0 1-.9-.9v-7.151a.9.9 0 0 1 .9-.9h13.537z" fill="#fff"/><rect data-name="Rectangle 1783" width="18.046" height="9.023" rx=".5" transform="translate(57.029 67.375)" stroke="#ed5485" stroke-linecap="round" stroke-linejoin="round" fill="none"/><path data-name="Path 455" d="M69.661 95.418h-7.223a1.8 1.8 0 0 0-1.8 1.8v5.414h10.828v-5.414a1.8 1.8 0 0 0-1.805-1.8z" fill="rgba(3,128,144,0.1)" stroke="#ed5485" stroke-linecap="round" stroke-linejoin="round"/><rect data-name="Rectangle 1784" width="46.919" height="27.069" rx="1" transform="translate(40.787 107.978)" fill="#fff"/><path data-name="Rectangle 1785" fill="rgba(3,128,144,0.1)" d="M40.787 115.196h46.919v14.437H40.787z"/><path data-name="Rectangle 1786" stroke="#ed5485" stroke-linecap="round" stroke-linejoin="round" fill="none" d="M40.787 115.196h46.919v14.437H40.787z"/><path data-name="Path 456" d="M82.293 104.441h-1.809a1.8 1.8 0 0 0-1.8 1.8v1.8h5.414v-1.8a1.8 1.8 0 0 0-1.805-1.8z" fill="rgba(3,128,144,0.1)" stroke="#ed5485" stroke-linecap="round" stroke-linejoin="round"/><path data-name="Path 457" d="M49.81 104.441h-3.614a1.8 1.8 0 0 0-1.8 1.8v1.8h7.218v-1.8a1.8 1.8 0 0 0-1.804-1.8z" fill="rgba(3,128,144,0.1)" stroke="#ed5485" stroke-linecap="round" stroke-linejoin="round"/><rect data-name="Rectangle 1787" width="46.919" height="27.069" rx="1" transform="translate(40.787 107.978)" stroke="#ed5485" stroke-linecap="round" stroke-linejoin="round" fill="none"/><path data-name="Path 458" d="M79.586 124.292a2.707 2.707 0 0 0 0-5.414h-2.707v5.414z" fill="#fff" stroke="#ed5485" stroke-linecap="round" stroke-linejoin="round"/><path data-name="Path 459" d="M72.151 102.636h-12.2a1.8 1.8 0 0 0-1.624.993l-1.8 3.609a12.632 12.632 0 0 0-1.339 5.648v22.233h21.655V112.76a12.632 12.632 0 0 0-1.335-5.649l-1.8-3.609a1.8 1.8 0 0 0-1.557-.866z" fill="#fff"/><path data-name="Path 460" d="M72.151 102.636h-12.2a1.8 1.8 0 0 0-1.624.993l-1.8 3.609a12.632 12.632 0 0 0-1.339 5.648v22.233h21.655V112.76a12.632 12.632 0 0 0-1.335-5.649l-1.8-3.609a1.8 1.8 0 0 0-1.557-.866z" fill="none" stroke="#ed5485" stroke-linecap="round" stroke-linejoin="round"/><ellipse data-name="Ellipse 27" cx="10.828" cy="10.828" rx="10.828" ry="10.828" transform="translate(55.224 111.587)" fill="#fff"/><ellipse data-name="Ellipse 28" cx="7.218" cy="7.218" rx="7.218" ry="7.218" transform="translate(58.833 115.196)" fill="rgba(3,128,144,0.1)"/><path data-name="Path 461" d="M60.944 127.521a7.222 7.222 0 1 1 10.214-10.214z" fill="#fff"/><ellipse data-name="Ellipse 29" cx="10.828" cy="10.828" rx="10.828" ry="10.828" transform="translate(55.224 111.587)" fill="none" stroke="#ed5485" stroke-linecap="round" stroke-linejoin="round"/><ellipse data-name="Ellipse 30" cx="7.218" cy="7.218" rx="7.218" ry="7.218" transform="translate(58.833 115.196)" fill="none" stroke="#ed5485" stroke-linecap="round" stroke-linejoin="round"/><path data-name="Line 103" fill="none" stroke="#ed5485" stroke-linecap="round" stroke-linejoin="round" d="M60.638 107.978h10.828"/><path data-name="Line 104" fill="none" stroke="#ed5485" stroke-linecap="round" stroke-linejoin="round" d="M48.006 115.196v14.437"/><path data-name="Line 105" fill="none" stroke="#ed5485" stroke-linecap="round" stroke-linejoin="round" d="M46.201 111.587h5.414"/></g></svg>