<svg xmlns="http://www.w3.org/2000/svg" width="77.08" height="26.19"><g data-name="LOGO PIX CITY SERVICES"><g data-name="Group 160"><g data-name="Group 159"><g data-name="Group 158" fill="#103558"><path data-name="Path 129" d="M20.374 3.527c-.022-1.2-.664-2.316-1.895-2.316-1.149 0-1.474 1.137-1.43 2.371.075 2.119 3.364 2.065 3.325-.055z"/><path data-name="Path 130" d="M12.017 1.361A8.663 8.663 0 0 0 6.236.211a8.53 8.53 0 0 0-3.451 1.055 6.6 6.6 0 0 0-2.216 1.8 2.506 2.506 0 0 0-.563 1.391c.029.175.184.247.47.219a1.951 1.951 0 0 0 .894-.343c.311-.2.664-.427 1.056-.671a8.146 8.146 0 0 1 3.578-1.161 5.118 5.118 0 0 1 3.174.551 3.123 3.123 0 0 1 1.454 2.285A4.145 4.145 0 0 1 10 8.912a2.622 2.622 0 0 1-1.038.715 10.536 10.536 0 0 1-1.1.351c-.309.08-.563.158-.771.233-.521.116-.979.186-1.37.238 0-.133.012-.267.018-.411q.114-2.283.068-3.714a12.4 12.4 0 0 0-.177-1.637c-.1-.612-.247-.91-.438-.892a.952.952 0 0 0-.5.188Q3.1 5.135 2.486 10.838a21.864 21.864 0 0 0 .019 5.742 10.551 10.551 0 0 0 .387 1.674.714.714 0 0 0 .8.537q2.728-.249 2.5-1.638l-.5-4.43c2.172-.6 4.613-.762 6.471-2.2.025-.019.047-.042.071-.06a5.2 5.2 0 0 0 1.126-1.179 3.744 3.744 0 0 0 .468-.795 5.576 5.576 0 0 0 .526-3.508 5.232 5.232 0 0 0-2.337-3.62z"/><path data-name="Path 131" d="M27.079 12.863a72.867 72.867 0 0 0 2.368-3.069 1.584 1.584 0 0 0-.144-2.095s-1.214-1.124-3.729 3.028l-.005.007c-.776-1.106-1.491-2.094-2.035-2.757a1.783 1.783 0 0 0-1.6-.826c-2.118.143-.331 3.49.276 4.458a18.836 18.836 0 0 1 1.193 1.944c-1.957 2.662-3.856 2.817-4.3 2.678-.514-.161-.9-.754-.6-3.234l.046-.247c.079-.486.142-.922.193-1.32l.005-.025a11.232 11.232 0 0 0 .123-2.011 3.216 3.216 0 0 0-.416-1.407q-.474-.928-1.166-.929c-.419 0-.793.3-1.123.889q-.031.055-.061.113c-1.251 2.2-1.395 6.07-1.367 7.866a2.859 2.859 0 0 0 2.383 3.02 6.528 6.528 0 0 0 2.517-.082 6.166 6.166 0 0 0 1.839-.672h.007a14.113 14.113 0 0 0 3.176-2.616c1.2 1.93 2.733 3.547 4.327 3.041.155-.049.291-.1.419-.156a2.36 2.36 0 0 0 .855-.565 1.533 1.533 0 0 0-.3-2.143 26.64 26.64 0 0 1-2.881-2.89z"/><path data-name="Path 132" d="M54.156 3.527c-.022-1.2-.664-2.316-1.895-2.316-1.149 0-1.474 1.137-1.43 2.371.073 2.119 3.363 2.065 3.325-.055z"/><path data-name="Path 133" d="M33.634 10.742c-.835 0-1.23.6-1.371 1.406a4.715 4.715 0 0 0-.059.966 1.969 1.969 0 0 0 .034.257 1.46 1.46 0 0 0 .867 1.134 1.645 1.645 0 0 0 2.424-1.446c-.022-1.205-.664-2.317-1.895-2.317z"/><path data-name="Path 134" d="M72.902 19.62c.044-.2.086-.394.12-.588.39-2.2.837-7.49.953-8.39a3.056 3.056 0 0 0-.595-2.694c-.742-.728-1.584-1.484-2.194-.344-.864 1.605-.017 4.327-1.356 6.409-2.8 4.361-3.2 1.312-3.13.431.123-1.467.566-3.6.74-4.877.279-2.053-.947-2.41-1.543-2.25s-1.04 1.051-1.374 2.03a28.564 28.564 0 0 0-.816 3.91 5.247 5.247 0 0 0-.242.35c-1.32 2.1-3.871 4.065-4.107 1.216 0-.176-.007-.344-.019-.5a24.949 24.949 0 0 1 .327-4.355 8.888 8.888 0 0 0 2.523-.346c.669-.243.8-.963.8-1.611 0-.774-1.083-.945-2.7-.884.612-1.836.238-.718.238-.718.746-2.235-.874-1.993-1.861-1.8a.808.808 0 0 0-.188.065 1.422 1.422 0 0 0-.926.818 5.734 5.734 0 0 0-.668 1.981c-.2.033-.385.069-.546.1a1.994 1.994 0 0 0-1.4 1.327c-.15.67.259 1.019 1.456 1.034h.019a23.675 23.675 0 0 0-.325 3.778c-.575.984-2.427 2.521-3.2 2.521a1.018 1.018 0 0 1-.609-.191.879.879 0 0 1-.3-.691 14.668 14.668 0 0 1 .353-2.6 16.887 16.887 0 0 0 .319-3.36 3.211 3.211 0 0 0-.416-1.406q-.474-.928-1.166-.929-1.167 0-1.868 3.05a24.476 24.476 0 0 0-.609 4.7c-3.369 2.855-5.961.885-5.914-3.5.051-4.818 2.42-7.015 3.673-7.781s2.367-.708 2.392-1.1S48.552.552 45.962.802s-6.778 3.632-7.237 9.937 3.135 8.192 5.723 8.284a5.922 5.922 0 0 0 4.626-1.874 3.232 3.232 0 0 0 1.7 1.632 2.071 2.071 0 0 0 .882.185 5.369 5.369 0 0 0 3.79-1.56 13.365 13.365 0 0 0 .91-1.107c.191 1.65 2.243 4.774 6.906.616.106-.105.209-.208.311-.314.392 1.565 2.723 3.663 6.685.556l-.122 1.146c-.054.441-.119.848-.189 1.227q-.725.014-1.49.062c-4.872.305-6.5 2.641-5.95 4.433s2.838 2.758 5.7 1.757a7.164 7.164 0 0 0 4.023-4.1c2.958.021 4.867.345 4.86-.15-.025-1.033-1.668-1.681-4.188-1.912zm-2.576-2.52zm-4.877 6.67c-.313-.161-1.186-1.577 3.538-1.971l.294-.022c-1.357 3.142-3.587 2.122-3.832 1.993z"/></g></g></g><g data-name="Group 161" fill="#103558"><path data-name="Path 135" d="M57.998 3.181a1.412 1.412 0 0 1-.549-.209l.117-.37a1.359 1.359 0 0 0 .489.2 1.744 1.744 0 0 0 .583.021 1.033 1.033 0 0 0 .556-.211.406.406 0 0 0 .142-.374.345.345 0 0 0-.139-.245.737.737 0 0 0-.279-.116 4.933 4.933 0 0 0-.448-.06 4.545 4.545 0 0 1-.586-.089.972.972 0 0 1-.4-.208.7.7 0 0 1-.218-.451.8.8 0 0 1 .069-.465.907.907 0 0 1 .352-.374 1.648 1.648 0 0 1 .642-.211 2.122 2.122 0 0 1 .549 0 1.453 1.453 0 0 1 .485.14l-.1.374a1.606 1.606 0 0 0-.441-.129 1.569 1.569 0 0 0-.443 0 .967.967 0 0 0-.544.215.425.425 0 0 0-.14.38.351.351 0 0 0 .142.246.8.8 0 0 0 .286.119c.11.021.257.04.443.057a4.065 4.065 0 0 1 .585.092.924.924 0 0 1 .4.2.681.681 0 0 1 .218.445.813.813 0 0 1-.071.464.911.911 0 0 1-.359.373 1.674 1.674 0 0 1-.647.21 2.18 2.18 0 0 1-.694-.024z"/><path data-name="Path 136" d="M62.449 1.884l-1.922.05a.749.749 0 0 0 .287.495.909.909 0 0 0 .588.177.88.88 0 0 0 .676-.3l.244.272a1.046 1.046 0 0 1-.392.3 1.5 1.5 0 0 1-1.2-.028 1.092 1.092 0 0 1-.458-.418 1.223 1.223 0 0 1-.174-.622 1.239 1.239 0 0 1 .138-.624 1.094 1.094 0 0 1 .413-.441 1.218 1.218 0 0 1 .607-.171 1.188 1.188 0 0 1 .609.14 1.075 1.075 0 0 1 .426.421 1.312 1.312 0 0 1 .166.631 1.182 1.182 0 0 1-.008.118zm-1.7-.757a.755.755 0 0 0-.231.5l1.518-.037a.757.757 0 0 0-.255-.483.727.727 0 0 0-.521-.177.743.743 0 0 0-.508.197z"/><path data-name="Path 137" d="M63.839.725a1.189 1.189 0 0 1 .536-.077l-.022.415a.675.675 0 0 0-.1-.01.713.713 0 0 0-.558.178.816.816 0 0 0-.231.58l-.066 1.176-.427-.021.13-2.365.411.021-.022.4a.74.74 0 0 1 .349-.297z"/><path data-name="Path 138" d="M67.074.979l-1.317 2.224-.435-.054-.74-2.477.443.055.576 1.985L66.657.928z"/><path data-name="Path 139" d="M67.513 1.071l.422.074-.411 2.333-.423-.074zm.1-.527a.263.263 0 0 1-.047-.208.283.283 0 0 1 .335-.226.293.293 0 0 1 .191.113.255.255 0 0 1 .047.207.28.28 0 0 1-.335.23.283.283 0 0 1-.192-.117z"/><path data-name="Path 140" d="M68.656 3.569a1.156 1.156 0 0 1-.338-.519 1.289 1.289 0 0 1 .275-1.215 1.128 1.128 0 0 1 .529-.322 1.338 1.338 0 0 1 .664-.007 1.25 1.25 0 0 1 .531.254.906.906 0 0 1 .3.453l-.363.132a.743.743 0 0 0-.215-.309.778.778 0 0 0-.338-.164.849.849 0 0 0-.431.007.731.731 0 0 0-.346.22.967.967 0 0 0-.194.856.728.728 0 0 0 .218.348.839.839 0 0 0 .385.193.767.767 0 0 0 .375 0 .729.729 0 0 0 .328-.185l.272.272a.944.944 0 0 1-.465.281 1.246 1.246 0 0 1-.59 0 1.331 1.331 0 0 1-.597-.295z"/><path data-name="Path 141" d="M72.983 3.777l-1.842-.544a.742.742 0 0 0 .12.559.894.894 0 0 0 .505.348.88.88 0 0 0 .737-.081l.149.333a1.023 1.023 0 0 1-.465.161 1.373 1.373 0 0 1-.539-.058 1.388 1.388 0 0 1-.6-.336 1.1 1.1 0 0 1-.309-.542 1.232 1.232 0 0 1 .025-.644 1.247 1.247 0 0 1 .325-.553 1.105 1.105 0 0 1 .529-.292 1.213 1.213 0 0 1 .629.025 1.182 1.182 0 0 1 .536.319 1.091 1.091 0 0 1 .277.531 1.326 1.326 0 0 1-.037.651 1.017 1.017 0 0 1-.04.123zM71.6 2.534a.762.762 0 0 0-.374.4l1.457.431a.765.765 0 0 0-.095-.539.8.8 0 0 0-.989-.294z"/><path data-name="Path 142" d="M73.298 4.938a1.236 1.236 0 0 1-.326-.329l.286-.258a1.291 1.291 0 0 0 .294.3 1.589 1.589 0 0 0 .4.218c.353.129.566.094.64-.108a.207.207 0 0 0-.013-.185.471.471 0 0 0-.147-.153c-.064-.044-.159-.1-.282-.173a2.889 2.889 0 0 1-.4-.256.71.71 0 0 1-.225-.291.55.55 0 0 1 .012-.41.606.606 0 0 1 .429-.392 1.192 1.192 0 0 1 .742.064 1.98 1.98 0 0 1 .424.217 1.3 1.3 0 0 1 .313.281l-.289.257a1.239 1.239 0 0 0-.578-.413.777.777 0 0 0-.421-.057.267.267 0 0 0-.215.173.221.221 0 0 0 .012.2.5.5 0 0 0 .154.161c.066.047.162.108.287.183a3.613 3.613 0 0 1 .4.256.718.718 0 0 1 .218.283.537.537 0 0 1-.012.4.593.593 0 0 1-.435.386 1.282 1.282 0 0 1-.767-.08 1.926 1.926 0 0 1-.501-.274z"/></g></g></svg>