<svg xmlns="http://www.w3.org/2000/svg" width="155.43" height="121.448"><g transform="translate(-6.001 -15.933)"><path data-name="Path 462" d="M155.606 86.93A71 71 0 1 0 19.92 116.219h129.367a70.789 70.789 0 0 0 6.319-29.289z" fill="rgba(3,128,144,0.1)"/><path data-name="Line 106" fill="none" stroke="#ed5485" stroke-linecap="round" stroke-linejoin="round" d="M14.488 116.219h138.455"/><path data-name="Line 107" fill="none" stroke="#ed5485" stroke-linecap="round" stroke-linejoin="round" d="M6.5 116.219h4.438"/><path data-name="Line 108" fill="none" stroke="#ed5485" stroke-linecap="round" stroke-linejoin="round" d="M156.493 116.219h4.438"/><rect data-name="Rectangle 1788" width="85.736" height="61.24" rx="3.6" transform="translate(36.942 60.943)" fill="rgba(3,128,144,0.1)"/><path data-name="Path 463" d="M88.792 60.943h-44.5a7.349 7.349 0 0 0-7.349 7.349v44.5z" fill="#fff"/><rect data-name="Rectangle 1789" width="85.736" height="61.24" rx="3.6" transform="translate(36.942 60.943)" stroke="#ed5485" stroke-linecap="round" stroke-linejoin="round" fill="none"/><path data-name="Path 464" d="M115.329 122.183a7.349 7.349 0 0 0 7.438-7.349v-2.449H36.942v2.45a7.349 7.349 0 0 0 7.35 7.348z" fill="#fff" stroke="#ed5485" stroke-linecap="round" stroke-linejoin="round"/><path data-name="Path 465" d="M87.159 131.981H72.461l1.225-9.8h12.248z" fill="#fff"/><path data-name="Path 466" d="M87.159 131.981H72.461l1.225-9.8h12.248z" fill="none" stroke="#ed5485" stroke-linecap="round" stroke-linejoin="round"/><path data-name="Path 467" d="M95.733 136.881H63.888a4.9 4.9 0 0 1 4.9-4.9h22.028a4.917 4.917 0 0 1 4.917 4.9z" fill="#fff" stroke="#ed5485" stroke-linecap="round" stroke-linejoin="round"/><path data-name="Path 468" d="M56.539 52.37h71v42.282a4.26 4.26 0 0 1-4.26 4.26h-62.48a4.26 4.26 0 0 1-4.26-4.26z" fill="#fff" stroke="#ed5485" stroke-linecap="round" stroke-linejoin="round"/><path data-name="Path 469" d="M60.8 37.672h62.518a4.26 4.26 0 0 1 4.26 4.26V52.37h-71V41.932a4.26 4.26 0 0 1 4.225-4.26z" fill="#fff" stroke="#ed5485" stroke-linecap="round" stroke-linejoin="round"/><circle data-name="Ellipse 31" cx="2.45" cy="2.45" r="2.45" transform="translate(61.438 42.572)" stroke="#ed5485" stroke-linecap="round" stroke-linejoin="round" fill="rgba(3,128,144,0.1)"/><circle data-name="Ellipse 32" cx="2.45" cy="2.45" r="2.45" transform="translate(71.237 42.572)" stroke="#ed5485" stroke-linecap="round" stroke-linejoin="round" fill="rgba(3,128,144,0.1)"/><circle data-name="Ellipse 33" cx="2.45" cy="2.45" r="2.45" transform="translate(81.035 42.572)" stroke="#ed5485" stroke-linecap="round" stroke-linejoin="round" fill="rgba(3,128,144,0.1)"/><rect data-name="Rectangle 1790" width="9.798" height="9.798" rx="1" transform="translate(78.585 67.067)" stroke="#ed5485" stroke-linecap="round" stroke-linejoin="round" fill="rgba(3,128,144,0.1)"/><rect data-name="Rectangle 1791" width="9.798" height="9.798" rx="1" transform="translate(94.508 67.067)" stroke="#ed5485" stroke-linecap="round" stroke-linejoin="round" fill="rgba(3,128,144,0.1)"/><rect data-name="Rectangle 1792" width="9.798" height="9.798" rx="1" transform="translate(110.43 67.067)" stroke="#ed5485" stroke-linecap="round" stroke-linejoin="round" fill="rgba(3,128,144,0.1)"/><rect data-name="Rectangle 1793" width="9.798" height="9.798" rx="1" transform="translate(78.585 81.765)" stroke="#ed5485" stroke-linecap="round" stroke-linejoin="round" fill="rgba(3,128,144,0.1)"/><rect data-name="Rectangle 1794" width="9.798" height="9.798" rx="1" transform="translate(94.508 81.765)" stroke="#ed5485" stroke-linecap="round" stroke-linejoin="round" fill="rgba(3,128,144,0.1)"/><rect data-name="Rectangle 1795" width="9.798" height="9.798" rx="1" transform="translate(110.43 81.765)" stroke="#ed5485" stroke-linecap="round" stroke-linejoin="round" fill="rgba(3,128,144,0.1)"/><rect data-name="Rectangle 1796" width="9.798" height="4.899" rx="1" transform="translate(63.888 57.269)" stroke="#ed5485" stroke-linecap="round" stroke-linejoin="round" fill="rgba(3,128,144,0.1)"/><rect data-name="Rectangle 1797" width="41.643" height="4.899" rx="1" transform="translate(78.585 57.269)" fill="rgba(3,128,144,0.1)" stroke="#ed5485" stroke-linejoin="round"/><path data-name="Line 109" fill="none" stroke="#ed5485" stroke-linecap="round" stroke-linejoin="round" d="M63.888 67.067h9.798"/><path data-name="Line 110" fill="none" stroke="#ed5485" stroke-linecap="round" stroke-linejoin="round" d="M63.888 71.967h9.798"/><path data-name="Line 111" fill="none" stroke="#ed5485" stroke-linecap="round" stroke-linejoin="round" d="M63.888 76.866h9.798"/><path data-name="Line 112" fill="none" stroke="#ed5485" stroke-linecap="round" stroke-linejoin="round" d="M63.888 81.765h9.798"/><path data-name="Line 113" fill="none" stroke="#ed5485" stroke-linecap="round" stroke-linejoin="round" d="M63.888 86.664h9.798"/><path data-name="Line 114" fill="none" stroke="#ed5485" stroke-linecap="round" stroke-linejoin="round" d="M63.888 91.563h6.124"/><path data-name="Path 470" d="M143.5 118.385c-.355 1.3-1.065 1.331-1.58 0l-8.041-19.189c-.515-1.243 0-1.775 1.331-1.314l19.277 8.029c1.243.533 1.189 1.243-.107 1.6l-6.177 1.775a4.793 4.793 0 0 0-3.018 3z" fill="#fff" stroke="#ed5485" stroke-linejoin="round"/><circle data-name="Ellipse 34" cx="1.03" cy="1.03" r="1.03" transform="translate(78.781 116.254)" stroke="#ed5485" stroke-linecap="round" stroke-linejoin="round" fill="none"/></g></svg>