<svg xmlns="http://www.w3.org/2000/svg" xmlns:xlink="http://www.w3.org/1999/xlink" width="20" height="20" viewBox="0 0 20 20"><defs><path id="ys83a" d="M365 623a2 2 0 1 1 .001-4.001A2 2 0 0 1 365 623zm-12-6a2 2 0 1 1 .001-4.001A2 2 0 0 1 353 617zm12-10a2 2 0 1 1 0 4 2 2 0 0 1 0-4zm0 10c-1.2 0-2.266.541-3 1.381l-5.092-2.545a3.894 3.894 0 0 0 0-1.673l5.092-2.545c.734.84 1.8 1.382 3 1.382 2.205 0 4-1.795 4-4 0-2.206-1.795-4-4-4s-4 1.794-4 4c0 .287.033.566.092.836L356 612.381a3.978 3.978 0 0 0-3-1.381c-2.205 0-4 1.794-4 4 0 2.205 1.795 4 4 4 1.2 0 2.266-.543 3-1.383l5.092 2.546c-.059.271-.092.55-.092.837 0 2.205 1.795 4 4 4s4-1.795 4-4c0-2.206-1.795-4-4-4z"/></defs><g><g transform="translate(-349 -605)"><use fill="#187f8d" xlink:href="#ys83a"/></g></g></svg>