<svg xmlns="http://www.w3.org/2000/svg" width="88" height="57.658"><g data-name="01-convenience-store"><path data-name="Path 3233" d="M84 40.658a40 40 0 1 0-76.44 16.5h72.88a39.85 39.85 0 0 0 3.56-16.5z" fill="rgba(4,53,89,0.1)"/><path data-name="Line 329" fill="none" stroke="#043559" stroke-linecap="round" stroke-linejoin="round" d="M5 57.158h78"/><path data-name="Line 330" fill="none" stroke="#043559" stroke-linecap="round" stroke-linejoin="round" d="M.5 57.158H3"/><path data-name="Line 331" fill="none" stroke="#043559" stroke-linecap="round" stroke-linejoin="round" d="M85 57.158h2.5"/><g transform="translate(-6.5 -15.342)"><path data-name="Path 3234" d="M72.4 54a3.3 3.3 0 0 1-3.3-3.3 3.3 3.3 0 0 1-6.6 0 3.3 3.3 0 0 1-6.6 0 3.3 3.3 0 0 1-6.6 0 3.3 3.3 0 1 1-6.6 0 3.3 3.3 0 0 1-6.6 0 3.29 3.29 0 0 1-3.3 3.3 3.68 3.68 0 0 1-.66-.06v18.53h40.92V53.93a3.52 3.52 0 0 1-.66.07z" fill="#fff"/><path data-name="Path 3235" d="M46.66 61.92a5.28 5.28 0 0 0-10.56 0v4h10.56z" fill="#fff"/><path data-name="Rectangle 1894" fill="#fff" d="M32.14 36.68h40.92v5.43H32.14z"/><path data-name="Path 3236" d="M75.7 48.72H29.5l2.65-6.6h40.91z" fill="rgba(4,53,89,0.2)"/><path data-name="Path 3237" d="M29.5 48.72v2a3.3 3.3 0 1 0 6.6 0v-2z" fill="rgba(4,53,89,0.2)"/><path data-name="Path 3238" d="M36.1 48.72v2a3.3 3.3 0 0 0 6.6 0v-2z" fill="rgba(4,53,89,0.2)"/><path data-name="Path 3239" d="M42.7 48.72v2a3.3 3.3 0 1 0 6.6 0v-2z" fill="rgba(4,53,89,0.2)"/><path data-name="Path 3240" d="M49.3 48.72v2a3.3 3.3 0 0 0 6.6 0v-2z" fill="rgba(4,53,89,0.2)"/><path data-name="Path 3241" d="M55.9 48.72v2a3.3 3.3 0 0 0 6.6 0v-2z" fill="rgba(4,53,89,0.2)"/><path data-name="Path 3242" d="M62.5 48.72v2a3.3 3.3 0 0 0 6.6 0v-2z" fill="rgba(4,53,89,0.2)"/><path data-name="Path 3243" d="M69.1 48.72v2a3.3 3.3 0 0 0 6.6 0v-2z" fill="rgba(4,53,89,0.2)"/><path data-name="Rectangle 1895" fill="rgba(4,53,89,0.2)" d="M36.1 65.88h10.56v6.6H36.1z"/><path data-name="Path 3244" d="M65.8 54a3.3 3.3 0 0 1-3.23-2.64h-.13a3.3 3.3 0 0 1-6.47 0h-.13a3.29 3.29 0 0 1-5.22 2v14.1a1.11 1.11 0 0 0 1.1 1.1H68a1.1 1.1 0 0 0 1.1-1.1V51.35H69A3.3 3.3 0 0 1 65.8 54z" fill="rgba(4,53,89,0.2)"/><path data-name="Path 3245" d="M63.33 52.87a3.32 3.32 0 0 1-.76-1.52h-.13a3.3 3.3 0 0 1-6.47 0h-.13a3.29 3.29 0 0 1-5.22 2v12.23z" fill="#fff"/><path data-name="Path 3246" d="M25.3 60.69c0 3.49-1.13 6.32-2.52 6.32s-2.52-2.83-2.52-6.32S22.78 48 22.78 48s2.52 9.2 2.52 12.69z" fill="#fff"/><path data-name="Rectangle 1896" fill="none" stroke="#043559" stroke-linejoin="round" d="M32.14 36.68h40.92v5.43H32.14z"/><path data-name="Path 3247" d="M72.4 54a3.3 3.3 0 0 1-3.3-3.3 3.3 3.3 0 0 1-6.6 0 3.3 3.3 0 0 1-6.6 0 3.3 3.3 0 0 1-6.6 0 3.3 3.3 0 1 1-6.6 0 3.3 3.3 0 0 1-6.6 0 3.29 3.29 0 0 1-3.3 3.3 3.68 3.68 0 0 1-.66-.06v18.53h40.92V53.93a3.52 3.52 0 0 1-.66.07z" fill="none" stroke="#043559" stroke-linejoin="round"/><path data-name="Path 3248" d="M25.3 60.69c0 3.49-1.13 6.32-2.52 6.32s-2.52-2.83-2.52-6.32S22.78 48 22.78 48s2.52 9.2 2.52 12.69z" fill="none" stroke="#043559" stroke-linejoin="round"/><path data-name="Line 332" fill="none" stroke="#043559" stroke-miterlimit="10" d="M41.39 56.64v15.83"/><path data-name="Line 333" fill="none" stroke="#043559" stroke-miterlimit="10" d="M36.1 61.92h10.56"/><path data-name="Path 3249" d="M75.7 48.72H29.5l2.65-6.6h40.91z" fill="none" stroke="#043559" stroke-linejoin="round"/><path data-name="Path 3250" d="M46.66 61.92a5.28 5.28 0 0 0-10.56 0v4h10.56z" fill="none" stroke="#043559" stroke-linejoin="round"/><path data-name="Line 334" fill="none" stroke="#043559" stroke-linejoin="round" d="M41.39 56.64v15.83"/><path data-name="Rectangle 1897" fill="none" stroke="#043559" stroke-linejoin="round" d="M36.1 65.88h10.56v6.6H36.1z"/><path data-name="Line 335" fill="none" stroke="#043559" stroke-linejoin="round" d="M36.1 61.92h10.56"/><path data-name="Path 3251" d="M29.5 48.72v2a3.3 3.3 0 1 0 6.6 0v-2z" fill="none" stroke="#043559" stroke-linejoin="round"/><path data-name="Path 3252" d="M36.1 48.72v2a3.3 3.3 0 0 0 6.6 0v-2z" fill="none" stroke="#043559" stroke-linejoin="round"/><path data-name="Path 3253" d="M42.7 48.72v2a3.3 3.3 0 1 0 6.6 0v-2z" fill="none" stroke="#043559" stroke-linejoin="round"/><path data-name="Path 3254" d="M49.3 48.72v2a3.3 3.3 0 0 0 6.6 0v-2z" fill="none" stroke="#043559" stroke-linejoin="round"/><path data-name="Path 3255" d="M55.9 48.72v2a3.3 3.3 0 0 0 6.6 0v-2z" fill="none" stroke="#043559" stroke-linejoin="round"/><path data-name="Path 3256" d="M62.5 48.72v2a3.3 3.3 0 0 0 6.6 0v-2z" fill="none" stroke="#043559" stroke-linejoin="round"/><path data-name="Path 3257" d="M69.1 48.72v2a3.3 3.3 0 0 0 6.6 0v-2z" fill="none" stroke="#043559" stroke-linejoin="round"/><path data-name="Path 3258" d="M65.8 54a3.3 3.3 0 0 1-3.23-2.64h-.13a3.3 3.3 0 0 1-6.47 0h-.13a3.29 3.29 0 0 1-5.22 2v14.1a1.11 1.11 0 0 0 1.1 1.1H68a1.1 1.1 0 0 0 1.1-1.1V51.35H69A3.3 3.3 0 0 1 65.8 54z" fill="none" stroke="#043559" stroke-linejoin="round"/><path data-name="Path 3259" d="M84.39 19.34a2.56 2.56 0 0 0-1 .19 4.38 4.38 0 0 0-8.65 0 2.56 2.56 0 0 0-1-.19 2.64 2.64 0 0 0 0 5.28h10.65a2.64 2.64 0 0 0 0-5.28z" fill="#fff" stroke="#043559" stroke-miterlimit="10"/><path data-name="Path 3260" d="M84.39 19.34a2.56 2.56 0 0 0-1 .19 4.38 4.38 0 0 0-8.65 0 2.56 2.56 0 0 0-1-.19 2.64 2.64 0 0 0 0 5.28h10.65a2.64 2.64 0 0 0 0-5.28z" fill="#fff" stroke="#043559" stroke-linejoin="round"/><path data-name="Line 336" fill="none" stroke="#043559" stroke-linejoin="round" d="M22.78 67.01v5.46"/><rect data-name="Rectangle 1898" width="43.56" height="3.71" rx=".5" transform="translate(30.82 32.98)" fill="#fff" stroke="#043559" stroke-linejoin="round"/></g></g></svg>