<?xml version="1.0" encoding="utf-8"?>
<!-- Generator: Adobe Illustrator 23.0.1, SVG Export Plug-In . SVG Version: 6.00 Build 0)  -->
<svg version="1.1" id="Calque_1" xmlns="http://www.w3.org/2000/svg" xmlns:xlink="http://www.w3.org/1999/xlink" x="0px" y="0px"
	 viewBox="0 0 360 200" style="enable-background:new 0 0 360 200;" xml:space="preserve">
<style type="text/css">
	.st0{fill:none;}
	.st1{fill:#FFFFFF;}
</style>
<path class="st0" d="M-0.28,0.05v199.9h360.55V0.05H-0.28z"/>
<g>
	<path class="st1" d="M123.32,70.24c-0.07-3.77-2.08-7.24-5.92-7.24c-3.6,0-4.61,3.56-4.48,7.42
		C113.15,77.04,123.44,76.87,123.32,70.24z"/>
	<path class="st1" d="M97.18,63.47c-4.69-3.12-10.72-4.32-18.09-3.6c-3.91,0.35-7.51,1.45-10.79,3.3c-3.29,1.84-5.6,3.73-6.94,5.64
		c-1.31,2.07-1.9,3.52-1.76,4.35c0.09,0.54,0.58,0.77,1.47,0.69s1.82-0.44,2.8-1.08c0.97-0.64,2.08-1.34,3.31-2.1
		c3.32-2.05,7.06-3.26,11.19-3.63c4.13-0.37,7.44,0.2,9.93,1.72c2.49,1.52,4,3.9,4.55,7.15c0.84,5.06,0.18,8.79-1.98,11.18
		c-0.93,1.03-2.01,1.78-3.24,2.24c-1.23,0.46-2.37,0.83-3.43,1.1c-0.97,0.25-1.76,0.49-2.41,0.73c-1.63,0.37-3.06,0.58-4.29,0.75
		c0.02-0.42,0.04-0.83,0.06-1.29c0.23-4.76,0.3-8.64,0.21-11.62c-0.05-1.49-0.23-3.2-0.55-5.12c-0.32-1.92-0.78-2.85-1.37-2.79
		c-0.59,0.05-1.11,0.25-1.56,0.59c-3.32,2.4-5.62,9.54-6.9,21.43c-0.76,7.2-0.74,13.19,0.06,17.96c0.38,2.26,0.78,4.01,1.21,5.24
		c0.43,1.23,1.27,1.79,2.5,1.68c5.69-0.52,8.3-2.22,7.81-5.12l-1.56-13.86c6.8-1.89,14.43-2.38,20.24-6.87c0,0,0,0,0,0
		c0.08-0.06,0.15-0.12,0.22-0.18c1.32-1,2.5-2.23,3.52-3.69c0.76-1.05,1.23-1.86,1.47-2.48c1.73-3.43,2.29-7.08,1.64-10.97
		C103.69,69.98,101.25,66.19,97.18,63.47z"/>
	<path class="st1" d="M144.29,99.44c3.52-4.35,6.04-7.7,7.41-9.6c1.56-2.16,1.22-5.4-0.45-6.55c0,0-3.8-3.52-11.66,9.47
		c-0.01,0.01-0.01,0.02-0.02,0.02c-2.42-3.46-4.66-6.55-6.37-8.62c-1.75-2.13-3.25-2.7-5.01-2.58c-6.62,0.44-1.03,10.91,0.86,13.94
		c0.68,1.09,2.71,3.9,3.74,6.08c-6.12,8.33-12.06,8.81-13.45,8.38c-1.61-0.5-2.83-2.36-1.89-10.11c0.05-0.26,0.09-0.5,0.14-0.77
		c0.25-1.52,0.45-2.89,0.6-4.13c0-0.03,0.01-0.05,0.01-0.08c0,0,0-0.01,0-0.01c0.36-2.81,0.49-4.92,0.38-6.29
		c-0.06-1.44-0.49-2.91-1.3-4.4c-0.99-1.94-2.21-2.91-3.65-2.91c-1.31,0-2.48,0.93-3.51,2.78c0,0,0,0,0,0c0,0,0,0,0,0
		c-0.06,0.11-0.13,0.23-0.19,0.35c-3.91,6.87-4.36,18.99-4.28,24.61c0.05,3.57,1.64,8.49,7.46,9.44c2.19,0.36,4.85,0.43,7.87-0.26
		c2.16-0.42,4.07-1.16,5.75-2.1c0.01,0,0.01-0.01,0.02-0.01c2.83-1.44,6.38-4.55,9.94-8.19c3.76,6.04,8.55,11.09,13.54,9.51
		c0.48-0.15,0.91-0.32,1.31-0.49c1.23-0.52,2.1-1.12,2.67-1.76c1.89-2.12,0.87-4.95-0.95-6.71
		C150.84,106.12,148,103.97,144.29,99.44z"/>
	<path class="st1" d="M228.98,70.24c-0.07-3.77-2.08-7.24-5.92-7.24c-3.6,0-4.61,3.56-4.48,7.42
		C218.81,77.04,229.1,76.87,228.98,70.24z"/>
	<path class="st1" d="M164.8,92.81c-2.61,0-3.85,1.89-4.29,4.4c-0.16,0.94-0.22,1.97-0.19,3.02c0.01,0.29,0.06,0.54,0.11,0.8
		c0.16,0.89,0.49,1.64,0.98,2.24c0.47,0.57,1.07,1,1.73,1.3c3.11,1.44,7.66-0.1,7.58-4.52C170.65,96.29,168.64,92.81,164.8,92.81z"
		/>
	<path class="st1" d="M287.61,120.58c0.14-0.62,0.27-1.23,0.38-1.84c1.22-6.89,2.61-23.43,2.98-26.24c0.37-2.81,0.46-6.15-1.86-8.42
		s-4.95-4.64-6.86-1.08c-2.7,5.03-0.05,13.54-4.24,20.05c-8.77,13.64-10.02,4.1-9.79,1.35c0.38-4.59,1.77-11.25,2.31-15.26
		c0.87-6.42-2.96-7.53-4.83-7.04s-3.25,3.29-4.3,6.35c-0.62,1.8-1.8,7.03-2.56,12.23c-0.26,0.35-0.51,0.71-0.76,1.1
		c-4.13,6.56-12.11,12.71-12.85,3.8c0-0.55-0.02-1.07-0.06-1.55c0.01-0.77-0.19-6.09,1.02-13.62c3.01-0.09,5.94-0.38,7.9-1.09
		c2.09-0.76,2.51-3.01,2.51-5.04c0-2.42-3.39-2.96-8.46-2.76c0.44-1.59,0.92-3.21,1.5-4.88c1.03-2.97-2.37-5.86-5.48-5.35
		c-0.18,0.03-0.38,0.1-0.59,0.19c-1.05,0.13-2.04,0.95-2.97,2.48c0,0,0,0,0,0c0,0,0,0,0,0c-1.13,1.85-2.16,4.73-3.11,8.64
		c-0.62,0.11-1.21,0.21-1.71,0.31c-1.64,0.32-3.91,2.08-4.38,4.15c-0.47,2.1,0.81,3.19,4.55,3.23c0.02,0,0.04,0,0.06,0
		c-0.54,3.31-1.02,7.58-1.02,11.81c-1.8,3.08-7.59,7.88-10.02,7.88c-0.72,0-1.36-0.2-1.91-0.6c-0.55-0.4-0.87-1.12-0.95-2.16
		c-0.08-1.04,0.29-3.75,1.11-8.12c0.82-5.02,1.15-8.52,1-10.51c-0.06-1.44-0.49-2.91-1.3-4.4c-0.99-1.94-2.21-2.91-3.65-2.91
		c-2.44,0-4.38,3.18-5.84,9.54c-0.56,3.35-2.02,9.19-1.9,14.7c-10.54,8.93-18.65,2.76-18.5-10.94c0.16-15.07,7.57-21.95,11.49-24.34
		c3.92-2.39,7.4-2.21,7.48-3.43s-0.6-5.86-8.7-5.08c-8.1,0.78-21.2,11.36-22.64,31.08c-1.43,19.72,9.81,25.62,17.9,25.91
		c6.83,0.24,11.2-2.62,14.47-5.86c1.05,2.19,2.72,4,5.31,5.1c0.83,0.38,1.75,0.58,2.76,0.58c3.98,0.05,8.6-1.58,11.85-4.88
		c0.99-1.01,2.2-2.62,2.84-3.46c0.6,5.16,7.02,14.93,21.6,1.93c0.33-0.33,0.66-0.65,0.97-0.98c1.23,4.89,8.52,11.45,20.91,1.73
		l-0.38,3.59c-0.17,1.38-0.37,2.66-0.59,3.84c-1.51,0.03-3.06,0.1-4.66,0.2c-15.24,0.95-20.34,8.26-18.61,13.86
		c1.73,5.6,8.87,8.63,17.83,5.5c6.03-2.11,10.11-7.2,12.58-12.83c9.25,0.07,15.22,1.08,15.2-0.47
		C300.64,123.32,295.5,121.3,287.61,120.58z M279.56,112.69C279.64,112.63,279.62,112.65,279.56,112.69L279.56,112.69z
		 M264.3,133.56c-0.98-0.51-3.71-4.94,11.07-6.17c0.31-0.03,0.62-0.05,0.92-0.07C272.05,137.15,265.08,133.96,264.3,133.56z"/>
</g>
</svg>
