<svg xmlns="http://www.w3.org/2000/svg" width="48.405" height="56" viewBox="0 0 48.405 56">
  <g id="_Map_Marker_-_Nature_V2_" data-name="ðŸ“Map Marker - Nature [V2]" transform="translate(-384 -232)">
    <g id="_Map_Marker_-_Tourist_V2_" data-name="ðŸ“Map Marker - Tourist [V2]" transform="translate(280)">
      <g id="_Map_Marker_-_Nature_V2_2" data-name="ðŸ“Map Marker - Nature [V2]" transform="translate(72)">
        <path id="_V1_HEXAGONE" data-name="[V1]HEXAGONE" d="M-28.8,0-53,14V42l24.2,14,24.2-14V14Z" transform="translate(85 232)" fill="#ed5485"/>
        <g id="Category_Icon_-_Nature" data-name="Category Icon - Nature" transform="translate(-54 189.06)">
          <path id="Category_Icon_-_Nature-2" data-name="Category Icon - Nature" d="M26.976.456A.767.767,0,0,0,25.581.4,8.453,8.453,0,0,1,18.192,4.71H14.248a9.467,9.467,0,0,0-9.464,9.464,9.747,9.747,0,0,0,.074,1.011A23.583,23.583,0,0,1,18.98,11.019a.789.789,0,0,1,0,1.577c-12.392,0-17.647,7.6-18.81,10.45a1.58,1.58,0,0,0,2.923,1.2,12.968,12.968,0,0,1,3.544-4.466,9.443,9.443,0,0,0,8.621,3.805c7.739-.562,13.186-7.5,13.186-16A17.925,17.925,0,0,0,26.976.456Z" transform="translate(95.945 57.964)" fill="#fff"/>
        </g>
      </g>
    </g>
  </g>
</svg>
