<svg xmlns="http://www.w3.org/2000/svg" width="7.869" height="10.161"><path data-name="Pix City Letter Logo" d="M6.549.662A4.72 4.72 0 0 0 3.398.035 4.619 4.619 0 0 0 1.519.61a3.6 3.6 0 0 0-1.209.982 1.381 1.381 0 0 0-.307.758q.024.141.256.12a1.078 1.078 0 0 0 .488-.188c.169-.111.362-.233.577-.366a4.407 4.407 0 0 1 1.949-.632 2.8 2.8 0 0 1 1.73.3 1.707 1.707 0 0 1 .793 1.245 2.262 2.262 0 0 1-.345 1.947 1.429 1.429 0 0 1-.564.39 5.83 5.83 0 0 1-.6.192 4.454 4.454 0 0 0-.42.127c-.284.064-.533.1-.747.131 0-.073.007-.145.01-.225q.06-1.244.037-2.024a6.9 6.9 0 0 0-.1-.892c-.056-.334-.136-.5-.239-.486a.514.514 0 0 0-.272.1q-.867.627-1.2 3.733a11.873 11.873 0 0 0 .01 3.128 5.882 5.882 0 0 0 .211.913.389.389 0 0 0 .435.293q1.487-.136 1.36-.892L3.1 6.85c1.184-.329 2.513-.415 3.525-1.2l.038-.031a2.841 2.841 0 0 0 .613-.643 2.065 2.065 0 0 0 .256-.432 3.028 3.028 0 0 0 .286-1.911A2.85 2.85 0 0 0 6.549.662z" fill="#fff"/></svg>