<svg xmlns="http://www.w3.org/2000/svg" width="51.629" height="111.561"><g data-name="Illustration 4"><path data-name="Path 3461" d="M26.63 12.683h.6a10.293 10.293 0 0 1 3.187.531 5.113 5.113 0 0 1 3.121 2.922 6.973 6.973 0 0 1 .6 2.523c.066 1.062.066 2.125.066 3.254v8.9a13.016 13.016 0 0 1-.332 3.254 5.246 5.246 0 0 1-3.519 3.851 8.7 8.7 0 0 1-2.988.531h-4.454a7.57 7.57 0 0 1-3.387-.863 5.312 5.312 0 0 1-2.523-3.259 8.5 8.5 0 0 1-.4-2.324c-.066-2.191-.066-4.383-.066-6.508s0-3.586.066-5.578a10.027 10.027 0 0 1 .465-3.121 5.246 5.246 0 0 1 3.519-3.652 8.234 8.234 0 0 1 2.523-.465h3.522m.6-2.656h-4.186a10.89 10.89 0 0 0-3.32.6 7.836 7.836 0 0 0-5.18 5.113 12.75 12.75 0 0 0-.6 3.918q-.066 2.855-.066 5.644t.066 6.574a11.09 11.09 0 0 0 .536 3.055 7.969 7.969 0 0 0 3.785 4.848 10.16 10.16 0 0 0 4.516 1.2c1.395.066-1.129.066.2.066h4.449a11.422 11.422 0 0 0 3.918-.664 7.9 7.9 0 0 0 5.18-5.644 15.8 15.8 0 0 0 .465-3.851v-8.437c0-1.062 0-2.59-.133-3.851a9.629 9.629 0 0 0-.863-3.453 7.769 7.769 0 0 0-4.652-4.314 13.015 13.015 0 0 0-4.051-.664c-1.262 0 .531-.066 0-.066z" fill="#103558"/><path data-name="Path 3462" d="M9.829 34.066l-1.727-2.125c1.992-1.992 6.109-6.641 6.109-12.617l2.656-.664a20.385 20.385 0 0 1-7.036 15.4z" fill="#103558"/><path data-name="Path 3463" d="M33.868 18.726l2.656.664c0 5.976 4.117 10.625 6.109 12.617l-1.727 2.125a20.386 20.386 0 0 1-7.038-15.406z" fill="#103558"/><g data-name="Group 2501" fill="#103558"><path data-name="Path 3464" d="M32.473 38.581V51.53h-2.789c0-1.859 0-11.09.066-12.949z"/><path data-name="Path 3465" d="M20.985 38.581V51.53h-2.789c0-1.859 0-11.09.066-12.949z"/></g><g data-name="Group 2503"><g data-name="Group 2502"><path data-name="Path 3466" d="M23.376 24.504h-3.453a7.172 7.172 0 0 1-3.187-.8 5.312 5.312 0 0 1-2.523-3.254 7.969 7.969 0 0 1-.4-2.191c-.066-1.793-.066-3.652-.066-5.445s0-2.988.066-4.715a9.164 9.164 0 0 1 .465-2.855 5.246 5.246 0 0 1 3.52-3.449 7.769 7.769 0 0 1 2.391-.4h10.093a9.426 9.426 0 0 1 2.92.464 5.18 5.18 0 0 1 3.123 2.923 6.707 6.707 0 0 1 .6 2.391c.066.93.066 1.859.066 2.789v7.433a11.687 11.687 0 0 1-.332 2.922 5.312 5.312 0 0 1-3.519 3.785 8.168 8.168 0 0 1-2.789.465z" fill="#fff"/><path data-name="Path 3467" d="M27.095 2.59h3.124a8.168 8.168 0 0 1 2.523.4 3.851 3.851 0 0 1 2.391 2.258 5.379 5.379 0 0 1 .465 1.926c.066.863.066 1.727.066 2.656v7.437a10.425 10.425 0 0 1-.266 2.59 3.918 3.918 0 0 1-2.723 2.922 6.84 6.84 0 0 1-2.324.4H19.989a5.777 5.777 0 0 1-2.59-.664 3.984 3.984 0 0 1-1.926-2.457 6.641 6.641 0 0 1-.332-1.859c-.066-1.793-.066-3.652-.066-5.445s0-2.988.066-4.648a7.969 7.969 0 0 1 .4-2.457 3.918 3.918 0 0 1 2.656-2.59 6.441 6.441 0 0 1 1.992-.332h6.906m0-2.656h-6.976a9.1 9.1 0 0 0-2.789.465 6.574 6.574 0 0 0-4.311 4.245 10.625 10.625 0 0 0-.531 3.254q-.069 2.391-.069 4.715t.066 5.512a9.23 9.23 0 0 0 .4 2.59 6.641 6.641 0 0 0 3.187 3.984 8.433 8.433 0 0 0 3.785 1h10.491a9.5 9.5 0 0 0 3.254-.531 6.574 6.574 0 0 0 4.317-4.786 13.215 13.215 0 0 0 .4-3.254v-7.039c0-.863 0-2.125-.066-3.187a8.035 8.035 0 0 0-.73-2.855A6.508 6.508 0 0 0 33.669.531 10.89 10.89 0 0 0 30.282 0z" fill="#103558"/></g><path data-name="Path 3468" d="M25.368 6.242v2.656a3.851 3.851 0 0 1 2.793 1.129 4.117 4.117 0 0 1 1.2 2.855 4.051 4.051 0 0 1-3.918 3.984h-.2a4.051 4.051 0 0 1-3.918-3.984 4.117 4.117 0 0 1 4.051-3.984V6.242m0 0a6.641 6.641 0 1 0-.133 13.281h.2a6.674 6.674 0 1 0-.075-13.347z" fill="#103558"/><path data-name="Path 3469" d="M33.864 5.91a1.594 1.594 0 1 1-3.121 0 1.561 1.561 0 1 1 3.121 0z" fill="#103558"/></g><path data-name="Path 3470" d="M12.684 110.232H38.25" fill="none" stroke="#103558" stroke-miterlimit="10" stroke-width="2.656"/><g data-name="Group 2504"><path data-name="Path 3471" d="M9.229 93.698l-.93-.93a23.707 23.707 0 0 1-6.97-16.933 24.039 24.039 0 0 1 23.972-23.906h.066a23.375 23.375 0 0 1 16.6 6.906 24.238 24.238 0 0 1 7.172 17.066 24.5 24.5 0 0 1-8.566 18.261h-.066l-15.34 15.472z" fill="#fff"/><path data-name="Path 3472" d="M25.368 53.257a22.046 22.046 0 0 1 15.671 6.574 22.91 22.91 0 0 1 6.773 16.07 23.175 23.175 0 0 1-8.1 17.265h-.133l-14.41 14.543-14.012-14.008-1.856-1.862a22.445 22.445 0 0 1-6.577-15.938A22.777 22.777 0 0 1 9.165 60.23a22.445 22.445 0 0 1 16.136-6.973h.066m0-2.656h-.133A25.433 25.433 0 0 0 .001 75.835a25.035 25.035 0 0 0 7.371 17.8l17.8 17.863 16.329-16.339a25.832 25.832 0 0 0 9.034-19.258c.066-13.015-10.558-25.3-25.1-25.3z" fill="#103558"/></g><path data-name="Path 3473" d="M25.235 82.476a9.23 9.23 0 1 1 9.23-9.23 9.23 9.23 0 0 1-9.23 9.23z" fill="none" stroke="#103558" stroke-miterlimit="10" stroke-width="2.656"/><path data-name="Path 3474" d="M41.305 16.995c1.992.465 6.973-2.059 9.961-2.656a47.409 47.409 0 0 1-9.961-4.644v27.226" fill="none" stroke="#103558" stroke-miterlimit="3" stroke-width="2.656"/></g></svg>