<svg xmlns="http://www.w3.org/2000/svg" xmlns:xlink="http://www.w3.org/1999/xlink" width="148" height="133" viewBox="0 0 148 133"><defs><path id="okxqa" d="M424.066 460.95l-2.436-.703-1.357.29.054-.59-.357-.703.549-.777-.68-.444-.4.019.98-1.201.016-.186.577-.411.197-.825-.069-.423.35-.767 1.131-.436.272-.31.306.016.472-.612.19.024.185.35.383.031.736.698.527-.259-.044.538-.177.102.215.781.593.102.621.534.977-.066-.024.412-.715.704-1.182.235-.151 1.011-.521.644.18.493-.671.444-.213.349-.218 1.211zm87.306 47.527l-.9-.043-.286-.107-.1-.18.07-.078.585-.073.842.33.055.09-.103.173zm-81.12 7.018l.4-.026 1.458-1.103 1.119-1.272.06-.415.498.044.358-.212.262-.289.12-.794-.259-.739-.209-.501-.655-.232-1.598 1.259-.343.734-.374.025-.958-1.603-.46-1.406.183-.35-.057-.424-.504-.332-1.832-.099-.568.227-.503-.666-.128-.623-.434-.693-.317.038.045 1.693-.53.882-.17.62.19 1.266-.114.412.225.348 1.417-.027.35.22.21.363.044 1.065.29 1.259-.051 1.056.515.292 1.013-.077.782-.174zm42.647 22.629l-.47-.396-.563.116-.155-.136-.701.376-.275-.523.32-.237.982-.023.306-.531-.27-1.667-.695-.385-1.143-.208-1.275.498-.776.095-.553-.168-.055-.2.266-.547-.101-.178-.63-.453-.574-.12-.596-.093-2.109.12.096-.623-.42-.428-.38.117-.274.306-.757-.076-.072-.062-.01.792.914.25.055.2-.525.86.331.223.483-.31.529.202.363-.166.36.16.132.157.067.198-.034.209-.143.146-.58-.123-.755.25-.436-.388-.292-.265-.381.08-.616.537-.512 1.136-.56-.023-.152.137-.57-.172-.64-.791-.711-.378-.08-.192.379-.483.216-.815-.09-.409.201-.364-.227-.571-.565.111-.951-.175.364-.937-.396-.415-.82.47-.102-.17-.939-.149-.292-.547-.965.027-.484-.664-.008-.212.389-.481-.045-.415-.275-.297-.584-.01-1.083-.533-.982.151-.408.454-.098.617-.242.339-1.44-.742-.623-.838-.256-.33-.087-.838-.346-.216-.919.276-.294.527-.049-.206-.596.019-1.517-.558-.37.102-.048.206-.765-.185-.297.177-1.114-.434-.636.169-.79.108-.928-.4.403-.977.971-1.081.017-.635-.24-.586-.844-.844.394-.707.576.016.11-.086-.536-.189.096-.634-.123-.629-.616-1.058-.326-.195-.155-.13.073-.342-.933-.748-.399-.055-.91.413-1.022.93-.867.403-.547.21-1.649-.256-.344-.054-.448.333-.744.086-.542-.166-1.607-.003-.352-.198-.292.295-.576-.193-.552.254-.757-.251-.837-.751.369-.732-.395-.164-.698-1.346-.52-.81.589-.366-.226-.25-.467-.039-.048.381-.32-.224-.141-1.237-.285-.285-1.413-.42-.94.412-.023.485-.81.504-.14-.184.351-.617.407-.296-.692.085-.155.48-.477-.84-.183.045-.287-.684.017-.74-.417.27 1.094 2.365-.494.462-1.536-1.546-.251.39 1.493 1.366-.218.17-.536-.311-.183.384.696.262-.116.841-.74.162 1.38.403.697.771 1.307-1.231-.024-.563.204.592-2.395 2.368-.157.672-.41.005-.41-.028-1.021-.717-1.754-.61-1.848-.062-2.657.225-3.01-.652-1.03-.706-.402-.739.17-.385 1.48-1.132-.417-1.225-.52-.67-.873-.573-1.373-.452-2.877-.092-1.153.406-1.024.085-.977-.317-6.164-.463.057-1.26.324-.779-.06-.202.264-.269 2.054-.783 1.158-.808-.49-1.134.391-.67.15.338-.265.297.065.194.633.483.673-.397.217-.313.775-.125.722-.703.787-.018.268-.525-.32-.25.776-.652.984.082.501-.366.558-.884-.024-.416-.314-.268-.76.302-.397-.068-.419-.473-.067-.405 1.032-2.341 1.094-.515-.05-.848.417-.735.58-.194 1.023-.03.55-.273.913.463.805.148.815.624 1.003-.02.195-.067.006-.214-.53-1.159-.086-.853.664-2.005.993-1.619.11-1.508-.48-1.396.993-.917-.214-.319-.76.026.15-.373-.214-.567.625-.413.187.02.047.189.229-.337 1.079-.536.657-.779-.197.038.034-.125.719-.398.54-.64.15-.458.435-.45 1.167-.41.615-.856.94-.753-.176-.806.116-.614 1.172.126.185-.588-.093-.292-.036-.65-.31-.266-.612-.093-.277-1.036-.247-.348-.499-.495-.355-.425-.024-.575-1.003-.64-.119-.21-.097-.584-.393.054-.86.522-.193-.053-.145-.38-.123-.56-.491-.813.547-1.976.024-.712-.067-.613.008-.21-.044-.615.16-.12.045-.6-.536-.226-.187-.362.27-.556-.07-.405-.365-.158-.756.265-.346-.18-.03-.238.186-.995-1.085-1.47-.095-.682.133-1.27.035-.216-.108-2.126 1.226.552 1.389.004.009-.205.353-.157 1.733.09.373.46.377.005.627.75.365.076-.005 1.597-.02.51.358.682-.016.969.054.586.499.243 1.332-1.067.969-.96.882-.15-.178.354 1.504-.227.416-.42 1.208-.63.751-.385.54-.02.616-.373.516-.345 1.301-.623.67 1.463.417.01.968.205 1.674-1.224.157-.578.552-.284.1.044.168.36-.116.577-.19.556-.642.456-.116.785.548.216.042 1.218-.407.442-.076.187.751.603.322.27 1.39.392 1.231.073.096-1.07.34-.018.334.065 1.013.624.948.874.013-.206h.602l.744.271.84-.563.876.515.329.24-.056.129-.081.407.225.796-.143 1.459.576.178.791-.14.49.333.345-.187.11.817.385.125.081.77.218.295 1.847.214.37-.124.145-.378 1.303-.565.382-.97.002-.027.8.064.45-.397-.016-.21-.687-.749.478-.93.163-.129.611.05.327-.244.304.05.32.733.537.275.378.475-.32.956.588.119 1.4.152.173-1.058-1.546-.24-.082-.188.323-1.158.905.032.12-.145.385-.137.029-.213-.386-.986.184-1.051-.355-.912.067-.618.52-.622-.462-.596-1.208.535-.05-.414-.544-.596.015-.412.303-.197-.27-.437-.355-.105-.388-.411-.323.198.204-.587.713-.734.041-.205-.31-.243-.337.17-1.156.014-.053.009-.655-.088-.378-.066-.552.242-.382-.112-.13-.587-.666-.434-.743.301-.433.433-.602-.844-.408-.018-.253-.966-.791-.032-.377-.082-.15-.378.472-.362-.038-.632-.372-1.216-.605-.797.846-.533 1.43.766.37-.117.188-.37.319.044.177-.499-.1-.144-1.128-.462-.197-.344-.151-1.005.276-.3-.27-.766-.06-.145-.045-.587.544-.111.17.349.345.184 1.169-.018 1.621.707.45.34.178-.058.184-.08 1.448.673.591-.555.36-1.408.288-.262.757.168.555-.158-.762-1.104-.782-.867-.532.096-.743-.639.389-1.422.027-.103.282-.21.19-.74.33-.161.05-.507.4-.866.38-.043.14-.576-.277-.295-.124-.609.077-1.022.413-.251.324.253 1.013.065 1.762.602.99-.669.193-.574.728.38.817.059.435-1.31.514-.307.7-.689-.19-.593-.536-.245-.47-.107.414-.44.317-1.012.44-.716-.096-1.05.584.203.292.294 1.57.259.323-.505.38-.148.728.319.759-.648.562.232.087-.712 1.135-.599-.105-.597-.703-.33-.481-.493 1.243-.855 1.015-.108.537-.907.586-.172 1.102 1.355 1.711-1.362.663-.445.726-1.032 1.15.258.492.358.797-.135.323-.266 1.372.424.829-.036.763-1.004 1.15-.298.41.073.633 1.072.707.413.798-.393-.205-1.234.065-.42.275-.322-.164-.595.138-.62-.159-1.033.168-1.05-1.178-.376-.26-.323.182-.808-.512-.902.01-.427.27-.572-.187-.38-.81.01-1.79.455-1.75-.575-.473-.411-.009-.638.242-.328.037-.85.44-1.401.974-.279-.588-2.242 1.312-1.218.684.725.689.382.992-.2.664-.467.058-.201 1.294 1.274.398 1.196-.407.736 1.34.498.388-.137.596.184.609-.108.763.647 1.424-.246.07-.836-.294-1.235 1.202-1.127.645.516.394.095.968-.343.235-.561.528-.564.563.238.987-.107.69.707-.124.409.722 1.043.13.624.552.3.08.2-.03.857.274.572-.095.63.264.584.144.156 2.091.003.582.242.16.137.224.603.07.424-.544.302.02.216.36.185.747 1.198-.065.624-.575 1.116.371.167-.317.747.03 1.053.976.248.44.72.609.042.333.756 1.361.956.585.2.467.414.777.153 1.193.167.797-.963.207.003 1.446.834 1.385.434.305.79.372.183.058.206-.066.422-.833 1.477.504.365.502.94-.043 1.061.352 1.226.495.687.93.459.403 1.22.066.425-.064.204-.405.073-.206-.02-1.303-.649-1.015.214-.384-.16-.384.116-.574.59-.392.031-.206.351-.03.606-.387.459.228 1.033.561.907-.552.204-.644 1.064-.337 1.667-.518.35-.434.703-1.201.33-.387.761-.619.551.258 1.692.405.712.188.094.166.6 1.039.697.384.998.134.166.832.64.24.35-.037.196-.57.257-.619.02-.734.375.022 2.787-.371.49.015.215.797.212.518.344.434 1.185 1.175 1.194.154 1.03.536.598.76.282.17.388.163 1.7.303.56.515.343.192-.076.63.521 1.574-.419.807.638.953.401.983.783.77-.24.714.402.407-.068.276.8.378.143.78.947.734-.25.466.926.54.607.904.362.36-.173 2.012-.012.756 1.707.408-.002.72-.4.38-.01 1.342.667-.02-.426.263-.577 1.23.119 1.63-.901.78.221.653-.471.822-.044.515-.35 2.05.184.313-.265.183-.608.225-.573.327-.235 1.63.089.125.364-.478.918.274.569-.058.206-.378.703.29.77.626.558.384.766.606.575.125.402-.134 1.067-.474 1.182-1.607.878-.017.854.251 1.031-.675 1.313-1.71 1.188-.82.05-.868.515-.043.986-.501.883.111 1.026-1.969.953-.22.314-.426.387-.094 1.307.458.668.467 2.272.466 1.124-.733.229-.193.367-.814.56-.194.37.109.402-.145.145-1.03-.565-.796.62-.078-.159-1.005 1.038-.023.174-.137.112.254.252-.446.47-.608-.103-.302-.175-.529.237-.54-.16-.397.44-.233.031-.558.735.21.64.604.303-.552.084-.027.51-.404.067-.198-.87.206-.399-.206-.343-.21-.27-.128.135-.186.326.024.37-.111.492-.508-.067-.344-.551-1.012.033-.58.195-.6.564-.313 1.231-.564.855-.54.073.104-.352-.12-.19-.133-.142-.748.067-.754.075-.619.79-.646 1.462-.175 1.344.228.306-.352.236.255.244-.083.662.541.132.103 1.108-.872.462-.168-1.263-.61-.404-.693.09-.796.513-.406.672-.818.855-.375-.75-1.891.05-.759.28-.608.55-.553 1.078.021.413.529.265.137.363-.332.756-.546.206-.004.205-.383.49-.137 1.26-.977.713-.332.702-.59.09-.475-.356-.186.074-.035.832-.218.342-.731-.274-.387-.073-1.666.527-1.01-.948-.707.355-.48.664-.26.787.068.397-.68 1.228.146.593-.176.758-1.326.297-.563.588-.12.622.098.411-1.483.524-.506.595-1.483 1.013.057.61-.075.148.387.278 1.234-.192.858-.502.883.466.23-.567.344-.107.72.72-.292.782-.472.393-.523.212-.12 1.047.117.832.543.61-.014.212-.768.17-.634.505-.143.817.236.341-.533-.224-.546.61-.323-.226-.475-.928-.311-.257-1.372-.253-.393.086-.626.515-.067.788-.582.115-1.164.802-.164-.12-1.036-.239-.722.252-.319.475-.473-.346-1.74.393-.44.417-.385.097-.177.6-.148.58.057.638.202.367-.108.615-1.586-.175-.553-.873-.99-.103-.126-.168.01-.197-.616-.394-1.571.486-1.396-.148-.864.547-.668.798-.405.98-.22 1.48.136.838.499.337-.055.16-.569.212zm12.066 1.163l.07-.414-.04-.205.246-.336.768-.243.172-.497.046-.095.225-.36.08-.066.172-.117.097-.03.402-.05.672-.235.101-.019.093.046.07.203.032.102-.047.096-.267.15-.506.037-.167.12-.258.583-.26.327-.04.317-.088.186-.357.16-.463-.142-.253.458-.311.253zm-1.92.666l-.605.053-.084-.28.451-.42.052-.2.085-.05.302-.033.657-.293.093.02.074.072.045.31.259-.027-.03.19-.546.777-.343.184zm-8 .887l-.047-.316-.154-.143-1.108-.486-.078-.044.043-.084.292-.287.081-.065.294-.081.819.39.402-.059.231-.2.16-.384.493.1.166-.123.227-.717.093-.038.083.297.153.14.165.829-.092.299-.073.072-.393.053-.424.253-.56.19-.3.419-.396.056z"/></defs><g><g transform="translate(-392 -409)"><use fill="#ed5485" xlink:href="#okxqa"/><use fill="#fff" fill-opacity="0" stroke="#bcbcbc" stroke-miterlimit="50" stroke-width=".75" xlink:href="#okxqa"/></g></g></svg>