<svg xmlns="http://www.w3.org/2000/svg" width="58" height="53.833" viewBox="0 0 58 53.833">
  <g id="Cards_Icon" data-name="Cards Icon" transform="translate(-17 -598.063)">
    <path id="Path_950" data-name="Path 950" d="M132.42,59.776l-17.3-.026a3.176,3.176,0,0,0-3.222,3.17L111.85,95.1a3.209,3.209,0,0,0,3.2,3.2l17.3.026h.138a3.188,3.188,0,0,0,3.091-3.157l.052-32.208A3.2,3.2,0,0,0,132.42,59.776Zm.183,35.377c0,.1-.151.2-.249.19l-17.3-.026a.252.252,0,0,1-.242-.216l.059-32.182a.243.243,0,0,1,.242-.216h.013l17.3.046a.226.226,0,0,1,.249.2Z" transform="translate(-60.629 539.952)" fill="#187f8d"/>
    <path id="Path_951" data-name="Path 951" d="M95.081,114.26a1.461,1.461,0,0,0-2.011.576L90.5,119.552a.263.263,0,0,1-.314.092L62.651,102.957a.247.247,0,0,1-.046-.314l5.665-9.666a1.483,1.483,0,0,0-2.534-1.539L60.07,101.11a3.148,3.148,0,0,0-.386,2.4,3.048,3.048,0,0,0,1.428,1.984l27.532,16.687a3.137,3.137,0,0,0,1.618.458,3.289,3.289,0,0,0,2.8-1.6l2.613-4.761A1.481,1.481,0,0,0,95.081,114.26Z" transform="translate(-42.597 529.261)" fill="#187f8d"/>
    <path id="Path_952" data-name="Path 952" d="M90.456,98.351a1.53,1.53,0,0,0,1.29.733,1.57,1.57,0,0,0,.74-.2,1.494,1.494,0,0,0,.544-2.03L76.853,69.012a.23.23,0,0,1,.1-.3l14.951-8.7a1.473,1.473,0,0,0,.53-2.024,1.457,1.457,0,0,0-2.024-.53L75.472,66.143a3.274,3.274,0,0,0-1.493,1.945,3.158,3.158,0,0,0,.3,2.423Z" transform="translate(-47.519 540.815)" fill="#187f8d"/>
  </g>
</svg>
