<svg xmlns="http://www.w3.org/2000/svg" width="48.405" height="56" viewBox="0 0 48.405 56">
  <g id="_Map_Marker_-_Solidarity_V2_" data-name="ðŸ“Map Marker - Solidarity [V2]" transform="translate(-520 -312)">
    <path id="_V1_HEXAGONE" data-name="[V1]HEXAGONE" d="M-28.8,0-53,14V42l24.2,14,24.2-14V14Z" transform="translate(573 312)" fill="#ed5485"/>
    <g id="Category_Icon_-_Solidarity" data-name="Category Icon - Solidarity" transform="translate(160 204.9)">
      <path id="Category_Icon_-_Solidarity-2" data-name="Category Icon - Solidarity" d="M4.8,41.6a3.2,3.2,0,1,0-3.2-3.2A3.2,3.2,0,0,0,4.8,41.6Zm22.4,0A3.2,3.2,0,1,0,24,38.4,3.2,3.2,0,0,0,27.2,41.6Zm1.6,1.6H25.6a3.191,3.191,0,0,0-2.255.93A7.314,7.314,0,0,1,27.1,49.6h3.3A1.6,1.6,0,0,0,32,48V46.4A3.2,3.2,0,0,0,28.8,43.2ZM16,43.2a5.6,5.6,0,1,0-5.6-5.6A5.6,5.6,0,0,0,16,43.2Zm3.84,1.6h-.415a7.732,7.732,0,0,1-6.85,0H12.16A5.761,5.761,0,0,0,6.4,50.56V52a2.4,2.4,0,0,0,2.4,2.4H23.2A2.4,2.4,0,0,0,25.6,52V50.56A5.761,5.761,0,0,0,19.84,44.8ZM8.655,44.13A3.191,3.191,0,0,0,6.4,43.2H3.2A3.2,3.2,0,0,0,0,46.4V48a1.6,1.6,0,0,0,1.6,1.6H4.9A7.332,7.332,0,0,1,8.655,44.13Z" transform="translate(368 92.1)" fill="#fff"/>
    </g>
  </g>
</svg>
