<svg xmlns="http://www.w3.org/2000/svg" width="181.133" height="61.545" viewBox="0 0 181.133 61.545"><g data-name="Group 160"><g data-name="Group 159"><g data-name="Group 158" fill="#103558"><path data-name="Path 129" d="M47.878 8.29c-.052-2.829-1.56-5.442-4.452-5.442-2.7 0-3.464 2.674-3.36 5.572.174 4.978 7.905 4.851 7.812-.13z"/><path data-name="Path 130" d="M28.241 3.2Q22.957-.313 14.657.5a20.035 20.035 0 0 0-8.111 2.479 15.5 15.5 0 0 0-5.208 4.236Q-.145 9.546.016 10.486c.067.41.432.579 1.1.515a4.574 4.574 0 0 0 2.1-.806c.731-.479 1.561-1 2.482-1.577a19.13 19.13 0 0 1 8.409-2.729 12.026 12.026 0 0 1 7.46 1.3 7.339 7.339 0 0 1 3.415 5.37q.953 5.708-1.485 8.4a6.157 6.157 0 0 1-2.439 1.68 24.643 24.643 0 0 1-2.578.826c-.726.186-1.323.37-1.811.548a36.58 36.58 0 0 1-3.22.56c.011-.312.027-.627.043-.965q.268-5.368.159-8.729a29.1 29.1 0 0 0-.417-3.847c-.239-1.437-.58-2.14-1.029-2.1a2.223 2.223 0 0 0-1.172.441Q7.292 12.079 5.849 25.48a51.383 51.383 0 0 0 .044 13.493 24.828 24.828 0 0 0 .909 3.936 1.679 1.679 0 0 0 1.883 1.263q6.41-.585 5.866-3.85l-1.168-10.409c5.1-1.417 10.84-1.791 15.206-5.159.059-.046.111-.1.167-.14a12.294 12.294 0 0 0 2.645-2.773 8.784 8.784 0 0 0 1.1-1.867 13.1 13.1 0 0 0 1.235-8.243A12.294 12.294 0 0 0 28.241 3.2z"/><path data-name="Path 131" d="M63.632 30.224c2.644-3.268 4.54-5.787 5.565-7.211 1.168-1.629.922-4.061-.338-4.923 0 0-2.852-2.642-8.762 7.114l-.012.017c-1.823-2.6-3.5-4.922-4.782-6.48-1.314-1.6-2.439-2.029-3.761-1.938-4.977.334-.779 8.2.647 10.476a44.235 44.235 0 0 1 2.8 4.568c-4.6 6.256-9.06 6.621-10.1 6.3-1.208-.378-2.121-1.771-1.419-7.6.036-.189.067-.376.107-.58.187-1.142.333-2.166.453-3.1l.012-.059v-.009a26.4 26.4 0 0 0 .289-4.728 7.557 7.557 0 0 0-.977-3.305c-.743-1.452-1.656-2.183-2.741-2.183-.985 0-1.863.7-2.638 2.089-.048.086-.1.174-.143.267-2.939 5.159-3.277 14.264-3.214 18.485.04 2.686 1.227 6.385 5.6 7.1a15.388 15.388 0 0 0 5.914-.192 14.5 14.5 0 0 0 4.322-1.58l.016-.008a33.184 33.184 0 0 0 7.463-6.149c2.829 4.536 6.423 8.335 10.168 7.146.365-.116.683-.24.985-.365a5.556 5.556 0 0 0 2.01-1.328c1.422-1.6.655-3.721-.711-5.036a62.485 62.485 0 0 1-6.753-6.788z"/><path data-name="Path 132" d="M127.26 8.29c-.051-2.829-1.561-5.442-4.452-5.442-2.7 0-3.464 2.674-3.36 5.572.175 4.978 7.904 4.851 7.812-.13z"/><path data-name="Path 133" d="M79.039 25.245c-1.962 0-2.892 1.418-3.221 3.3a11.145 11.145 0 0 0-.139 2.271 4.725 4.725 0 0 0 .08.6 3.431 3.431 0 0 0 2.038 2.665c2.335 1.077 5.755-.071 5.7-3.4-.057-2.822-1.566-5.436-4.458-5.436z"/><path data-name="Path 134" d="M171.314 46.108c.1-.465.2-.925.282-1.381.917-5.177 1.966-17.6 2.24-19.715s.345-4.624-1.4-6.331-3.722-3.489-5.156-.81c-2.03 3.772-.04 10.169-3.186 15.062-6.585 10.248-7.527 3.081-7.356 1.011.289-3.446 1.33-8.448 1.739-11.46.656-4.825-2.224-5.662-3.626-5.287s-2.443 2.468-3.23 4.77a67.214 67.214 0 0 0-1.919 9.188c-.194.26-.385.531-.568.822-3.1 4.933-9.1 9.553-9.652 2.857 0-.414-.016-.81-.043-1.17a58.6 58.6 0 0 1 .767-10.233 20.863 20.863 0 0 0 5.93-.814c1.573-.571 1.883-2.263 1.883-3.785 0-1.819-2.546-2.22-6.356-2.077 1.438-4.315.56-1.688.56-1.688 1.752-5.251-2.054-4.683-4.373-4.238a1.892 1.892 0 0 0-.441.153 3.341 3.341 0 0 0-2.177 1.922c-.806 1.416-.858 1.722-1.568 4.656-.465.079-.906.163-1.283.235a4.686 4.686 0 0 0-3.289 3.118c-.354 1.574.608 2.394 3.42 2.429h.044a55.742 55.742 0 0 0-.763 8.879c-1.35 2.313-5.7 5.923-7.527 5.923a2.4 2.4 0 0 1-1.43-.449 2.071 2.071 0 0 1-.711-1.625 34.436 34.436 0 0 1 .83-6.106 39.665 39.665 0 0 0 .75-7.9 7.542 7.542 0 0 0-.977-3.305q-1.114-2.18-2.74-2.183-2.741 0-4.389 7.168c-.421 2.515-1.517 6.9-1.43 11.041-7.917 6.71-14.009 2.078-13.9-8.22.119-11.321 5.688-16.485 8.631-18.284s5.561-1.663 5.621-2.577-.449-4.4-6.535-3.814-15.927 8.535-17.008 23.353 7.368 19.25 13.449 19.467a13.92 13.92 0 0 0 10.871-4.4 7.586 7.586 0 0 0 3.988 3.833 4.843 4.843 0 0 0 2.073.437 12.624 12.624 0 0 0 8.905-3.666 30.916 30.916 0 0 0 2.137-2.6c.449 3.878 5.271 11.217 16.23 1.447.25-.248.492-.488.731-.737.921 3.676 6.4 8.607 15.709 1.306l-.286 2.694a45.814 45.814 0 0 1-.445 2.882q-1.7.034-3.5.146c-11.448.716-15.281 6.206-13.982 10.417s6.669 6.48 13.4 4.129c4.536-1.584 7.6-5.408 9.453-9.639 6.952.05 11.436.81 11.42-.354-.034-2.435-3.895-3.955-9.817-4.497zm-6.053-5.922c.06-.048.047-.037 0 0zm-11.46 15.674c-.735-.378-2.788-3.706 8.314-4.631.234-.02.461-.035.691-.053-3.19 7.383-8.425 4.983-9 4.683z"/></g></g></g><g data-name="Group 161" fill="#103558"><path data-name="Path 135" d="M136.293 7.482a3.324 3.324 0 0 1-1.291-.493l.275-.868a3.208 3.208 0 0 0 1.148.462 4.075 4.075 0 0 0 1.37.05 2.428 2.428 0 0 0 1.307-.5.955.955 0 0 0 .334-.879.8.8 0 0 0-.326-.574 1.721 1.721 0 0 0-.655-.274c-.25-.048-.6-.1-1.053-.14a10.77 10.77 0 0 1-1.378-.21 2.274 2.274 0 0 1-.949-.489 1.64 1.64 0 0 1-.513-1.062 1.868 1.868 0 0 1 .163-1.092 2.151 2.151 0 0 1 .826-.878 3.89 3.89 0 0 1 1.51-.5 4.967 4.967 0 0 1 1.291-.007 3.4 3.4 0 0 1 1.14.329l-.23.877a3.748 3.748 0 0 0-1.036-.3 3.68 3.68 0 0 0-1.041-.01 2.268 2.268 0 0 0-1.279.505 1 1 0 0 0-.33.893.818.818 0 0 0 .333.575 1.833 1.833 0 0 0 .672.279c.258.052.6.093 1.041.135a9.407 9.407 0 0 1 1.374.215 2.189 2.189 0 0 1 .942.479 1.6 1.6 0 0 1 .512 1.045 1.909 1.909 0 0 1-.167 1.09 2.148 2.148 0 0 1-.842.876 3.927 3.927 0 0 1-1.521.494 5.155 5.155 0 0 1-1.627-.028z"/><path data-name="Path 136" d="M146.751 4.427l-4.517.117a1.767 1.767 0 0 0 .676 1.162 2.134 2.134 0 0 0 1.383.414 2.068 2.068 0 0 0 1.589-.715l.572.64a2.464 2.464 0 0 1-.922.7 3.534 3.534 0 0 1-2.824-.065 2.564 2.564 0 0 1-1.076-.984 2.869 2.869 0 0 1-.409-1.462 2.914 2.914 0 0 1 .326-1.466 2.581 2.581 0 0 1 .969-1.037 2.849 2.849 0 0 1 1.426-.4 2.793 2.793 0 0 1 1.43.33 2.519 2.519 0 0 1 1 .99 3.078 3.078 0 0 1 .389 1.481 2.772 2.772 0 0 1-.012.295zm-3.985-1.778a1.773 1.773 0 0 0-.544 1.167l3.566-.087a1.772 1.772 0 0 0-.6-1.134 1.7 1.7 0 0 0-1.223-.418 1.744 1.744 0 0 0-1.199.472z"/><path data-name="Path 137" d="M150.02 1.699a2.8 2.8 0 0 1 1.259-.182l-.052.976a1.608 1.608 0 0 0-.23-.025 1.681 1.681 0 0 0-1.311.419 1.918 1.918 0 0 0-.544 1.363l-.155 2.763-1-.051.306-5.556.965.051-.052.934a1.742 1.742 0 0 1 .814-.692z"/><path data-name="Path 138" d="M157.63 2.301l-3.094 5.227-1.021-.127-1.74-5.82 1.041.128 1.354 4.664 2.482-4.191z"/><path data-name="Path 139" d="M158.652 2.518l.992.175-.965 5.48-.993-.175zm.234-1.238a.618.618 0 0 1-.111-.489.664.664 0 0 1 .787-.532.684.684 0 0 1 .448.266.6.6 0 0 1 .111.484.7.7 0 0 1-1.235.271z"/><path data-name="Path 140" d="M161.341 8.385a2.717 2.717 0 0 1-.794-1.22 2.9 2.9 0 0 1-.044-1.513 2.872 2.872 0 0 1 .691-1.343 2.664 2.664 0 0 1 1.243-.755 3.152 3.152 0 0 1 1.561-.016 2.949 2.949 0 0 1 1.247.6 2.127 2.127 0 0 1 .7 1.064l-.854.309a1.75 1.75 0 0 0-.5-.726 1.836 1.836 0 0 0-.794-.386 2.01 2.01 0 0 0-1.013.017 1.723 1.723 0 0 0-.814.519 2.265 2.265 0 0 0-.457 2.011 1.717 1.717 0 0 0 .512.817 1.973 1.973 0 0 0 .906.453 1.814 1.814 0 0 0 .882 0 1.719 1.719 0 0 0 .771-.437l.64.641a2.221 2.221 0 0 1-1.093.659 2.924 2.924 0 0 1-1.386.007 3.124 3.124 0 0 1-1.404-.701z"/><path data-name="Path 141" d="M171.508 8.872l-4.329-1.279a1.746 1.746 0 0 0 .282 1.314 2.1 2.1 0 0 0 1.188.816 2.067 2.067 0 0 0 1.732-.189l.349.781a2.411 2.411 0 0 1-1.092.379 3.224 3.224 0 0 1-1.267-.136 3.257 3.257 0 0 1-1.4-.79 2.583 2.583 0 0 1-.727-1.272 2.9 2.9 0 0 1 .06-1.513 2.934 2.934 0 0 1 .762-1.3 2.6 2.6 0 0 1 1.243-.685 2.832 2.832 0 0 1 1.478.059 2.763 2.763 0 0 1 1.259.75 2.567 2.567 0 0 1 .652 1.249 3.118 3.118 0 0 1-.088 1.529 2.461 2.461 0 0 1-.102.287zm-3.249-2.921a1.792 1.792 0 0 0-.878.947l3.424 1.011a1.8 1.8 0 0 0-.223-1.265 1.885 1.885 0 0 0-2.323-.692z"/><path data-name="Path 142" d="M172.24 11.605a2.918 2.918 0 0 1-.767-.773l.671-.607a3.047 3.047 0 0 0 .691.7 3.723 3.723 0 0 0 .942.512c.83.3 1.331.219 1.505-.254a.487.487 0 0 0-.032-.435 1.1 1.1 0 0 0-.345-.358c-.151-.1-.373-.239-.663-.406a6.8 6.8 0 0 1-.945-.6 1.662 1.662 0 0 1-.529-.683 1.288 1.288 0 0 1 .028-.961 1.427 1.427 0 0 1 1.009-.922 2.8 2.8 0 0 1 1.744.151 4.725 4.725 0 0 1 1 .509 3.031 3.031 0 0 1 .734.661l-.679.6a2.912 2.912 0 0 0-1.358-.969 1.831 1.831 0 0 0-.989-.135.627.627 0 0 0-.5.405.522.522 0 0 0 .028.469 1.178 1.178 0 0 0 .361.378c.155.11.381.253.675.428a8.438 8.438 0 0 1 .938.6 1.674 1.674 0 0 1 .513.664 1.258 1.258 0 0 1-.028.928 1.391 1.391 0 0 1-1.021.907 3.021 3.021 0 0 1-1.8-.187 4.526 4.526 0 0 1-1.183-.622z"/></g></svg>