<svg id="share" xmlns="http://www.w3.org/2000/svg" width="24" height="24" viewBox="0 0 24 24">
  <g id="Frame_-_24px">
    <rect id="Rectangle_1550" data-name="Rectangle 1550" width="24" height="24" fill="none"/>
  </g>
  <g id="Line_Icons">
    <path id="Path_955" data-name="Path 955" d="M18,14a3.974,3.974,0,0,0-3,1.381L9.908,12.836a3.849,3.849,0,0,0,0-1.673L15,8.618A3.98,3.98,0,1,0,14,6a3.908,3.908,0,0,0,.092.836L9,9.381a4,4,0,1,0,0,5.236l5.092,2.546A3.924,3.924,0,0,0,14,18a4,4,0,1,0,4-4ZM18,4a2,2,0,1,1-2,2A2,2,0,0,1,18,4ZM6,14a2,2,0,1,1,2-2A2,2,0,0,1,6,14Zm12,6a2,2,0,1,1,2-2A2,2,0,0,1,18,20Z" fill="#187f8d"/>
  </g>
</svg>
