<svg id="Line_Icons" xmlns="http://www.w3.org/2000/svg" width="20" height="20" viewBox="0 0 20 20">
  <g id="Group_695" data-name="Group 695">
    <path id="Path_960" data-name="Path 960" d="M12,2A10,10,0,1,0,22,12,10.012,10.012,0,0,0,12,2Zm0,18a8,8,0,1,1,8-8A8.009,8.009,0,0,1,12,20Z" transform="translate(-2 -2)" fill="#b4aeb0"/>
    <path id="Path_961" data-name="Path 961" d="M15.507,13.34h-2a.5.5,0,0,0-.5.5v.976a4.735,4.735,0,0,1-4.476-4.477H9.5a.5.5,0,0,0,.5-.5v-2a.5.5,0,0,0-.5-.5h-2a.5.5,0,0,0-.5.5v2.5h.015a6.249,6.249,0,0,0,5.99,5.99v.013h2.5a.5.5,0,0,0,.5-.5v-2A.5.5,0,0,0,15.507,13.34Z" transform="translate(-1.682 -1.661)" fill="#b4aeb0"/>
  </g>
</svg>
