<svg xmlns="http://www.w3.org/2000/svg" width="12" height="12" viewBox="0 0 12 12">
  <path id="grid" d="M7.818,4H5.636A1.636,1.636,0,0,0,4,5.636V7.818A1.636,1.636,0,0,0,5.636,9.455H7.818A1.636,1.636,0,0,0,9.455,7.818V5.636A1.636,1.636,0,0,0,7.818,4Zm.545,3.818a.545.545,0,0,1-.545.545H5.636a.545.545,0,0,1-.545-.545V5.636a.545.545,0,0,1,.545-.545H7.818a.545.545,0,0,1,.545.545Zm6-3.818H12.182a1.636,1.636,0,0,0-1.636,1.636V7.818a1.636,1.636,0,0,0,1.636,1.636h2.182A1.636,1.636,0,0,0,16,7.818V5.636A1.636,1.636,0,0,0,14.364,4Zm.545,3.818a.545.545,0,0,1-.545.545H12.182a.545.545,0,0,1-.545-.545V5.636a.545.545,0,0,1,.545-.545h2.182a.545.545,0,0,1,.545.545Zm-.545,2.727H12.182a1.636,1.636,0,0,0-1.636,1.636v2.182A1.636,1.636,0,0,0,12.182,16h2.182A1.636,1.636,0,0,0,16,14.364V12.182A1.636,1.636,0,0,0,14.364,10.545Zm.545,3.818a.545.545,0,0,1-.545.545H12.182a.545.545,0,0,1-.545-.545V12.182a.545.545,0,0,1,.545-.545h2.182a.545.545,0,0,1,.545.545ZM7.818,10.545H5.636A1.636,1.636,0,0,0,4,12.182v2.182A1.636,1.636,0,0,0,5.636,16H7.818a1.636,1.636,0,0,0,1.636-1.636V12.182A1.636,1.636,0,0,0,7.818,10.545Zm.545,3.818a.545.545,0,0,1-.545.545H5.636a.545.545,0,0,1-.545-.545V12.182a.545.545,0,0,1,.545-.545H7.818a.545.545,0,0,1,.545.545Z" transform="translate(-4 -4)" fill="#fff"/>
</svg>
