<svg xmlns="http://www.w3.org/2000/svg" width="74.385" height="92.729"><g data-name="Group 2495"><g data-name="Group 2395"><g data-name="Path 3163" fill="none" stroke-miterlimit="10"><path d="M58.195 57.211c0 1.882.025 3.764-.008 5.647a10.54 10.54 0 0 1-.806 4.16c-1.322 3-4.5 4.974-9.309 6.048a33.13 33.13 0 0 1-6.98.724c-5.025.036-2.893.056-7.918.056-2.508 0 2.141-.024-.363-.094a28.442 28.442 0 0 1-8.131-1.253c-3.464-1.151-5.658-2.916-6.824-5.159a7.686 7.686 0 0 1-.914-3.3q-.115-3.52-.131-7.04c-.01-2.02.021-4.04.081-6.06A8.767 8.767 0 0 1 18 46.724c1.579-2.758 4.771-4.541 9.352-5.468a31.621 31.621 0 0 1 6-.618c4.679-.043 2.2-.064 6.88-.076 2.6-.006-1.949.013.654.047a38.044 38.044 0 0 1 7.223.7c3.939.816 6.664 2.414 8.372 4.658a7.232 7.232 0 0 1 1.528 3.688c.134 1.368.151 2.741.185 4.111.027 1.148.006 2.3.006 3.443z"/><path d="M34.211 69.846c2.02-.002 2.468-.008 3.26-.02.637-.009 1.51-.02 3.597-.036 2.314-.017 4.321-.222 6.137-.628 1.959-.437 3.53-1.03 4.67-1.764.912-.586 1.517-1.238 1.85-1.995.303-.686.447-1.493.467-2.617.023-1.273.018-2.59.013-3.865a425.12 425.12 0 0 1-.005-1.71l.002-3.146a377.542 377.542 0 0 1-.016-.693c-.027-1.167-.052-2.27-.155-3.325-.053-.538-.292-1.08-.73-1.656-1.152-1.513-3.171-2.578-6.002-3.164-1.846-.383-3.96-.585-6.464-.618-.317-.004-.55-.008-.709-.012a5.213 5.213 0 0 1-.456-.033c-2.024.006-2.402.015-2.952.027-.532.012-1.194.027-3.328.047a27.68 27.68 0 0 0-5.239.538c-2.4.486-5.505 1.494-6.675 3.538-.373.65-.552 1.373-.58 2.344-.063 2.11-.089 4.047-.08 5.924.01 2.283.054 4.614.13 6.926.016.49.172 1.025.465 1.588.708 1.363 2.234 2.442 4.535 3.207 1.89.628 4.174.971 6.983 1.05.314.01.54.018.708.028.199.01.39.033.574.065m-1.134 4c-2.276 0 2.208-.024-.26-.094-2.846-.08-5.611-.416-8.132-1.253-3.464-1.151-5.658-2.916-6.824-5.158-.558-1.075-.876-2.179-.913-3.301-.077-2.347-.121-4.693-.132-7.04-.01-2.02.022-4.04.081-6.06.042-1.432.326-2.85 1.109-4.216 1.58-2.758 4.77-4.54 9.351-5.468a31.62 31.62 0 0 1 5.997-.618c4.679-.043 2.201-.064 6.88-.075l.654-.001c.96 0-2.29.018 0 .048 2.458.032 4.884.215 7.223.7 3.94.816 6.664 2.414 8.372 4.658.891 1.172 1.403 2.41 1.528 3.688.134 1.368.152 2.741.185 4.112.028 1.147.006 2.295.006 3.443H58.2c0 1.882.025 3.764-.008 5.646-.025 1.402-.204 2.796-.807 4.16-1.322 2.996-4.498 4.975-9.308 6.05-2.247.501-4.596.706-6.98.723-5.025.036-2.893.056-7.918.056h-.102z" fill="#ed5485"/></g><path data-name="Path 3164" d="M18.999 36.76s-17 8.193-17-2.544c0-6.19 14.315-13.123 14.315-13.123" fill="none" stroke="#ed5485" stroke-miterlimit="10" stroke-width="4"/><path data-name="Path 3165" d="M58.068 21.093s14.315 6.932 14.315 13.123c0 10.737-16.03 2.32-16.03 2.32" fill="none" stroke="#ed5485" stroke-miterlimit="10" stroke-width="4"/><g data-name="Group 2393" fill="#ed5485"><path data-name="Path 3166" d="M50.237 69.459c-.042 2.382-.01 20.886-.01 23.27h-4.973c-.01-3.382.023-19.888.081-23.27z"/><path data-name="Path 3167" d="M29.565 69.459c-.042 2.382-.01 20.886-.01 23.27h-4.972c-.01-3.382.021-19.888.08-23.27z"/></g><g data-name="Group 2394" fill="none"><g data-name="Path 3168" stroke-miterlimit="10"><path d="M60.766 23.284c0 2.632.021 5.265-.007 7.9a23.631 23.631 0 0 1-.673 5.818 11.845 11.845 0 0 1-7.773 8.458 17.077 17.077 0 0 1-5.829 1.013q-6.3.075-12.59.079c-2.094 0-4.19-.033-6.281-.132a15.2 15.2 0 0 1-6.79-1.752 11.946 11.946 0 0 1-5.7-7.214 16.606 16.606 0 0 1-.762-4.616q-.1-4.921-.11-9.844-.013-4.237.067-8.475a19.1 19.1 0 0 1 .926-5.9 11.792 11.792 0 0 1 7.81-7.648 16.29 16.29 0 0 1 5.008-.863Q33.924.019 39.785.002c2.175-.008 4.35.018 6.523.066a19.541 19.541 0 0 1 6.033.979 11.653 11.653 0 0 1 6.991 6.515 14.462 14.462 0 0 1 1.278 5.157c.111 1.914.125 3.833.154 5.75.023 1.6 0 3.209 0 4.815z"/><path d="M33.892 42.548c4.06-.001 8.28-.028 12.544-.079 1.7-.02 3.164-.268 4.475-.759 2.873-1.075 4.56-2.897 5.307-5.732.353-1.34.52-2.832.54-4.841.02-1.816.016-3.676.012-5.474-.002-.793-.004-1.586-.004-2.379l.002-4h.004a103.591 103.591 0 0 0-.019-1.504c-.023-1.672-.045-3.251-.137-4.826a10.496 10.496 0 0 0-.926-3.738c-1.02-2.246-2.5-3.64-4.661-4.39-1.37-.476-2.897-.717-4.808-.76a254.96 254.96 0 0 0-6.42-.064c-4.32.017-8.14.052-11.68.106a12.327 12.327 0 0 0-3.782.65c-2.738.93-4.425 2.568-5.31 5.155-.453 1.325-.68 2.81-.712 4.67a411.627 411.627 0 0 0-.066 8.396c.008 3.221.045 6.51.11 9.779.021 1.15.217 2.329.583 3.505.71 2.29 1.925 3.849 3.823 4.905 1.34.746 2.987 1.155 5.035 1.252 1.818.086 3.81.128 6.09.128m.001 4c-2.093 0-4.19-.034-6.28-.133-2.376-.112-4.685-.58-6.79-1.752-2.894-1.61-4.726-4.078-5.7-7.214a16.605 16.605 0 0 1-.762-4.615c-.064-3.281-.101-6.564-.11-9.845-.008-2.825.018-5.65.067-8.474.035-2.005.273-3.987.926-5.896 1.32-3.857 3.984-6.35 7.81-7.648a16.29 16.29 0 0 1 5.008-.863 1037.988 1037.988 0 0 1 12.53-.107c1.906 0 3.811.025 5.716.067 2.054.045 4.08.3 6.033.98 3.29 1.14 5.565 3.375 6.99 6.514a14.462 14.462 0 0 1 1.279 5.157c.11 1.914.125 3.833.153 5.75.023 1.605.005 3.21.005 4.815h-.002c0 2.632.021 5.265-.007 7.896-.02 1.959-.17 3.91-.673 5.818-1.105 4.19-3.757 6.955-7.773 8.458-1.877.703-3.838.99-5.83 1.013-4.196.05-8.393.078-12.59.079z" fill="#ed5485"/></g><g data-name="Path 3169" stroke-miterlimit="10"><path d="M37.407 35.244a11.97 11.97 0 0 1-11.981-11.973 11.992 11.992 0 1 1 11.981 11.973z"/><path d="M37.222 31.246l.118-.001.058-.001h.057l.102.001c2.74 0 4.561-1.327 5.607-2.44 1.422-1.516 2.241-3.53 2.246-5.527.006-2.079-.871-4.154-2.406-5.693a7.744 7.744 0 0 0-5.514-2.305h-.035a7.955 7.955 0 0 0-5.743 2.454c-1.455 1.51-2.288 3.527-2.286 5.534a7.93 7.93 0 0 0 2.4 5.708c1.476 1.442 3.443 2.27 5.396 2.27m0 4c-6.124 0-11.79-5.104-11.796-11.974-.006-6.207 5.083-11.965 12.013-11.992h.05c6.892 0 11.938 5.839 11.921 12.008-.015 6.068-4.914 11.957-11.853 11.957H37.222z" fill="#ed5485"/></g><path data-name="Path 3170" d="M52.752 10.755A2.827 2.827 0 1 1 49.87 7.94a2.936 2.936 0 0 1 2.882 2.815z" stroke="#ed5485"/></g></g></g></svg>