<svg id="vote-thumbs-up" xmlns="http://www.w3.org/2000/svg" width="24" height="24" viewBox="0 0 24 24">
  <g id="Frame_-_24px">
    <rect id="Rectangle_1548" data-name="Rectangle 1548" width="24" height="24" fill="none"/>
  </g>
  <g id="Line_Icons" transform="translate(3 3)">
    <path id="Path_953" data-name="Path 953" d="M21.285,7.359A.905.905,0,0,0,20.571,7H15V3a.966.966,0,0,0-.929-1H11.286a.929.929,0,0,0-.853.605L7.888,9H7.571a.966.966,0,0,0-.929-1H2.929A.966.966,0,0,0,2,9V19a.966.966,0,0,0,.929,1H6.643a.966.966,0,0,0,.929-1v-.522l3.37,1.451a.87.87,0,0,0,.345.071h7.429a.951.951,0,0,0,.914-.821l1.857-11A1.061,1.061,0,0,0,21.285,7.359ZM5.714,18H3.857V10H5.714ZM17.94,18H11.464L7.571,16.323V11H8.5a.928.928,0,0,0,.853-.606L11.9,4h1.245V8a.966.966,0,0,0,.929,1h5.388Z" transform="translate(-2 -2)" fill="#b4aeb0"/>
  </g>
</svg>
