<svg xmlns="http://www.w3.org/2000/svg" width="28" height="28" viewBox="0 0 28 28">
  <g id="Category_Icon_-_Art_et_Culture" data-name="Category Icon - Art et Culture" transform="translate(-144 -58)">
    <path id="Category_Icon_-_Art_et_Culture-2" data-name="Category Icon - Art et Culture" d="M9.124,16.917a5.535,5.535,0,0,0-5.315,3.954.835.835,0,0,1-.8.546C2.4,21.417.525,19.9-.01,19.538c0,4.5,2.075,8.462,7,8.462,4.149,0,7-2.394,7-6.573a4.738,4.738,0,0,0-.053-.5L9.124,16.917ZM25.031,0a3.34,3.34,0,0,0-2.2.9C11.654,10.886,10.49,11.12,10.49,14.06a5.063,5.063,0,0,0,.477,2.116l3.49,2.908a5.032,5.032,0,0,0,1.224.166c3.4,0,5.365-2.487,11.548-14.025a5.627,5.627,0,0,0,.76-2.515A2.848,2.848,0,0,0,25.031,0Z" transform="translate(144.01 58)" fill="#fff"/>
  </g>
</svg>
