<svg xmlns="http://www.w3.org/2000/svg" width="32" height="24.889" viewBox="0 0 32 24.889">
  <g id="Category_Icon_-_Sante" data-name="Category Icon - Sante" transform="translate(-224 -123.889)">
    <path id="Category_Icon_-_Sante-2" data-name="Category Icon - Sante" d="M31.569,40.884c-1.613.007-7.5.342-11.88,4.611A14.276,14.276,0,0,0,16,50.765,14.276,14.276,0,0,0,12.31,45.5C7.931,41.226,2.044,40.891.43,40.884A.423.423,0,0,0,0,41.319,15.384,15.384,0,0,0,4.931,52.391,14.746,14.746,0,0,0,16,56.884a14.745,14.745,0,0,0,11.068-4.493A15.382,15.382,0,0,0,32,41.319a.423.423,0,0,0-.431-.434ZM16,47.029a15.285,15.285,0,0,1,2.449-2.807,16.627,16.627,0,0,1,3.348-2.51,18.325,18.325,0,0,0-5.374-9.568.667.667,0,0,0-.841,0A18.325,18.325,0,0,0,10.206,41.7,16.334,16.334,0,0,1,13.5,44.17,15.709,15.709,0,0,1,16,47.029Z" transform="translate(224 91.894)" fill="#fff"/>
  </g>
</svg>
