<svg xmlns="http://www.w3.org/2000/svg" width="23.73" height="27.12" viewBox="0 0 23.73 27.12">
  <g id="Category_Icon_-_Events" data-name="Category Icon - Events" transform="translate(-307.136 -120)">
    <path id="Category_Icon_-_Events-2" data-name="Category Icon - Events" d="M23.094,8.475H.636A.637.637,0,0,1,0,7.839V5.932A2.543,2.543,0,0,1,2.543,3.39H5.085V.636A.637.637,0,0,1,5.721,0H7.839a.637.637,0,0,1,.636.636V3.39h6.78V.636A.637.637,0,0,1,15.891,0h2.119a.637.637,0,0,1,.636.636V3.39h2.542A2.543,2.543,0,0,1,23.73,5.932V7.839A.637.637,0,0,1,23.094,8.475ZM.636,10.17H23.094a.637.637,0,0,1,.636.636V24.577a2.543,2.543,0,0,1-2.543,2.542H2.543A2.543,2.543,0,0,1,0,24.577V10.806A.637.637,0,0,1,.636,10.17ZM6.78,20.976a.637.637,0,0,0-.636-.636H4.026a.637.637,0,0,0-.636.636v2.119a.637.637,0,0,0,.636.636H6.144a.637.637,0,0,0,.636-.636Zm0-6.78a.637.637,0,0,0-.636-.636H4.026a.637.637,0,0,0-.636.636v2.119a.637.637,0,0,0,.636.636H6.144a.637.637,0,0,0,.636-.636Zm6.78,6.78a.637.637,0,0,0-.636-.636H10.806a.637.637,0,0,0-.636.636v2.119a.637.637,0,0,0,.636.636h2.119a.637.637,0,0,0,.636-.636Zm0-6.78a.637.637,0,0,0-.636-.636H10.806a.637.637,0,0,0-.636.636v2.119a.637.637,0,0,0,.636.636h2.119a.637.637,0,0,0,.636-.636Zm6.78,6.78a.637.637,0,0,0-.636-.636H17.586a.637.637,0,0,0-.636.636v2.119a.637.637,0,0,0,.636.636H19.7a.637.637,0,0,0,.636-.636Zm0-6.78a.637.637,0,0,0-.636-.636H17.586a.637.637,0,0,0-.636.636v2.119a.637.637,0,0,0,.636.636H19.7a.637.637,0,0,0,.636-.636Z" transform="translate(307.136 120)" fill="#fff"/>
  </g>
</svg>
