<svg xmlns="http://www.w3.org/2000/svg" width="24" height="27.429" viewBox="0 0 24 27.429">
  <g id="Category_Icon_-_Shopping" data-name="Category Icon  - Shopping" transform="translate(-34 -128)">
    <path id="Category_Icon_-_Shopping-2" data-name="Category Icon  - Shopping" d="M18.857,8.571V6.857a6.857,6.857,0,1,0-13.714,0V8.571H0V23.143a4.286,4.286,0,0,0,4.286,4.286H19.714A4.286,4.286,0,0,0,24,23.143V8.571ZM8.571,6.857a3.429,3.429,0,1,1,6.857,0V8.571H8.571Zm8.571,6.429A1.286,1.286,0,1,1,18.429,12,1.286,1.286,0,0,1,17.143,13.286Zm-10.286,0A1.286,1.286,0,1,1,8.143,12,1.286,1.286,0,0,1,6.857,13.286Z" transform="translate(34 128)" fill="#fff"/>
  </g>
</svg>
