<svg xmlns="http://www.w3.org/2000/svg" width="24" height="32" viewBox="0 0 24 32">
  <g id="Category_Icon-_Childs" data-name="Category Icon- Childs" transform="translate(-100.105 -120)">
    <path id="Category_Icon-_Childs-2" data-name="Category Icon- Childs" d="M7.5,4.5A4.5,4.5,0,1,1,12,9,4.5,4.5,0,0,1,7.5,4.5Zm15.914.086a2,2,0,0,0-2.828,0L15.172,10H8.829L3.414,4.586A2,2,0,0,0,.586,7.414L6.5,13.328V30a2,2,0,0,0,2,2h1a2,2,0,0,0,2-2V23h1v7a2,2,0,0,0,2,2h1a2,2,0,0,0,2-2V13.328l5.914-5.914A2,2,0,0,0,23.414,4.586Z" transform="translate(100.104 120)" fill="#fff"/>
  </g>
</svg>
