<svg xmlns="http://www.w3.org/2000/svg" width="48.405" height="56" viewBox="0 0 48.405 56">
  <g id="_Map_Marker_-_Sleep_V2_" data-name="ðŸ“Map Marker - Sleep [V2]" transform="translate(-455.595 -312)">
    <path id="_V1_HEXAGONE" data-name="[V1]HEXAGONE" d="M-28.8,0-53,14V42l24.2,14,24.2-14V14Z" transform="translate(508.595 312)" fill="#ed5485"/>
    <g id="Category_Icon_-_Sante" data-name="Category Icon - Sante" transform="translate(240 204.111)">
      <path id="Category_Icon_-_Sante-2" data-name="Category Icon - Sante" d="M31.569,40.884c-1.613.007-7.5.342-11.88,4.611A14.276,14.276,0,0,0,16,50.765,14.276,14.276,0,0,0,12.31,45.5C7.931,41.226,2.044,40.891.43,40.884A.423.423,0,0,0,0,41.319,15.384,15.384,0,0,0,4.931,52.391,14.746,14.746,0,0,0,16,56.884a14.745,14.745,0,0,0,11.068-4.493A15.382,15.382,0,0,0,32,41.319a.423.423,0,0,0-.431-.434ZM16,47.029a15.285,15.285,0,0,1,2.449-2.807,16.627,16.627,0,0,1,3.348-2.51,18.325,18.325,0,0,0-5.374-9.568.667.667,0,0,0-.841,0A18.325,18.325,0,0,0,10.206,41.7,16.334,16.334,0,0,1,13.5,44.17,15.709,15.709,0,0,1,16,47.029Z" transform="translate(224 91.894)" fill="#fff"/>
    </g>
  </g>
</svg>
