<svg xmlns="http://www.w3.org/2000/svg" width="48.405" height="56" viewBox="0 0 48.405 56">
  <g id="_Map_Marker_-_Shopping_V2_" data-name="ðŸ“Map Marker - Shopping [V2]" transform="translate(-175.595 -312)">
    <path id="_V1_HEXAGONE" data-name="[V1]HEXAGONE" d="M-28.8,0-53,14V42l24.2,14,24.2-14V14Z" transform="translate(228.595 312)" fill="#ed5485"/>
    <g id="Category_Icon_-_Shopping" data-name="Category Icon  - Shopping" transform="translate(154 198)">
      <path id="Category_Icon_-_Shopping-2" data-name="Category Icon  - Shopping" d="M18.857,8.571V6.857a6.857,6.857,0,1,0-13.714,0V8.571H0V23.143a4.286,4.286,0,0,0,4.286,4.286H19.714A4.286,4.286,0,0,0,24,23.143V8.571ZM8.571,6.857a3.429,3.429,0,1,1,6.857,0V8.571H8.571Zm8.571,6.429A1.286,1.286,0,1,1,18.429,12,1.286,1.286,0,0,1,17.143,13.286Zm-10.286,0A1.286,1.286,0,1,1,8.143,12,1.286,1.286,0,0,1,6.857,13.286Z" transform="translate(34 128)" fill="#fff"/>
    </g>
  </g>
</svg>
