<svg xmlns="http://www.w3.org/2000/svg" width="48.405" height="56" viewBox="0 0 48.405 56">
  <g id="_Map_Marker_-_Sleep_V2_" data-name="ðŸ“Map Marker - Sleep [V2]" transform="translate(-384 -312)">
    <path id="_V1_HEXAGONE" data-name="[V1]HEXAGONE" d="M-28.8,0-53,14V42l24.2,14,24.2-14V14Z" transform="translate(437 312)" fill="#ed5485"/>
    <g id="Category_Icon_-_Dormir" data-name="Category Icon - Dormir" transform="translate(233 205.2)">
      <path id="Category_Icon_-_Dormir-2" data-name="Category Icon - Dormir" d="M8.8,73.6a4,4,0,1,0-4-4A4,4,0,0,0,8.8,73.6Zm17.6-6.4H15.2a.8.8,0,0,0-.8.8v7.2H3.2V64.8a.8.8,0,0,0-.8-.8H.8a.8.8,0,0,0-.8.8V82.4a.8.8,0,0,0,.8.8H2.4a.8.8,0,0,0,.8-.8V80H28.8v2.4a.8.8,0,0,0,.8.8h1.6a.8.8,0,0,0,.8-.8V72.8A5.6,5.6,0,0,0,26.4,67.2Z" transform="translate(160 60.8)" fill="#fff"/>
    </g>
  </g>
</svg>
