<?xml version="1.0" encoding="utf-8"?>
<!-- Generator: Adobe Illustrator 22.0.1, SVG Export Plug-In . SVG Version: 6.00 Build 0)  -->
<svg version="1.1" id="Calque_1" xmlns="http://www.w3.org/2000/svg" xmlns:xlink="http://www.w3.org/1999/xlink" x="0px" y="0px"
	 viewBox="0 0 166.4 50" style="enable-background:new 0 0 166.4 50;" xml:space="preserve">
<style type="text/css">
	.st0{fill:#193556;}
	.st1{fill:url(#SVGID_1_);}
	.st2{fill:url(#SVGID_2_);}
	.st3{fill:url(#SVGID_3_);}
</style>
<g>
	<g>
		<path class="st0" d="M95.4,35.5c-1.8-1.9-2.6-5.1-2.6-9.5c0-3.5,0.6-7.3,1.8-11.3c1.2-4,3.1-7.5,5.7-10.4c2.6-2.9,5.9-4.3,10-4.3
			c2.5,0,4.5,0.5,6.1,1.6c1.5,1.1,2.3,2.8,2.3,5.1c0,1.4-0.3,2.6-0.9,3.4c-0.6,0.8-1.4,1.2-2.6,1.2s-2.1-0.4-2.9-1.3
			c0.6-0.3,1.1-0.9,1.6-1.8c0.5-0.9,0.7-1.8,0.7-2.8c0-0.9-0.2-1.6-0.7-2.2c-0.5-0.6-1.3-0.9-2.3-0.9c-1.8,0-3.4,1.2-5,3.6
			c-1.6,2.4-2.9,5.5-3.9,9.1c-1,3.7-1.5,7.2-1.5,10.6c0,2.5,0.4,4.5,1.3,5.8c0.9,1.3,2.4,2,4.7,2c2,0,3.8-0.4,5.5-1.3
			c1.7-0.9,3.1-2.1,4.3-3.7L118,29c-0.8,2.1-2.1,3.9-3.7,5.2c-1.6,1.4-3.4,2.4-5.2,3.1c-1.9,0.6-3.6,1-5.3,1
			C100,38.3,97.2,37.4,95.4,35.5z"/>
		<path class="st0" d="M117.8,36.3c-1-1-1.5-2.5-1.5-4.5c0-0.8,0.1-1.9,0.4-3.2l3.4-16h7.2l-3.6,17c-0.1,0.5-0.2,1-0.2,1.6
			c0,0.7,0.2,1.1,0.5,1.4c0.3,0.3,0.8,0.4,1.6,0.4c1,0,1.9-0.4,2.7-1.2c0.8-0.8,1.4-1.9,1.8-3.2h2.1c-1.2,3.6-2.8,6-4.8,7.3
			c-1.9,1.3-3.9,1.9-5.8,1.9C120,37.8,118.7,37.3,117.8,36.3z M122.2,8.6c-0.8-0.8-1.1-1.7-1.1-2.8s0.4-2,1.1-2.8
			c0.8-0.8,1.7-1.2,2.8-1.2s2,0.4,2.8,1.2c0.8,0.8,1.2,1.7,1.2,2.8s-0.4,2-1.2,2.8c-0.8,0.8-1.7,1.1-2.8,1.1S123,9.4,122.2,8.6z"/>
		<path class="st0" d="M131.1,36.3c-1-1-1.5-2.5-1.5-4.5c0-0.8,0.1-1.9,0.4-3.2l3-14h-1.6l0.4-2h1.6l1.5-6.9l7.4-1l-1.7,7.9h3
			l-0.4,2h-3l-3.2,15c-0.1,0.5-0.2,1-0.2,1.6c0,0.7,0.2,1.1,0.5,1.4c0.3,0.3,0.8,0.4,1.6,0.4c1,0,1.9-0.4,2.7-1.2
			c0.8-0.8,1.4-1.9,1.8-3.2h2.1c-1.2,3.6-2.8,6-4.8,7.3c-1.9,1.3-3.9,1.9-5.8,1.9C133.4,37.8,132.1,37.3,131.1,36.3z"/>
		<path class="st0" d="M147.1,48.5c-1.2-1-1.8-2.3-1.8-3.9c0-1.5,0.4-2.7,1.1-3.6c0.7-0.9,1.7-1.7,2.9-2.2c1.2-0.5,2.7-1.1,4.7-1.7
			l0.5-2.2c-1.7,1.9-3.7,2.9-6.1,2.9c-1.6,0-2.9-0.5-3.9-1.5c-1-1-1.5-2.5-1.5-4.5c0-0.8,0.1-1.9,0.4-3.2l3.4-16h7.2l-3.6,17
			c-0.1,0.4-0.1,0.8-0.1,1.2c0,1.5,0.5,2.2,1.5,2.2c0.9,0,1.7-0.4,2.4-1.2c0.7-0.8,1.2-1.9,1.6-3.2l3.4-16h7.2l-6.1,29
			c-0.7,3.2-1.8,5.4-3.5,6.6c-1.7,1.2-3.5,1.9-5.6,1.9C149.6,50,148.2,49.5,147.1,48.5z M151.7,44.6c0.5-0.6,0.9-1.6,1.2-3l0.6-2.9
			c-1.8,0.6-3.1,1.3-4.1,2.1c-1,0.8-1.5,1.8-1.5,3.1c0,0.4,0.2,0.8,0.6,1.1s0.9,0.5,1.4,0.5C150.6,45.5,151.2,45.2,151.7,44.6z"/>
	</g>
	<g>
		<g>
			<linearGradient id="SVGID_1_" gradientUnits="userSpaceOnUse" x1="80.9269" y1="26.0444" x2="72.4597" y2="26.2617">
				<stop  offset="0" style="stop-color:#193556"/>
				<stop  offset="0.9406" style="stop-color:#5DB597"/>
			</linearGradient>
			<path class="st1" d="M84.6,33.2C84.6,33.2,84.5,33.2,84.6,33.2l-6.5,0c-0.3,0-0.6-0.1-0.8-0.3c-0.2-0.2-0.4-0.5-0.4-0.8l0-12
				c0-0.7,0.5-1.2,1.2-1.2l6.4,0c0.7,0,1.2,0.5,1.2,1.2l0,12c0,0.3-0.1,0.6-0.4,0.8C85.1,33.1,84.9,33.2,84.6,33.2z M78.1,20
				C78.1,20,78,20,78.1,20L78,32c0,0,0.1,0.1,0.1,0.1l6.4,0c0,0,0.1,0,0.1-0.1l0-12c0,0,0-0.1-0.1-0.1L78.1,20
				C78.1,20,78.1,20,78.1,20z"/>
			<linearGradient id="SVGID_2_" gradientUnits="userSpaceOnUse" x1="80.5121" y1="32.0982" x2="72.0429" y2="32.3155">
				<stop  offset="0" style="stop-color:#193556"/>
				<stop  offset="0.9406" style="stop-color:#5DB597"/>
			</linearGradient>
			<path class="st2" d="M75.6,38.3c-0.2,0-0.4-0.1-0.6-0.2l-10.2-6.2c-0.3-0.2-0.5-0.4-0.5-0.7c-0.1-0.3,0-0.6,0.1-0.9l2.1-3.6
				c0.2-0.3,0.5-0.3,0.8-0.2c0.3,0.2,0.3,0.5,0.2,0.8l-2.1,3.6c0,0,0,0.1,0,0.1l10.2,6.2c0,0,0.1,0,0.1,0l1-1.8
				c0.1-0.3,0.5-0.4,0.7-0.2c0.3,0.1,0.4,0.5,0.2,0.7l-1,1.8C76.4,38.1,76,38.3,75.6,38.3z"/>
			<linearGradient id="SVGID_3_" gradientUnits="userSpaceOnUse" x1="80.3492" y1="25.8779" x2="71.8814" y2="26.0952">
				<stop  offset="0" style="stop-color:#193556"/>
				<stop  offset="0.9406" style="stop-color:#5DB597"/>
			</linearGradient>
			<path class="st3" d="M74.3,33.8c-0.2,0-0.4-0.1-0.5-0.3l-6-10.3c-0.2-0.3-0.2-0.6-0.1-0.9c0.1-0.3,0.3-0.6,0.6-0.7l5.6-3.2
				c0.3-0.2,0.6-0.1,0.8,0.2c0.2,0.3,0.1,0.6-0.2,0.8l-5.6,3.2c0,0-0.1,0.1,0,0.1l6,10.3c0.2,0.3,0.1,0.6-0.2,0.8
				C74.5,33.8,74.4,33.8,74.3,33.8z"/>
		</g>
	</g>
	<g>
		<path class="st0" d="M11.2,6.2l7.4-1l-3.5,16.7c1.6-0.1,3.1-0.8,4.4-2.1c1.4-1.3,2.4-2.8,3.2-4.7c0.8-1.9,1.1-3.7,1.1-5.5
			c0-2-0.5-3.6-1.6-4.9c-1-1.3-2.6-1.9-4.6-1.9c-4.1,0-7.2,1.1-9.5,3.2c-2.3,2.1-3.4,5.1-3.4,9c0,1.2,0.1,2.1,0.3,2.6
			c0.2,0.5,0.4,0.8,0.4,0.8c-1.8,0-3.1-0.4-4-1.1c-0.9-0.8-1.3-2-1.3-3.7c0-2.1,0.9-4.2,2.6-6.2c1.8-2,4-3.6,6.7-4.9
			c2.7-1.2,5.5-1.9,8.2-1.9c2.6,0,4.8,0.5,6.6,1.4c1.8,0.9,3.1,2.1,3.9,3.6c0.9,1.5,1.3,3.1,1.3,4.9c0,2.2-0.6,4.3-1.8,6.4
			c-1.2,2.1-2.9,3.8-5.1,5.1c-2.2,1.3-4.7,2-7.6,2h-0.2L11.6,38H4.4L11.2,6.2z"/>
		<path class="st0" d="M29.4,36.8c-1-1-1.4-2.5-1.4-4.5c0-0.8,0.1-1.9,0.4-3.3l3.4-16H39l-3.6,17c-0.1,0.5-0.2,1-0.2,1.6
			c0,1.2,0.7,1.8,2.2,1.8c1.2,0,2.6-0.4,4.1-1.3c1.5-0.9,2.8-2,3.8-3.4L42.5,13h7l2,10.8c1.5-1.6,2.7-3.1,3.5-4.5
			c0.8-1.4,1.2-2.5,1.2-3.4c0-0.3,0-0.5-0.1-0.6c-0.5,0.1-0.8,0.1-0.8,0.1c-0.8,0-1.4-0.3-1.8-0.8c-0.4-0.5-0.5-1.2-0.5-2
			c0-0.7,0.3-1.3,0.8-1.7c0.5-0.4,1.2-0.6,2-0.6c1.1,0,1.9,0.4,2.5,1.2c0.6,0.8,0.9,1.9,0.9,3.2c0,1.6-0.6,3.3-1.7,5.2
			c-1.1,1.8-2.9,4.1-5.5,6.7l0.5,2.5c0.3,1.7,0.6,2.8,1,3.5c0.4,0.6,1.1,0.9,2.1,0.9c0.6,0,1.1-0.1,1.6-0.3
			c-0.1,1.7-0.7,2.9-1.8,3.8c-1.1,0.9-2.3,1.3-3.7,1.3c-1.6,0-2.8-0.5-3.6-1.6c-0.9-1.1-1.6-2.8-2.2-5.3c-1.8,2-3.8,3.6-6,4.9
			c-2.2,1.3-4.5,1.9-6.6,1.9C31.6,38.3,30.4,37.8,29.4,36.8z M33.9,9.1c-0.8-0.8-1.1-1.7-1.1-2.8s0.4-2,1.1-2.8
			c0.8-0.8,1.7-1.2,2.8-1.2s2,0.4,2.8,1.2c0.8,0.8,1.2,1.7,1.2,2.8s-0.4,2-1.2,2.8c-0.8,0.8-1.7,1.1-2.8,1.1S34.7,9.9,33.9,9.1z"/>
	</g>
</g>
</svg>
